<svg width="19.500000" height="19.500000" viewBox="0 0 19.5 19.5" fill="none" xmlns="http://www.w3.org/2000/svg" xmlns:xlink="http://www.w3.org/1999/xlink">
	<desc>
			Created with Pixso.
	</desc>
	<defs/>
	<path id="Path" d="M14.25 0L5.25 0C2.35 0 0 2.35 0 5.25L0 14.25C0 17.15 2.34 19.5 5.24 19.5L14.25 19.5C17.15 19.5 19.5 17.15 19.5 14.25L19.5 5.24C19.5 2.34 17.15 0 14.25 0Z" fill="#000000" fill-opacity="1.000000" fill-rule="nonzero"/>
	<path id="Path" d="M5.87 8.1C6.24 8.1 6.56 8.38 6.61 8.74L6.62 8.85L6.62 14.25C6.62 14.66 6.28 15 5.87 15C5.49 15 5.17 14.71 5.12 14.35L5.12 14.25L5.12 8.85C5.12 8.43 5.45 8.1 5.87 8.1Z" fill="#F0F4FA" fill-opacity="1.000000" fill-rule="nonzero"/>
	<path id="Path" d="M11.71 8.1C13.31 8.1 14.62 9.34 14.71 10.92L14.71 11.1L14.71 14.25C14.71 14.66 14.38 15 13.96 15C13.58 15 13.27 14.71 13.22 14.35L13.21 14.25L13.21 11.1C13.21 10.27 12.54 9.6 11.71 9.6C10.93 9.6 10.29 10.19 10.22 10.95L10.21 11.1L10.21 14.25C10.21 14.66 9.88 15 9.46 15C9.08 15 8.77 14.71 8.72 14.35L8.71 14.25L8.71 11.1C8.71 9.44 10.06 8.1 11.71 8.1Z" fill="#F0F4FA" fill-opacity="1.000000" fill-rule="nonzero"/>
	<path id="Path" d="M5.86 4.83L5.98 4.84C6.46 4.9 6.84 5.31 6.84 5.81C6.84 6.35 6.4 6.78 5.86 6.78C5.33 6.78 4.89 6.35 4.89 5.81C4.88 5.31 5.26 4.9 5.75 4.84L5.86 4.83Z" fill="#F0F4FA" fill-opacity="1.000000" fill-rule="nonzero"/>
</svg>
