<svg width="19.500000" height="16.500000" viewBox="0 0 19.5 16.5" fill="none" xmlns="http://www.w3.org/2000/svg" xmlns:xlink="http://www.w3.org/1999/xlink">
	<desc>
			Created with Pixso.
	</desc>
	<defs/>
	<path id="Path" d="M14.75 0L4.75 0C2.12 0 0 2.12 0 4.75L0 11.75C0 14.37 2.12 16.5 4.75 16.5L14.75 16.5C17.37 16.5 19.5 14.37 19.5 11.75L19.5 4.75C19.5 2.12 17.37 0 14.75 0Z" fill="#000000" fill-opacity="1.000000" fill-rule="nonzero"/>
	<path id="Path" d="M4.06 4.93C4.21 4.58 4.59 4.41 4.95 4.51L5.04 4.54L9.25 6.37C9.52 6.49 9.83 6.51 10.11 6.43L10.25 6.38L14.45 4.56C14.83 4.39 15.27 4.57 15.43 4.95C15.58 5.3 15.45 5.7 15.13 5.89L15.04 5.94L10.84 7.75C10.2 8.03 9.49 8.05 8.84 7.82L8.65 7.75L4.45 5.92C4.07 5.75 3.89 5.31 4.06 4.93Z" fill="#D8DCE1" fill-opacity="1.000000" fill-rule="nonzero"/>
</svg>
