<svg width="80.000000" height="32.000000" viewBox="0 0 80 32" fill="none" xmlns="http://www.w3.org/2000/svg" xmlns:xlink="http://www.w3.org/1999/xlink">
	<desc>
			Created with Pixso.
	</desc>
	<defs>
		<clipPath id="clip2_2008">
			<rect id="amazon badge" width="80.000000" height="32.000000" fill="white" fill-opacity="0"/>
		</clipPath>
	</defs>
	<rect id="amazon badge" width="80.000000" height="32.000000" fill="#FFFFFF" fill-opacity="0"/>
	<g clip-path="url(#clip2_2008)">
		<path id="path8" d="M49.72 25.91C45.09 29.32 38.38 31.14 32.61 31.14C24.51 31.14 17.22 28.15 11.7 23.16C11.27 22.77 11.66 22.24 12.18 22.54C18.13 26.01 25.49 28.09 33.09 28.09C38.22 28.09 43.86 27.03 49.05 24.83C49.83 24.5 50.49 25.34 49.72 25.91Z" fill="#44464A" fill-opacity="1.000000" fill-rule="nonzero"/>
		<path id="path10" d="M51.64 23.71C51.05 22.95 47.73 23.35 46.24 23.53C45.79 23.58 45.72 23.19 46.13 22.91C48.77 21.04 53.11 21.58 53.62 22.2C54.13 22.83 53.49 27.18 51 29.26C50.62 29.58 50.26 29.41 50.43 28.99C50.98 27.59 52.24 24.47 51.64 23.71Z" fill="#44464A" fill-opacity="1.000000" fill-rule="nonzero"/>
		<path id="path12" d="M46.35 9.76L46.35 7.95C46.35 7.68 46.55 7.5 46.8 7.5L54.91 7.5C55.17 7.5 55.37 7.68 55.37 7.95L55.37 9.5C55.37 9.76 55.15 10.1 54.76 10.64L50.56 16.63C52.12 16.59 53.77 16.83 55.19 17.62C55.5 17.8 55.59 18.07 55.62 18.33L55.62 20.26C55.62 20.52 55.32 20.83 55.02 20.67C52.53 19.36 49.22 19.22 46.46 20.69C46.18 20.84 45.89 20.53 45.89 20.27L45.89 18.44C45.89 18.14 45.89 17.64 46.18 17.19L51.05 10.22L46.81 10.22C46.55 10.22 46.35 10.03 46.35 9.76Z" fill="#44464A" fill-opacity="1.000000" fill-rule="nonzero"/>
		<path id="path14" d="M16.79 21.05L14.33 21.05C14.09 21.04 13.91 20.86 13.89 20.63L13.89 7.98C13.89 7.73 14.1 7.53 14.36 7.53L16.66 7.53C16.9 7.54 17.09 7.72 17.11 7.95L17.11 9.61L17.15 9.61C17.75 8.01 18.88 7.26 20.4 7.26C21.94 7.26 22.9 8.01 23.6 9.61C24.19 8.01 25.55 7.26 27 7.26C28.04 7.26 29.17 7.69 29.86 8.65C30.64 9.71 30.48 11.26 30.48 12.61L30.47 20.6C30.47 20.85 30.26 21.05 30 21.05L27.54 21.05C27.29 21.04 27.09 20.84 27.09 20.6L27.09 13.89C27.09 13.36 27.14 12.03 27.02 11.52C26.84 10.67 26.29 10.43 25.57 10.43C24.98 10.43 24.35 10.83 24.1 11.47C23.85 12.11 23.87 13.17 23.87 13.89L23.87 20.6C23.87 20.85 23.66 21.05 23.4 21.05L20.94 21.05C20.69 21.04 20.49 20.84 20.49 20.6L20.49 13.89C20.49 12.48 20.72 10.4 18.97 10.4C17.2 10.4 17.27 12.43 17.27 13.89L17.27 20.6C17.27 20.85 17.06 21.05 16.79 21.05Z" fill="#44464A" fill-opacity="1.000000" fill-rule="nonzero"/>
		<path id="path16" d="M62.35 7.26C66 7.26 67.98 10.4 67.98 14.4C67.98 18.26 65.8 21.32 62.35 21.32C58.76 21.32 56.8 18.18 56.8 14.26C56.8 10.32 58.78 7.26 62.35 7.26ZM62.37 9.85C60.55 9.85 60.44 12.32 60.44 13.86C60.44 15.41 60.41 18.71 62.35 18.71C64.26 18.71 64.35 16.05 64.35 14.42C64.35 13.36 64.3 12.08 63.98 11.07C63.7 10.19 63.15 9.85 62.37 9.85Z" fill="#44464A" fill-opacity="1.000000" fill-rule="nonzero"/>
		<path id="path18" d="M72.73 21.05L70.27 21.05C70.03 21.04 69.83 20.84 69.83 20.6L69.83 7.94C69.85 7.71 70.05 7.53 70.3 7.53L72.59 7.53C72.8 7.54 72.98 7.69 73.03 7.88L73.03 9.82L73.07 9.82C73.76 8.09 74.73 7.26 76.43 7.26C77.54 7.26 78.61 7.66 79.31 8.75C79.95 9.77 79.95 11.47 79.95 12.69L79.95 20.65C79.92 20.88 79.72 21.05 79.48 21.05L77.01 21.05C76.78 21.04 76.59 20.87 76.57 20.65L76.57 13.78C76.57 12.4 76.73 10.38 75.03 10.38C74.43 10.38 73.87 10.78 73.6 11.39C73.25 12.16 73.21 12.93 73.21 13.78L73.21 20.6C73.21 20.85 72.99 21.05 72.73 21.05Z" fill="#44464A" fill-opacity="1.000000" fill-rule="nonzero"/>
		<path id="use28" d="M39.89 15.01L39.89 14.48C38.11 14.48 36.22 14.86 36.22 16.96C36.22 18.02 36.78 18.74 37.72 18.74C38.41 18.74 39.04 18.32 39.43 17.62C39.91 16.77 39.89 15.97 39.89 15.01ZM42.37 21.02C42.21 21.16 41.97 21.17 41.79 21.08C40.97 20.4 40.83 20.08 40.38 19.43C39.02 20.81 38.07 21.23 36.31 21.23C34.24 21.23 32.63 19.95 32.63 17.39C32.63 15.39 33.71 14.02 35.25 13.36C36.59 12.77 38.46 12.66 39.89 12.5L39.89 12.18C39.89 11.6 39.93 10.9 39.59 10.4C39.29 9.94 38.71 9.76 38.21 9.76C37.27 9.76 36.43 10.24 36.22 11.24C36.18 11.46 36.02 11.68 35.8 11.69L33.41 11.43C33.2 11.38 32.98 11.22 33.04 10.91C33.59 8.02 36.21 7.14 38.55 7.14C39.75 7.14 41.32 7.46 42.26 8.37C43.46 9.49 43.35 10.98 43.35 12.61L43.35 16.45C43.35 17.6 43.83 18.11 44.28 18.73C44.44 18.96 44.47 19.22 44.27 19.39C43.77 19.81 42.87 20.59 42.38 21.03L42.37 21.02Z" fill="#44464A" fill-opacity="1.000000" fill-rule="nonzero"/>
		<path id="path30" d="M7.58 15.01L7.58 14.48C5.79 14.48 3.91 14.86 3.91 16.96C3.91 18.02 4.46 18.74 5.41 18.74C6.1 18.74 6.72 18.32 7.12 17.62C7.6 16.77 7.58 15.97 7.58 15.01ZM10.06 21.02C9.9 21.16 9.66 21.17 9.48 21.08C8.66 20.4 8.52 20.08 8.07 19.43C6.71 20.81 5.76 21.23 4 21.23C1.93 21.23 0.31 19.95 0.31 17.39C0.31 15.39 1.4 14.02 2.94 13.36C4.28 12.77 6.15 12.66 7.58 12.5L7.58 12.18C7.58 11.6 7.62 10.9 7.28 10.4C6.98 9.94 6.4 9.76 5.9 9.76C4.96 9.76 4.12 10.24 3.91 11.24C3.87 11.46 3.71 11.68 3.49 11.69L1.09 11.43C0.89 11.38 0.67 11.22 0.73 10.91C1.28 8.02 3.89 7.14 6.24 7.14C7.44 7.14 9 7.46 9.95 8.37C11.15 9.49 11.04 10.98 11.04 12.61L11.04 16.45C11.04 17.6 11.51 18.11 11.97 18.73C12.12 18.96 12.16 19.22 11.96 19.39C11.46 19.81 10.56 20.59 10.07 21.03L10.06 21.02Z" fill="#44464A" fill-opacity="1.000000" fill-rule="nonzero"/>
	</g>
</svg>
