<svg width="123.000000" height="30.000000" viewBox="0 0 123 30" fill="none" xmlns="http://www.w3.org/2000/svg" xmlns:xlink="http://www.w3.org/1999/xlink">
	<desc>
			Created with Pixso.
	</desc>
	<defs/>
	<path id="Vector" d="M122 15.23C122 16.57 121.56 17.6 120.69 18.3C119.82 19.01 118.7 19.48 117.09 19.48C114.9 19.48 113.84 19.19 112.37 18.82C112.24 18.79 112.15 18.67 112.15 18.54L112.15 17.14C112.15 16.96 112.33 16.83 112.5 16.87C113.98 17.25 115.03 17.58 116.66 17.58C117.23 17.58 117.73 17.5 118.15 17.36C118.57 17.2 118.86 17 119.02 16.76C119.2 16.53 119.33 16.31 119.4 16.11C119.47 15.91 119.55 15.56 119.55 15.4C119.55 14.91 119.31 14.51 118.85 14.19C118.42 13.86 117.32 13.59 116.48 13.36C115.64 13.13 114.43 12.68 113.56 12.07C112.7 11.44 112.15 10.57 112.15 9.25C112.15 6.71 113.83 5.24 117.18 5.24C118.91 5.24 120.55 5.78 121.15 6C121.25 6.04 121.32 6.15 121.32 6.26L121.32 7.48C121.32 7.66 121.15 7.79 120.97 7.75C119.61 7.41 118.82 7.22 117.31 7.22C116.75 7.22 116.27 7.29 115.87 7.44C115.48 7.57 115.2 7.74 115.03 7.95C114.87 8.15 114.75 8.33 114.68 8.5C114.63 8.66 114.6 8.82 114.6 8.99C114.6 9.48 114.8 9.88 115.2 10.21C115.59 10.53 116.19 10.89 116.74 11.01C117.57 11.19 118.27 11.41 118.79 11.59C119.32 11.76 119.85 12 120.39 12.33C120.94 12.64 121.33 13.03 121.59 13.52C121.86 13.99 122 14.56 122 15.23Z" fill="#44464A" fill-opacity="1.000000" fill-rule="nonzero"/>
	<path id="Vector" d="M92.28 16.32L92.28 13.38C92.28 13.38 90.77 13.13 89.58 13.13C88.39 13.13 87.68 13.33 87.14 13.83C86.76 14.19 86.53 14.65 86.53 15.46C86.53 16.18 86.64 16.54 87.14 16.95C87.65 17.35 88.59 17.46 88.88 17.46C90.17 17.46 91.3 17.08 92.28 16.32ZM89.16 7.28C88.27 7.28 86.56 7.59 85.62 7.9C85.38 7.98 85 7.76 85 7.5L85 6.36C85 6.27 85.04 6.18 85.12 6.14C85.96 5.67 88.27 5.24 89.7 5.24C91.42 5.24 92.69 5.56 93.5 6.22C94.32 6.87 94.72 8.04 94.72 9.72L94.72 18.81C94.72 18.96 94.6 19.09 94.44 19.09L92.93 19.09C92.81 19.09 92.7 19.01 92.67 18.9L92.29 17.77C92.29 17.75 92.27 17.73 92.24 17.73C92.23 17.73 92.21 17.75 92.21 17.75C91 18.82 89.92 19.45 88.28 19.45C86.94 19.45 85.88 19.09 85.11 18.37C84.33 17.62 83.94 16.66 83.94 15.46C83.94 14.03 84.45 12.98 85.49 12.31C86.73 11.36 87.91 11.36 89.23 11.36C90.55 11.36 92.28 11.63 92.28 11.63L92.28 9.86C92.28 8.95 92.04 8.3 91.55 7.9C91.06 7.48 90.26 7.28 89.16 7.28Z" fill="#44464A" fill-opacity="1.000000" fill-rule="nonzero"/>
	<path id="Vector" d="M107.44 19.08L107.25 17.99C107.25 17.97 107.22 17.96 107.2 17.96C107.19 17.96 107.17 17.97 107.17 17.97C106.05 19.05 104.03 19.44 102.39 19.44C99.03 19.44 97.36 17.09 97.36 12.38C97.36 10.24 97.77 8.53 98.58 7.25C99.41 5.96 100.73 5.32 102.52 5.32C104.11 5.32 106.09 5.98 107.17 7.03C107.17 7.03 107.19 7.04 107.2 7.04C107.22 7.04 107.24 7.02 107.24 7L107.24 -0.12C107.24 -0.28 107.37 -0.4 107.52 -0.4L109.4 -0.4C109.56 -0.4 109.68 -0.28 109.68 -0.12L109.68 19.03C109.68 19.19 109.56 19.31 109.4 19.31L107.72 19.31C107.58 19.31 107.47 19.22 107.44 19.08ZM103.34 7.35C101.07 7.35 99.94 9.03 99.94 12.38C99.94 15.73 101.07 17.4 103.34 17.4C104.51 17.4 106.24 17.17 107.24 16.41L107.24 8.67C106.28 7.89 104.55 7.35 103.34 7.35Z" fill="#44464A" fill-opacity="1.000000" fill-rule="nonzero"/>
	<path id="path8" d="M49.01 23.86C44.42 27.24 37.76 29.05 32.03 29.05C24 29.05 16.77 26.08 11.3 21.13C10.87 20.75 11.25 20.22 11.77 20.52C17.67 23.95 24.97 26.02 32.51 26.02C37.6 26.02 43.2 24.97 48.34 22.78C49.12 22.45 49.77 23.29 49.01 23.86Z" fill="#44464A" fill-opacity="1.000000" fill-rule="nonzero"/>
	<path id="path10" d="M50.92 21.67C50.33 20.92 47.04 21.32 45.56 21.5C45.11 21.55 45.04 21.16 45.44 20.88C48.07 19.03 52.37 19.56 52.88 20.18C53.38 20.8 52.75 25.12 50.28 27.18C49.9 27.5 49.54 27.33 49.71 26.91C50.26 25.53 51.5 22.43 50.92 21.67Z" fill="#44464A" fill-opacity="1.000000" fill-rule="nonzero"/>
	<path id="path12" d="M45.66 7.84L45.66 6.04C45.66 5.77 45.87 5.59 46.12 5.59L54.15 5.59C54.41 5.59 54.62 5.77 54.62 6.04L54.62 7.58C54.61 7.84 54.4 8.18 54.01 8.71L49.85 14.65C51.39 14.62 53.03 14.85 54.43 15.64C54.75 15.82 54.83 16.08 54.86 16.34L54.86 18.25C54.86 18.51 54.57 18.82 54.27 18.66C51.79 17.36 48.51 17.22 45.78 18.67C45.5 18.83 45.2 18.52 45.2 18.26L45.2 16.44C45.2 16.15 45.21 15.65 45.5 15.21L50.33 8.29L46.13 8.29C45.87 8.29 45.66 8.11 45.66 7.84Z" fill="#44464A" fill-opacity="1.000000" fill-rule="nonzero"/>
	<path id="path14" d="M16.34 19.04L13.9 19.04C13.66 19.02 13.48 18.85 13.46 18.62L13.46 6.07C13.46 5.82 13.67 5.62 13.93 5.62L16.21 5.62C16.45 5.63 16.64 5.82 16.66 6.04L16.66 7.68L16.7 7.68C17.3 6.1 18.41 5.36 19.92 5.36C21.45 5.36 22.41 6.1 23.09 7.68C23.69 6.1 25.03 5.36 26.47 5.36C27.5 5.36 28.62 5.78 29.3 6.73C30.08 7.79 29.92 9.32 29.92 10.66L29.91 18.58C29.91 18.84 29.7 19.04 29.44 19.04L27 19.04C26.76 19.02 26.56 18.83 26.56 18.58L26.56 11.93C26.56 11.4 26.61 10.08 26.49 9.58C26.31 8.74 25.76 8.5 25.05 8.5C24.46 8.5 23.84 8.9 23.59 9.53C23.34 10.16 23.37 11.22 23.37 11.93L23.37 18.58C23.37 18.84 23.16 19.04 22.89 19.04L20.45 19.04C20.21 19.02 20.01 18.83 20.01 18.58L20.01 11.93C20.01 10.53 20.24 8.47 18.5 8.47C16.75 8.47 16.81 10.48 16.81 11.93L16.81 18.58C16.81 18.84 16.6 19.04 16.34 19.04Z" fill="#44464A" fill-opacity="1.000000" fill-rule="nonzero"/>
	<path id="path16" d="M61.54 5.36C65.16 5.36 67.13 8.47 67.13 12.44C67.13 16.26 64.96 19.3 61.54 19.3C57.97 19.3 56.03 16.18 56.03 12.3C56.03 8.4 58 5.36 61.54 5.36ZM61.56 7.92C59.75 7.92 59.64 10.38 59.64 11.91C59.64 13.44 59.62 16.71 61.54 16.71C63.43 16.71 63.52 14.07 63.52 12.46C63.52 11.4 63.48 10.14 63.16 9.13C62.88 8.26 62.33 7.92 61.56 7.92Z" fill="#44464A" fill-opacity="1.000000" fill-rule="nonzero"/>
	<path id="path18" d="M71.83 19.04L69.4 19.04C69.15 19.02 68.96 18.83 68.96 18.58L68.95 6.03C68.97 5.8 69.18 5.62 69.42 5.62L71.69 5.62C71.9 5.63 72.08 5.78 72.13 5.97L72.13 7.89L72.17 7.89C72.86 6.18 73.82 5.36 75.5 5.36C76.6 5.36 77.67 5.75 78.36 6.84C79 7.84 79 9.53 79 10.74L79 18.64C78.97 18.86 78.77 19.04 78.53 19.04L76.08 19.04C75.85 19.02 75.67 18.86 75.64 18.64L75.64 11.83C75.64 10.46 75.8 8.45 74.11 8.45C73.52 8.45 72.97 8.85 72.7 9.45C72.35 10.22 72.31 10.98 72.31 11.83L72.31 18.58C72.31 18.84 72.09 19.04 71.83 19.04Z" fill="#44464A" fill-opacity="1.000000" fill-rule="nonzero"/>
	<path id="use28" d="M39.25 13.04L39.25 12.52C37.49 12.52 35.62 12.89 35.62 14.98C35.62 16.03 36.17 16.75 37.11 16.75C37.79 16.75 38.41 16.33 38.8 15.64C39.28 14.79 39.25 14 39.25 13.04ZM41.72 19C41.56 19.15 41.32 19.16 41.14 19.06C40.33 18.39 40.19 18.08 39.74 17.43C38.4 18.8 37.45 19.21 35.71 19.21C33.65 19.21 32.05 17.94 32.05 15.4C32.05 13.42 33.13 12.06 34.66 11.4C35.98 10.82 37.84 10.72 39.25 10.56L39.25 10.24C39.25 9.66 39.3 8.97 38.96 8.47C38.66 8.02 38.09 7.83 37.59 7.83C36.65 7.83 35.82 8.31 35.62 9.3C35.58 9.52 35.42 9.74 35.2 9.75L32.82 9.49C32.62 9.45 32.4 9.29 32.46 8.98C33.01 6.1 35.6 5.24 37.93 5.24C39.12 5.24 40.67 5.55 41.61 6.46C42.8 7.57 42.69 9.05 42.69 10.66L42.69 14.47C42.69 15.62 43.16 16.12 43.61 16.74C43.77 16.96 43.8 17.22 43.6 17.39C43.1 17.8 42.22 18.58 41.73 19.01L41.72 19Z" fill="#44464A" fill-opacity="1.000000" fill-rule="nonzero"/>
	<path id="path30" d="M7.2 13.04L7.2 12.52C5.43 12.52 3.56 12.89 3.56 14.98C3.56 16.03 4.11 16.75 5.05 16.75C5.74 16.75 6.35 16.33 6.74 15.64C7.22 14.79 7.2 14 7.2 13.04ZM9.67 19C9.5 19.15 9.27 19.16 9.09 19.06C8.28 18.39 8.13 18.08 7.68 17.43C6.34 18.8 5.39 19.21 3.65 19.21C1.6 19.21 0 17.94 0 15.4C0 13.42 1.07 12.06 2.6 11.4C3.93 10.82 5.78 10.72 7.2 10.55L7.2 10.24C7.2 9.66 7.24 8.97 6.9 8.47C6.6 8.02 6.03 7.83 5.53 7.83C4.6 7.83 3.77 8.31 3.56 9.3C3.52 9.52 3.36 9.74 3.14 9.75L0.77 9.49C0.57 9.45 0.35 9.29 0.4 8.98C0.95 6.1 3.55 5.24 5.87 5.24C7.06 5.24 8.62 5.55 9.56 6.46C10.75 7.57 10.63 9.05 10.63 10.66L10.63 14.47C10.63 15.62 11.11 16.12 11.55 16.74C11.71 16.96 11.75 17.22 11.55 17.39C11.05 17.8 10.16 18.58 9.67 19.01L9.67 19Z" fill="#44464A" fill-opacity="1.000000" fill-rule="nonzero"/>
</svg>
