<svg width="56.000000" height="56.000000" viewBox="0 0 56 56" fill="none" xmlns="http://www.w3.org/2000/svg" xmlns:xlink="http://www.w3.org/1999/xlink">
	<desc>
			Created with Pixso.
	</desc>
	<defs>
		<linearGradient id="paint_linear_2_21080_0" x1="55.117378" y1="41.070995" x2="5.720482" y2="20.635887" gradientUnits="userSpaceOnUse">
			<stop stop-color="#B470EB" stop-opacity="0.000000"/>
			<stop offset="1.000000" stop-color="#B470EB"/>
		</linearGradient>
		<linearGradient id="paint_linear_2_21081_0" x1="49.693508" y1="38.482925" x2="11.108785" y2="22.520710" gradientUnits="userSpaceOnUse">
			<stop stop-color="#B470EB" stop-opacity="0.000000"/>
			<stop offset="1.000000" stop-color="#B470EB"/>
		</linearGradient>
	</defs>
	<path id="Ellipse 6484" d="M19.09 46.49C18.78 46.35 15.23 44.45 14.93 44.28C6.68 39.52 4.61 27.64 10.32 17.76C16.02 7.88 27.34 3.73 35.59 8.5L38.59 10.25L40.09 11.12" stroke="#000000" stroke-opacity="1.000000" stroke-width="1.200000" stroke-linecap="round"/>
	<path id="Ellipse 6484" d="" fill="url(#paint_linear_2_21080_0)" fill-opacity="0" fill-rule="nonzero"/>
	<path id="Ellipse 6484" d="M15.4 20.61C21.09 10.74 32.4 6.6 40.66 11.36C48.91 16.13 50.98 27.99 45.28 37.86C39.58 47.73 28.27 51.87 20.02 47.11C11.76 42.35 9.7 30.48 15.4 20.61Z" stroke="#000000" stroke-opacity="1.000000" stroke-width="1.200000"/>
	<path id="Ellipse 6485" d="M30.5 9.89L30.5 12.48M12.68 29.53L15.07 29.53M30.5 45.89L30.5 48.42M45.59 29.53L47.93 29.53" stroke="#000000" stroke-opacity="1.000000" stroke-width="1.200000"/>
	<path id="Ellipse 6488" d="M37.37 36.73L36 35.29L30.5 29.52L30.5 21.7L30.5 17.79" stroke="#000000" stroke-opacity="1.000000" stroke-width="1.200000"/>
</svg>
