<svg width="60.000000" height="60.000000" viewBox="0 0 60 60" fill="none" xmlns="http://www.w3.org/2000/svg" xmlns:xlink="http://www.w3.org/1999/xlink">
	<desc>
			Created with Pixso.
	</desc>
	<defs>
		<clipPath id="clip2_20885">
			<rect id="icon" width="60.000000" height="60.000000" fill="white" fill-opacity="0"/>
		</clipPath>
		<radialGradient id="paint_radial_2_20887_0" cx="0.000000" cy="0.000000" r="1.000000" gradientUnits="userSpaceOnUse" gradientTransform="translate(29.9998 30.0002) rotate(90) scale(37.6015 32.4151)">
			<stop stop-color="#FFFFFF"/>
			<stop offset="1.000000" stop-color="#FFFFFF" stop-opacity="0.000000"/>
		</radialGradient>
		<linearGradient id="paint_linear_2_20889_0" x1="52.077858" y1="37.652481" x2="5.881794" y2="18.541561" gradientUnits="userSpaceOnUse">
			<stop stop-color="#B470EB" stop-opacity="0.000000"/>
			<stop offset="1.000000" stop-color="#B470EB"/>
		</linearGradient>
		<linearGradient id="paint_linear_2_20891_0" x1="48.793736" y1="41.489441" x2="2.597660" y2="22.378536" gradientUnits="userSpaceOnUse">
			<stop stop-color="#B470EB" stop-opacity="0.000000"/>
			<stop offset="1.000000" stop-color="#B470EB"/>
		</linearGradient>
		<linearGradient id="paint_linear_2_20895_0" x1="58.477753" y1="41.849884" x2="12.281693" y2="22.738962" gradientUnits="userSpaceOnUse">
			<stop stop-color="#B470EB" stop-opacity="0.000000"/>
			<stop offset="1.000000" stop-color="#B470EB"/>
		</linearGradient>
		<linearGradient id="paint_linear_2_21055_0" x1="30.022423" y1="9.028153" x2="36.569912" y2="58.590580" gradientUnits="userSpaceOnUse">
			<stop stop-color="#B470EB" stop-opacity="0.000000"/>
			<stop offset="1.000000" stop-color="#B470EB"/>
		</linearGradient>
	</defs>
	<g clip-path="url(#clip2_20885)">
		<path id="Vector 7120" d="M29.99 1L29.99 59M42.49 8.39L29.99 1L17.49 8.39L4.99 15.78L4.99 30.01L4.99 44.23L17.49 51.61L29.99 59L42.49 51.6L54.99 44.21L54.99 30L54.99 15.78L42.49 8.39ZM4.99 44.23L17.49 37.12L42.49 22.89L54.99 15.78M54.99 44.21L17.49 22.89L4.99 15.78" stroke="#B470EB" stroke-opacity="0.250000" stroke-width="1.000000"/>
		<path id="Vector 7120" d="M29.99 1L29.99 59M42.49 8.39L29.99 1L17.49 8.39L4.99 15.78L4.99 30.01L4.99 44.23L17.49 51.61L29.99 59L42.49 51.6L54.99 44.21L54.99 30L54.99 15.78L42.49 8.39ZM4.99 44.23L17.49 37.12L42.49 22.89L54.99 15.78M54.99 44.21L17.49 22.89L4.99 15.78" stroke="url(#paint_radial_2_20887_0)" stroke-opacity="1.000000" stroke-width="1.000000"/>
		<path id="Ellipse 6484" d="" fill="url(#paint_linear_2_20889_0)" fill-opacity="0" fill-rule="nonzero"/>
		<path id="Ellipse 6484" d="M38.13 8.92C40.95 10.55 43.12 13.16 44.35 16.42L28.49 25.64L28.53 7.3C31.96 6.73 35.31 7.29 38.13 8.92Z" stroke="#000000" stroke-opacity="1.000000" stroke-width="1.200000"/>
		<path id="Vector 11589" d="M25.99 12.99L25.99 17.99L30.99 15.99L25.99 12.99Z" fill="#FFFFFF" fill-opacity="1.000000" fill-rule="evenodd"/>
		<path id="Ellipse 6487" d="" fill="url(#paint_linear_2_20891_0)" fill-opacity="0" fill-rule="nonzero"/>
		<path id="Ellipse 6487" d="M25.65 12.08L25.62 30.42L41.48 21.21C42.78 24.65 42.95 28.63 41.98 32.56C41.01 36.5 38.95 40.18 36.1 43.08C33.25 45.98 29.76 47.93 26.14 48.66C22.52 49.39 18.96 48.86 15.97 47.14C12.99 45.42 10.74 42.6 9.56 39.1C8.38 35.6 8.33 31.6 9.41 27.68C10.49 23.77 12.65 20.14 15.57 17.33C18.49 14.52 22.02 12.68 25.65 12.08L31.99 16.49" stroke="#000000" stroke-opacity="1.000000" stroke-width="1.200000"/>
		<path id="Vector 11590" d="M44 29L44 21L29 21L29 29L44 29Z" fill="#FFFFFF" fill-opacity="1.000000" fill-rule="evenodd"/>
		<path id="Ellipse 6489" d="M34.93 11.5C38.36 10.93 41.71 11.49 44.53 13.12C47.36 14.75 49.53 17.36 50.75 20.62L34.89 29.84L34.93 11.5Z" fill="#FFFFFF" fill-opacity="1.000000" fill-rule="nonzero"/>
		<path id="Ellipse 6484" d="" fill="url(#paint_linear_2_20895_0)" fill-opacity="0" fill-rule="nonzero"/>
		<path id="Ellipse 6484" d="M28.5 7.5L34.93 11.5C38.36 10.93 41.71 11.49 44.53 13.12C47.36 14.75 49.53 17.36 50.75 20.62L34.89 29.84L32 28M34.89 29.84L34.93 11.5M44.53 13.12L39 9.5" stroke="#000000" stroke-opacity="1.000000" stroke-width="1.200000"/>
		<path id="Ellipse 6487" d="M47.89 25.41C49.18 28.85 49.35 32.83 48.39 36.76C47.42 40.7 45.36 44.38 42.51 47.28C39.66 50.17 36.17 52.13 32.54 52.86C28.92 53.59 25.36 53.06 22.38 51.34C19.39 49.62 17.15 46.8 15.97 43.3C14.79 39.8 14.73 35.8 15.81 31.88C16.9 27.97 19.05 24.34 21.98 21.53C24.9 18.72 28.43 16.88 32.05 16.28L32.02 34.62L47.89 25.41Z" fill="#FFFFFF" fill-opacity="1.000000" fill-rule="nonzero"/>
		<mask id="mask2_20898" mask-type="alpha" maskUnits="userSpaceOnUse" x="9.499573" y="10.000244" width="45.500000" height="49.500000">
			<path id="Ellipse 6724" d="M10.99 10.75C10.99 11.16 10.66 11.5 10.24 11.5C9.83 11.5 9.49 11.16 9.49 10.75C9.49 10.33 9.83 10 10.24 10C10.66 10 10.99 10.33 10.99 10.75Z" fill="#B470EB" fill-opacity="1.000000" fill-rule="nonzero"/>
			<path id="Ellipse 6736" d="M10.99 14.75C10.99 15.16 10.66 15.5 10.24 15.5C9.83 15.5 9.49 15.16 9.49 14.75C9.49 14.33 9.83 14 10.24 14C10.66 14 10.99 14.33 10.99 14.75Z" fill="#B470EB" fill-opacity="1.000000" fill-rule="nonzero"/>
			<path id="Ellipse 6748" d="M10.99 18.75C10.99 19.16 10.66 19.5 10.24 19.5C9.83 19.5 9.49 19.16 9.49 18.75C9.49 18.33 9.83 18 10.24 18C10.66 18 10.99 18.33 10.99 18.75Z" fill="#B470EB" fill-opacity="1.000000" fill-rule="nonzero"/>
			<path id="Ellipse 6760" d="M10.99 22.75C10.99 23.16 10.66 23.5 10.24 23.5C9.83 23.5 9.49 23.16 9.49 22.75C9.49 22.33 9.83 22 10.24 22C10.66 22 10.99 22.33 10.99 22.75Z" fill="#B470EB" fill-opacity="1.000000" fill-rule="nonzero"/>
			<path id="Ellipse 6772" d="M10.99 26.75C10.99 27.16 10.66 27.5 10.24 27.5C9.83 27.5 9.49 27.16 9.49 26.75C9.49 26.33 9.83 26 10.24 26C10.66 26 10.99 26.33 10.99 26.75Z" fill="#B470EB" fill-opacity="1.000000" fill-rule="nonzero"/>
			<path id="Ellipse 6784" d="M10.99 30.75C10.99 31.16 10.66 31.5 10.24 31.5C9.83 31.5 9.49 31.16 9.49 30.75C9.49 30.33 9.83 30 10.24 30C10.66 30 10.99 30.33 10.99 30.75Z" fill="#B470EB" fill-opacity="1.000000" fill-rule="nonzero"/>
			<path id="Ellipse 6796" d="M10.99 34.75C10.99 35.16 10.66 35.5 10.24 35.5C9.83 35.5 9.49 35.16 9.49 34.75C9.49 34.33 9.83 34 10.24 34C10.66 34 10.99 34.33 10.99 34.75Z" fill="#B470EB" fill-opacity="1.000000" fill-rule="nonzero"/>
			<path id="Ellipse 6808" d="M10.99 38.75C10.99 39.16 10.66 39.5 10.24 39.5C9.83 39.5 9.49 39.16 9.49 38.75C9.49 38.33 9.83 38 10.24 38C10.66 38 10.99 38.33 10.99 38.75Z" fill="#B470EB" fill-opacity="1.000000" fill-rule="nonzero"/>
			<path id="Ellipse 6820" d="M10.99 42.75C10.99 43.16 10.66 43.5 10.24 43.5C9.83 43.5 9.49 43.16 9.49 42.75C9.49 42.33 9.83 42 10.24 42C10.66 42 10.99 42.33 10.99 42.75Z" fill="#B470EB" fill-opacity="1.000000" fill-rule="nonzero"/>
			<path id="Ellipse 6832" d="M10.99 46.75C10.99 47.16 10.66 47.5 10.24 47.5C9.83 47.5 9.49 47.16 9.49 46.75C9.49 46.33 9.83 46 10.24 46C10.66 46 10.99 46.33 10.99 46.75Z" fill="#B470EB" fill-opacity="1.000000" fill-rule="nonzero"/>
			<path id="Ellipse 6844" d="M10.99 50.75C10.99 51.16 10.66 51.5 10.24 51.5C9.83 51.5 9.49 51.16 9.49 50.75C9.49 50.33 9.83 50 10.24 50C10.66 50 10.99 50.33 10.99 50.75Z" fill="#B470EB" fill-opacity="1.000000" fill-rule="nonzero"/>
			<path id="Ellipse 6856" d="M10.99 54.75C10.99 55.16 10.66 55.5 10.24 55.5C9.83 55.5 9.49 55.16 9.49 54.75C9.49 54.33 9.83 54 10.24 54C10.66 54 10.99 54.33 10.99 54.75Z" fill="#B470EB" fill-opacity="1.000000" fill-rule="nonzero"/>
			<path id="Ellipse 6868" d="M10.99 58.75C10.99 59.16 10.66 59.5 10.24 59.5C9.83 59.5 9.49 59.16 9.49 58.75C9.49 58.33 9.83 58 10.24 58C10.66 58 10.99 58.33 10.99 58.75Z" fill="#B470EB" fill-opacity="1.000000" fill-rule="nonzero"/>
			<path id="Ellipse 6725" d="M14.99 10.75C14.99 11.16 14.66 11.5 14.24 11.5C13.83 11.5 13.49 11.16 13.49 10.75C13.49 10.33 13.83 10 14.24 10C14.66 10 14.99 10.33 14.99 10.75Z" fill="#B470EB" fill-opacity="1.000000" fill-rule="nonzero"/>
			<path id="Ellipse 6737" d="M14.99 14.75C14.99 15.16 14.66 15.5 14.24 15.5C13.83 15.5 13.49 15.16 13.49 14.75C13.49 14.33 13.83 14 14.24 14C14.66 14 14.99 14.33 14.99 14.75Z" fill="#B470EB" fill-opacity="1.000000" fill-rule="nonzero"/>
			<path id="Ellipse 6749" d="M14.99 18.75C14.99 19.16 14.66 19.5 14.24 19.5C13.83 19.5 13.49 19.16 13.49 18.75C13.49 18.33 13.83 18 14.24 18C14.66 18 14.99 18.33 14.99 18.75Z" fill="#B470EB" fill-opacity="1.000000" fill-rule="nonzero"/>
			<path id="Ellipse 6761" d="M14.99 22.75C14.99 23.16 14.66 23.5 14.24 23.5C13.83 23.5 13.49 23.16 13.49 22.75C13.49 22.33 13.83 22 14.24 22C14.66 22 14.99 22.33 14.99 22.75Z" fill="#B470EB" fill-opacity="1.000000" fill-rule="nonzero"/>
			<path id="Ellipse 6773" d="M14.99 26.75C14.99 27.16 14.66 27.5 14.24 27.5C13.83 27.5 13.49 27.16 13.49 26.75C13.49 26.33 13.83 26 14.24 26C14.66 26 14.99 26.33 14.99 26.75Z" fill="#B470EB" fill-opacity="1.000000" fill-rule="nonzero"/>
			<path id="Ellipse 6785" d="M14.99 30.75C14.99 31.16 14.66 31.5 14.24 31.5C13.83 31.5 13.49 31.16 13.49 30.75C13.49 30.33 13.83 30 14.24 30C14.66 30 14.99 30.33 14.99 30.75Z" fill="#B470EB" fill-opacity="1.000000" fill-rule="nonzero"/>
			<path id="Ellipse 6797" d="M14.99 34.75C14.99 35.16 14.66 35.5 14.24 35.5C13.83 35.5 13.49 35.16 13.49 34.75C13.49 34.33 13.83 34 14.24 34C14.66 34 14.99 34.33 14.99 34.75Z" fill="#B470EB" fill-opacity="1.000000" fill-rule="nonzero"/>
			<path id="Ellipse 6809" d="M14.99 38.75C14.99 39.16 14.66 39.5 14.24 39.5C13.83 39.5 13.49 39.16 13.49 38.75C13.49 38.33 13.83 38 14.24 38C14.66 38 14.99 38.33 14.99 38.75Z" fill="#B470EB" fill-opacity="1.000000" fill-rule="nonzero"/>
			<path id="Ellipse 6821" d="M14.99 42.75C14.99 43.16 14.66 43.5 14.24 43.5C13.83 43.5 13.49 43.16 13.49 42.75C13.49 42.33 13.83 42 14.24 42C14.66 42 14.99 42.33 14.99 42.75Z" fill="#B470EB" fill-opacity="1.000000" fill-rule="nonzero"/>
			<path id="Ellipse 6833" d="M14.99 46.75C14.99 47.16 14.66 47.5 14.24 47.5C13.83 47.5 13.49 47.16 13.49 46.75C13.49 46.33 13.83 46 14.24 46C14.66 46 14.99 46.33 14.99 46.75Z" fill="#B470EB" fill-opacity="1.000000" fill-rule="nonzero"/>
			<path id="Ellipse 6845" d="M14.99 50.75C14.99 51.16 14.66 51.5 14.24 51.5C13.83 51.5 13.49 51.16 13.49 50.75C13.49 50.33 13.83 50 14.24 50C14.66 50 14.99 50.33 14.99 50.75Z" fill="#B470EB" fill-opacity="1.000000" fill-rule="nonzero"/>
			<path id="Ellipse 6857" d="M14.99 54.75C14.99 55.16 14.66 55.5 14.24 55.5C13.83 55.5 13.49 55.16 13.49 54.75C13.49 54.33 13.83 54 14.24 54C14.66 54 14.99 54.33 14.99 54.75Z" fill="#B470EB" fill-opacity="1.000000" fill-rule="nonzero"/>
			<path id="Ellipse 6869" d="M14.99 58.75C14.99 59.16 14.66 59.5 14.24 59.5C13.83 59.5 13.49 59.16 13.49 58.75C13.49 58.33 13.83 58 14.24 58C14.66 58 14.99 58.33 14.99 58.75Z" fill="#B470EB" fill-opacity="1.000000" fill-rule="nonzero"/>
			<path id="Ellipse 6726" d="M18.99 10.75C18.99 11.16 18.66 11.5 18.24 11.5C17.83 11.5 17.49 11.16 17.49 10.75C17.49 10.33 17.83 10 18.24 10C18.66 10 18.99 10.33 18.99 10.75Z" fill="#B470EB" fill-opacity="1.000000" fill-rule="nonzero"/>
			<path id="Ellipse 6738" d="M18.99 14.75C18.99 15.16 18.66 15.5 18.24 15.5C17.83 15.5 17.49 15.16 17.49 14.75C17.49 14.33 17.83 14 18.24 14C18.66 14 18.99 14.33 18.99 14.75Z" fill="#B470EB" fill-opacity="1.000000" fill-rule="nonzero"/>
			<path id="Ellipse 6750" d="M18.99 18.75C18.99 19.16 18.66 19.5 18.24 19.5C17.83 19.5 17.49 19.16 17.49 18.75C17.49 18.33 17.83 18 18.24 18C18.66 18 18.99 18.33 18.99 18.75Z" fill="#B470EB" fill-opacity="1.000000" fill-rule="nonzero"/>
			<path id="Ellipse 6762" d="M18.99 22.75C18.99 23.16 18.66 23.5 18.24 23.5C17.83 23.5 17.49 23.16 17.49 22.75C17.49 22.33 17.83 22 18.24 22C18.66 22 18.99 22.33 18.99 22.75Z" fill="#B470EB" fill-opacity="1.000000" fill-rule="nonzero"/>
			<path id="Ellipse 6774" d="M18.99 26.75C18.99 27.16 18.66 27.5 18.24 27.5C17.83 27.5 17.49 27.16 17.49 26.75C17.49 26.33 17.83 26 18.24 26C18.66 26 18.99 26.33 18.99 26.75Z" fill="#B470EB" fill-opacity="1.000000" fill-rule="nonzero"/>
			<path id="Ellipse 6786" d="M18.99 30.75C18.99 31.16 18.66 31.5 18.24 31.5C17.83 31.5 17.49 31.16 17.49 30.75C17.49 30.33 17.83 30 18.24 30C18.66 30 18.99 30.33 18.99 30.75Z" fill="#B470EB" fill-opacity="1.000000" fill-rule="nonzero"/>
			<path id="Ellipse 6798" d="M18.99 34.75C18.99 35.16 18.66 35.5 18.24 35.5C17.83 35.5 17.49 35.16 17.49 34.75C17.49 34.33 17.83 34 18.24 34C18.66 34 18.99 34.33 18.99 34.75Z" fill="#B470EB" fill-opacity="1.000000" fill-rule="nonzero"/>
			<path id="Ellipse 6810" d="M18.99 38.75C18.99 39.16 18.66 39.5 18.24 39.5C17.83 39.5 17.49 39.16 17.49 38.75C17.49 38.33 17.83 38 18.24 38C18.66 38 18.99 38.33 18.99 38.75Z" fill="#B470EB" fill-opacity="1.000000" fill-rule="nonzero"/>
			<path id="Ellipse 6822" d="M18.99 42.75C18.99 43.16 18.66 43.5 18.24 43.5C17.83 43.5 17.49 43.16 17.49 42.75C17.49 42.33 17.83 42 18.24 42C18.66 42 18.99 42.33 18.99 42.75Z" fill="#B470EB" fill-opacity="1.000000" fill-rule="nonzero"/>
			<path id="Ellipse 6834" d="M18.99 46.75C18.99 47.16 18.66 47.5 18.24 47.5C17.83 47.5 17.49 47.16 17.49 46.75C17.49 46.33 17.83 46 18.24 46C18.66 46 18.99 46.33 18.99 46.75Z" fill="#B470EB" fill-opacity="1.000000" fill-rule="nonzero"/>
			<path id="Ellipse 6846" d="M18.99 50.75C18.99 51.16 18.66 51.5 18.24 51.5C17.83 51.5 17.49 51.16 17.49 50.75C17.49 50.33 17.83 50 18.24 50C18.66 50 18.99 50.33 18.99 50.75Z" fill="#B470EB" fill-opacity="1.000000" fill-rule="nonzero"/>
			<path id="Ellipse 6858" d="M18.99 54.75C18.99 55.16 18.66 55.5 18.24 55.5C17.83 55.5 17.49 55.16 17.49 54.75C17.49 54.33 17.83 54 18.24 54C18.66 54 18.99 54.33 18.99 54.75Z" fill="#B470EB" fill-opacity="1.000000" fill-rule="nonzero"/>
			<path id="Ellipse 6870" d="M18.99 58.75C18.99 59.16 18.66 59.5 18.24 59.5C17.83 59.5 17.49 59.16 17.49 58.75C17.49 58.33 17.83 58 18.24 58C18.66 58 18.99 58.33 18.99 58.75Z" fill="#B470EB" fill-opacity="1.000000" fill-rule="nonzero"/>
			<path id="Ellipse 6727" d="M22.99 10.75C22.99 11.16 22.66 11.5 22.24 11.5C21.83 11.5 21.49 11.16 21.49 10.75C21.49 10.33 21.83 10 22.24 10C22.66 10 22.99 10.33 22.99 10.75Z" fill="#B470EB" fill-opacity="1.000000" fill-rule="nonzero"/>
			<path id="Ellipse 6739" d="M22.99 14.75C22.99 15.16 22.66 15.5 22.24 15.5C21.83 15.5 21.49 15.16 21.49 14.75C21.49 14.33 21.83 14 22.24 14C22.66 14 22.99 14.33 22.99 14.75Z" fill="#B470EB" fill-opacity="1.000000" fill-rule="nonzero"/>
			<path id="Ellipse 6751" d="M22.99 18.75C22.99 19.16 22.66 19.5 22.24 19.5C21.83 19.5 21.49 19.16 21.49 18.75C21.49 18.33 21.83 18 22.24 18C22.66 18 22.99 18.33 22.99 18.75Z" fill="#B470EB" fill-opacity="1.000000" fill-rule="nonzero"/>
			<path id="Ellipse 6763" d="M22.99 22.75C22.99 23.16 22.66 23.5 22.24 23.5C21.83 23.5 21.49 23.16 21.49 22.75C21.49 22.33 21.83 22 22.24 22C22.66 22 22.99 22.33 22.99 22.75Z" fill="#B470EB" fill-opacity="1.000000" fill-rule="nonzero"/>
			<path id="Ellipse 6775" d="M22.99 26.75C22.99 27.16 22.66 27.5 22.24 27.5C21.83 27.5 21.49 27.16 21.49 26.75C21.49 26.33 21.83 26 22.24 26C22.66 26 22.99 26.33 22.99 26.75Z" fill="#B470EB" fill-opacity="1.000000" fill-rule="nonzero"/>
			<path id="Ellipse 6787" d="M22.99 30.75C22.99 31.16 22.66 31.5 22.24 31.5C21.83 31.5 21.49 31.16 21.49 30.75C21.49 30.33 21.83 30 22.24 30C22.66 30 22.99 30.33 22.99 30.75Z" fill="#B470EB" fill-opacity="1.000000" fill-rule="nonzero"/>
			<path id="Ellipse 6799" d="M22.99 34.75C22.99 35.16 22.66 35.5 22.24 35.5C21.83 35.5 21.49 35.16 21.49 34.75C21.49 34.33 21.83 34 22.24 34C22.66 34 22.99 34.33 22.99 34.75Z" fill="#B470EB" fill-opacity="1.000000" fill-rule="nonzero"/>
			<path id="Ellipse 6811" d="M22.99 38.75C22.99 39.16 22.66 39.5 22.24 39.5C21.83 39.5 21.49 39.16 21.49 38.75C21.49 38.33 21.83 38 22.24 38C22.66 38 22.99 38.33 22.99 38.75Z" fill="#B470EB" fill-opacity="1.000000" fill-rule="nonzero"/>
			<path id="Ellipse 6823" d="M22.99 42.75C22.99 43.16 22.66 43.5 22.24 43.5C21.83 43.5 21.49 43.16 21.49 42.75C21.49 42.33 21.83 42 22.24 42C22.66 42 22.99 42.33 22.99 42.75Z" fill="#B470EB" fill-opacity="1.000000" fill-rule="nonzero"/>
			<path id="Ellipse 6835" d="M22.99 46.75C22.99 47.16 22.66 47.5 22.24 47.5C21.83 47.5 21.49 47.16 21.49 46.75C21.49 46.33 21.83 46 22.24 46C22.66 46 22.99 46.33 22.99 46.75Z" fill="#B470EB" fill-opacity="1.000000" fill-rule="nonzero"/>
			<path id="Ellipse 6847" d="M22.99 50.75C22.99 51.16 22.66 51.5 22.24 51.5C21.83 51.5 21.49 51.16 21.49 50.75C21.49 50.33 21.83 50 22.24 50C22.66 50 22.99 50.33 22.99 50.75Z" fill="#B470EB" fill-opacity="1.000000" fill-rule="nonzero"/>
			<path id="Ellipse 6859" d="M22.99 54.75C22.99 55.16 22.66 55.5 22.24 55.5C21.83 55.5 21.49 55.16 21.49 54.75C21.49 54.33 21.83 54 22.24 54C22.66 54 22.99 54.33 22.99 54.75Z" fill="#B470EB" fill-opacity="1.000000" fill-rule="nonzero"/>
			<path id="Ellipse 6871" d="M22.99 58.75C22.99 59.16 22.66 59.5 22.24 59.5C21.83 59.5 21.49 59.16 21.49 58.75C21.49 58.33 21.83 58 22.24 58C22.66 58 22.99 58.33 22.99 58.75Z" fill="#B470EB" fill-opacity="1.000000" fill-rule="nonzero"/>
			<path id="Ellipse 6728" d="M26.99 10.75C26.99 11.16 26.66 11.5 26.24 11.5C25.83 11.5 25.49 11.16 25.49 10.75C25.49 10.33 25.83 10 26.24 10C26.66 10 26.99 10.33 26.99 10.75Z" fill="#B470EB" fill-opacity="1.000000" fill-rule="nonzero"/>
			<path id="Ellipse 6740" d="M26.99 14.75C26.99 15.16 26.66 15.5 26.24 15.5C25.83 15.5 25.49 15.16 25.49 14.75C25.49 14.33 25.83 14 26.24 14C26.66 14 26.99 14.33 26.99 14.75Z" fill="#B470EB" fill-opacity="1.000000" fill-rule="nonzero"/>
			<path id="Ellipse 6752" d="M26.99 18.75C26.99 19.16 26.66 19.5 26.24 19.5C25.83 19.5 25.49 19.16 25.49 18.75C25.49 18.33 25.83 18 26.24 18C26.66 18 26.99 18.33 26.99 18.75Z" fill="#B470EB" fill-opacity="1.000000" fill-rule="nonzero"/>
			<path id="Ellipse 6764" d="M26.99 22.75C26.99 23.16 26.66 23.5 26.24 23.5C25.83 23.5 25.49 23.16 25.49 22.75C25.49 22.33 25.83 22 26.24 22C26.66 22 26.99 22.33 26.99 22.75Z" fill="#B470EB" fill-opacity="1.000000" fill-rule="nonzero"/>
			<path id="Ellipse 6776" d="M26.99 26.75C26.99 27.16 26.66 27.5 26.24 27.5C25.83 27.5 25.49 27.16 25.49 26.75C25.49 26.33 25.83 26 26.24 26C26.66 26 26.99 26.33 26.99 26.75Z" fill="#B470EB" fill-opacity="1.000000" fill-rule="nonzero"/>
			<path id="Ellipse 6788" d="M26.99 30.75C26.99 31.16 26.66 31.5 26.24 31.5C25.83 31.5 25.49 31.16 25.49 30.75C25.49 30.33 25.83 30 26.24 30C26.66 30 26.99 30.33 26.99 30.75Z" fill="#B470EB" fill-opacity="1.000000" fill-rule="nonzero"/>
			<path id="Ellipse 6800" d="M26.99 34.75C26.99 35.16 26.66 35.5 26.24 35.5C25.83 35.5 25.49 35.16 25.49 34.75C25.49 34.33 25.83 34 26.24 34C26.66 34 26.99 34.33 26.99 34.75Z" fill="#B470EB" fill-opacity="1.000000" fill-rule="nonzero"/>
			<path id="Ellipse 6812" d="M26.99 38.75C26.99 39.16 26.66 39.5 26.24 39.5C25.83 39.5 25.49 39.16 25.49 38.75C25.49 38.33 25.83 38 26.24 38C26.66 38 26.99 38.33 26.99 38.75Z" fill="#B470EB" fill-opacity="1.000000" fill-rule="nonzero"/>
			<path id="Ellipse 6824" d="M26.99 42.75C26.99 43.16 26.66 43.5 26.24 43.5C25.83 43.5 25.49 43.16 25.49 42.75C25.49 42.33 25.83 42 26.24 42C26.66 42 26.99 42.33 26.99 42.75Z" fill="#B470EB" fill-opacity="1.000000" fill-rule="nonzero"/>
			<path id="Ellipse 6836" d="M26.99 46.75C26.99 47.16 26.66 47.5 26.24 47.5C25.83 47.5 25.49 47.16 25.49 46.75C25.49 46.33 25.83 46 26.24 46C26.66 46 26.99 46.33 26.99 46.75Z" fill="#B470EB" fill-opacity="1.000000" fill-rule="nonzero"/>
			<path id="Ellipse 6848" d="M26.99 50.75C26.99 51.16 26.66 51.5 26.24 51.5C25.83 51.5 25.49 51.16 25.49 50.75C25.49 50.33 25.83 50 26.24 50C26.66 50 26.99 50.33 26.99 50.75Z" fill="#B470EB" fill-opacity="1.000000" fill-rule="nonzero"/>
			<path id="Ellipse 6860" d="M26.99 54.75C26.99 55.16 26.66 55.5 26.24 55.5C25.83 55.5 25.49 55.16 25.49 54.75C25.49 54.33 25.83 54 26.24 54C26.66 54 26.99 54.33 26.99 54.75Z" fill="#B470EB" fill-opacity="1.000000" fill-rule="nonzero"/>
			<path id="Ellipse 6872" d="M26.99 58.75C26.99 59.16 26.66 59.5 26.24 59.5C25.83 59.5 25.49 59.16 25.49 58.75C25.49 58.33 25.83 58 26.24 58C26.66 58 26.99 58.33 26.99 58.75Z" fill="#B470EB" fill-opacity="1.000000" fill-rule="nonzero"/>
			<path id="Ellipse 6729" d="M30.99 10.75C30.99 11.16 30.66 11.5 30.24 11.5C29.83 11.5 29.49 11.16 29.49 10.75C29.49 10.33 29.83 10 30.24 10C30.66 10 30.99 10.33 30.99 10.75Z" fill="#B470EB" fill-opacity="1.000000" fill-rule="nonzero"/>
			<path id="Ellipse 6741" d="M30.99 14.75C30.99 15.16 30.66 15.5 30.24 15.5C29.83 15.5 29.49 15.16 29.49 14.75C29.49 14.33 29.83 14 30.24 14C30.66 14 30.99 14.33 30.99 14.75Z" fill="#B470EB" fill-opacity="1.000000" fill-rule="nonzero"/>
			<path id="Ellipse 6753" d="M30.99 18.75C30.99 19.16 30.66 19.5 30.24 19.5C29.83 19.5 29.49 19.16 29.49 18.75C29.49 18.33 29.83 18 30.24 18C30.66 18 30.99 18.33 30.99 18.75Z" fill="#B470EB" fill-opacity="1.000000" fill-rule="nonzero"/>
			<path id="Ellipse 6765" d="M30.99 22.75C30.99 23.16 30.66 23.5 30.24 23.5C29.83 23.5 29.49 23.16 29.49 22.75C29.49 22.33 29.83 22 30.24 22C30.66 22 30.99 22.33 30.99 22.75Z" fill="#B470EB" fill-opacity="1.000000" fill-rule="nonzero"/>
			<path id="Ellipse 6777" d="M30.99 26.75C30.99 27.16 30.66 27.5 30.24 27.5C29.83 27.5 29.49 27.16 29.49 26.75C29.49 26.33 29.83 26 30.24 26C30.66 26 30.99 26.33 30.99 26.75Z" fill="#B470EB" fill-opacity="1.000000" fill-rule="nonzero"/>
			<path id="Ellipse 6789" d="M30.99 30.75C30.99 31.16 30.66 31.5 30.24 31.5C29.83 31.5 29.49 31.16 29.49 30.75C29.49 30.33 29.83 30 30.24 30C30.66 30 30.99 30.33 30.99 30.75Z" fill="#B470EB" fill-opacity="1.000000" fill-rule="nonzero"/>
			<path id="Ellipse 6801" d="M30.99 34.75C30.99 35.16 30.66 35.5 30.24 35.5C29.83 35.5 29.49 35.16 29.49 34.75C29.49 34.33 29.83 34 30.24 34C30.66 34 30.99 34.33 30.99 34.75Z" fill="#B470EB" fill-opacity="1.000000" fill-rule="nonzero"/>
			<path id="Ellipse 6813" d="M30.99 38.75C30.99 39.16 30.66 39.5 30.24 39.5C29.83 39.5 29.49 39.16 29.49 38.75C29.49 38.33 29.83 38 30.24 38C30.66 38 30.99 38.33 30.99 38.75Z" fill="#B470EB" fill-opacity="1.000000" fill-rule="nonzero"/>
			<path id="Ellipse 6825" d="M30.99 42.75C30.99 43.16 30.66 43.5 30.24 43.5C29.83 43.5 29.49 43.16 29.49 42.75C29.49 42.33 29.83 42 30.24 42C30.66 42 30.99 42.33 30.99 42.75Z" fill="#B470EB" fill-opacity="1.000000" fill-rule="nonzero"/>
			<path id="Ellipse 6837" d="M30.99 46.75C30.99 47.16 30.66 47.5 30.24 47.5C29.83 47.5 29.49 47.16 29.49 46.75C29.49 46.33 29.83 46 30.24 46C30.66 46 30.99 46.33 30.99 46.75Z" fill="#B470EB" fill-opacity="1.000000" fill-rule="nonzero"/>
			<path id="Ellipse 6849" d="M30.99 50.75C30.99 51.16 30.66 51.5 30.24 51.5C29.83 51.5 29.49 51.16 29.49 50.75C29.49 50.33 29.83 50 30.24 50C30.66 50 30.99 50.33 30.99 50.75Z" fill="#B470EB" fill-opacity="1.000000" fill-rule="nonzero"/>
			<path id="Ellipse 6861" d="M30.99 54.75C30.99 55.16 30.66 55.5 30.24 55.5C29.83 55.5 29.49 55.16 29.49 54.75C29.49 54.33 29.83 54 30.24 54C30.66 54 30.99 54.33 30.99 54.75Z" fill="#B470EB" fill-opacity="1.000000" fill-rule="nonzero"/>
			<path id="Ellipse 6873" d="M30.99 58.75C30.99 59.16 30.66 59.5 30.24 59.5C29.83 59.5 29.49 59.16 29.49 58.75C29.49 58.33 29.83 58 30.24 58C30.66 58 30.99 58.33 30.99 58.75Z" fill="#B470EB" fill-opacity="1.000000" fill-rule="nonzero"/>
			<path id="Ellipse 6730" d="M34.99 10.75C34.99 11.16 34.66 11.5 34.24 11.5C33.83 11.5 33.49 11.16 33.49 10.75C33.49 10.33 33.83 10 34.24 10C34.66 10 34.99 10.33 34.99 10.75Z" fill="#B470EB" fill-opacity="1.000000" fill-rule="nonzero"/>
			<path id="Ellipse 6742" d="M34.99 14.75C34.99 15.16 34.66 15.5 34.24 15.5C33.83 15.5 33.49 15.16 33.49 14.75C33.49 14.33 33.83 14 34.24 14C34.66 14 34.99 14.33 34.99 14.75Z" fill="#B470EB" fill-opacity="1.000000" fill-rule="nonzero"/>
			<path id="Ellipse 6754" d="M34.99 18.75C34.99 19.16 34.66 19.5 34.24 19.5C33.83 19.5 33.49 19.16 33.49 18.75C33.49 18.33 33.83 18 34.24 18C34.66 18 34.99 18.33 34.99 18.75Z" fill="#B470EB" fill-opacity="1.000000" fill-rule="nonzero"/>
			<path id="Ellipse 6766" d="M34.99 22.75C34.99 23.16 34.66 23.5 34.24 23.5C33.83 23.5 33.49 23.16 33.49 22.75C33.49 22.33 33.83 22 34.24 22C34.66 22 34.99 22.33 34.99 22.75Z" fill="#B470EB" fill-opacity="1.000000" fill-rule="nonzero"/>
			<path id="Ellipse 6778" d="M34.99 26.75C34.99 27.16 34.66 27.5 34.24 27.5C33.83 27.5 33.49 27.16 33.49 26.75C33.49 26.33 33.83 26 34.24 26C34.66 26 34.99 26.33 34.99 26.75Z" fill="#B470EB" fill-opacity="1.000000" fill-rule="nonzero"/>
			<path id="Ellipse 6790" d="M34.99 30.75C34.99 31.16 34.66 31.5 34.24 31.5C33.83 31.5 33.49 31.16 33.49 30.75C33.49 30.33 33.83 30 34.24 30C34.66 30 34.99 30.33 34.99 30.75Z" fill="#B470EB" fill-opacity="1.000000" fill-rule="nonzero"/>
			<path id="Ellipse 6802" d="M34.99 34.75C34.99 35.16 34.66 35.5 34.24 35.5C33.83 35.5 33.49 35.16 33.49 34.75C33.49 34.33 33.83 34 34.24 34C34.66 34 34.99 34.33 34.99 34.75Z" fill="#B470EB" fill-opacity="1.000000" fill-rule="nonzero"/>
			<path id="Ellipse 6814" d="M34.99 38.75C34.99 39.16 34.66 39.5 34.24 39.5C33.83 39.5 33.49 39.16 33.49 38.75C33.49 38.33 33.83 38 34.24 38C34.66 38 34.99 38.33 34.99 38.75Z" fill="#B470EB" fill-opacity="1.000000" fill-rule="nonzero"/>
			<path id="Ellipse 6826" d="M34.99 42.75C34.99 43.16 34.66 43.5 34.24 43.5C33.83 43.5 33.49 43.16 33.49 42.75C33.49 42.33 33.83 42 34.24 42C34.66 42 34.99 42.33 34.99 42.75Z" fill="#B470EB" fill-opacity="1.000000" fill-rule="nonzero"/>
			<path id="Ellipse 6838" d="M34.99 46.75C34.99 47.16 34.66 47.5 34.24 47.5C33.83 47.5 33.49 47.16 33.49 46.75C33.49 46.33 33.83 46 34.24 46C34.66 46 34.99 46.33 34.99 46.75Z" fill="#B470EB" fill-opacity="1.000000" fill-rule="nonzero"/>
			<path id="Ellipse 6850" d="M34.99 50.75C34.99 51.16 34.66 51.5 34.24 51.5C33.83 51.5 33.49 51.16 33.49 50.75C33.49 50.33 33.83 50 34.24 50C34.66 50 34.99 50.33 34.99 50.75Z" fill="#B470EB" fill-opacity="1.000000" fill-rule="nonzero"/>
			<path id="Ellipse 6862" d="M34.99 54.75C34.99 55.16 34.66 55.5 34.24 55.5C33.83 55.5 33.49 55.16 33.49 54.75C33.49 54.33 33.83 54 34.24 54C34.66 54 34.99 54.33 34.99 54.75Z" fill="#B470EB" fill-opacity="1.000000" fill-rule="nonzero"/>
			<path id="Ellipse 6874" d="M34.99 58.75C34.99 59.16 34.66 59.5 34.24 59.5C33.83 59.5 33.49 59.16 33.49 58.75C33.49 58.33 33.83 58 34.24 58C34.66 58 34.99 58.33 34.99 58.75Z" fill="#B470EB" fill-opacity="1.000000" fill-rule="nonzero"/>
			<path id="Ellipse 6731" d="M38.99 10.75C38.99 11.16 38.66 11.5 38.24 11.5C37.83 11.5 37.49 11.16 37.49 10.75C37.49 10.33 37.83 10 38.24 10C38.66 10 38.99 10.33 38.99 10.75Z" fill="#B470EB" fill-opacity="1.000000" fill-rule="nonzero"/>
			<path id="Ellipse 6743" d="M38.99 14.75C38.99 15.16 38.66 15.5 38.24 15.5C37.83 15.5 37.49 15.16 37.49 14.75C37.49 14.33 37.83 14 38.24 14C38.66 14 38.99 14.33 38.99 14.75Z" fill="#B470EB" fill-opacity="1.000000" fill-rule="nonzero"/>
			<path id="Ellipse 6755" d="M38.99 18.75C38.99 19.16 38.66 19.5 38.24 19.5C37.83 19.5 37.49 19.16 37.49 18.75C37.49 18.33 37.83 18 38.24 18C38.66 18 38.99 18.33 38.99 18.75Z" fill="#B470EB" fill-opacity="1.000000" fill-rule="nonzero"/>
			<path id="Ellipse 6767" d="M38.99 22.75C38.99 23.16 38.66 23.5 38.24 23.5C37.83 23.5 37.49 23.16 37.49 22.75C37.49 22.33 37.83 22 38.24 22C38.66 22 38.99 22.33 38.99 22.75Z" fill="#B470EB" fill-opacity="1.000000" fill-rule="nonzero"/>
			<path id="Ellipse 6779" d="M38.99 26.75C38.99 27.16 38.66 27.5 38.24 27.5C37.83 27.5 37.49 27.16 37.49 26.75C37.49 26.33 37.83 26 38.24 26C38.66 26 38.99 26.33 38.99 26.75Z" fill="#B470EB" fill-opacity="1.000000" fill-rule="nonzero"/>
			<path id="Ellipse 6791" d="M38.99 30.75C38.99 31.16 38.66 31.5 38.24 31.5C37.83 31.5 37.49 31.16 37.49 30.75C37.49 30.33 37.83 30 38.24 30C38.66 30 38.99 30.33 38.99 30.75Z" fill="#B470EB" fill-opacity="1.000000" fill-rule="nonzero"/>
			<path id="Ellipse 6803" d="M38.99 34.75C38.99 35.16 38.66 35.5 38.24 35.5C37.83 35.5 37.49 35.16 37.49 34.75C37.49 34.33 37.83 34 38.24 34C38.66 34 38.99 34.33 38.99 34.75Z" fill="#B470EB" fill-opacity="1.000000" fill-rule="nonzero"/>
			<path id="Ellipse 6815" d="M38.99 38.75C38.99 39.16 38.66 39.5 38.24 39.5C37.83 39.5 37.49 39.16 37.49 38.75C37.49 38.33 37.83 38 38.24 38C38.66 38 38.99 38.33 38.99 38.75Z" fill="#B470EB" fill-opacity="1.000000" fill-rule="nonzero"/>
			<path id="Ellipse 6827" d="M38.99 42.75C38.99 43.16 38.66 43.5 38.24 43.5C37.83 43.5 37.49 43.16 37.49 42.75C37.49 42.33 37.83 42 38.24 42C38.66 42 38.99 42.33 38.99 42.75Z" fill="#B470EB" fill-opacity="1.000000" fill-rule="nonzero"/>
			<path id="Ellipse 6839" d="M38.99 46.75C38.99 47.16 38.66 47.5 38.24 47.5C37.83 47.5 37.49 47.16 37.49 46.75C37.49 46.33 37.83 46 38.24 46C38.66 46 38.99 46.33 38.99 46.75Z" fill="#B470EB" fill-opacity="1.000000" fill-rule="nonzero"/>
			<path id="Ellipse 6851" d="M38.99 50.75C38.99 51.16 38.66 51.5 38.24 51.5C37.83 51.5 37.49 51.16 37.49 50.75C37.49 50.33 37.83 50 38.24 50C38.66 50 38.99 50.33 38.99 50.75Z" fill="#B470EB" fill-opacity="1.000000" fill-rule="nonzero"/>
			<path id="Ellipse 6863" d="M38.99 54.75C38.99 55.16 38.66 55.5 38.24 55.5C37.83 55.5 37.49 55.16 37.49 54.75C37.49 54.33 37.83 54 38.24 54C38.66 54 38.99 54.33 38.99 54.75Z" fill="#B470EB" fill-opacity="1.000000" fill-rule="nonzero"/>
			<path id="Ellipse 6875" d="M38.99 58.75C38.99 59.16 38.66 59.5 38.24 59.5C37.83 59.5 37.49 59.16 37.49 58.75C37.49 58.33 37.83 58 38.24 58C38.66 58 38.99 58.33 38.99 58.75Z" fill="#B470EB" fill-opacity="1.000000" fill-rule="nonzero"/>
			<path id="Ellipse 6732" d="M42.99 10.75C42.99 11.16 42.66 11.5 42.24 11.5C41.83 11.5 41.49 11.16 41.49 10.75C41.49 10.33 41.83 10 42.24 10C42.66 10 42.99 10.33 42.99 10.75Z" fill="#B470EB" fill-opacity="1.000000" fill-rule="nonzero"/>
			<path id="Ellipse 6744" d="M42.99 14.75C42.99 15.16 42.66 15.5 42.24 15.5C41.83 15.5 41.49 15.16 41.49 14.75C41.49 14.33 41.83 14 42.24 14C42.66 14 42.99 14.33 42.99 14.75Z" fill="#B470EB" fill-opacity="1.000000" fill-rule="nonzero"/>
			<path id="Ellipse 6756" d="M42.99 18.75C42.99 19.16 42.66 19.5 42.24 19.5C41.83 19.5 41.49 19.16 41.49 18.75C41.49 18.33 41.83 18 42.24 18C42.66 18 42.99 18.33 42.99 18.75Z" fill="#B470EB" fill-opacity="1.000000" fill-rule="nonzero"/>
			<path id="Ellipse 6768" d="M42.99 22.75C42.99 23.16 42.66 23.5 42.24 23.5C41.83 23.5 41.49 23.16 41.49 22.75C41.49 22.33 41.83 22 42.24 22C42.66 22 42.99 22.33 42.99 22.75Z" fill="#B470EB" fill-opacity="1.000000" fill-rule="nonzero"/>
			<path id="Ellipse 6780" d="M42.99 26.75C42.99 27.16 42.66 27.5 42.24 27.5C41.83 27.5 41.49 27.16 41.49 26.75C41.49 26.33 41.83 26 42.24 26C42.66 26 42.99 26.33 42.99 26.75Z" fill="#B470EB" fill-opacity="1.000000" fill-rule="nonzero"/>
			<path id="Ellipse 6792" d="M42.99 30.75C42.99 31.16 42.66 31.5 42.24 31.5C41.83 31.5 41.49 31.16 41.49 30.75C41.49 30.33 41.83 30 42.24 30C42.66 30 42.99 30.33 42.99 30.75Z" fill="#B470EB" fill-opacity="1.000000" fill-rule="nonzero"/>
			<path id="Ellipse 6804" d="M42.99 34.75C42.99 35.16 42.66 35.5 42.24 35.5C41.83 35.5 41.49 35.16 41.49 34.75C41.49 34.33 41.83 34 42.24 34C42.66 34 42.99 34.33 42.99 34.75Z" fill="#B470EB" fill-opacity="1.000000" fill-rule="nonzero"/>
			<path id="Ellipse 6816" d="M42.99 38.75C42.99 39.16 42.66 39.5 42.24 39.5C41.83 39.5 41.49 39.16 41.49 38.75C41.49 38.33 41.83 38 42.24 38C42.66 38 42.99 38.33 42.99 38.75Z" fill="#B470EB" fill-opacity="1.000000" fill-rule="nonzero"/>
			<path id="Ellipse 6828" d="M42.99 42.75C42.99 43.16 42.66 43.5 42.24 43.5C41.83 43.5 41.49 43.16 41.49 42.75C41.49 42.33 41.83 42 42.24 42C42.66 42 42.99 42.33 42.99 42.75Z" fill="#B470EB" fill-opacity="1.000000" fill-rule="nonzero"/>
			<path id="Ellipse 6840" d="M42.99 46.75C42.99 47.16 42.66 47.5 42.24 47.5C41.83 47.5 41.49 47.16 41.49 46.75C41.49 46.33 41.83 46 42.24 46C42.66 46 42.99 46.33 42.99 46.75Z" fill="#B470EB" fill-opacity="1.000000" fill-rule="nonzero"/>
			<path id="Ellipse 6852" d="M42.99 50.75C42.99 51.16 42.66 51.5 42.24 51.5C41.83 51.5 41.49 51.16 41.49 50.75C41.49 50.33 41.83 50 42.24 50C42.66 50 42.99 50.33 42.99 50.75Z" fill="#B470EB" fill-opacity="1.000000" fill-rule="nonzero"/>
			<path id="Ellipse 6864" d="M42.99 54.75C42.99 55.16 42.66 55.5 42.24 55.5C41.83 55.5 41.49 55.16 41.49 54.75C41.49 54.33 41.83 54 42.24 54C42.66 54 42.99 54.33 42.99 54.75Z" fill="#B470EB" fill-opacity="1.000000" fill-rule="nonzero"/>
			<path id="Ellipse 6876" d="M42.99 58.75C42.99 59.16 42.66 59.5 42.24 59.5C41.83 59.5 41.49 59.16 41.49 58.75C41.49 58.33 41.83 58 42.24 58C42.66 58 42.99 58.33 42.99 58.75Z" fill="#B470EB" fill-opacity="1.000000" fill-rule="nonzero"/>
			<path id="Ellipse 6733" d="M46.99 10.75C46.99 11.16 46.66 11.5 46.24 11.5C45.83 11.5 45.49 11.16 45.49 10.75C45.49 10.33 45.83 10 46.24 10C46.66 10 46.99 10.33 46.99 10.75Z" fill="#B470EB" fill-opacity="1.000000" fill-rule="nonzero"/>
			<path id="Ellipse 6745" d="M46.99 14.75C46.99 15.16 46.66 15.5 46.24 15.5C45.83 15.5 45.49 15.16 45.49 14.75C45.49 14.33 45.83 14 46.24 14C46.66 14 46.99 14.33 46.99 14.75Z" fill="#B470EB" fill-opacity="1.000000" fill-rule="nonzero"/>
			<path id="Ellipse 6757" d="M46.99 18.75C46.99 19.16 46.66 19.5 46.24 19.5C45.83 19.5 45.49 19.16 45.49 18.75C45.49 18.33 45.83 18 46.24 18C46.66 18 46.99 18.33 46.99 18.75Z" fill="#B470EB" fill-opacity="1.000000" fill-rule="nonzero"/>
			<path id="Ellipse 6769" d="M46.99 22.75C46.99 23.16 46.66 23.5 46.24 23.5C45.83 23.5 45.49 23.16 45.49 22.75C45.49 22.33 45.83 22 46.24 22C46.66 22 46.99 22.33 46.99 22.75Z" fill="#B470EB" fill-opacity="1.000000" fill-rule="nonzero"/>
			<path id="Ellipse 6781" d="M46.99 26.75C46.99 27.16 46.66 27.5 46.24 27.5C45.83 27.5 45.49 27.16 45.49 26.75C45.49 26.33 45.83 26 46.24 26C46.66 26 46.99 26.33 46.99 26.75Z" fill="#B470EB" fill-opacity="1.000000" fill-rule="nonzero"/>
			<path id="Ellipse 6793" d="M46.99 30.75C46.99 31.16 46.66 31.5 46.24 31.5C45.83 31.5 45.49 31.16 45.49 30.75C45.49 30.33 45.83 30 46.24 30C46.66 30 46.99 30.33 46.99 30.75Z" fill="#B470EB" fill-opacity="1.000000" fill-rule="nonzero"/>
			<path id="Ellipse 6805" d="M46.99 34.75C46.99 35.16 46.66 35.5 46.24 35.5C45.83 35.5 45.49 35.16 45.49 34.75C45.49 34.33 45.83 34 46.24 34C46.66 34 46.99 34.33 46.99 34.75Z" fill="#B470EB" fill-opacity="1.000000" fill-rule="nonzero"/>
			<path id="Ellipse 6817" d="M46.99 38.75C46.99 39.16 46.66 39.5 46.24 39.5C45.83 39.5 45.49 39.16 45.49 38.75C45.49 38.33 45.83 38 46.24 38C46.66 38 46.99 38.33 46.99 38.75Z" fill="#B470EB" fill-opacity="1.000000" fill-rule="nonzero"/>
			<path id="Ellipse 6829" d="M46.99 42.75C46.99 43.16 46.66 43.5 46.24 43.5C45.83 43.5 45.49 43.16 45.49 42.75C45.49 42.33 45.83 42 46.24 42C46.66 42 46.99 42.33 46.99 42.75Z" fill="#B470EB" fill-opacity="1.000000" fill-rule="nonzero"/>
			<path id="Ellipse 6841" d="M46.99 46.75C46.99 47.16 46.66 47.5 46.24 47.5C45.83 47.5 45.49 47.16 45.49 46.75C45.49 46.33 45.83 46 46.24 46C46.66 46 46.99 46.33 46.99 46.75Z" fill="#B470EB" fill-opacity="1.000000" fill-rule="nonzero"/>
			<path id="Ellipse 6853" d="M46.99 50.75C46.99 51.16 46.66 51.5 46.24 51.5C45.83 51.5 45.49 51.16 45.49 50.75C45.49 50.33 45.83 50 46.24 50C46.66 50 46.99 50.33 46.99 50.75Z" fill="#B470EB" fill-opacity="1.000000" fill-rule="nonzero"/>
			<path id="Ellipse 6865" d="M46.99 54.75C46.99 55.16 46.66 55.5 46.24 55.5C45.83 55.5 45.49 55.16 45.49 54.75C45.49 54.33 45.83 54 46.24 54C46.66 54 46.99 54.33 46.99 54.75Z" fill="#B470EB" fill-opacity="1.000000" fill-rule="nonzero"/>
			<path id="Ellipse 6877" d="M46.99 58.75C46.99 59.16 46.66 59.5 46.24 59.5C45.83 59.5 45.49 59.16 45.49 58.75C45.49 58.33 45.83 58 46.24 58C46.66 58 46.99 58.33 46.99 58.75Z" fill="#B470EB" fill-opacity="1.000000" fill-rule="nonzero"/>
			<path id="Ellipse 6734" d="M50.99 10.75C50.99 11.16 50.66 11.5 50.24 11.5C49.83 11.5 49.49 11.16 49.49 10.75C49.49 10.33 49.83 10 50.24 10C50.66 10 50.99 10.33 50.99 10.75Z" fill="#B470EB" fill-opacity="1.000000" fill-rule="nonzero"/>
			<path id="Ellipse 6746" d="M50.99 14.75C50.99 15.16 50.66 15.5 50.24 15.5C49.83 15.5 49.49 15.16 49.49 14.75C49.49 14.33 49.83 14 50.24 14C50.66 14 50.99 14.33 50.99 14.75Z" fill="#B470EB" fill-opacity="1.000000" fill-rule="nonzero"/>
			<path id="Ellipse 6758" d="M50.99 18.75C50.99 19.16 50.66 19.5 50.24 19.5C49.83 19.5 49.49 19.16 49.49 18.75C49.49 18.33 49.83 18 50.24 18C50.66 18 50.99 18.33 50.99 18.75Z" fill="#B470EB" fill-opacity="1.000000" fill-rule="nonzero"/>
			<path id="Ellipse 6770" d="M50.99 22.75C50.99 23.16 50.66 23.5 50.24 23.5C49.83 23.5 49.49 23.16 49.49 22.75C49.49 22.33 49.83 22 50.24 22C50.66 22 50.99 22.33 50.99 22.75Z" fill="#B470EB" fill-opacity="1.000000" fill-rule="nonzero"/>
			<path id="Ellipse 6782" d="M50.99 26.75C50.99 27.16 50.66 27.5 50.24 27.5C49.83 27.5 49.49 27.16 49.49 26.75C49.49 26.33 49.83 26 50.24 26C50.66 26 50.99 26.33 50.99 26.75Z" fill="#B470EB" fill-opacity="1.000000" fill-rule="nonzero"/>
			<path id="Ellipse 6794" d="M50.99 30.75C50.99 31.16 50.66 31.5 50.24 31.5C49.83 31.5 49.49 31.16 49.49 30.75C49.49 30.33 49.83 30 50.24 30C50.66 30 50.99 30.33 50.99 30.75Z" fill="#B470EB" fill-opacity="1.000000" fill-rule="nonzero"/>
			<path id="Ellipse 6806" d="M50.99 34.75C50.99 35.16 50.66 35.5 50.24 35.5C49.83 35.5 49.49 35.16 49.49 34.75C49.49 34.33 49.83 34 50.24 34C50.66 34 50.99 34.33 50.99 34.75Z" fill="#B470EB" fill-opacity="1.000000" fill-rule="nonzero"/>
			<path id="Ellipse 6818" d="M50.99 38.75C50.99 39.16 50.66 39.5 50.24 39.5C49.83 39.5 49.49 39.16 49.49 38.75C49.49 38.33 49.83 38 50.24 38C50.66 38 50.99 38.33 50.99 38.75Z" fill="#B470EB" fill-opacity="1.000000" fill-rule="nonzero"/>
			<path id="Ellipse 6830" d="M50.99 42.75C50.99 43.16 50.66 43.5 50.24 43.5C49.83 43.5 49.49 43.16 49.49 42.75C49.49 42.33 49.83 42 50.24 42C50.66 42 50.99 42.33 50.99 42.75Z" fill="#B470EB" fill-opacity="1.000000" fill-rule="nonzero"/>
			<path id="Ellipse 6842" d="M50.99 46.75C50.99 47.16 50.66 47.5 50.24 47.5C49.83 47.5 49.49 47.16 49.49 46.75C49.49 46.33 49.83 46 50.24 46C50.66 46 50.99 46.33 50.99 46.75Z" fill="#B470EB" fill-opacity="1.000000" fill-rule="nonzero"/>
			<path id="Ellipse 6854" d="M50.99 50.75C50.99 51.16 50.66 51.5 50.24 51.5C49.83 51.5 49.49 51.16 49.49 50.75C49.49 50.33 49.83 50 50.24 50C50.66 50 50.99 50.33 50.99 50.75Z" fill="#B470EB" fill-opacity="1.000000" fill-rule="nonzero"/>
			<path id="Ellipse 6866" d="M50.99 54.75C50.99 55.16 50.66 55.5 50.24 55.5C49.83 55.5 49.49 55.16 49.49 54.75C49.49 54.33 49.83 54 50.24 54C50.66 54 50.99 54.33 50.99 54.75Z" fill="#B470EB" fill-opacity="1.000000" fill-rule="nonzero"/>
			<path id="Ellipse 6878" d="M50.99 58.75C50.99 59.16 50.66 59.5 50.24 59.5C49.83 59.5 49.49 59.16 49.49 58.75C49.49 58.33 49.83 58 50.24 58C50.66 58 50.99 58.33 50.99 58.75Z" fill="#B470EB" fill-opacity="1.000000" fill-rule="nonzero"/>
			<path id="Ellipse 6735" d="M54.99 10.75C54.99 11.16 54.66 11.5 54.24 11.5C53.83 11.5 53.49 11.16 53.49 10.75C53.49 10.33 53.83 10 54.24 10C54.66 10 54.99 10.33 54.99 10.75Z" fill="#B470EB" fill-opacity="1.000000" fill-rule="nonzero"/>
			<path id="Ellipse 6747" d="M54.99 14.75C54.99 15.16 54.66 15.5 54.24 15.5C53.83 15.5 53.49 15.16 53.49 14.75C53.49 14.33 53.83 14 54.24 14C54.66 14 54.99 14.33 54.99 14.75Z" fill="#B470EB" fill-opacity="1.000000" fill-rule="nonzero"/>
			<path id="Ellipse 6759" d="M54.99 18.75C54.99 19.16 54.66 19.5 54.24 19.5C53.83 19.5 53.49 19.16 53.49 18.75C53.49 18.33 53.83 18 54.24 18C54.66 18 54.99 18.33 54.99 18.75Z" fill="#B470EB" fill-opacity="1.000000" fill-rule="nonzero"/>
			<path id="Ellipse 6771" d="M54.99 22.75C54.99 23.16 54.66 23.5 54.24 23.5C53.83 23.5 53.49 23.16 53.49 22.75C53.49 22.33 53.83 22 54.24 22C54.66 22 54.99 22.33 54.99 22.75Z" fill="#B470EB" fill-opacity="1.000000" fill-rule="nonzero"/>
			<path id="Ellipse 6783" d="M54.99 26.75C54.99 27.16 54.66 27.5 54.24 27.5C53.83 27.5 53.49 27.16 53.49 26.75C53.49 26.33 53.83 26 54.24 26C54.66 26 54.99 26.33 54.99 26.75Z" fill="#B470EB" fill-opacity="1.000000" fill-rule="nonzero"/>
			<path id="Ellipse 6795" d="M54.99 30.75C54.99 31.16 54.66 31.5 54.24 31.5C53.83 31.5 53.49 31.16 53.49 30.75C53.49 30.33 53.83 30 54.24 30C54.66 30 54.99 30.33 54.99 30.75Z" fill="#B470EB" fill-opacity="1.000000" fill-rule="nonzero"/>
			<path id="Ellipse 6807" d="M54.99 34.75C54.99 35.16 54.66 35.5 54.24 35.5C53.83 35.5 53.49 35.16 53.49 34.75C53.49 34.33 53.83 34 54.24 34C54.66 34 54.99 34.33 54.99 34.75Z" fill="#B470EB" fill-opacity="1.000000" fill-rule="nonzero"/>
			<path id="Ellipse 6819" d="M54.99 38.75C54.99 39.16 54.66 39.5 54.24 39.5C53.83 39.5 53.49 39.16 53.49 38.75C53.49 38.33 53.83 38 54.24 38C54.66 38 54.99 38.33 54.99 38.75Z" fill="#B470EB" fill-opacity="1.000000" fill-rule="nonzero"/>
			<path id="Ellipse 6831" d="M54.99 42.75C54.99 43.16 54.66 43.5 54.24 43.5C53.83 43.5 53.49 43.16 53.49 42.75C53.49 42.33 53.83 42 54.24 42C54.66 42 54.99 42.33 54.99 42.75Z" fill="#B470EB" fill-opacity="1.000000" fill-rule="nonzero"/>
			<path id="Ellipse 6843" d="M54.99 46.75C54.99 47.16 54.66 47.5 54.24 47.5C53.83 47.5 53.49 47.16 53.49 46.75C53.49 46.33 53.83 46 54.24 46C54.66 46 54.99 46.33 54.99 46.75Z" fill="#B470EB" fill-opacity="1.000000" fill-rule="nonzero"/>
			<path id="Ellipse 6855" d="M54.99 50.75C54.99 51.16 54.66 51.5 54.24 51.5C53.83 51.5 53.49 51.16 53.49 50.75C53.49 50.33 53.83 50 54.24 50C54.66 50 54.99 50.33 54.99 50.75Z" fill="#B470EB" fill-opacity="1.000000" fill-rule="nonzero"/>
			<path id="Ellipse 6867" d="M54.99 54.75C54.99 55.16 54.66 55.5 54.24 55.5C53.83 55.5 53.49 55.16 53.49 54.75C53.49 54.33 53.83 54 54.24 54C54.66 54 54.99 54.33 54.99 54.75Z" fill="#B470EB" fill-opacity="1.000000" fill-rule="nonzero"/>
			<path id="Ellipse 6879" d="M54.99 58.75C54.99 59.16 54.66 59.5 54.24 59.5C53.83 59.5 53.49 59.16 53.49 58.75C53.49 58.33 53.83 58 54.24 58C54.66 58 54.99 58.33 54.99 58.75Z" fill="#B470EB" fill-opacity="1.000000" fill-rule="nonzero"/>
		</mask>
		<g mask="url(#mask2_20898)">
			<path id="Ellipse 6488" d="M47.89 25.41C49.43 29.51 49.32 34.13 47.9 38.42C46.38 43.04 43.48 46.9 39.93 49.52C36.1 52.34 31.86 53.49 27.97 53.11C23.77 52.7 20.32 50.57 18.05 47.39C15.59 43.97 14.68 39.62 15.17 35.24C15.69 30.52 17.77 26.15 20.78 22.78C24.01 19.14 28.04 16.95 32.05 16.28L32.02 34.62L47.89 25.41Z" fill="url(#paint_linear_2_21055_0)" fill-opacity="1.000000" fill-rule="evenodd"/>
		</g>
		<path id="Ellipse 6490" d="" fill="#000000" fill-opacity="0" fill-rule="nonzero"/>
		<path id="Ellipse 6490" d="M45.5 23.99L47.89 25.41C49.18 28.85 49.35 32.83 48.39 36.76C47.42 40.7 45.36 44.38 42.51 47.28C39.66 50.17 36.17 52.13 32.54 52.86C28.92 53.59 25.36 53.06 22.38 51.34C19.39 49.62 17.15 46.8 15.97 43.3C14.79 39.8 14.73 35.8 15.81 31.88C16.9 27.97 19.05 24.34 21.98 21.53C24.9 18.72 28.43 16.88 32.05 16.28M25.5 11.99L32.05 16.28L32.02 34.62L47.89 25.41" stroke="#000000" stroke-opacity="1.000000" stroke-width="1.200000"/>
		<path id="Vector 11591" d="M15 46.5L22.5 51.5" stroke="#000000" stroke-opacity="1.000000" stroke-width="1.200000"/>
		<path id="Ellipse 6724" d="M55.75 15.75C55.75 16.16 55.41 16.5 55 16.5C54.58 16.5 54.25 16.16 54.25 15.75C54.25 15.33 54.58 15 55 15C55.41 15 55.75 15.33 55.75 15.75Z" fill="#B470EB" fill-opacity="1.000000" fill-rule="nonzero"/>
		<path id="Ellipse 6728" d="M5.75 15.75C5.75 16.16 5.41 16.5 5 16.5C4.58 16.5 4.25 16.16 4.25 15.75C4.25 15.33 4.58 15 5 15C5.41 15 5.75 15.33 5.75 15.75Z" fill="#B470EB" fill-opacity="1.000000" fill-rule="nonzero"/>
		<path id="Ellipse 6727" d="M30.75 1C30.75 1.41 30.41 1.75 30 1.75C29.58 1.75 29.25 1.41 29.25 1C29.25 0.58 29.58 0.25 30 0.25C30.41 0.25 30.75 0.58 30.75 1Z" fill="#B470EB" fill-opacity="1.000000" fill-rule="nonzero"/>
		<path id="Ellipse 6730" d="M30.75 59C30.75 59.41 30.41 59.75 30 59.75C29.58 59.75 29.25 59.41 29.25 59C29.25 58.58 29.58 58.25 30 58.25C30.41 58.25 30.75 58.58 30.75 59Z" fill="#B470EB" fill-opacity="1.000000" fill-rule="nonzero"/>
		<path id="Ellipse 6726" d="M55.75 44.25C55.75 44.66 55.41 45 55 45C54.58 45 54.25 44.66 54.25 44.25C54.25 43.83 54.58 43.5 55 43.5C55.41 43.5 55.75 43.83 55.75 44.25Z" fill="#B470EB" fill-opacity="1.000000" fill-rule="nonzero"/>
		<path id="Ellipse 6729" d="M5.75 44.25C5.75 44.66 5.41 45 5 45C4.58 45 4.25 44.66 4.25 44.25C4.25 43.83 4.58 43.5 5 43.5C5.41 43.5 5.75 43.83 5.75 44.25Z" fill="#B470EB" fill-opacity="1.000000" fill-rule="nonzero"/>
	</g>
</svg>
