<svg width="30.000000" height="31.000000" viewBox="0 0 30 31" fill="none" xmlns="http://www.w3.org/2000/svg" xmlns:xlink="http://www.w3.org/1999/xlink">
	<desc>
			Created with Pixso.
	</desc>
	<defs/>
	<path id="Subtract" d="M14.999 0.267242C6.86307 0.267242 0.267578 6.86273 0.267578 14.9987C0.267578 23.1347 6.86307 29.7302 14.999 29.7302C23.135 29.7302 29.7305 23.1347 29.7305 14.9987C29.7305 6.86273 23.135 0.267242 14.999 0.267242ZM12.3634 8.40698L12.3634 8.40701L16.2845 8.40701C19.1339 8.40701 21.4437 10.7169 21.4437 13.5662C21.4437 16.4155 19.1339 18.7254 16.2845 18.7254L12.3634 18.7254L12.3634 21.8209L9.47424 21.8209L9.47424 8.40698L12.3634 8.40698ZM12.3634 15.8362L12.3634 11.2961L16.2845 11.2961C17.5383 11.2961 18.5546 12.3125 18.5546 13.5662C18.5546 14.8199 17.5383 15.8362 16.2845 15.8362L12.3634 15.8362Z" clip-rule="evenodd" fill="#44464A" fill-opacity="1.000000" fill-rule="evenodd"/>
</svg>

