<svg width="60.000000" height="60.000000" viewBox="0 0 60 60" fill="none" xmlns="http://www.w3.org/2000/svg" xmlns:xlink="http://www.w3.org/1999/xlink">
	<desc>
			Created with Pixso.
	</desc>
	<defs>
		<clipPath id="clip2_20551">
			<rect id="icon" width="60.000000" height="60.000000" fill="white" fill-opacity="0"/>
		</clipPath>
		<radialGradient id="paint_radial_2_20553_0" cx="0.000000" cy="0.000000" r="1.000000" gradientUnits="userSpaceOnUse" gradientTransform="translate(29.9998 30.0002) rotate(90) scale(37.6015 32.4151)">
			<stop stop-color="#FFFFFF"/>
			<stop offset="1.000000" stop-color="#FFFFFF" stop-opacity="0.000000"/>
		</radialGradient>
		<linearGradient id="paint_linear_2_20561_0" x1="42.584507" y1="1.779007" x2="43.941448" y2="52.685787" gradientUnits="userSpaceOnUse">
			<stop stop-color="#B470EB" stop-opacity="0.000000"/>
			<stop offset="1.000000" stop-color="#B470EB"/>
		</linearGradient>
		<linearGradient id="paint_linear_2_20721_0" x1="26.084534" y1="37.187023" x2="27.441389" y2="57.154778" gradientUnits="userSpaceOnUse">
			<stop stop-color="#B470EB" stop-opacity="0.000000"/>
			<stop offset="1.000000" stop-color="#B470EB"/>
		</linearGradient>
	</defs>
	<g clip-path="url(#clip2_20551)">
		<path id="Vector 7120" d="M29.99 1L29.99 59M42.49 8.39L29.99 1L17.49 8.39L4.99 15.78L4.99 30.01L4.99 44.23L17.49 51.61L29.99 59L42.49 51.6L54.99 44.21L54.99 30L54.99 15.78L42.49 8.39ZM4.99 44.23L17.49 37.12L42.49 22.89L54.99 15.78M54.99 44.21L17.49 22.89L4.99 15.78" stroke="#B470EB" stroke-opacity="0.250000" stroke-width="1.000000"/>
		<path id="Vector 7120" d="M29.99 1L29.99 59M42.49 8.39L29.99 1L17.49 8.39L4.99 15.78L4.99 30.01L4.99 44.23L17.49 51.61L29.99 59L42.49 51.6L54.99 44.21L54.99 30L54.99 15.78L42.49 8.39ZM4.99 44.23L17.49 37.12L42.49 22.89L54.99 15.78M54.99 44.21L17.49 22.89L4.99 15.78" stroke="url(#paint_radial_2_20553_0)" stroke-opacity="1.000000" stroke-width="1.000000"/>
		<path id="Ellipse 6724" d="M55.75 15.75C55.75 16.16 55.41 16.5 55 16.5C54.58 16.5 54.25 16.16 54.25 15.75C54.25 15.33 54.58 15 55 15C55.41 15 55.75 15.33 55.75 15.75Z" fill="#B470EB" fill-opacity="1.000000" fill-rule="nonzero"/>
		<path id="Ellipse 6728" d="M5.75 15.75C5.75 16.16 5.41 16.5 5 16.5C4.58 16.5 4.25 16.16 4.25 15.75C4.25 15.33 4.58 15 5 15C5.41 15 5.75 15.33 5.75 15.75Z" fill="#B470EB" fill-opacity="1.000000" fill-rule="nonzero"/>
		<path id="Ellipse 6727" d="M30.75 1C30.75 1.41 30.41 1.75 30 1.75C29.58 1.75 29.25 1.41 29.25 1C29.25 0.58 29.58 0.25 30 0.25C30.41 0.25 30.75 0.58 30.75 1Z" fill="#B470EB" fill-opacity="1.000000" fill-rule="nonzero"/>
		<path id="Ellipse 6730" d="M30.75 59C30.75 59.41 30.41 59.75 30 59.75C29.58 59.75 29.25 59.41 29.25 59C29.25 58.58 29.58 58.25 30 58.25C30.41 58.25 30.75 58.58 30.75 59Z" fill="#B470EB" fill-opacity="1.000000" fill-rule="nonzero"/>
		<path id="Ellipse 6726" d="M55.75 44.25C55.75 44.66 55.41 45 55 45C54.58 45 54.25 44.66 54.25 44.25C54.25 43.83 54.58 43.5 55 43.5C55.41 43.5 55.75 43.83 55.75 44.25Z" fill="#B470EB" fill-opacity="1.000000" fill-rule="nonzero"/>
		<path id="Ellipse 6729" d="M5.75 44.25C5.75 44.66 5.41 45 5 45C4.58 45 4.25 44.66 4.25 44.25C4.25 43.83 4.58 43.5 5 43.5C5.41 43.5 5.75 43.83 5.75 44.25Z" fill="#B470EB" fill-opacity="1.000000" fill-rule="nonzero"/>
		<mask id="mask2_20561" mask-type="alpha" maskUnits="userSpaceOnUse" x="39.000000" y="11.500000" width="8.000000" height="33.142822">
			<path id="Vector 11708" d="M39 15.5L39 44.64L47 40L47 11.5L39 15.5Z" fill="url(#paint_linear_2_20561_0)" fill-opacity="1.000000" fill-rule="evenodd"/>
		</mask>
		<g mask="url(#mask2_20561)">
			<path id="Ellipse 6724" d="M21.5 12.75C21.5 13.16 21.16 13.5 20.75 13.5C20.33 13.5 20 13.16 20 12.75C20 12.33 20.33 12 20.75 12C21.16 12 21.5 12.33 21.5 12.75Z" fill="#B470EB" fill-opacity="1.000000" fill-rule="nonzero"/>
			<path id="Ellipse 6736" d="M21.5 16.75C21.5 17.16 21.16 17.5 20.75 17.5C20.33 17.5 20 17.16 20 16.75C20 16.33 20.33 16 20.75 16C21.16 16 21.5 16.33 21.5 16.75Z" fill="#B470EB" fill-opacity="1.000000" fill-rule="nonzero"/>
			<path id="Ellipse 6748" d="M21.5 20.75C21.5 21.16 21.16 21.5 20.75 21.5C20.33 21.5 20 21.16 20 20.75C20 20.33 20.33 20 20.75 20C21.16 20 21.5 20.33 21.5 20.75Z" fill="#B470EB" fill-opacity="1.000000" fill-rule="nonzero"/>
			<path id="Ellipse 6760" d="M21.5 24.75C21.5 25.16 21.16 25.5 20.75 25.5C20.33 25.5 20 25.16 20 24.75C20 24.33 20.33 24 20.75 24C21.16 24 21.5 24.33 21.5 24.75Z" fill="#B470EB" fill-opacity="1.000000" fill-rule="nonzero"/>
			<path id="Ellipse 6772" d="M21.5 28.75C21.5 29.16 21.16 29.5 20.75 29.5C20.33 29.5 20 29.16 20 28.75C20 28.33 20.33 28 20.75 28C21.16 28 21.5 28.33 21.5 28.75Z" fill="#B470EB" fill-opacity="1.000000" fill-rule="nonzero"/>
			<path id="Ellipse 6784" d="M21.5 32.75C21.5 33.16 21.16 33.5 20.75 33.5C20.33 33.5 20 33.16 20 32.75C20 32.33 20.33 32 20.75 32C21.16 32 21.5 32.33 21.5 32.75Z" fill="#B470EB" fill-opacity="1.000000" fill-rule="nonzero"/>
			<path id="Ellipse 6796" d="M21.5 36.75C21.5 37.16 21.16 37.5 20.75 37.5C20.33 37.5 20 37.16 20 36.75C20 36.33 20.33 36 20.75 36C21.16 36 21.5 36.33 21.5 36.75Z" fill="#B470EB" fill-opacity="1.000000" fill-rule="nonzero"/>
			<path id="Ellipse 6808" d="M21.5 40.75C21.5 41.16 21.16 41.5 20.75 41.5C20.33 41.5 20 41.16 20 40.75C20 40.33 20.33 40 20.75 40C21.16 40 21.5 40.33 21.5 40.75Z" fill="#B470EB" fill-opacity="1.000000" fill-rule="nonzero"/>
			<path id="Ellipse 6820" d="M21.5 44.75C21.5 45.16 21.16 45.5 20.75 45.5C20.33 45.5 20 45.16 20 44.75C20 44.33 20.33 44 20.75 44C21.16 44 21.5 44.33 21.5 44.75Z" fill="#B470EB" fill-opacity="1.000000" fill-rule="nonzero"/>
			<path id="Ellipse 6832" d="M21.5 48.75C21.5 49.16 21.16 49.5 20.75 49.5C20.33 49.5 20 49.16 20 48.75C20 48.33 20.33 48 20.75 48C21.16 48 21.5 48.33 21.5 48.75Z" fill="#B470EB" fill-opacity="1.000000" fill-rule="nonzero"/>
			<path id="Ellipse 6844" d="M21.5 52.75C21.5 53.16 21.16 53.5 20.75 53.5C20.33 53.5 20 53.16 20 52.75C20 52.33 20.33 52 20.75 52C21.16 52 21.5 52.33 21.5 52.75Z" fill="#B470EB" fill-opacity="1.000000" fill-rule="nonzero"/>
			<path id="Ellipse 6856" d="M21.5 56.75C21.5 57.16 21.16 57.5 20.75 57.5C20.33 57.5 20 57.16 20 56.75C20 56.33 20.33 56 20.75 56C21.16 56 21.5 56.33 21.5 56.75Z" fill="#B470EB" fill-opacity="1.000000" fill-rule="nonzero"/>
			<path id="Ellipse 6868" d="M21.5 60.75C21.5 61.16 21.16 61.5 20.75 61.5C20.33 61.5 20 61.16 20 60.75C20 60.33 20.33 60 20.75 60C21.16 60 21.5 60.33 21.5 60.75Z" fill="#B470EB" fill-opacity="1.000000" fill-rule="nonzero"/>
			<path id="Ellipse 6725" d="M25.5 12.75C25.5 13.16 25.16 13.5 24.75 13.5C24.33 13.5 24 13.16 24 12.75C24 12.33 24.33 12 24.75 12C25.16 12 25.5 12.33 25.5 12.75Z" fill="#B470EB" fill-opacity="1.000000" fill-rule="nonzero"/>
			<path id="Ellipse 6737" d="M25.5 16.75C25.5 17.16 25.16 17.5 24.75 17.5C24.33 17.5 24 17.16 24 16.75C24 16.33 24.33 16 24.75 16C25.16 16 25.5 16.33 25.5 16.75Z" fill="#B470EB" fill-opacity="1.000000" fill-rule="nonzero"/>
			<path id="Ellipse 6749" d="M25.5 20.75C25.5 21.16 25.16 21.5 24.75 21.5C24.33 21.5 24 21.16 24 20.75C24 20.33 24.33 20 24.75 20C25.16 20 25.5 20.33 25.5 20.75Z" fill="#B470EB" fill-opacity="1.000000" fill-rule="nonzero"/>
			<path id="Ellipse 6761" d="M25.5 24.75C25.5 25.16 25.16 25.5 24.75 25.5C24.33 25.5 24 25.16 24 24.75C24 24.33 24.33 24 24.75 24C25.16 24 25.5 24.33 25.5 24.75Z" fill="#B470EB" fill-opacity="1.000000" fill-rule="nonzero"/>
			<path id="Ellipse 6773" d="M25.5 28.75C25.5 29.16 25.16 29.5 24.75 29.5C24.33 29.5 24 29.16 24 28.75C24 28.33 24.33 28 24.75 28C25.16 28 25.5 28.33 25.5 28.75Z" fill="#B470EB" fill-opacity="1.000000" fill-rule="nonzero"/>
			<path id="Ellipse 6785" d="M25.5 32.75C25.5 33.16 25.16 33.5 24.75 33.5C24.33 33.5 24 33.16 24 32.75C24 32.33 24.33 32 24.75 32C25.16 32 25.5 32.33 25.5 32.75Z" fill="#B470EB" fill-opacity="1.000000" fill-rule="nonzero"/>
			<path id="Ellipse 6797" d="M25.5 36.75C25.5 37.16 25.16 37.5 24.75 37.5C24.33 37.5 24 37.16 24 36.75C24 36.33 24.33 36 24.75 36C25.16 36 25.5 36.33 25.5 36.75Z" fill="#B470EB" fill-opacity="1.000000" fill-rule="nonzero"/>
			<path id="Ellipse 6809" d="M25.5 40.75C25.5 41.16 25.16 41.5 24.75 41.5C24.33 41.5 24 41.16 24 40.75C24 40.33 24.33 40 24.75 40C25.16 40 25.5 40.33 25.5 40.75Z" fill="#B470EB" fill-opacity="1.000000" fill-rule="nonzero"/>
			<path id="Ellipse 6821" d="M25.5 44.75C25.5 45.16 25.16 45.5 24.75 45.5C24.33 45.5 24 45.16 24 44.75C24 44.33 24.33 44 24.75 44C25.16 44 25.5 44.33 25.5 44.75Z" fill="#B470EB" fill-opacity="1.000000" fill-rule="nonzero"/>
			<path id="Ellipse 6833" d="M25.5 48.75C25.5 49.16 25.16 49.5 24.75 49.5C24.33 49.5 24 49.16 24 48.75C24 48.33 24.33 48 24.75 48C25.16 48 25.5 48.33 25.5 48.75Z" fill="#B470EB" fill-opacity="1.000000" fill-rule="nonzero"/>
			<path id="Ellipse 6845" d="M25.5 52.75C25.5 53.16 25.16 53.5 24.75 53.5C24.33 53.5 24 53.16 24 52.75C24 52.33 24.33 52 24.75 52C25.16 52 25.5 52.33 25.5 52.75Z" fill="#B470EB" fill-opacity="1.000000" fill-rule="nonzero"/>
			<path id="Ellipse 6857" d="M25.5 56.75C25.5 57.16 25.16 57.5 24.75 57.5C24.33 57.5 24 57.16 24 56.75C24 56.33 24.33 56 24.75 56C25.16 56 25.5 56.33 25.5 56.75Z" fill="#B470EB" fill-opacity="1.000000" fill-rule="nonzero"/>
			<path id="Ellipse 6869" d="M25.5 60.75C25.5 61.16 25.16 61.5 24.75 61.5C24.33 61.5 24 61.16 24 60.75C24 60.33 24.33 60 24.75 60C25.16 60 25.5 60.33 25.5 60.75Z" fill="#B470EB" fill-opacity="1.000000" fill-rule="nonzero"/>
			<path id="Ellipse 6726" d="M29.5 12.75C29.5 13.16 29.16 13.5 28.75 13.5C28.33 13.5 28 13.16 28 12.75C28 12.33 28.33 12 28.75 12C29.16 12 29.5 12.33 29.5 12.75Z" fill="#B470EB" fill-opacity="1.000000" fill-rule="nonzero"/>
			<path id="Ellipse 6738" d="M29.5 16.75C29.5 17.16 29.16 17.5 28.75 17.5C28.33 17.5 28 17.16 28 16.75C28 16.33 28.33 16 28.75 16C29.16 16 29.5 16.33 29.5 16.75Z" fill="#B470EB" fill-opacity="1.000000" fill-rule="nonzero"/>
			<path id="Ellipse 6750" d="M29.5 20.75C29.5 21.16 29.16 21.5 28.75 21.5C28.33 21.5 28 21.16 28 20.75C28 20.33 28.33 20 28.75 20C29.16 20 29.5 20.33 29.5 20.75Z" fill="#B470EB" fill-opacity="1.000000" fill-rule="nonzero"/>
			<path id="Ellipse 6762" d="M29.5 24.75C29.5 25.16 29.16 25.5 28.75 25.5C28.33 25.5 28 25.16 28 24.75C28 24.33 28.33 24 28.75 24C29.16 24 29.5 24.33 29.5 24.75Z" fill="#B470EB" fill-opacity="1.000000" fill-rule="nonzero"/>
			<path id="Ellipse 6774" d="M29.5 28.75C29.5 29.16 29.16 29.5 28.75 29.5C28.33 29.5 28 29.16 28 28.75C28 28.33 28.33 28 28.75 28C29.16 28 29.5 28.33 29.5 28.75Z" fill="#B470EB" fill-opacity="1.000000" fill-rule="nonzero"/>
			<path id="Ellipse 6786" d="M29.5 32.75C29.5 33.16 29.16 33.5 28.75 33.5C28.33 33.5 28 33.16 28 32.75C28 32.33 28.33 32 28.75 32C29.16 32 29.5 32.33 29.5 32.75Z" fill="#B470EB" fill-opacity="1.000000" fill-rule="nonzero"/>
			<path id="Ellipse 6798" d="M29.5 36.75C29.5 37.16 29.16 37.5 28.75 37.5C28.33 37.5 28 37.16 28 36.75C28 36.33 28.33 36 28.75 36C29.16 36 29.5 36.33 29.5 36.75Z" fill="#B470EB" fill-opacity="1.000000" fill-rule="nonzero"/>
			<path id="Ellipse 6810" d="M29.5 40.75C29.5 41.16 29.16 41.5 28.75 41.5C28.33 41.5 28 41.16 28 40.75C28 40.33 28.33 40 28.75 40C29.16 40 29.5 40.33 29.5 40.75Z" fill="#B470EB" fill-opacity="1.000000" fill-rule="nonzero"/>
			<path id="Ellipse 6822" d="M29.5 44.75C29.5 45.16 29.16 45.5 28.75 45.5C28.33 45.5 28 45.16 28 44.75C28 44.33 28.33 44 28.75 44C29.16 44 29.5 44.33 29.5 44.75Z" fill="#B470EB" fill-opacity="1.000000" fill-rule="nonzero"/>
			<path id="Ellipse 6834" d="M29.5 48.75C29.5 49.16 29.16 49.5 28.75 49.5C28.33 49.5 28 49.16 28 48.75C28 48.33 28.33 48 28.75 48C29.16 48 29.5 48.33 29.5 48.75Z" fill="#B470EB" fill-opacity="1.000000" fill-rule="nonzero"/>
			<path id="Ellipse 6846" d="M29.5 52.75C29.5 53.16 29.16 53.5 28.75 53.5C28.33 53.5 28 53.16 28 52.75C28 52.33 28.33 52 28.75 52C29.16 52 29.5 52.33 29.5 52.75Z" fill="#B470EB" fill-opacity="1.000000" fill-rule="nonzero"/>
			<path id="Ellipse 6858" d="M29.5 56.75C29.5 57.16 29.16 57.5 28.75 57.5C28.33 57.5 28 57.16 28 56.75C28 56.33 28.33 56 28.75 56C29.16 56 29.5 56.33 29.5 56.75Z" fill="#B470EB" fill-opacity="1.000000" fill-rule="nonzero"/>
			<path id="Ellipse 6870" d="M29.5 60.75C29.5 61.16 29.16 61.5 28.75 61.5C28.33 61.5 28 61.16 28 60.75C28 60.33 28.33 60 28.75 60C29.16 60 29.5 60.33 29.5 60.75Z" fill="#B470EB" fill-opacity="1.000000" fill-rule="nonzero"/>
			<path id="Ellipse 6727" d="M33.5 12.75C33.5 13.16 33.16 13.5 32.75 13.5C32.33 13.5 32 13.16 32 12.75C32 12.33 32.33 12 32.75 12C33.16 12 33.5 12.33 33.5 12.75Z" fill="#B470EB" fill-opacity="1.000000" fill-rule="nonzero"/>
			<path id="Ellipse 6739" d="M33.5 16.75C33.5 17.16 33.16 17.5 32.75 17.5C32.33 17.5 32 17.16 32 16.75C32 16.33 32.33 16 32.75 16C33.16 16 33.5 16.33 33.5 16.75Z" fill="#B470EB" fill-opacity="1.000000" fill-rule="nonzero"/>
			<path id="Ellipse 6751" d="M33.5 20.75C33.5 21.16 33.16 21.5 32.75 21.5C32.33 21.5 32 21.16 32 20.75C32 20.33 32.33 20 32.75 20C33.16 20 33.5 20.33 33.5 20.75Z" fill="#B470EB" fill-opacity="1.000000" fill-rule="nonzero"/>
			<path id="Ellipse 6763" d="M33.5 24.75C33.5 25.16 33.16 25.5 32.75 25.5C32.33 25.5 32 25.16 32 24.75C32 24.33 32.33 24 32.75 24C33.16 24 33.5 24.33 33.5 24.75Z" fill="#B470EB" fill-opacity="1.000000" fill-rule="nonzero"/>
			<path id="Ellipse 6775" d="M33.5 28.75C33.5 29.16 33.16 29.5 32.75 29.5C32.33 29.5 32 29.16 32 28.75C32 28.33 32.33 28 32.75 28C33.16 28 33.5 28.33 33.5 28.75Z" fill="#B470EB" fill-opacity="1.000000" fill-rule="nonzero"/>
			<path id="Ellipse 6787" d="M33.5 32.75C33.5 33.16 33.16 33.5 32.75 33.5C32.33 33.5 32 33.16 32 32.75C32 32.33 32.33 32 32.75 32C33.16 32 33.5 32.33 33.5 32.75Z" fill="#B470EB" fill-opacity="1.000000" fill-rule="nonzero"/>
			<path id="Ellipse 6799" d="M33.5 36.75C33.5 37.16 33.16 37.5 32.75 37.5C32.33 37.5 32 37.16 32 36.75C32 36.33 32.33 36 32.75 36C33.16 36 33.5 36.33 33.5 36.75Z" fill="#B470EB" fill-opacity="1.000000" fill-rule="nonzero"/>
			<path id="Ellipse 6811" d="M33.5 40.75C33.5 41.16 33.16 41.5 32.75 41.5C32.33 41.5 32 41.16 32 40.75C32 40.33 32.33 40 32.75 40C33.16 40 33.5 40.33 33.5 40.75Z" fill="#B470EB" fill-opacity="1.000000" fill-rule="nonzero"/>
			<path id="Ellipse 6823" d="M33.5 44.75C33.5 45.16 33.16 45.5 32.75 45.5C32.33 45.5 32 45.16 32 44.75C32 44.33 32.33 44 32.75 44C33.16 44 33.5 44.33 33.5 44.75Z" fill="#B470EB" fill-opacity="1.000000" fill-rule="nonzero"/>
			<path id="Ellipse 6835" d="M33.5 48.75C33.5 49.16 33.16 49.5 32.75 49.5C32.33 49.5 32 49.16 32 48.75C32 48.33 32.33 48 32.75 48C33.16 48 33.5 48.33 33.5 48.75Z" fill="#B470EB" fill-opacity="1.000000" fill-rule="nonzero"/>
			<path id="Ellipse 6847" d="M33.5 52.75C33.5 53.16 33.16 53.5 32.75 53.5C32.33 53.5 32 53.16 32 52.75C32 52.33 32.33 52 32.75 52C33.16 52 33.5 52.33 33.5 52.75Z" fill="#B470EB" fill-opacity="1.000000" fill-rule="nonzero"/>
			<path id="Ellipse 6859" d="M33.5 56.75C33.5 57.16 33.16 57.5 32.75 57.5C32.33 57.5 32 57.16 32 56.75C32 56.33 32.33 56 32.75 56C33.16 56 33.5 56.33 33.5 56.75Z" fill="#B470EB" fill-opacity="1.000000" fill-rule="nonzero"/>
			<path id="Ellipse 6871" d="M33.5 60.75C33.5 61.16 33.16 61.5 32.75 61.5C32.33 61.5 32 61.16 32 60.75C32 60.33 32.33 60 32.75 60C33.16 60 33.5 60.33 33.5 60.75Z" fill="#B470EB" fill-opacity="1.000000" fill-rule="nonzero"/>
			<path id="Ellipse 6728" d="M37.5 12.75C37.5 13.16 37.16 13.5 36.75 13.5C36.33 13.5 36 13.16 36 12.75C36 12.33 36.33 12 36.75 12C37.16 12 37.5 12.33 37.5 12.75Z" fill="#B470EB" fill-opacity="1.000000" fill-rule="nonzero"/>
			<path id="Ellipse 6740" d="M37.5 16.75C37.5 17.16 37.16 17.5 36.75 17.5C36.33 17.5 36 17.16 36 16.75C36 16.33 36.33 16 36.75 16C37.16 16 37.5 16.33 37.5 16.75Z" fill="#B470EB" fill-opacity="1.000000" fill-rule="nonzero"/>
			<path id="Ellipse 6752" d="M37.5 20.75C37.5 21.16 37.16 21.5 36.75 21.5C36.33 21.5 36 21.16 36 20.75C36 20.33 36.33 20 36.75 20C37.16 20 37.5 20.33 37.5 20.75Z" fill="#B470EB" fill-opacity="1.000000" fill-rule="nonzero"/>
			<path id="Ellipse 6764" d="M37.5 24.75C37.5 25.16 37.16 25.5 36.75 25.5C36.33 25.5 36 25.16 36 24.75C36 24.33 36.33 24 36.75 24C37.16 24 37.5 24.33 37.5 24.75Z" fill="#B470EB" fill-opacity="1.000000" fill-rule="nonzero"/>
			<path id="Ellipse 6776" d="M37.5 28.75C37.5 29.16 37.16 29.5 36.75 29.5C36.33 29.5 36 29.16 36 28.75C36 28.33 36.33 28 36.75 28C37.16 28 37.5 28.33 37.5 28.75Z" fill="#B470EB" fill-opacity="1.000000" fill-rule="nonzero"/>
			<path id="Ellipse 6788" d="M37.5 32.75C37.5 33.16 37.16 33.5 36.75 33.5C36.33 33.5 36 33.16 36 32.75C36 32.33 36.33 32 36.75 32C37.16 32 37.5 32.33 37.5 32.75Z" fill="#B470EB" fill-opacity="1.000000" fill-rule="nonzero"/>
			<path id="Ellipse 6800" d="M37.5 36.75C37.5 37.16 37.16 37.5 36.75 37.5C36.33 37.5 36 37.16 36 36.75C36 36.33 36.33 36 36.75 36C37.16 36 37.5 36.33 37.5 36.75Z" fill="#B470EB" fill-opacity="1.000000" fill-rule="nonzero"/>
			<path id="Ellipse 6812" d="M37.5 40.75C37.5 41.16 37.16 41.5 36.75 41.5C36.33 41.5 36 41.16 36 40.75C36 40.33 36.33 40 36.75 40C37.16 40 37.5 40.33 37.5 40.75Z" fill="#B470EB" fill-opacity="1.000000" fill-rule="nonzero"/>
			<path id="Ellipse 6824" d="M37.5 44.75C37.5 45.16 37.16 45.5 36.75 45.5C36.33 45.5 36 45.16 36 44.75C36 44.33 36.33 44 36.75 44C37.16 44 37.5 44.33 37.5 44.75Z" fill="#B470EB" fill-opacity="1.000000" fill-rule="nonzero"/>
			<path id="Ellipse 6836" d="M37.5 48.75C37.5 49.16 37.16 49.5 36.75 49.5C36.33 49.5 36 49.16 36 48.75C36 48.33 36.33 48 36.75 48C37.16 48 37.5 48.33 37.5 48.75Z" fill="#B470EB" fill-opacity="1.000000" fill-rule="nonzero"/>
			<path id="Ellipse 6848" d="M37.5 52.75C37.5 53.16 37.16 53.5 36.75 53.5C36.33 53.5 36 53.16 36 52.75C36 52.33 36.33 52 36.75 52C37.16 52 37.5 52.33 37.5 52.75Z" fill="#B470EB" fill-opacity="1.000000" fill-rule="nonzero"/>
			<path id="Ellipse 6860" d="M37.5 56.75C37.5 57.16 37.16 57.5 36.75 57.5C36.33 57.5 36 57.16 36 56.75C36 56.33 36.33 56 36.75 56C37.16 56 37.5 56.33 37.5 56.75Z" fill="#B470EB" fill-opacity="1.000000" fill-rule="nonzero"/>
			<path id="Ellipse 6872" d="M37.5 60.75C37.5 61.16 37.16 61.5 36.75 61.5C36.33 61.5 36 61.16 36 60.75C36 60.33 36.33 60 36.75 60C37.16 60 37.5 60.33 37.5 60.75Z" fill="#B470EB" fill-opacity="1.000000" fill-rule="nonzero"/>
			<path id="Ellipse 6729" d="M41.5 12.75C41.5 13.16 41.16 13.5 40.75 13.5C40.33 13.5 40 13.16 40 12.75C40 12.33 40.33 12 40.75 12C41.16 12 41.5 12.33 41.5 12.75Z" fill="#B470EB" fill-opacity="1.000000" fill-rule="nonzero"/>
			<path id="Ellipse 6741" d="M41.5 16.75C41.5 17.16 41.16 17.5 40.75 17.5C40.33 17.5 40 17.16 40 16.75C40 16.33 40.33 16 40.75 16C41.16 16 41.5 16.33 41.5 16.75Z" fill="#B470EB" fill-opacity="1.000000" fill-rule="nonzero"/>
			<path id="Ellipse 6753" d="M41.5 20.75C41.5 21.16 41.16 21.5 40.75 21.5C40.33 21.5 40 21.16 40 20.75C40 20.33 40.33 20 40.75 20C41.16 20 41.5 20.33 41.5 20.75Z" fill="#B470EB" fill-opacity="1.000000" fill-rule="nonzero"/>
			<path id="Ellipse 6765" d="M41.5 24.75C41.5 25.16 41.16 25.5 40.75 25.5C40.33 25.5 40 25.16 40 24.75C40 24.33 40.33 24 40.75 24C41.16 24 41.5 24.33 41.5 24.75Z" fill="#B470EB" fill-opacity="1.000000" fill-rule="nonzero"/>
			<path id="Ellipse 6777" d="M41.5 28.75C41.5 29.16 41.16 29.5 40.75 29.5C40.33 29.5 40 29.16 40 28.75C40 28.33 40.33 28 40.75 28C41.16 28 41.5 28.33 41.5 28.75Z" fill="#B470EB" fill-opacity="1.000000" fill-rule="nonzero"/>
			<path id="Ellipse 6789" d="M41.5 32.75C41.5 33.16 41.16 33.5 40.75 33.5C40.33 33.5 40 33.16 40 32.75C40 32.33 40.33 32 40.75 32C41.16 32 41.5 32.33 41.5 32.75Z" fill="#B470EB" fill-opacity="1.000000" fill-rule="nonzero"/>
			<path id="Ellipse 6801" d="M41.5 36.75C41.5 37.16 41.16 37.5 40.75 37.5C40.33 37.5 40 37.16 40 36.75C40 36.33 40.33 36 40.75 36C41.16 36 41.5 36.33 41.5 36.75Z" fill="#B470EB" fill-opacity="1.000000" fill-rule="nonzero"/>
			<path id="Ellipse 6813" d="M41.5 40.75C41.5 41.16 41.16 41.5 40.75 41.5C40.33 41.5 40 41.16 40 40.75C40 40.33 40.33 40 40.75 40C41.16 40 41.5 40.33 41.5 40.75Z" fill="#B470EB" fill-opacity="1.000000" fill-rule="nonzero"/>
			<path id="Ellipse 6825" d="M41.5 44.75C41.5 45.16 41.16 45.5 40.75 45.5C40.33 45.5 40 45.16 40 44.75C40 44.33 40.33 44 40.75 44C41.16 44 41.5 44.33 41.5 44.75Z" fill="#B470EB" fill-opacity="1.000000" fill-rule="nonzero"/>
			<path id="Ellipse 6837" d="M41.5 48.75C41.5 49.16 41.16 49.5 40.75 49.5C40.33 49.5 40 49.16 40 48.75C40 48.33 40.33 48 40.75 48C41.16 48 41.5 48.33 41.5 48.75Z" fill="#B470EB" fill-opacity="1.000000" fill-rule="nonzero"/>
			<path id="Ellipse 6849" d="M41.5 52.75C41.5 53.16 41.16 53.5 40.75 53.5C40.33 53.5 40 53.16 40 52.75C40 52.33 40.33 52 40.75 52C41.16 52 41.5 52.33 41.5 52.75Z" fill="#B470EB" fill-opacity="1.000000" fill-rule="nonzero"/>
			<path id="Ellipse 6861" d="M41.5 56.75C41.5 57.16 41.16 57.5 40.75 57.5C40.33 57.5 40 57.16 40 56.75C40 56.33 40.33 56 40.75 56C41.16 56 41.5 56.33 41.5 56.75Z" fill="#B470EB" fill-opacity="1.000000" fill-rule="nonzero"/>
			<path id="Ellipse 6873" d="M41.5 60.75C41.5 61.16 41.16 61.5 40.75 61.5C40.33 61.5 40 61.16 40 60.75C40 60.33 40.33 60 40.75 60C41.16 60 41.5 60.33 41.5 60.75Z" fill="#B470EB" fill-opacity="1.000000" fill-rule="nonzero"/>
			<path id="Ellipse 6730" d="M45.5 12.75C45.5 13.16 45.16 13.5 44.75 13.5C44.33 13.5 44 13.16 44 12.75C44 12.33 44.33 12 44.75 12C45.16 12 45.5 12.33 45.5 12.75Z" fill="#B470EB" fill-opacity="1.000000" fill-rule="nonzero"/>
			<path id="Ellipse 6742" d="M45.5 16.75C45.5 17.16 45.16 17.5 44.75 17.5C44.33 17.5 44 17.16 44 16.75C44 16.33 44.33 16 44.75 16C45.16 16 45.5 16.33 45.5 16.75Z" fill="#B470EB" fill-opacity="1.000000" fill-rule="nonzero"/>
			<path id="Ellipse 6754" d="M45.5 20.75C45.5 21.16 45.16 21.5 44.75 21.5C44.33 21.5 44 21.16 44 20.75C44 20.33 44.33 20 44.75 20C45.16 20 45.5 20.33 45.5 20.75Z" fill="#B470EB" fill-opacity="1.000000" fill-rule="nonzero"/>
			<path id="Ellipse 6766" d="M45.5 24.75C45.5 25.16 45.16 25.5 44.75 25.5C44.33 25.5 44 25.16 44 24.75C44 24.33 44.33 24 44.75 24C45.16 24 45.5 24.33 45.5 24.75Z" fill="#B470EB" fill-opacity="1.000000" fill-rule="nonzero"/>
			<path id="Ellipse 6778" d="M45.5 28.75C45.5 29.16 45.16 29.5 44.75 29.5C44.33 29.5 44 29.16 44 28.75C44 28.33 44.33 28 44.75 28C45.16 28 45.5 28.33 45.5 28.75Z" fill="#B470EB" fill-opacity="1.000000" fill-rule="nonzero"/>
			<path id="Ellipse 6790" d="M45.5 32.75C45.5 33.16 45.16 33.5 44.75 33.5C44.33 33.5 44 33.16 44 32.75C44 32.33 44.33 32 44.75 32C45.16 32 45.5 32.33 45.5 32.75Z" fill="#B470EB" fill-opacity="1.000000" fill-rule="nonzero"/>
			<path id="Ellipse 6802" d="M45.5 36.75C45.5 37.16 45.16 37.5 44.75 37.5C44.33 37.5 44 37.16 44 36.75C44 36.33 44.33 36 44.75 36C45.16 36 45.5 36.33 45.5 36.75Z" fill="#B470EB" fill-opacity="1.000000" fill-rule="nonzero"/>
			<path id="Ellipse 6814" d="M45.5 40.75C45.5 41.16 45.16 41.5 44.75 41.5C44.33 41.5 44 41.16 44 40.75C44 40.33 44.33 40 44.75 40C45.16 40 45.5 40.33 45.5 40.75Z" fill="#B470EB" fill-opacity="1.000000" fill-rule="nonzero"/>
			<path id="Ellipse 6826" d="M45.5 44.75C45.5 45.16 45.16 45.5 44.75 45.5C44.33 45.5 44 45.16 44 44.75C44 44.33 44.33 44 44.75 44C45.16 44 45.5 44.33 45.5 44.75Z" fill="#B470EB" fill-opacity="1.000000" fill-rule="nonzero"/>
			<path id="Ellipse 6838" d="M45.5 48.75C45.5 49.16 45.16 49.5 44.75 49.5C44.33 49.5 44 49.16 44 48.75C44 48.33 44.33 48 44.75 48C45.16 48 45.5 48.33 45.5 48.75Z" fill="#B470EB" fill-opacity="1.000000" fill-rule="nonzero"/>
			<path id="Ellipse 6850" d="M45.5 52.75C45.5 53.16 45.16 53.5 44.75 53.5C44.33 53.5 44 53.16 44 52.75C44 52.33 44.33 52 44.75 52C45.16 52 45.5 52.33 45.5 52.75Z" fill="#B470EB" fill-opacity="1.000000" fill-rule="nonzero"/>
			<path id="Ellipse 6862" d="M45.5 56.75C45.5 57.16 45.16 57.5 44.75 57.5C44.33 57.5 44 57.16 44 56.75C44 56.33 44.33 56 44.75 56C45.16 56 45.5 56.33 45.5 56.75Z" fill="#B470EB" fill-opacity="1.000000" fill-rule="nonzero"/>
			<path id="Ellipse 6874" d="M45.5 60.75C45.5 61.16 45.16 61.5 44.75 61.5C44.33 61.5 44 61.16 44 60.75C44 60.33 44.33 60 44.75 60C45.16 60 45.5 60.33 45.5 60.75Z" fill="#B470EB" fill-opacity="1.000000" fill-rule="nonzero"/>
			<path id="Ellipse 6731" d="M49.5 12.75C49.5 13.16 49.16 13.5 48.75 13.5C48.33 13.5 48 13.16 48 12.75C48 12.33 48.33 12 48.75 12C49.16 12 49.5 12.33 49.5 12.75Z" fill="#B470EB" fill-opacity="1.000000" fill-rule="nonzero"/>
			<path id="Ellipse 6743" d="M49.5 16.75C49.5 17.16 49.16 17.5 48.75 17.5C48.33 17.5 48 17.16 48 16.75C48 16.33 48.33 16 48.75 16C49.16 16 49.5 16.33 49.5 16.75Z" fill="#B470EB" fill-opacity="1.000000" fill-rule="nonzero"/>
			<path id="Ellipse 6755" d="M49.5 20.75C49.5 21.16 49.16 21.5 48.75 21.5C48.33 21.5 48 21.16 48 20.75C48 20.33 48.33 20 48.75 20C49.16 20 49.5 20.33 49.5 20.75Z" fill="#B470EB" fill-opacity="1.000000" fill-rule="nonzero"/>
			<path id="Ellipse 6767" d="M49.5 24.75C49.5 25.16 49.16 25.5 48.75 25.5C48.33 25.5 48 25.16 48 24.75C48 24.33 48.33 24 48.75 24C49.16 24 49.5 24.33 49.5 24.75Z" fill="#B470EB" fill-opacity="1.000000" fill-rule="nonzero"/>
			<path id="Ellipse 6779" d="M49.5 28.75C49.5 29.16 49.16 29.5 48.75 29.5C48.33 29.5 48 29.16 48 28.75C48 28.33 48.33 28 48.75 28C49.16 28 49.5 28.33 49.5 28.75Z" fill="#B470EB" fill-opacity="1.000000" fill-rule="nonzero"/>
			<path id="Ellipse 6791" d="M49.5 32.75C49.5 33.16 49.16 33.5 48.75 33.5C48.33 33.5 48 33.16 48 32.75C48 32.33 48.33 32 48.75 32C49.16 32 49.5 32.33 49.5 32.75Z" fill="#B470EB" fill-opacity="1.000000" fill-rule="nonzero"/>
			<path id="Ellipse 6803" d="M49.5 36.75C49.5 37.16 49.16 37.5 48.75 37.5C48.33 37.5 48 37.16 48 36.75C48 36.33 48.33 36 48.75 36C49.16 36 49.5 36.33 49.5 36.75Z" fill="#B470EB" fill-opacity="1.000000" fill-rule="nonzero"/>
			<path id="Ellipse 6815" d="M49.5 40.75C49.5 41.16 49.16 41.5 48.75 41.5C48.33 41.5 48 41.16 48 40.75C48 40.33 48.33 40 48.75 40C49.16 40 49.5 40.33 49.5 40.75Z" fill="#B470EB" fill-opacity="1.000000" fill-rule="nonzero"/>
			<path id="Ellipse 6827" d="M49.5 44.75C49.5 45.16 49.16 45.5 48.75 45.5C48.33 45.5 48 45.16 48 44.75C48 44.33 48.33 44 48.75 44C49.16 44 49.5 44.33 49.5 44.75Z" fill="#B470EB" fill-opacity="1.000000" fill-rule="nonzero"/>
			<path id="Ellipse 6839" d="M49.5 48.75C49.5 49.16 49.16 49.5 48.75 49.5C48.33 49.5 48 49.16 48 48.75C48 48.33 48.33 48 48.75 48C49.16 48 49.5 48.33 49.5 48.75Z" fill="#B470EB" fill-opacity="1.000000" fill-rule="nonzero"/>
			<path id="Ellipse 6851" d="M49.5 52.75C49.5 53.16 49.16 53.5 48.75 53.5C48.33 53.5 48 53.16 48 52.75C48 52.33 48.33 52 48.75 52C49.16 52 49.5 52.33 49.5 52.75Z" fill="#B470EB" fill-opacity="1.000000" fill-rule="nonzero"/>
			<path id="Ellipse 6863" d="M49.5 56.75C49.5 57.16 49.16 57.5 48.75 57.5C48.33 57.5 48 57.16 48 56.75C48 56.33 48.33 56 48.75 56C49.16 56 49.5 56.33 49.5 56.75Z" fill="#B470EB" fill-opacity="1.000000" fill-rule="nonzero"/>
			<path id="Ellipse 6875" d="M49.5 60.75C49.5 61.16 49.16 61.5 48.75 61.5C48.33 61.5 48 61.16 48 60.75C48 60.33 48.33 60 48.75 60C49.16 60 49.5 60.33 49.5 60.75Z" fill="#B470EB" fill-opacity="1.000000" fill-rule="nonzero"/>
			<path id="Ellipse 6732" d="M53.5 12.75C53.5 13.16 53.16 13.5 52.75 13.5C52.33 13.5 52 13.16 52 12.75C52 12.33 52.33 12 52.75 12C53.16 12 53.5 12.33 53.5 12.75Z" fill="#B470EB" fill-opacity="1.000000" fill-rule="nonzero"/>
			<path id="Ellipse 6744" d="M53.5 16.75C53.5 17.16 53.16 17.5 52.75 17.5C52.33 17.5 52 17.16 52 16.75C52 16.33 52.33 16 52.75 16C53.16 16 53.5 16.33 53.5 16.75Z" fill="#B470EB" fill-opacity="1.000000" fill-rule="nonzero"/>
			<path id="Ellipse 6756" d="M53.5 20.75C53.5 21.16 53.16 21.5 52.75 21.5C52.33 21.5 52 21.16 52 20.75C52 20.33 52.33 20 52.75 20C53.16 20 53.5 20.33 53.5 20.75Z" fill="#B470EB" fill-opacity="1.000000" fill-rule="nonzero"/>
			<path id="Ellipse 6768" d="M53.5 24.75C53.5 25.16 53.16 25.5 52.75 25.5C52.33 25.5 52 25.16 52 24.75C52 24.33 52.33 24 52.75 24C53.16 24 53.5 24.33 53.5 24.75Z" fill="#B470EB" fill-opacity="1.000000" fill-rule="nonzero"/>
			<path id="Ellipse 6780" d="M53.5 28.75C53.5 29.16 53.16 29.5 52.75 29.5C52.33 29.5 52 29.16 52 28.75C52 28.33 52.33 28 52.75 28C53.16 28 53.5 28.33 53.5 28.75Z" fill="#B470EB" fill-opacity="1.000000" fill-rule="nonzero"/>
			<path id="Ellipse 6792" d="M53.5 32.75C53.5 33.16 53.16 33.5 52.75 33.5C52.33 33.5 52 33.16 52 32.75C52 32.33 52.33 32 52.75 32C53.16 32 53.5 32.33 53.5 32.75Z" fill="#B470EB" fill-opacity="1.000000" fill-rule="nonzero"/>
			<path id="Ellipse 6804" d="M53.5 36.75C53.5 37.16 53.16 37.5 52.75 37.5C52.33 37.5 52 37.16 52 36.75C52 36.33 52.33 36 52.75 36C53.16 36 53.5 36.33 53.5 36.75Z" fill="#B470EB" fill-opacity="1.000000" fill-rule="nonzero"/>
			<path id="Ellipse 6816" d="M53.5 40.75C53.5 41.16 53.16 41.5 52.75 41.5C52.33 41.5 52 41.16 52 40.75C52 40.33 52.33 40 52.75 40C53.16 40 53.5 40.33 53.5 40.75Z" fill="#B470EB" fill-opacity="1.000000" fill-rule="nonzero"/>
			<path id="Ellipse 6828" d="M53.5 44.75C53.5 45.16 53.16 45.5 52.75 45.5C52.33 45.5 52 45.16 52 44.75C52 44.33 52.33 44 52.75 44C53.16 44 53.5 44.33 53.5 44.75Z" fill="#B470EB" fill-opacity="1.000000" fill-rule="nonzero"/>
			<path id="Ellipse 6840" d="M53.5 48.75C53.5 49.16 53.16 49.5 52.75 49.5C52.33 49.5 52 49.16 52 48.75C52 48.33 52.33 48 52.75 48C53.16 48 53.5 48.33 53.5 48.75Z" fill="#B470EB" fill-opacity="1.000000" fill-rule="nonzero"/>
			<path id="Ellipse 6852" d="M53.5 52.75C53.5 53.16 53.16 53.5 52.75 53.5C52.33 53.5 52 53.16 52 52.75C52 52.33 52.33 52 52.75 52C53.16 52 53.5 52.33 53.5 52.75Z" fill="#B470EB" fill-opacity="1.000000" fill-rule="nonzero"/>
			<path id="Ellipse 6864" d="M53.5 56.75C53.5 57.16 53.16 57.5 52.75 57.5C52.33 57.5 52 57.16 52 56.75C52 56.33 52.33 56 52.75 56C53.16 56 53.5 56.33 53.5 56.75Z" fill="#B470EB" fill-opacity="1.000000" fill-rule="nonzero"/>
			<path id="Ellipse 6876" d="M53.5 60.75C53.5 61.16 53.16 61.5 52.75 61.5C52.33 61.5 52 61.16 52 60.75C52 60.33 52.33 60 52.75 60C53.16 60 53.5 60.33 53.5 60.75Z" fill="#B470EB" fill-opacity="1.000000" fill-rule="nonzero"/>
			<path id="Ellipse 6733" d="M57.5 12.75C57.5 13.16 57.16 13.5 56.75 13.5C56.33 13.5 56 13.16 56 12.75C56 12.33 56.33 12 56.75 12C57.16 12 57.5 12.33 57.5 12.75Z" fill="#B470EB" fill-opacity="1.000000" fill-rule="nonzero"/>
			<path id="Ellipse 6745" d="M57.5 16.75C57.5 17.16 57.16 17.5 56.75 17.5C56.33 17.5 56 17.16 56 16.75C56 16.33 56.33 16 56.75 16C57.16 16 57.5 16.33 57.5 16.75Z" fill="#B470EB" fill-opacity="1.000000" fill-rule="nonzero"/>
			<path id="Ellipse 6757" d="M57.5 20.75C57.5 21.16 57.16 21.5 56.75 21.5C56.33 21.5 56 21.16 56 20.75C56 20.33 56.33 20 56.75 20C57.16 20 57.5 20.33 57.5 20.75Z" fill="#B470EB" fill-opacity="1.000000" fill-rule="nonzero"/>
			<path id="Ellipse 6769" d="M57.5 24.75C57.5 25.16 57.16 25.5 56.75 25.5C56.33 25.5 56 25.16 56 24.75C56 24.33 56.33 24 56.75 24C57.16 24 57.5 24.33 57.5 24.75Z" fill="#B470EB" fill-opacity="1.000000" fill-rule="nonzero"/>
			<path id="Ellipse 6781" d="M57.5 28.75C57.5 29.16 57.16 29.5 56.75 29.5C56.33 29.5 56 29.16 56 28.75C56 28.33 56.33 28 56.75 28C57.16 28 57.5 28.33 57.5 28.75Z" fill="#B470EB" fill-opacity="1.000000" fill-rule="nonzero"/>
			<path id="Ellipse 6793" d="M57.5 32.75C57.5 33.16 57.16 33.5 56.75 33.5C56.33 33.5 56 33.16 56 32.75C56 32.33 56.33 32 56.75 32C57.16 32 57.5 32.33 57.5 32.75Z" fill="#B470EB" fill-opacity="1.000000" fill-rule="nonzero"/>
			<path id="Ellipse 6805" d="M57.5 36.75C57.5 37.16 57.16 37.5 56.75 37.5C56.33 37.5 56 37.16 56 36.75C56 36.33 56.33 36 56.75 36C57.16 36 57.5 36.33 57.5 36.75Z" fill="#B470EB" fill-opacity="1.000000" fill-rule="nonzero"/>
			<path id="Ellipse 6817" d="M57.5 40.75C57.5 41.16 57.16 41.5 56.75 41.5C56.33 41.5 56 41.16 56 40.75C56 40.33 56.33 40 56.75 40C57.16 40 57.5 40.33 57.5 40.75Z" fill="#B470EB" fill-opacity="1.000000" fill-rule="nonzero"/>
			<path id="Ellipse 6829" d="M57.5 44.75C57.5 45.16 57.16 45.5 56.75 45.5C56.33 45.5 56 45.16 56 44.75C56 44.33 56.33 44 56.75 44C57.16 44 57.5 44.33 57.5 44.75Z" fill="#B470EB" fill-opacity="1.000000" fill-rule="nonzero"/>
			<path id="Ellipse 6841" d="M57.5 48.75C57.5 49.16 57.16 49.5 56.75 49.5C56.33 49.5 56 49.16 56 48.75C56 48.33 56.33 48 56.75 48C57.16 48 57.5 48.33 57.5 48.75Z" fill="#B470EB" fill-opacity="1.000000" fill-rule="nonzero"/>
			<path id="Ellipse 6853" d="M57.5 52.75C57.5 53.16 57.16 53.5 56.75 53.5C56.33 53.5 56 53.16 56 52.75C56 52.33 56.33 52 56.75 52C57.16 52 57.5 52.33 57.5 52.75Z" fill="#B470EB" fill-opacity="1.000000" fill-rule="nonzero"/>
			<path id="Ellipse 6865" d="M57.5 56.75C57.5 57.16 57.16 57.5 56.75 57.5C56.33 57.5 56 57.16 56 56.75C56 56.33 56.33 56 56.75 56C57.16 56 57.5 56.33 57.5 56.75Z" fill="#B470EB" fill-opacity="1.000000" fill-rule="nonzero"/>
			<path id="Ellipse 6877" d="M57.5 60.75C57.5 61.16 57.16 61.5 56.75 61.5C56.33 61.5 56 61.16 56 60.75C56 60.33 56.33 60 56.75 60C57.16 60 57.5 60.33 57.5 60.75Z" fill="#B470EB" fill-opacity="1.000000" fill-rule="nonzero"/>
			<path id="Ellipse 6734" d="M61.5 12.75C61.5 13.16 61.16 13.5 60.75 13.5C60.33 13.5 60 13.16 60 12.75C60 12.33 60.33 12 60.75 12C61.16 12 61.5 12.33 61.5 12.75Z" fill="#B470EB" fill-opacity="1.000000" fill-rule="nonzero"/>
			<path id="Ellipse 6746" d="M61.5 16.75C61.5 17.16 61.16 17.5 60.75 17.5C60.33 17.5 60 17.16 60 16.75C60 16.33 60.33 16 60.75 16C61.16 16 61.5 16.33 61.5 16.75Z" fill="#B470EB" fill-opacity="1.000000" fill-rule="nonzero"/>
			<path id="Ellipse 6758" d="M61.5 20.75C61.5 21.16 61.16 21.5 60.75 21.5C60.33 21.5 60 21.16 60 20.75C60 20.33 60.33 20 60.75 20C61.16 20 61.5 20.33 61.5 20.75Z" fill="#B470EB" fill-opacity="1.000000" fill-rule="nonzero"/>
			<path id="Ellipse 6770" d="M61.5 24.75C61.5 25.16 61.16 25.5 60.75 25.5C60.33 25.5 60 25.16 60 24.75C60 24.33 60.33 24 60.75 24C61.16 24 61.5 24.33 61.5 24.75Z" fill="#B470EB" fill-opacity="1.000000" fill-rule="nonzero"/>
			<path id="Ellipse 6782" d="M61.5 28.75C61.5 29.16 61.16 29.5 60.75 29.5C60.33 29.5 60 29.16 60 28.75C60 28.33 60.33 28 60.75 28C61.16 28 61.5 28.33 61.5 28.75Z" fill="#B470EB" fill-opacity="1.000000" fill-rule="nonzero"/>
			<path id="Ellipse 6794" d="M61.5 32.75C61.5 33.16 61.16 33.5 60.75 33.5C60.33 33.5 60 33.16 60 32.75C60 32.33 60.33 32 60.75 32C61.16 32 61.5 32.33 61.5 32.75Z" fill="#B470EB" fill-opacity="1.000000" fill-rule="nonzero"/>
			<path id="Ellipse 6806" d="M61.5 36.75C61.5 37.16 61.16 37.5 60.75 37.5C60.33 37.5 60 37.16 60 36.75C60 36.33 60.33 36 60.75 36C61.16 36 61.5 36.33 61.5 36.75Z" fill="#B470EB" fill-opacity="1.000000" fill-rule="nonzero"/>
			<path id="Ellipse 6818" d="M61.5 40.75C61.5 41.16 61.16 41.5 60.75 41.5C60.33 41.5 60 41.16 60 40.75C60 40.33 60.33 40 60.75 40C61.16 40 61.5 40.33 61.5 40.75Z" fill="#B470EB" fill-opacity="1.000000" fill-rule="nonzero"/>
			<path id="Ellipse 6830" d="M61.5 44.75C61.5 45.16 61.16 45.5 60.75 45.5C60.33 45.5 60 45.16 60 44.75C60 44.33 60.33 44 60.75 44C61.16 44 61.5 44.33 61.5 44.75Z" fill="#B470EB" fill-opacity="1.000000" fill-rule="nonzero"/>
			<path id="Ellipse 6842" d="M61.5 48.75C61.5 49.16 61.16 49.5 60.75 49.5C60.33 49.5 60 49.16 60 48.75C60 48.33 60.33 48 60.75 48C61.16 48 61.5 48.33 61.5 48.75Z" fill="#B470EB" fill-opacity="1.000000" fill-rule="nonzero"/>
			<path id="Ellipse 6854" d="M61.5 52.75C61.5 53.16 61.16 53.5 60.75 53.5C60.33 53.5 60 53.16 60 52.75C60 52.33 60.33 52 60.75 52C61.16 52 61.5 52.33 61.5 52.75Z" fill="#B470EB" fill-opacity="1.000000" fill-rule="nonzero"/>
			<path id="Ellipse 6866" d="M61.5 56.75C61.5 57.16 61.16 57.5 60.75 57.5C60.33 57.5 60 57.16 60 56.75C60 56.33 60.33 56 60.75 56C61.16 56 61.5 56.33 61.5 56.75Z" fill="#B470EB" fill-opacity="1.000000" fill-rule="nonzero"/>
			<path id="Ellipse 6878" d="M61.5 60.75C61.5 61.16 61.16 61.5 60.75 61.5C60.33 61.5 60 61.16 60 60.75C60 60.33 60.33 60 60.75 60C61.16 60 61.5 60.33 61.5 60.75Z" fill="#B470EB" fill-opacity="1.000000" fill-rule="nonzero"/>
			<path id="Ellipse 6735" d="M65.5 12.75C65.5 13.16 65.16 13.5 64.75 13.5C64.33 13.5 64 13.16 64 12.75C64 12.33 64.33 12 64.75 12C65.16 12 65.5 12.33 65.5 12.75Z" fill="#B470EB" fill-opacity="1.000000" fill-rule="nonzero"/>
			<path id="Ellipse 6747" d="M65.5 16.75C65.5 17.16 65.16 17.5 64.75 17.5C64.33 17.5 64 17.16 64 16.75C64 16.33 64.33 16 64.75 16C65.16 16 65.5 16.33 65.5 16.75Z" fill="#B470EB" fill-opacity="1.000000" fill-rule="nonzero"/>
			<path id="Ellipse 6759" d="M65.5 20.75C65.5 21.16 65.16 21.5 64.75 21.5C64.33 21.5 64 21.16 64 20.75C64 20.33 64.33 20 64.75 20C65.16 20 65.5 20.33 65.5 20.75Z" fill="#B470EB" fill-opacity="1.000000" fill-rule="nonzero"/>
			<path id="Ellipse 6771" d="M65.5 24.75C65.5 25.16 65.16 25.5 64.75 25.5C64.33 25.5 64 25.16 64 24.75C64 24.33 64.33 24 64.75 24C65.16 24 65.5 24.33 65.5 24.75Z" fill="#B470EB" fill-opacity="1.000000" fill-rule="nonzero"/>
			<path id="Ellipse 6783" d="M65.5 28.75C65.5 29.16 65.16 29.5 64.75 29.5C64.33 29.5 64 29.16 64 28.75C64 28.33 64.33 28 64.75 28C65.16 28 65.5 28.33 65.5 28.75Z" fill="#B470EB" fill-opacity="1.000000" fill-rule="nonzero"/>
			<path id="Ellipse 6795" d="M65.5 32.75C65.5 33.16 65.16 33.5 64.75 33.5C64.33 33.5 64 33.16 64 32.75C64 32.33 64.33 32 64.75 32C65.16 32 65.5 32.33 65.5 32.75Z" fill="#B470EB" fill-opacity="1.000000" fill-rule="nonzero"/>
			<path id="Ellipse 6807" d="M65.5 36.75C65.5 37.16 65.16 37.5 64.75 37.5C64.33 37.5 64 37.16 64 36.75C64 36.33 64.33 36 64.75 36C65.16 36 65.5 36.33 65.5 36.75Z" fill="#B470EB" fill-opacity="1.000000" fill-rule="nonzero"/>
			<path id="Ellipse 6819" d="M65.5 40.75C65.5 41.16 65.16 41.5 64.75 41.5C64.33 41.5 64 41.16 64 40.75C64 40.33 64.33 40 64.75 40C65.16 40 65.5 40.33 65.5 40.75Z" fill="#B470EB" fill-opacity="1.000000" fill-rule="nonzero"/>
			<path id="Ellipse 6831" d="M65.5 44.75C65.5 45.16 65.16 45.5 64.75 45.5C64.33 45.5 64 45.16 64 44.75C64 44.33 64.33 44 64.75 44C65.16 44 65.5 44.33 65.5 44.75Z" fill="#B470EB" fill-opacity="1.000000" fill-rule="nonzero"/>
			<path id="Ellipse 6843" d="M65.5 48.75C65.5 49.16 65.16 49.5 64.75 49.5C64.33 49.5 64 49.16 64 48.75C64 48.33 64.33 48 64.75 48C65.16 48 65.5 48.33 65.5 48.75Z" fill="#B470EB" fill-opacity="1.000000" fill-rule="nonzero"/>
			<path id="Ellipse 6855" d="M65.5 52.75C65.5 53.16 65.16 53.5 64.75 53.5C64.33 53.5 64 53.16 64 52.75C64 52.33 64.33 52 64.75 52C65.16 52 65.5 52.33 65.5 52.75Z" fill="#B470EB" fill-opacity="1.000000" fill-rule="nonzero"/>
			<path id="Ellipse 6867" d="M65.5 56.75C65.5 57.16 65.16 57.5 64.75 57.5C64.33 57.5 64 57.16 64 56.75C64 56.33 64.33 56 64.75 56C65.16 56 65.5 56.33 65.5 56.75Z" fill="#B470EB" fill-opacity="1.000000" fill-rule="nonzero"/>
			<path id="Ellipse 6879" d="M65.5 60.75C65.5 61.16 65.16 61.5 64.75 61.5C64.33 61.5 64 61.16 64 60.75C64 60.33 64.33 60 64.75 60C65.16 60 65.5 60.33 65.5 60.75Z" fill="#B470EB" fill-opacity="1.000000" fill-rule="nonzero"/>
		</g>
		<mask id="mask2_20721" mask-type="alpha" maskUnits="userSpaceOnUse" x="22.500000" y="41.000000" width="8.000000" height="13.000000">
			<path id="Vector 11708" d="M22.5 45.5L22.5 54L30.5 49.35L30.5 41L22.5 45.5Z" fill="url(#paint_linear_2_20721_0)" fill-opacity="1.000000" fill-rule="evenodd"/>
		</mask>
		<g mask="url(#mask2_20721)">
			<path id="Ellipse 6724" d="M5.5 26.25C5.5 26.66 5.16 27 4.75 27C4.33 27 4 26.66 4 26.25C4 25.83 4.33 25.5 4.75 25.5C5.16 25.5 5.5 25.83 5.5 26.25Z" fill="#B470EB" fill-opacity="1.000000" fill-rule="nonzero"/>
			<path id="Ellipse 6736" d="M5.5 30.25C5.5 30.66 5.16 31 4.75 31C4.33 31 4 30.66 4 30.25C4 29.83 4.33 29.5 4.75 29.5C5.16 29.5 5.5 29.83 5.5 30.25Z" fill="#B470EB" fill-opacity="1.000000" fill-rule="nonzero"/>
			<path id="Ellipse 6748" d="M5.5 34.25C5.5 34.66 5.16 35 4.75 35C4.33 35 4 34.66 4 34.25C4 33.83 4.33 33.5 4.75 33.5C5.16 33.5 5.5 33.83 5.5 34.25Z" fill="#B470EB" fill-opacity="1.000000" fill-rule="nonzero"/>
			<path id="Ellipse 6760" d="M5.5 38.25C5.5 38.66 5.16 39 4.75 39C4.33 39 4 38.66 4 38.25C4 37.83 4.33 37.5 4.75 37.5C5.16 37.5 5.5 37.83 5.5 38.25Z" fill="#B470EB" fill-opacity="1.000000" fill-rule="nonzero"/>
			<path id="Ellipse 6772" d="M5.5 42.25C5.5 42.66 5.16 43 4.75 43C4.33 43 4 42.66 4 42.25C4 41.83 4.33 41.5 4.75 41.5C5.16 41.5 5.5 41.83 5.5 42.25Z" fill="#B470EB" fill-opacity="1.000000" fill-rule="nonzero"/>
			<path id="Ellipse 6784" d="M5.5 46.25C5.5 46.66 5.16 47 4.75 47C4.33 47 4 46.66 4 46.25C4 45.83 4.33 45.5 4.75 45.5C5.16 45.5 5.5 45.83 5.5 46.25Z" fill="#B470EB" fill-opacity="1.000000" fill-rule="nonzero"/>
			<path id="Ellipse 6796" d="M5.5 50.25C5.5 50.66 5.16 51 4.75 51C4.33 51 4 50.66 4 50.25C4 49.83 4.33 49.5 4.75 49.5C5.16 49.5 5.5 49.83 5.5 50.25Z" fill="#B470EB" fill-opacity="1.000000" fill-rule="nonzero"/>
			<path id="Ellipse 6808" d="M5.5 54.25C5.5 54.66 5.16 55 4.75 55C4.33 55 4 54.66 4 54.25C4 53.83 4.33 53.5 4.75 53.5C5.16 53.5 5.5 53.83 5.5 54.25Z" fill="#B470EB" fill-opacity="1.000000" fill-rule="nonzero"/>
			<path id="Ellipse 6820" d="M5.5 58.25C5.5 58.66 5.16 59 4.75 59C4.33 59 4 58.66 4 58.25C4 57.83 4.33 57.5 4.75 57.5C5.16 57.5 5.5 57.83 5.5 58.25Z" fill="#B470EB" fill-opacity="1.000000" fill-rule="nonzero"/>
			<path id="Ellipse 6832" d="M5.5 62.25C5.5 62.66 5.16 63 4.75 63C4.33 63 4 62.66 4 62.25C4 61.83 4.33 61.5 4.75 61.5C5.16 61.5 5.5 61.83 5.5 62.25Z" fill="#B470EB" fill-opacity="1.000000" fill-rule="nonzero"/>
			<path id="Ellipse 6844" d="M5.5 66.25C5.5 66.66 5.16 67 4.75 67C4.33 67 4 66.66 4 66.25C4 65.83 4.33 65.5 4.75 65.5C5.16 65.5 5.5 65.83 5.5 66.25Z" fill="#B470EB" fill-opacity="1.000000" fill-rule="nonzero"/>
			<path id="Ellipse 6856" d="M5.5 70.25C5.5 70.66 5.16 71 4.75 71C4.33 71 4 70.66 4 70.25C4 69.83 4.33 69.5 4.75 69.5C5.16 69.5 5.5 69.83 5.5 70.25Z" fill="#B470EB" fill-opacity="1.000000" fill-rule="nonzero"/>
			<path id="Ellipse 6868" d="M5.5 74.25C5.5 74.66 5.16 75 4.75 75C4.33 75 4 74.66 4 74.25C4 73.83 4.33 73.5 4.75 73.5C5.16 73.5 5.5 73.83 5.5 74.25Z" fill="#B470EB" fill-opacity="1.000000" fill-rule="nonzero"/>
			<path id="Ellipse 6725" d="M9.5 26.25C9.5 26.66 9.16 27 8.75 27C8.33 27 8 26.66 8 26.25C8 25.83 8.33 25.5 8.75 25.5C9.16 25.5 9.5 25.83 9.5 26.25Z" fill="#B470EB" fill-opacity="1.000000" fill-rule="nonzero"/>
			<path id="Ellipse 6737" d="M9.5 30.25C9.5 30.66 9.16 31 8.75 31C8.33 31 8 30.66 8 30.25C8 29.83 8.33 29.5 8.75 29.5C9.16 29.5 9.5 29.83 9.5 30.25Z" fill="#B470EB" fill-opacity="1.000000" fill-rule="nonzero"/>
			<path id="Ellipse 6749" d="M9.5 34.25C9.5 34.66 9.16 35 8.75 35C8.33 35 8 34.66 8 34.25C8 33.83 8.33 33.5 8.75 33.5C9.16 33.5 9.5 33.83 9.5 34.25Z" fill="#B470EB" fill-opacity="1.000000" fill-rule="nonzero"/>
			<path id="Ellipse 6761" d="M9.5 38.25C9.5 38.66 9.16 39 8.75 39C8.33 39 8 38.66 8 38.25C8 37.83 8.33 37.5 8.75 37.5C9.16 37.5 9.5 37.83 9.5 38.25Z" fill="#B470EB" fill-opacity="1.000000" fill-rule="nonzero"/>
			<path id="Ellipse 6773" d="M9.5 42.25C9.5 42.66 9.16 43 8.75 43C8.33 43 8 42.66 8 42.25C8 41.83 8.33 41.5 8.75 41.5C9.16 41.5 9.5 41.83 9.5 42.25Z" fill="#B470EB" fill-opacity="1.000000" fill-rule="nonzero"/>
			<path id="Ellipse 6785" d="M9.5 46.25C9.5 46.66 9.16 47 8.75 47C8.33 47 8 46.66 8 46.25C8 45.83 8.33 45.5 8.75 45.5C9.16 45.5 9.5 45.83 9.5 46.25Z" fill="#B470EB" fill-opacity="1.000000" fill-rule="nonzero"/>
			<path id="Ellipse 6797" d="M9.5 50.25C9.5 50.66 9.16 51 8.75 51C8.33 51 8 50.66 8 50.25C8 49.83 8.33 49.5 8.75 49.5C9.16 49.5 9.5 49.83 9.5 50.25Z" fill="#B470EB" fill-opacity="1.000000" fill-rule="nonzero"/>
			<path id="Ellipse 6809" d="M9.5 54.25C9.5 54.66 9.16 55 8.75 55C8.33 55 8 54.66 8 54.25C8 53.83 8.33 53.5 8.75 53.5C9.16 53.5 9.5 53.83 9.5 54.25Z" fill="#B470EB" fill-opacity="1.000000" fill-rule="nonzero"/>
			<path id="Ellipse 6821" d="M9.5 58.25C9.5 58.66 9.16 59 8.75 59C8.33 59 8 58.66 8 58.25C8 57.83 8.33 57.5 8.75 57.5C9.16 57.5 9.5 57.83 9.5 58.25Z" fill="#B470EB" fill-opacity="1.000000" fill-rule="nonzero"/>
			<path id="Ellipse 6833" d="M9.5 62.25C9.5 62.66 9.16 63 8.75 63C8.33 63 8 62.66 8 62.25C8 61.83 8.33 61.5 8.75 61.5C9.16 61.5 9.5 61.83 9.5 62.25Z" fill="#B470EB" fill-opacity="1.000000" fill-rule="nonzero"/>
			<path id="Ellipse 6845" d="M9.5 66.25C9.5 66.66 9.16 67 8.75 67C8.33 67 8 66.66 8 66.25C8 65.83 8.33 65.5 8.75 65.5C9.16 65.5 9.5 65.83 9.5 66.25Z" fill="#B470EB" fill-opacity="1.000000" fill-rule="nonzero"/>
			<path id="Ellipse 6857" d="M9.5 70.25C9.5 70.66 9.16 71 8.75 71C8.33 71 8 70.66 8 70.25C8 69.83 8.33 69.5 8.75 69.5C9.16 69.5 9.5 69.83 9.5 70.25Z" fill="#B470EB" fill-opacity="1.000000" fill-rule="nonzero"/>
			<path id="Ellipse 6869" d="M9.5 74.25C9.5 74.66 9.16 75 8.75 75C8.33 75 8 74.66 8 74.25C8 73.83 8.33 73.5 8.75 73.5C9.16 73.5 9.5 73.83 9.5 74.25Z" fill="#B470EB" fill-opacity="1.000000" fill-rule="nonzero"/>
			<path id="Ellipse 6726" d="M13.5 26.25C13.5 26.66 13.16 27 12.75 27C12.33 27 12 26.66 12 26.25C12 25.83 12.33 25.5 12.75 25.5C13.16 25.5 13.5 25.83 13.5 26.25Z" fill="#B470EB" fill-opacity="1.000000" fill-rule="nonzero"/>
			<path id="Ellipse 6738" d="M13.5 30.25C13.5 30.66 13.16 31 12.75 31C12.33 31 12 30.66 12 30.25C12 29.83 12.33 29.5 12.75 29.5C13.16 29.5 13.5 29.83 13.5 30.25Z" fill="#B470EB" fill-opacity="1.000000" fill-rule="nonzero"/>
			<path id="Ellipse 6750" d="M13.5 34.25C13.5 34.66 13.16 35 12.75 35C12.33 35 12 34.66 12 34.25C12 33.83 12.33 33.5 12.75 33.5C13.16 33.5 13.5 33.83 13.5 34.25Z" fill="#B470EB" fill-opacity="1.000000" fill-rule="nonzero"/>
			<path id="Ellipse 6762" d="M13.5 38.25C13.5 38.66 13.16 39 12.75 39C12.33 39 12 38.66 12 38.25C12 37.83 12.33 37.5 12.75 37.5C13.16 37.5 13.5 37.83 13.5 38.25Z" fill="#B470EB" fill-opacity="1.000000" fill-rule="nonzero"/>
			<path id="Ellipse 6774" d="M13.5 42.25C13.5 42.66 13.16 43 12.75 43C12.33 43 12 42.66 12 42.25C12 41.83 12.33 41.5 12.75 41.5C13.16 41.5 13.5 41.83 13.5 42.25Z" fill="#B470EB" fill-opacity="1.000000" fill-rule="nonzero"/>
			<path id="Ellipse 6786" d="M13.5 46.25C13.5 46.66 13.16 47 12.75 47C12.33 47 12 46.66 12 46.25C12 45.83 12.33 45.5 12.75 45.5C13.16 45.5 13.5 45.83 13.5 46.25Z" fill="#B470EB" fill-opacity="1.000000" fill-rule="nonzero"/>
			<path id="Ellipse 6798" d="M13.5 50.25C13.5 50.66 13.16 51 12.75 51C12.33 51 12 50.66 12 50.25C12 49.83 12.33 49.5 12.75 49.5C13.16 49.5 13.5 49.83 13.5 50.25Z" fill="#B470EB" fill-opacity="1.000000" fill-rule="nonzero"/>
			<path id="Ellipse 6810" d="M13.5 54.25C13.5 54.66 13.16 55 12.75 55C12.33 55 12 54.66 12 54.25C12 53.83 12.33 53.5 12.75 53.5C13.16 53.5 13.5 53.83 13.5 54.25Z" fill="#B470EB" fill-opacity="1.000000" fill-rule="nonzero"/>
			<path id="Ellipse 6822" d="M13.5 58.25C13.5 58.66 13.16 59 12.75 59C12.33 59 12 58.66 12 58.25C12 57.83 12.33 57.5 12.75 57.5C13.16 57.5 13.5 57.83 13.5 58.25Z" fill="#B470EB" fill-opacity="1.000000" fill-rule="nonzero"/>
			<path id="Ellipse 6834" d="M13.5 62.25C13.5 62.66 13.16 63 12.75 63C12.33 63 12 62.66 12 62.25C12 61.83 12.33 61.5 12.75 61.5C13.16 61.5 13.5 61.83 13.5 62.25Z" fill="#B470EB" fill-opacity="1.000000" fill-rule="nonzero"/>
			<path id="Ellipse 6846" d="M13.5 66.25C13.5 66.66 13.16 67 12.75 67C12.33 67 12 66.66 12 66.25C12 65.83 12.33 65.5 12.75 65.5C13.16 65.5 13.5 65.83 13.5 66.25Z" fill="#B470EB" fill-opacity="1.000000" fill-rule="nonzero"/>
			<path id="Ellipse 6858" d="M13.5 70.25C13.5 70.66 13.16 71 12.75 71C12.33 71 12 70.66 12 70.25C12 69.83 12.33 69.5 12.75 69.5C13.16 69.5 13.5 69.83 13.5 70.25Z" fill="#B470EB" fill-opacity="1.000000" fill-rule="nonzero"/>
			<path id="Ellipse 6870" d="M13.5 74.25C13.5 74.66 13.16 75 12.75 75C12.33 75 12 74.66 12 74.25C12 73.83 12.33 73.5 12.75 73.5C13.16 73.5 13.5 73.83 13.5 74.25Z" fill="#B470EB" fill-opacity="1.000000" fill-rule="nonzero"/>
			<path id="Ellipse 6727" d="M17.5 26.25C17.5 26.66 17.16 27 16.75 27C16.33 27 16 26.66 16 26.25C16 25.83 16.33 25.5 16.75 25.5C17.16 25.5 17.5 25.83 17.5 26.25Z" fill="#B470EB" fill-opacity="1.000000" fill-rule="nonzero"/>
			<path id="Ellipse 6739" d="M17.5 30.25C17.5 30.66 17.16 31 16.75 31C16.33 31 16 30.66 16 30.25C16 29.83 16.33 29.5 16.75 29.5C17.16 29.5 17.5 29.83 17.5 30.25Z" fill="#B470EB" fill-opacity="1.000000" fill-rule="nonzero"/>
			<path id="Ellipse 6751" d="M17.5 34.25C17.5 34.66 17.16 35 16.75 35C16.33 35 16 34.66 16 34.25C16 33.83 16.33 33.5 16.75 33.5C17.16 33.5 17.5 33.83 17.5 34.25Z" fill="#B470EB" fill-opacity="1.000000" fill-rule="nonzero"/>
			<path id="Ellipse 6763" d="M17.5 38.25C17.5 38.66 17.16 39 16.75 39C16.33 39 16 38.66 16 38.25C16 37.83 16.33 37.5 16.75 37.5C17.16 37.5 17.5 37.83 17.5 38.25Z" fill="#B470EB" fill-opacity="1.000000" fill-rule="nonzero"/>
			<path id="Ellipse 6775" d="M17.5 42.25C17.5 42.66 17.16 43 16.75 43C16.33 43 16 42.66 16 42.25C16 41.83 16.33 41.5 16.75 41.5C17.16 41.5 17.5 41.83 17.5 42.25Z" fill="#B470EB" fill-opacity="1.000000" fill-rule="nonzero"/>
			<path id="Ellipse 6787" d="M17.5 46.25C17.5 46.66 17.16 47 16.75 47C16.33 47 16 46.66 16 46.25C16 45.83 16.33 45.5 16.75 45.5C17.16 45.5 17.5 45.83 17.5 46.25Z" fill="#B470EB" fill-opacity="1.000000" fill-rule="nonzero"/>
			<path id="Ellipse 6799" d="M17.5 50.25C17.5 50.66 17.16 51 16.75 51C16.33 51 16 50.66 16 50.25C16 49.83 16.33 49.5 16.75 49.5C17.16 49.5 17.5 49.83 17.5 50.25Z" fill="#B470EB" fill-opacity="1.000000" fill-rule="nonzero"/>
			<path id="Ellipse 6811" d="M17.5 54.25C17.5 54.66 17.16 55 16.75 55C16.33 55 16 54.66 16 54.25C16 53.83 16.33 53.5 16.75 53.5C17.16 53.5 17.5 53.83 17.5 54.25Z" fill="#B470EB" fill-opacity="1.000000" fill-rule="nonzero"/>
			<path id="Ellipse 6823" d="M17.5 58.25C17.5 58.66 17.16 59 16.75 59C16.33 59 16 58.66 16 58.25C16 57.83 16.33 57.5 16.75 57.5C17.16 57.5 17.5 57.83 17.5 58.25Z" fill="#B470EB" fill-opacity="1.000000" fill-rule="nonzero"/>
			<path id="Ellipse 6835" d="M17.5 62.25C17.5 62.66 17.16 63 16.75 63C16.33 63 16 62.66 16 62.25C16 61.83 16.33 61.5 16.75 61.5C17.16 61.5 17.5 61.83 17.5 62.25Z" fill="#B470EB" fill-opacity="1.000000" fill-rule="nonzero"/>
			<path id="Ellipse 6847" d="M17.5 66.25C17.5 66.66 17.16 67 16.75 67C16.33 67 16 66.66 16 66.25C16 65.83 16.33 65.5 16.75 65.5C17.16 65.5 17.5 65.83 17.5 66.25Z" fill="#B470EB" fill-opacity="1.000000" fill-rule="nonzero"/>
			<path id="Ellipse 6859" d="M17.5 70.25C17.5 70.66 17.16 71 16.75 71C16.33 71 16 70.66 16 70.25C16 69.83 16.33 69.5 16.75 69.5C17.16 69.5 17.5 69.83 17.5 70.25Z" fill="#B470EB" fill-opacity="1.000000" fill-rule="nonzero"/>
			<path id="Ellipse 6871" d="M17.5 74.25C17.5 74.66 17.16 75 16.75 75C16.33 75 16 74.66 16 74.25C16 73.83 16.33 73.5 16.75 73.5C17.16 73.5 17.5 73.83 17.5 74.25Z" fill="#B470EB" fill-opacity="1.000000" fill-rule="nonzero"/>
			<path id="Ellipse 6728" d="M21.5 26.25C21.5 26.66 21.16 27 20.75 27C20.33 27 20 26.66 20 26.25C20 25.83 20.33 25.5 20.75 25.5C21.16 25.5 21.5 25.83 21.5 26.25Z" fill="#B470EB" fill-opacity="1.000000" fill-rule="nonzero"/>
			<path id="Ellipse 6740" d="M21.5 30.25C21.5 30.66 21.16 31 20.75 31C20.33 31 20 30.66 20 30.25C20 29.83 20.33 29.5 20.75 29.5C21.16 29.5 21.5 29.83 21.5 30.25Z" fill="#B470EB" fill-opacity="1.000000" fill-rule="nonzero"/>
			<path id="Ellipse 6752" d="M21.5 34.25C21.5 34.66 21.16 35 20.75 35C20.33 35 20 34.66 20 34.25C20 33.83 20.33 33.5 20.75 33.5C21.16 33.5 21.5 33.83 21.5 34.25Z" fill="#B470EB" fill-opacity="1.000000" fill-rule="nonzero"/>
			<path id="Ellipse 6764" d="M21.5 38.25C21.5 38.66 21.16 39 20.75 39C20.33 39 20 38.66 20 38.25C20 37.83 20.33 37.5 20.75 37.5C21.16 37.5 21.5 37.83 21.5 38.25Z" fill="#B470EB" fill-opacity="1.000000" fill-rule="nonzero"/>
			<path id="Ellipse 6776" d="M21.5 42.25C21.5 42.66 21.16 43 20.75 43C20.33 43 20 42.66 20 42.25C20 41.83 20.33 41.5 20.75 41.5C21.16 41.5 21.5 41.83 21.5 42.25Z" fill="#B470EB" fill-opacity="1.000000" fill-rule="nonzero"/>
			<path id="Ellipse 6788" d="M21.5 46.25C21.5 46.66 21.16 47 20.75 47C20.33 47 20 46.66 20 46.25C20 45.83 20.33 45.5 20.75 45.5C21.16 45.5 21.5 45.83 21.5 46.25Z" fill="#B470EB" fill-opacity="1.000000" fill-rule="nonzero"/>
			<path id="Ellipse 6800" d="M21.5 50.25C21.5 50.66 21.16 51 20.75 51C20.33 51 20 50.66 20 50.25C20 49.83 20.33 49.5 20.75 49.5C21.16 49.5 21.5 49.83 21.5 50.25Z" fill="#B470EB" fill-opacity="1.000000" fill-rule="nonzero"/>
			<path id="Ellipse 6812" d="M21.5 54.25C21.5 54.66 21.16 55 20.75 55C20.33 55 20 54.66 20 54.25C20 53.83 20.33 53.5 20.75 53.5C21.16 53.5 21.5 53.83 21.5 54.25Z" fill="#B470EB" fill-opacity="1.000000" fill-rule="nonzero"/>
			<path id="Ellipse 6824" d="M21.5 58.25C21.5 58.66 21.16 59 20.75 59C20.33 59 20 58.66 20 58.25C20 57.83 20.33 57.5 20.75 57.5C21.16 57.5 21.5 57.83 21.5 58.25Z" fill="#B470EB" fill-opacity="1.000000" fill-rule="nonzero"/>
			<path id="Ellipse 6836" d="M21.5 62.25C21.5 62.66 21.16 63 20.75 63C20.33 63 20 62.66 20 62.25C20 61.83 20.33 61.5 20.75 61.5C21.16 61.5 21.5 61.83 21.5 62.25Z" fill="#B470EB" fill-opacity="1.000000" fill-rule="nonzero"/>
			<path id="Ellipse 6848" d="M21.5 66.25C21.5 66.66 21.16 67 20.75 67C20.33 67 20 66.66 20 66.25C20 65.83 20.33 65.5 20.75 65.5C21.16 65.5 21.5 65.83 21.5 66.25Z" fill="#B470EB" fill-opacity="1.000000" fill-rule="nonzero"/>
			<path id="Ellipse 6860" d="M21.5 70.25C21.5 70.66 21.16 71 20.75 71C20.33 71 20 70.66 20 70.25C20 69.83 20.33 69.5 20.75 69.5C21.16 69.5 21.5 69.83 21.5 70.25Z" fill="#B470EB" fill-opacity="1.000000" fill-rule="nonzero"/>
			<path id="Ellipse 6872" d="M21.5 74.25C21.5 74.66 21.16 75 20.75 75C20.33 75 20 74.66 20 74.25C20 73.83 20.33 73.5 20.75 73.5C21.16 73.5 21.5 73.83 21.5 74.25Z" fill="#B470EB" fill-opacity="1.000000" fill-rule="nonzero"/>
			<path id="Ellipse 6729" d="M25.5 26.25C25.5 26.66 25.16 27 24.75 27C24.33 27 24 26.66 24 26.25C24 25.83 24.33 25.5 24.75 25.5C25.16 25.5 25.5 25.83 25.5 26.25Z" fill="#B470EB" fill-opacity="1.000000" fill-rule="nonzero"/>
			<path id="Ellipse 6741" d="M25.5 30.25C25.5 30.66 25.16 31 24.75 31C24.33 31 24 30.66 24 30.25C24 29.83 24.33 29.5 24.75 29.5C25.16 29.5 25.5 29.83 25.5 30.25Z" fill="#B470EB" fill-opacity="1.000000" fill-rule="nonzero"/>
			<path id="Ellipse 6753" d="M25.5 34.25C25.5 34.66 25.16 35 24.75 35C24.33 35 24 34.66 24 34.25C24 33.83 24.33 33.5 24.75 33.5C25.16 33.5 25.5 33.83 25.5 34.25Z" fill="#B470EB" fill-opacity="1.000000" fill-rule="nonzero"/>
			<path id="Ellipse 6765" d="M25.5 38.25C25.5 38.66 25.16 39 24.75 39C24.33 39 24 38.66 24 38.25C24 37.83 24.33 37.5 24.75 37.5C25.16 37.5 25.5 37.83 25.5 38.25Z" fill="#B470EB" fill-opacity="1.000000" fill-rule="nonzero"/>
			<path id="Ellipse 6777" d="M25.5 42.25C25.5 42.66 25.16 43 24.75 43C24.33 43 24 42.66 24 42.25C24 41.83 24.33 41.5 24.75 41.5C25.16 41.5 25.5 41.83 25.5 42.25Z" fill="#B470EB" fill-opacity="1.000000" fill-rule="nonzero"/>
			<path id="Ellipse 6789" d="M25.5 46.25C25.5 46.66 25.16 47 24.75 47C24.33 47 24 46.66 24 46.25C24 45.83 24.33 45.5 24.75 45.5C25.16 45.5 25.5 45.83 25.5 46.25Z" fill="#B470EB" fill-opacity="1.000000" fill-rule="nonzero"/>
			<path id="Ellipse 6801" d="M25.5 50.25C25.5 50.66 25.16 51 24.75 51C24.33 51 24 50.66 24 50.25C24 49.83 24.33 49.5 24.75 49.5C25.16 49.5 25.5 49.83 25.5 50.25Z" fill="#B470EB" fill-opacity="1.000000" fill-rule="nonzero"/>
			<path id="Ellipse 6813" d="M25.5 54.25C25.5 54.66 25.16 55 24.75 55C24.33 55 24 54.66 24 54.25C24 53.83 24.33 53.5 24.75 53.5C25.16 53.5 25.5 53.83 25.5 54.25Z" fill="#B470EB" fill-opacity="1.000000" fill-rule="nonzero"/>
			<path id="Ellipse 6825" d="M25.5 58.25C25.5 58.66 25.16 59 24.75 59C24.33 59 24 58.66 24 58.25C24 57.83 24.33 57.5 24.75 57.5C25.16 57.5 25.5 57.83 25.5 58.25Z" fill="#B470EB" fill-opacity="1.000000" fill-rule="nonzero"/>
			<path id="Ellipse 6837" d="M25.5 62.25C25.5 62.66 25.16 63 24.75 63C24.33 63 24 62.66 24 62.25C24 61.83 24.33 61.5 24.75 61.5C25.16 61.5 25.5 61.83 25.5 62.25Z" fill="#B470EB" fill-opacity="1.000000" fill-rule="nonzero"/>
			<path id="Ellipse 6849" d="M25.5 66.25C25.5 66.66 25.16 67 24.75 67C24.33 67 24 66.66 24 66.25C24 65.83 24.33 65.5 24.75 65.5C25.16 65.5 25.5 65.83 25.5 66.25Z" fill="#B470EB" fill-opacity="1.000000" fill-rule="nonzero"/>
			<path id="Ellipse 6861" d="M25.5 70.25C25.5 70.66 25.16 71 24.75 71C24.33 71 24 70.66 24 70.25C24 69.83 24.33 69.5 24.75 69.5C25.16 69.5 25.5 69.83 25.5 70.25Z" fill="#B470EB" fill-opacity="1.000000" fill-rule="nonzero"/>
			<path id="Ellipse 6873" d="M25.5 74.25C25.5 74.66 25.16 75 24.75 75C24.33 75 24 74.66 24 74.25C24 73.83 24.33 73.5 24.75 73.5C25.16 73.5 25.5 73.83 25.5 74.25Z" fill="#B470EB" fill-opacity="1.000000" fill-rule="nonzero"/>
			<path id="Ellipse 6730" d="M29.5 26.25C29.5 26.66 29.16 27 28.75 27C28.33 27 28 26.66 28 26.25C28 25.83 28.33 25.5 28.75 25.5C29.16 25.5 29.5 25.83 29.5 26.25Z" fill="#B470EB" fill-opacity="1.000000" fill-rule="nonzero"/>
			<path id="Ellipse 6742" d="M29.5 30.25C29.5 30.66 29.16 31 28.75 31C28.33 31 28 30.66 28 30.25C28 29.83 28.33 29.5 28.75 29.5C29.16 29.5 29.5 29.83 29.5 30.25Z" fill="#B470EB" fill-opacity="1.000000" fill-rule="nonzero"/>
			<path id="Ellipse 6754" d="M29.5 34.25C29.5 34.66 29.16 35 28.75 35C28.33 35 28 34.66 28 34.25C28 33.83 28.33 33.5 28.75 33.5C29.16 33.5 29.5 33.83 29.5 34.25Z" fill="#B470EB" fill-opacity="1.000000" fill-rule="nonzero"/>
			<path id="Ellipse 6766" d="M29.5 38.25C29.5 38.66 29.16 39 28.75 39C28.33 39 28 38.66 28 38.25C28 37.83 28.33 37.5 28.75 37.5C29.16 37.5 29.5 37.83 29.5 38.25Z" fill="#B470EB" fill-opacity="1.000000" fill-rule="nonzero"/>
			<path id="Ellipse 6778" d="M29.5 42.25C29.5 42.66 29.16 43 28.75 43C28.33 43 28 42.66 28 42.25C28 41.83 28.33 41.5 28.75 41.5C29.16 41.5 29.5 41.83 29.5 42.25Z" fill="#B470EB" fill-opacity="1.000000" fill-rule="nonzero"/>
			<path id="Ellipse 6790" d="M29.5 46.25C29.5 46.66 29.16 47 28.75 47C28.33 47 28 46.66 28 46.25C28 45.83 28.33 45.5 28.75 45.5C29.16 45.5 29.5 45.83 29.5 46.25Z" fill="#B470EB" fill-opacity="1.000000" fill-rule="nonzero"/>
			<path id="Ellipse 6802" d="M29.5 50.25C29.5 50.66 29.16 51 28.75 51C28.33 51 28 50.66 28 50.25C28 49.83 28.33 49.5 28.75 49.5C29.16 49.5 29.5 49.83 29.5 50.25Z" fill="#B470EB" fill-opacity="1.000000" fill-rule="nonzero"/>
			<path id="Ellipse 6814" d="M29.5 54.25C29.5 54.66 29.16 55 28.75 55C28.33 55 28 54.66 28 54.25C28 53.83 28.33 53.5 28.75 53.5C29.16 53.5 29.5 53.83 29.5 54.25Z" fill="#B470EB" fill-opacity="1.000000" fill-rule="nonzero"/>
			<path id="Ellipse 6826" d="M29.5 58.25C29.5 58.66 29.16 59 28.75 59C28.33 59 28 58.66 28 58.25C28 57.83 28.33 57.5 28.75 57.5C29.16 57.5 29.5 57.83 29.5 58.25Z" fill="#B470EB" fill-opacity="1.000000" fill-rule="nonzero"/>
			<path id="Ellipse 6838" d="M29.5 62.25C29.5 62.66 29.16 63 28.75 63C28.33 63 28 62.66 28 62.25C28 61.83 28.33 61.5 28.75 61.5C29.16 61.5 29.5 61.83 29.5 62.25Z" fill="#B470EB" fill-opacity="1.000000" fill-rule="nonzero"/>
			<path id="Ellipse 6850" d="M29.5 66.25C29.5 66.66 29.16 67 28.75 67C28.33 67 28 66.66 28 66.25C28 65.83 28.33 65.5 28.75 65.5C29.16 65.5 29.5 65.83 29.5 66.25Z" fill="#B470EB" fill-opacity="1.000000" fill-rule="nonzero"/>
			<path id="Ellipse 6862" d="M29.5 70.25C29.5 70.66 29.16 71 28.75 71C28.33 71 28 70.66 28 70.25C28 69.83 28.33 69.5 28.75 69.5C29.16 69.5 29.5 69.83 29.5 70.25Z" fill="#B470EB" fill-opacity="1.000000" fill-rule="nonzero"/>
			<path id="Ellipse 6874" d="M29.5 74.25C29.5 74.66 29.16 75 28.75 75C28.33 75 28 74.66 28 74.25C28 73.83 28.33 73.5 28.75 73.5C29.16 73.5 29.5 73.83 29.5 74.25Z" fill="#B470EB" fill-opacity="1.000000" fill-rule="nonzero"/>
			<path id="Ellipse 6731" d="M33.5 26.25C33.5 26.66 33.16 27 32.75 27C32.33 27 32 26.66 32 26.25C32 25.83 32.33 25.5 32.75 25.5C33.16 25.5 33.5 25.83 33.5 26.25Z" fill="#B470EB" fill-opacity="1.000000" fill-rule="nonzero"/>
			<path id="Ellipse 6743" d="M33.5 30.25C33.5 30.66 33.16 31 32.75 31C32.33 31 32 30.66 32 30.25C32 29.83 32.33 29.5 32.75 29.5C33.16 29.5 33.5 29.83 33.5 30.25Z" fill="#B470EB" fill-opacity="1.000000" fill-rule="nonzero"/>
			<path id="Ellipse 6755" d="M33.5 34.25C33.5 34.66 33.16 35 32.75 35C32.33 35 32 34.66 32 34.25C32 33.83 32.33 33.5 32.75 33.5C33.16 33.5 33.5 33.83 33.5 34.25Z" fill="#B470EB" fill-opacity="1.000000" fill-rule="nonzero"/>
			<path id="Ellipse 6767" d="M33.5 38.25C33.5 38.66 33.16 39 32.75 39C32.33 39 32 38.66 32 38.25C32 37.83 32.33 37.5 32.75 37.5C33.16 37.5 33.5 37.83 33.5 38.25Z" fill="#B470EB" fill-opacity="1.000000" fill-rule="nonzero"/>
			<path id="Ellipse 6779" d="M33.5 42.25C33.5 42.66 33.16 43 32.75 43C32.33 43 32 42.66 32 42.25C32 41.83 32.33 41.5 32.75 41.5C33.16 41.5 33.5 41.83 33.5 42.25Z" fill="#B470EB" fill-opacity="1.000000" fill-rule="nonzero"/>
			<path id="Ellipse 6791" d="M33.5 46.25C33.5 46.66 33.16 47 32.75 47C32.33 47 32 46.66 32 46.25C32 45.83 32.33 45.5 32.75 45.5C33.16 45.5 33.5 45.83 33.5 46.25Z" fill="#B470EB" fill-opacity="1.000000" fill-rule="nonzero"/>
			<path id="Ellipse 6803" d="M33.5 50.25C33.5 50.66 33.16 51 32.75 51C32.33 51 32 50.66 32 50.25C32 49.83 32.33 49.5 32.75 49.5C33.16 49.5 33.5 49.83 33.5 50.25Z" fill="#B470EB" fill-opacity="1.000000" fill-rule="nonzero"/>
			<path id="Ellipse 6815" d="M33.5 54.25C33.5 54.66 33.16 55 32.75 55C32.33 55 32 54.66 32 54.25C32 53.83 32.33 53.5 32.75 53.5C33.16 53.5 33.5 53.83 33.5 54.25Z" fill="#B470EB" fill-opacity="1.000000" fill-rule="nonzero"/>
			<path id="Ellipse 6827" d="M33.5 58.25C33.5 58.66 33.16 59 32.75 59C32.33 59 32 58.66 32 58.25C32 57.83 32.33 57.5 32.75 57.5C33.16 57.5 33.5 57.83 33.5 58.25Z" fill="#B470EB" fill-opacity="1.000000" fill-rule="nonzero"/>
			<path id="Ellipse 6839" d="M33.5 62.25C33.5 62.66 33.16 63 32.75 63C32.33 63 32 62.66 32 62.25C32 61.83 32.33 61.5 32.75 61.5C33.16 61.5 33.5 61.83 33.5 62.25Z" fill="#B470EB" fill-opacity="1.000000" fill-rule="nonzero"/>
			<path id="Ellipse 6851" d="M33.5 66.25C33.5 66.66 33.16 67 32.75 67C32.33 67 32 66.66 32 66.25C32 65.83 32.33 65.5 32.75 65.5C33.16 65.5 33.5 65.83 33.5 66.25Z" fill="#B470EB" fill-opacity="1.000000" fill-rule="nonzero"/>
			<path id="Ellipse 6863" d="M33.5 70.25C33.5 70.66 33.16 71 32.75 71C32.33 71 32 70.66 32 70.25C32 69.83 32.33 69.5 32.75 69.5C33.16 69.5 33.5 69.83 33.5 70.25Z" fill="#B470EB" fill-opacity="1.000000" fill-rule="nonzero"/>
			<path id="Ellipse 6875" d="M33.5 74.25C33.5 74.66 33.16 75 32.75 75C32.33 75 32 74.66 32 74.25C32 73.83 32.33 73.5 32.75 73.5C33.16 73.5 33.5 73.83 33.5 74.25Z" fill="#B470EB" fill-opacity="1.000000" fill-rule="nonzero"/>
			<path id="Ellipse 6732" d="M37.5 26.25C37.5 26.66 37.16 27 36.75 27C36.33 27 36 26.66 36 26.25C36 25.83 36.33 25.5 36.75 25.5C37.16 25.5 37.5 25.83 37.5 26.25Z" fill="#B470EB" fill-opacity="1.000000" fill-rule="nonzero"/>
			<path id="Ellipse 6744" d="M37.5 30.25C37.5 30.66 37.16 31 36.75 31C36.33 31 36 30.66 36 30.25C36 29.83 36.33 29.5 36.75 29.5C37.16 29.5 37.5 29.83 37.5 30.25Z" fill="#B470EB" fill-opacity="1.000000" fill-rule="nonzero"/>
			<path id="Ellipse 6756" d="M37.5 34.25C37.5 34.66 37.16 35 36.75 35C36.33 35 36 34.66 36 34.25C36 33.83 36.33 33.5 36.75 33.5C37.16 33.5 37.5 33.83 37.5 34.25Z" fill="#B470EB" fill-opacity="1.000000" fill-rule="nonzero"/>
			<path id="Ellipse 6768" d="M37.5 38.25C37.5 38.66 37.16 39 36.75 39C36.33 39 36 38.66 36 38.25C36 37.83 36.33 37.5 36.75 37.5C37.16 37.5 37.5 37.83 37.5 38.25Z" fill="#B470EB" fill-opacity="1.000000" fill-rule="nonzero"/>
			<path id="Ellipse 6780" d="M37.5 42.25C37.5 42.66 37.16 43 36.75 43C36.33 43 36 42.66 36 42.25C36 41.83 36.33 41.5 36.75 41.5C37.16 41.5 37.5 41.83 37.5 42.25Z" fill="#B470EB" fill-opacity="1.000000" fill-rule="nonzero"/>
			<path id="Ellipse 6792" d="M37.5 46.25C37.5 46.66 37.16 47 36.75 47C36.33 47 36 46.66 36 46.25C36 45.83 36.33 45.5 36.75 45.5C37.16 45.5 37.5 45.83 37.5 46.25Z" fill="#B470EB" fill-opacity="1.000000" fill-rule="nonzero"/>
			<path id="Ellipse 6804" d="M37.5 50.25C37.5 50.66 37.16 51 36.75 51C36.33 51 36 50.66 36 50.25C36 49.83 36.33 49.5 36.75 49.5C37.16 49.5 37.5 49.83 37.5 50.25Z" fill="#B470EB" fill-opacity="1.000000" fill-rule="nonzero"/>
			<path id="Ellipse 6816" d="M37.5 54.25C37.5 54.66 37.16 55 36.75 55C36.33 55 36 54.66 36 54.25C36 53.83 36.33 53.5 36.75 53.5C37.16 53.5 37.5 53.83 37.5 54.25Z" fill="#B470EB" fill-opacity="1.000000" fill-rule="nonzero"/>
			<path id="Ellipse 6828" d="M37.5 58.25C37.5 58.66 37.16 59 36.75 59C36.33 59 36 58.66 36 58.25C36 57.83 36.33 57.5 36.75 57.5C37.16 57.5 37.5 57.83 37.5 58.25Z" fill="#B470EB" fill-opacity="1.000000" fill-rule="nonzero"/>
			<path id="Ellipse 6840" d="M37.5 62.25C37.5 62.66 37.16 63 36.75 63C36.33 63 36 62.66 36 62.25C36 61.83 36.33 61.5 36.75 61.5C37.16 61.5 37.5 61.83 37.5 62.25Z" fill="#B470EB" fill-opacity="1.000000" fill-rule="nonzero"/>
			<path id="Ellipse 6852" d="M37.5 66.25C37.5 66.66 37.16 67 36.75 67C36.33 67 36 66.66 36 66.25C36 65.83 36.33 65.5 36.75 65.5C37.16 65.5 37.5 65.83 37.5 66.25Z" fill="#B470EB" fill-opacity="1.000000" fill-rule="nonzero"/>
			<path id="Ellipse 6864" d="M37.5 70.25C37.5 70.66 37.16 71 36.75 71C36.33 71 36 70.66 36 70.25C36 69.83 36.33 69.5 36.75 69.5C37.16 69.5 37.5 69.83 37.5 70.25Z" fill="#B470EB" fill-opacity="1.000000" fill-rule="nonzero"/>
			<path id="Ellipse 6876" d="M37.5 74.25C37.5 74.66 37.16 75 36.75 75C36.33 75 36 74.66 36 74.25C36 73.83 36.33 73.5 36.75 73.5C37.16 73.5 37.5 73.83 37.5 74.25Z" fill="#B470EB" fill-opacity="1.000000" fill-rule="nonzero"/>
			<path id="Ellipse 6733" d="M41.5 26.25C41.5 26.66 41.16 27 40.75 27C40.33 27 40 26.66 40 26.25C40 25.83 40.33 25.5 40.75 25.5C41.16 25.5 41.5 25.83 41.5 26.25Z" fill="#B470EB" fill-opacity="1.000000" fill-rule="nonzero"/>
			<path id="Ellipse 6745" d="M41.5 30.25C41.5 30.66 41.16 31 40.75 31C40.33 31 40 30.66 40 30.25C40 29.83 40.33 29.5 40.75 29.5C41.16 29.5 41.5 29.83 41.5 30.25Z" fill="#B470EB" fill-opacity="1.000000" fill-rule="nonzero"/>
			<path id="Ellipse 6757" d="M41.5 34.25C41.5 34.66 41.16 35 40.75 35C40.33 35 40 34.66 40 34.25C40 33.83 40.33 33.5 40.75 33.5C41.16 33.5 41.5 33.83 41.5 34.25Z" fill="#B470EB" fill-opacity="1.000000" fill-rule="nonzero"/>
			<path id="Ellipse 6769" d="M41.5 38.25C41.5 38.66 41.16 39 40.75 39C40.33 39 40 38.66 40 38.25C40 37.83 40.33 37.5 40.75 37.5C41.16 37.5 41.5 37.83 41.5 38.25Z" fill="#B470EB" fill-opacity="1.000000" fill-rule="nonzero"/>
			<path id="Ellipse 6781" d="M41.5 42.25C41.5 42.66 41.16 43 40.75 43C40.33 43 40 42.66 40 42.25C40 41.83 40.33 41.5 40.75 41.5C41.16 41.5 41.5 41.83 41.5 42.25Z" fill="#B470EB" fill-opacity="1.000000" fill-rule="nonzero"/>
			<path id="Ellipse 6793" d="M41.5 46.25C41.5 46.66 41.16 47 40.75 47C40.33 47 40 46.66 40 46.25C40 45.83 40.33 45.5 40.75 45.5C41.16 45.5 41.5 45.83 41.5 46.25Z" fill="#B470EB" fill-opacity="1.000000" fill-rule="nonzero"/>
			<path id="Ellipse 6805" d="M41.5 50.25C41.5 50.66 41.16 51 40.75 51C40.33 51 40 50.66 40 50.25C40 49.83 40.33 49.5 40.75 49.5C41.16 49.5 41.5 49.83 41.5 50.25Z" fill="#B470EB" fill-opacity="1.000000" fill-rule="nonzero"/>
			<path id="Ellipse 6817" d="M41.5 54.25C41.5 54.66 41.16 55 40.75 55C40.33 55 40 54.66 40 54.25C40 53.83 40.33 53.5 40.75 53.5C41.16 53.5 41.5 53.83 41.5 54.25Z" fill="#B470EB" fill-opacity="1.000000" fill-rule="nonzero"/>
			<path id="Ellipse 6829" d="M41.5 58.25C41.5 58.66 41.16 59 40.75 59C40.33 59 40 58.66 40 58.25C40 57.83 40.33 57.5 40.75 57.5C41.16 57.5 41.5 57.83 41.5 58.25Z" fill="#B470EB" fill-opacity="1.000000" fill-rule="nonzero"/>
			<path id="Ellipse 6841" d="M41.5 62.25C41.5 62.66 41.16 63 40.75 63C40.33 63 40 62.66 40 62.25C40 61.83 40.33 61.5 40.75 61.5C41.16 61.5 41.5 61.83 41.5 62.25Z" fill="#B470EB" fill-opacity="1.000000" fill-rule="nonzero"/>
			<path id="Ellipse 6853" d="M41.5 66.25C41.5 66.66 41.16 67 40.75 67C40.33 67 40 66.66 40 66.25C40 65.83 40.33 65.5 40.75 65.5C41.16 65.5 41.5 65.83 41.5 66.25Z" fill="#B470EB" fill-opacity="1.000000" fill-rule="nonzero"/>
			<path id="Ellipse 6865" d="M41.5 70.25C41.5 70.66 41.16 71 40.75 71C40.33 71 40 70.66 40 70.25C40 69.83 40.33 69.5 40.75 69.5C41.16 69.5 41.5 69.83 41.5 70.25Z" fill="#B470EB" fill-opacity="1.000000" fill-rule="nonzero"/>
			<path id="Ellipse 6877" d="M41.5 74.25C41.5 74.66 41.16 75 40.75 75C40.33 75 40 74.66 40 74.25C40 73.83 40.33 73.5 40.75 73.5C41.16 73.5 41.5 73.83 41.5 74.25Z" fill="#B470EB" fill-opacity="1.000000" fill-rule="nonzero"/>
			<path id="Ellipse 6734" d="M45.5 26.25C45.5 26.66 45.16 27 44.75 27C44.33 27 44 26.66 44 26.25C44 25.83 44.33 25.5 44.75 25.5C45.16 25.5 45.5 25.83 45.5 26.25Z" fill="#B470EB" fill-opacity="1.000000" fill-rule="nonzero"/>
			<path id="Ellipse 6746" d="M45.5 30.25C45.5 30.66 45.16 31 44.75 31C44.33 31 44 30.66 44 30.25C44 29.83 44.33 29.5 44.75 29.5C45.16 29.5 45.5 29.83 45.5 30.25Z" fill="#B470EB" fill-opacity="1.000000" fill-rule="nonzero"/>
			<path id="Ellipse 6758" d="M45.5 34.25C45.5 34.66 45.16 35 44.75 35C44.33 35 44 34.66 44 34.25C44 33.83 44.33 33.5 44.75 33.5C45.16 33.5 45.5 33.83 45.5 34.25Z" fill="#B470EB" fill-opacity="1.000000" fill-rule="nonzero"/>
			<path id="Ellipse 6770" d="M45.5 38.25C45.5 38.66 45.16 39 44.75 39C44.33 39 44 38.66 44 38.25C44 37.83 44.33 37.5 44.75 37.5C45.16 37.5 45.5 37.83 45.5 38.25Z" fill="#B470EB" fill-opacity="1.000000" fill-rule="nonzero"/>
			<path id="Ellipse 6782" d="M45.5 42.25C45.5 42.66 45.16 43 44.75 43C44.33 43 44 42.66 44 42.25C44 41.83 44.33 41.5 44.75 41.5C45.16 41.5 45.5 41.83 45.5 42.25Z" fill="#B470EB" fill-opacity="1.000000" fill-rule="nonzero"/>
			<path id="Ellipse 6794" d="M45.5 46.25C45.5 46.66 45.16 47 44.75 47C44.33 47 44 46.66 44 46.25C44 45.83 44.33 45.5 44.75 45.5C45.16 45.5 45.5 45.83 45.5 46.25Z" fill="#B470EB" fill-opacity="1.000000" fill-rule="nonzero"/>
			<path id="Ellipse 6806" d="M45.5 50.25C45.5 50.66 45.16 51 44.75 51C44.33 51 44 50.66 44 50.25C44 49.83 44.33 49.5 44.75 49.5C45.16 49.5 45.5 49.83 45.5 50.25Z" fill="#B470EB" fill-opacity="1.000000" fill-rule="nonzero"/>
			<path id="Ellipse 6818" d="M45.5 54.25C45.5 54.66 45.16 55 44.75 55C44.33 55 44 54.66 44 54.25C44 53.83 44.33 53.5 44.75 53.5C45.16 53.5 45.5 53.83 45.5 54.25Z" fill="#B470EB" fill-opacity="1.000000" fill-rule="nonzero"/>
			<path id="Ellipse 6830" d="M45.5 58.25C45.5 58.66 45.16 59 44.75 59C44.33 59 44 58.66 44 58.25C44 57.83 44.33 57.5 44.75 57.5C45.16 57.5 45.5 57.83 45.5 58.25Z" fill="#B470EB" fill-opacity="1.000000" fill-rule="nonzero"/>
			<path id="Ellipse 6842" d="M45.5 62.25C45.5 62.66 45.16 63 44.75 63C44.33 63 44 62.66 44 62.25C44 61.83 44.33 61.5 44.75 61.5C45.16 61.5 45.5 61.83 45.5 62.25Z" fill="#B470EB" fill-opacity="1.000000" fill-rule="nonzero"/>
			<path id="Ellipse 6854" d="M45.5 66.25C45.5 66.66 45.16 67 44.75 67C44.33 67 44 66.66 44 66.25C44 65.83 44.33 65.5 44.75 65.5C45.16 65.5 45.5 65.83 45.5 66.25Z" fill="#B470EB" fill-opacity="1.000000" fill-rule="nonzero"/>
			<path id="Ellipse 6866" d="M45.5 70.25C45.5 70.66 45.16 71 44.75 71C44.33 71 44 70.66 44 70.25C44 69.83 44.33 69.5 44.75 69.5C45.16 69.5 45.5 69.83 45.5 70.25Z" fill="#B470EB" fill-opacity="1.000000" fill-rule="nonzero"/>
			<path id="Ellipse 6878" d="M45.5 74.25C45.5 74.66 45.16 75 44.75 75C44.33 75 44 74.66 44 74.25C44 73.83 44.33 73.5 44.75 73.5C45.16 73.5 45.5 73.83 45.5 74.25Z" fill="#B470EB" fill-opacity="1.000000" fill-rule="nonzero"/>
			<path id="Ellipse 6735" d="M49.5 26.25C49.5 26.66 49.16 27 48.75 27C48.33 27 48 26.66 48 26.25C48 25.83 48.33 25.5 48.75 25.5C49.16 25.5 49.5 25.83 49.5 26.25Z" fill="#B470EB" fill-opacity="1.000000" fill-rule="nonzero"/>
			<path id="Ellipse 6747" d="M49.5 30.25C49.5 30.66 49.16 31 48.75 31C48.33 31 48 30.66 48 30.25C48 29.83 48.33 29.5 48.75 29.5C49.16 29.5 49.5 29.83 49.5 30.25Z" fill="#B470EB" fill-opacity="1.000000" fill-rule="nonzero"/>
			<path id="Ellipse 6759" d="M49.5 34.25C49.5 34.66 49.16 35 48.75 35C48.33 35 48 34.66 48 34.25C48 33.83 48.33 33.5 48.75 33.5C49.16 33.5 49.5 33.83 49.5 34.25Z" fill="#B470EB" fill-opacity="1.000000" fill-rule="nonzero"/>
			<path id="Ellipse 6771" d="M49.5 38.25C49.5 38.66 49.16 39 48.75 39C48.33 39 48 38.66 48 38.25C48 37.83 48.33 37.5 48.75 37.5C49.16 37.5 49.5 37.83 49.5 38.25Z" fill="#B470EB" fill-opacity="1.000000" fill-rule="nonzero"/>
			<path id="Ellipse 6783" d="M49.5 42.25C49.5 42.66 49.16 43 48.75 43C48.33 43 48 42.66 48 42.25C48 41.83 48.33 41.5 48.75 41.5C49.16 41.5 49.5 41.83 49.5 42.25Z" fill="#B470EB" fill-opacity="1.000000" fill-rule="nonzero"/>
			<path id="Ellipse 6795" d="M49.5 46.25C49.5 46.66 49.16 47 48.75 47C48.33 47 48 46.66 48 46.25C48 45.83 48.33 45.5 48.75 45.5C49.16 45.5 49.5 45.83 49.5 46.25Z" fill="#B470EB" fill-opacity="1.000000" fill-rule="nonzero"/>
			<path id="Ellipse 6807" d="M49.5 50.25C49.5 50.66 49.16 51 48.75 51C48.33 51 48 50.66 48 50.25C48 49.83 48.33 49.5 48.75 49.5C49.16 49.5 49.5 49.83 49.5 50.25Z" fill="#B470EB" fill-opacity="1.000000" fill-rule="nonzero"/>
			<path id="Ellipse 6819" d="M49.5 54.25C49.5 54.66 49.16 55 48.75 55C48.33 55 48 54.66 48 54.25C48 53.83 48.33 53.5 48.75 53.5C49.16 53.5 49.5 53.83 49.5 54.25Z" fill="#B470EB" fill-opacity="1.000000" fill-rule="nonzero"/>
			<path id="Ellipse 6831" d="M49.5 58.25C49.5 58.66 49.16 59 48.75 59C48.33 59 48 58.66 48 58.25C48 57.83 48.33 57.5 48.75 57.5C49.16 57.5 49.5 57.83 49.5 58.25Z" fill="#B470EB" fill-opacity="1.000000" fill-rule="nonzero"/>
			<path id="Ellipse 6843" d="M49.5 62.25C49.5 62.66 49.16 63 48.75 63C48.33 63 48 62.66 48 62.25C48 61.83 48.33 61.5 48.75 61.5C49.16 61.5 49.5 61.83 49.5 62.25Z" fill="#B470EB" fill-opacity="1.000000" fill-rule="nonzero"/>
			<path id="Ellipse 6855" d="M49.5 66.25C49.5 66.66 49.16 67 48.75 67C48.33 67 48 66.66 48 66.25C48 65.83 48.33 65.5 48.75 65.5C49.16 65.5 49.5 65.83 49.5 66.25Z" fill="#B470EB" fill-opacity="1.000000" fill-rule="nonzero"/>
			<path id="Ellipse 6867" d="M49.5 70.25C49.5 70.66 49.16 71 48.75 71C48.33 71 48 70.66 48 70.25C48 69.83 48.33 69.5 48.75 69.5C49.16 69.5 49.5 69.83 49.5 70.25Z" fill="#B470EB" fill-opacity="1.000000" fill-rule="nonzero"/>
			<path id="Ellipse 6879" d="M49.5 74.25C49.5 74.66 49.16 75 48.75 75C48.33 75 48 74.66 48 74.25C48 73.83 48.33 73.5 48.75 73.5C49.16 73.5 49.5 73.83 49.5 74.25Z" fill="#B470EB" fill-opacity="1.000000" fill-rule="nonzero"/>
		</g>
		<path id="Vector 7045" d="M14 40.62L22.36 45.38M22.36 54.5L22.36 45.38L30.5 40.62M30.5 40.62L22.36 35.87L22.36 25.69L30.5 21L38.96 25.69M22.36 35.87L14 40.62L14 49.58L22.36 54.5L30.5 49.63L38.96 44.57L47 39.77L47 11.19L38.96 6.5L30.5 10.76L30.5 21M30.5 49.63L30.5 40.62L30.5 30.38M22.36 25.69L30.5 30.38L38.96 25.69M38.96 44.57L38.96 25.69L38.96 15.45M47 11.19L38.96 15.45L30.5 10.76" stroke="#000000" stroke-opacity="1.000000" stroke-width="1.200000"/>
	</g>
</svg>
