<svg width="24.000000" height="24.000000" viewBox="0 0 24 24" fill="none" xmlns="http://www.w3.org/2000/svg" xmlns:xlink="http://www.w3.org/1999/xlink">
	<desc>
			Created with Pixso.
	</desc>
	<defs/>
	<rect id="ic_infinity" rx="6.000000" width="24.000000" height="24.000000" fill="#B470EB" fill-opacity="0.120000"/>
	<path id="Vector" d="M10.66 13.5L10.11 14.11C9.69 14.53 9.16 14.82 8.58 14.93C8 15.05 7.4 14.99 6.85 14.76C6.31 14.53 5.84 14.15 5.51 13.66C5.18 13.17 5 12.59 5 12C5 11.4 5.18 10.82 5.51 10.33C5.84 9.84 6.31 9.46 6.85 9.23C7.4 9 8 8.94 8.58 9.06C9.16 9.17 9.69 9.46 10.11 9.88L13.88 14.11C14.3 14.53 14.83 14.82 15.41 14.93C15.99 15.05 16.59 14.99 17.14 14.76C17.68 14.53 18.15 14.15 18.48 13.66C18.81 13.17 18.99 12.59 18.99 12C18.99 11.4 18.81 10.82 18.48 10.33C18.15 9.84 17.68 9.46 17.14 9.23C16.59 9 15.99 8.94 15.41 9.06C14.83 9.17 14.3 9.46 13.88 9.88L13.33 10.49" stroke="#8230C5" stroke-opacity="1.000000" stroke-width="1.200000" stroke-linejoin="round" stroke-linecap="round"/>
</svg>
