<svg width="22.000000" height="22.000000" viewBox="0 0 22 22" fill="none" xmlns="http://www.w3.org/2000/svg" xmlns:xlink="http://www.w3.org/1999/xlink">
	<desc>
			Created with Pixso.
	</desc>
	<defs/>
	<rect id="Interface, Essential/stars-light-sparkle-1" width="21.593626" height="21.593626" transform="translate(-0.159790 -0.406372)" fill="#FFFFFF" fill-opacity="0"/>
	<path id="Path" d="M5.23 2.28C5.23 4.27 3.62 5.88 1.63 5.88C3.62 5.88 5.23 7.5 5.23 9.49C5.23 7.5 6.84 5.88 8.83 5.88C6.84 5.88 5.23 4.27 5.23 2.28Z" fill="#B470EB" fill-opacity="1.000000" fill-rule="evenodd"/>
	<path id="Path" d="M1.63 5.88C3.62 5.88 5.23 7.5 5.23 9.49C5.23 7.5 6.84 5.88 8.83 5.88C6.84 5.88 5.23 4.27 5.23 2.28C5.23 4.27 3.62 5.88 1.63 5.88Z" stroke="#B470EB" stroke-opacity="1.000000" stroke-width="1.079681" stroke-linejoin="round"/>
	<path id="Path" d="M15.13 13.09C15.13 10.6 13.12 8.59 10.63 8.59C13.12 8.59 15.13 6.57 15.13 4.08C15.13 6.57 17.15 8.59 19.63 8.59C17.15 8.59 15.13 10.6 15.13 13.09Z" fill="#B470EB" fill-opacity="1.000000" fill-rule="evenodd"/>
	<path id="Path" d="M10.63 8.59C13.12 8.59 15.13 6.57 15.13 4.08C15.13 6.57 17.15 8.59 19.63 8.59C17.15 8.59 15.13 10.6 15.13 13.09C15.13 10.6 13.12 8.59 10.63 8.59Z" stroke="#B470EB" stroke-opacity="1.000000" stroke-width="1.079681" stroke-linejoin="round"/>
	<path id="Path" d="M15.13 13.09L15.13 13.99" stroke="#B470EB" stroke-opacity="1.000000" stroke-width="1.079681" stroke-linejoin="round" stroke-linecap="round"/>
	<path id="Path" d="M15.13 4.08L15.13 3.18" stroke="#B470EB" stroke-opacity="1.000000" stroke-width="1.079681" stroke-linejoin="round" stroke-linecap="round"/>
	<path id="Path" d="M8.83 18.49L8.83 19.39" stroke="#B470EB" stroke-opacity="1.000000" stroke-width="1.079681" stroke-linejoin="round" stroke-linecap="round"/>
	<path id="Path" d="M8.83 12.19L8.83 11.29" stroke="#B470EB" stroke-opacity="1.000000" stroke-width="1.079681" stroke-linejoin="round" stroke-linecap="round"/>
	<path id="Path" d="M5.23 9.49L5.23 10.39" stroke="#B470EB" stroke-opacity="1.000000" stroke-width="1.079681" stroke-linejoin="round" stroke-linecap="round"/>
	<path id="Path" d="M5.23 1.38L5.23 2.28" stroke="#B470EB" stroke-opacity="1.000000" stroke-width="1.079681" stroke-linejoin="round" stroke-linecap="round"/>
	<path id="Path" d="M8.83 11.74C8.83 13.72 7.22 15.34 5.23 15.34C7.22 15.34 8.83 16.95 8.83 18.94C8.83 16.95 10.44 15.34 12.43 15.34C10.44 15.34 8.83 13.72 8.83 11.74Z" fill="#B470EB" fill-opacity="1.000000" fill-rule="evenodd"/>
	<path id="Path" d="M5.23 15.34C7.22 15.34 8.83 16.95 8.83 18.94C8.83 16.95 10.44 15.34 12.43 15.34C10.44 15.34 8.83 13.72 8.83 11.74C8.83 13.72 7.22 15.34 5.23 15.34Z" stroke="#B470EB" stroke-opacity="1.000000" stroke-width="1.079681" stroke-linejoin="round"/>
</svg>
