<svg width="16.000000" height="16.000000" viewBox="0 0 16 16" fill="none" xmlns="http://www.w3.org/2000/svg" xmlns:xlink="http://www.w3.org/1999/xlink">
	<desc>
			Created with Pixso.
	</desc>
	<defs/>
	<g opacity="0.500000">
		<path id="Rectangle 36871" d="M12.45 7.09L8 10.43L3.54 7.09L4.45 5.9L8.45 8.9L8 9.5L7.54 8.9L11.55 5.9L12.45 7.09ZM11.54 5.92L11.55 5.9C11.88 5.64 12.34 5.71 12.6 6.05C12.85 6.38 12.78 6.84 12.45 7.09L12.42 7.09L11.54 5.92ZM3.57 7.09L3.54 7.09C3.21 6.84 3.14 6.38 3.39 6.05C3.65 5.71 4.11 5.64 4.45 5.9L4.45 5.92L3.57 7.09Z" fill="#000000" fill-opacity="1.000000" fill-rule="evenodd"/>
	</g>
</svg>
