<svg width="194.000000" height="52.000000" viewBox="0 0 194 52" fill="none" xmlns="http://www.w3.org/2000/svg" xmlns:xlink="http://www.w3.org/1999/xlink">
	<desc>
			Created with Pixso.
	</desc>
	<defs>
		<clipPath id="clip2_45002">
			<rect id="Logo-minimal 1" width="192.000000" height="29.000000" transform="translate(0.500122 11.000000)" fill="white" fill-opacity="0"/>
		</clipPath>
		<clipPath id="clip2_45001">
			<rect id="activotex" width="194.000000" height="52.000000" transform="translate(-0.499878 0.000000)" fill="white" fill-opacity="0"/>
		</clipPath>
	</defs>
	<g clip-path="url(#clip2_45001)">
		<rect id="Logo-minimal 1" width="192.000000" height="29.000000" transform="translate(0.500122 11.000000)" fill="#FFFFFF" fill-opacity="0"/>
		<g clip-path="url(#clip2_45002)">
			<path id="Vector" d="M10.34 11L20.82 11L30.67 39.23L21.64 39.23L20.21 34.3L10.86 34.3L9.39 39.23L0.5 39.23L10.34 11ZM18.93 28.51L15.61 17.46L12.24 28.51L18.93 28.51Z" fill="#72707E" fill-opacity="1.000000" fill-rule="nonzero"/>
			<path id="Vector" d="M36 38.37C34.32 37.51 32.91 36.2 31.92 34.59C30.88 32.91 30.35 30.97 30.4 29.01C30.37 27.06 30.85 25.14 31.8 23.44C32.73 21.86 34.07 20.56 35.69 19.69C37.41 18.76 39.34 18.29 41.29 18.31C42.91 18.31 44.51 18.61 46.01 19.21C47.41 19.76 48.67 20.61 49.69 21.71C50.68 22.76 51.33 24.08 51.57 25.49L44.79 27.27C44.65 26.47 44.24 25.73 43.64 25.18C43.03 24.7 42.27 24.46 41.49 24.5C40.85 24.49 40.21 24.71 39.71 25.11C39.14 25.53 38.71 26.11 38.47 26.78C38.17 27.48 38.02 28.24 38.01 29.01C37.99 29.83 38.17 30.65 38.53 31.39C38.86 32.06 39.36 32.62 39.98 33.04C40.58 33.42 41.28 33.62 41.99 33.62C42.65 33.63 43.31 33.47 43.89 33.15C44.47 32.82 44.96 32.37 45.33 31.82C45.72 31.24 45.98 30.58 46.08 29.88L53.08 30.78C52.9 32.48 52.25 34.09 51.21 35.44C50.13 36.79 48.76 37.86 47.19 38.57C45.5 39.33 43.68 39.71 41.83 39.7C39.81 39.75 37.8 39.29 36 38.37Z" fill="#72707E" fill-opacity="1.000000" fill-rule="nonzero"/>
			<path id="Vector" d="M60.44 38.78C59.2 38.19 58.18 37.22 57.53 36.01C56.83 34.61 56.5 33.06 56.56 31.5L56.56 24.5L53.04 24.5L53.04 18.87L56.56 18.87L56.56 13.52L64.19 11.85L64.19 18.87L71.87 18.87L71.87 24.5L64.19 24.5L64.19 30.29C64.14 31.2 64.45 32.1 65.05 32.79C65.32 33.08 65.64 33.31 66 33.47C66.37 33.62 66.76 33.7 67.15 33.69C67.9 33.71 68.63 33.55 69.3 33.22C70.01 32.82 70.65 32.31 71.2 31.71L72.78 36.86C71.77 37.79 70.63 38.55 69.39 39.11C68.06 39.63 66.64 39.86 65.21 39.81C63.56 39.84 61.93 39.49 60.44 38.78Z" fill="#72707E" fill-opacity="1.000000" fill-rule="nonzero"/>
			<path id="Vector" d="M74.88 18.87L82.51 18.87L82.51 39.14L74.88 39.14L74.88 18.87Z" fill="#72707E" fill-opacity="1.000000" fill-rule="nonzero"/>
			<path id="Vector" d="M84.07 18.87L91.86 18.87L96.38 32.88L100.9 18.87L108.69 18.87L101.04 39.14L91.68 39.14L84.07 18.87Z" fill="#72707E" fill-opacity="1.000000" fill-rule="nonzero"/>
			<path id="Vector" d="M114.16 38.42C112.48 37.6 111.07 36.3 110.12 34.7C109.11 32.97 108.61 31 108.67 29.01C108.62 27.03 109.12 25.07 110.12 23.35C111.07 21.74 112.47 20.44 114.16 19.62C116.05 18.74 118.12 18.31 120.21 18.36C122.3 18.32 124.36 18.76 126.24 19.66C127.93 20.5 129.34 21.79 130.31 23.4C131.32 25.1 131.84 27.03 131.82 29.01C131.87 30.99 131.36 32.94 130.36 34.66C129.38 36.25 127.97 37.54 126.29 38.37C124.41 39.29 122.35 39.74 120.26 39.7C118.15 39.76 116.06 39.32 114.16 38.42ZM122.31 32.83C122.93 32.46 123.42 31.91 123.71 31.26C124.06 30.56 124.23 29.79 124.21 29.01C124.23 28.23 124.06 27.46 123.71 26.75C123.41 26.12 122.92 25.58 122.31 25.22C121.67 24.87 120.95 24.69 120.21 24.73C119.48 24.71 118.75 24.9 118.11 25.27C117.51 25.63 117.02 26.17 116.71 26.8C116.37 27.5 116.2 28.27 116.21 29.05C116.2 29.83 116.37 30.6 116.71 31.3C117.02 31.94 117.51 32.47 118.11 32.83C118.73 33.26 119.46 33.49 120.21 33.51C120.97 33.5 121.7 33.26 122.31 32.83Z" fill="#72707E" fill-opacity="1.000000" fill-rule="nonzero"/>
			<path id="Vector" d="M132.64 19.08L132.64 22.39L140.29 22.39L140.29 39.47L144.02 39.47L144.02 22.39L151.68 22.39L151.68 19.08L132.64 19.08Z" fill="#72707E" fill-opacity="1.000000" fill-rule="nonzero"/>
			<path id="Vector" d="M168.39 19.82C169.88 20.72 171.08 22.02 171.85 23.58C172.68 25.27 173.1 27.13 173.07 29.01L173.07 29.68C173.07 29.93 173.07 30.15 173.07 30.4L156.58 30.4C156.72 31.61 157.15 32.77 157.85 33.78C158.51 34.74 159.41 35.51 160.47 36.03C161.58 36.58 162.81 36.85 164.06 36.84C165.45 36.86 166.82 36.52 168.03 35.85C169.11 35.29 169.99 34.41 170.54 33.33L173.59 34.54C172.9 36.23 171.64 37.63 170.02 38.48C168.19 39.52 166.11 40.04 164.01 39.99C162.02 40.02 160.06 39.53 158.32 38.57C156.66 37.66 155.28 36.29 154.37 34.63C153.41 32.91 152.92 30.97 152.94 29.01C152.91 27.13 153.36 25.28 154.25 23.62C155.11 22.05 156.39 20.75 157.94 19.84C159.52 18.94 161.31 18.48 163.13 18.49C164.97 18.44 166.8 18.9 168.39 19.82ZM160.13 22.25C159.21 22.74 158.44 23.44 157.87 24.3C157.24 25.2 156.83 26.23 156.65 27.32L169.39 27.32C169.23 26.24 168.86 25.21 168.3 24.28C167.79 23.43 167.05 22.73 166.18 22.25C165.23 21.79 164.18 21.58 163.13 21.64C162.09 21.6 161.06 21.81 160.13 22.25Z" fill="#72707E" fill-opacity="1.000000" fill-rule="nonzero"/>
			<path id="Vector" d="M180.23 28.85L173.59 19.28L177.63 19.28L182.9 27.2L188.16 19.28L192.18 19.28L185.4 28.85L192.5 39.23L188.43 39.23L182.9 30.63L177.36 39.23L173.21 39.23L180.23 28.85Z" fill="#72707E" fill-opacity="1.000000" fill-rule="nonzero"/>
		</g>
	</g>
</svg>
