<svg width="116.000000" height="52.000000" viewBox="0 0 116 52" fill="none" xmlns="http://www.w3.org/2000/svg" xmlns:xlink="http://www.w3.org/1999/xlink">
	<desc>
			Created with Pixso.
	</desc>
	<defs>
		<clipPath id="clip2_44974">
			<rect id="Frame 1321315750" width="116.000000" height="52.000000" transform="translate(-0.499878 0.000000)" fill="white" fill-opacity="0"/>
		</clipPath>
		<clipPath id="clip2_44973">
			<rect id=" Advatec" width="116.000000" height="52.000000" transform="translate(-0.499878 0.000000)" fill="white" fill-opacity="0"/>
		</clipPath>
	</defs>
	<rect id=" Advatec" width="116.000000" height="52.000000" transform="translate(-0.499878 0.000000)" fill="#FFFFFF" fill-opacity="0"/>
	<g clip-path="url(#clip2_44973)">
		<g clip-path="url(#clip2_44974)">
			<path id="Union" d="M81.1418 18.0427L77.3351 18.0427C77.2862 17.798 77.2411 17.552 77.1883 17.3074C77.0132 16.5025 76.5625 16.1226 75.7563 16.0969C75.0172 16.0724 74.4351 16.433 74.2883 17.1825C74.108 18.1032 73.9767 19.0484 73.9689 19.9833C73.9677 20.1336 73.9672 20.2839 73.9672 20.4342C73.9672 22.0386 74.0323 23.6438 74.0974 25.2469L74.1003 25.3185C74.117 25.7152 74.2381 26.1234 74.3836 26.4968C74.5999 27.0544 75.0481 27.2901 75.6533 27.294C76.283 27.2978 76.8342 27.1536 77.0673 26.5187C77.3699 25.6971 77.6094 24.8511 77.876 24.0153C77.9082 23.9149 77.9404 23.8131 77.9945 23.6393C79.1831 24.1493 80.3498 24.6502 81.5744 25.1756C81.1134 26.2959 80.8301 27.4433 80.1631 28.4311C79.599 29.2642 78.7942 29.7896 77.8554 30.091C76.538 30.5146 75.1794 30.5443 73.8569 30.1708C71.7398 29.572 70.5332 28.0988 70.246 25.9444C70.0799 24.6965 70.0593 23.4268 70.0348 22.1648C70.0287 21.856 70.0256 21.547 70.0256 21.2379C70.0256 20.3687 70.0505 19.4988 70.1057 18.6325C70.1494 17.9332 70.2705 17.2237 70.4714 16.5515C71.0818 14.5039 72.5447 13.4274 74.6051 13.0964C75.7448 12.9135 76.8728 12.9921 77.9674 13.3681C79.835 14.0118 81.1464 15.8484 81.1464 17.8374C81.1464 17.9057 81.1449 17.9741 81.1418 18.0427ZM14.3116 13.0527C15.0124 13.0681 15.7088 13.0709 16.4014 13.0737C17.9691 13.0801 19.5169 13.0863 21.0505 13.2382C23.4045 13.4713 24.8958 15.081 25.2756 17.426C25.4019 18.2064 25.4765 19.0022 25.4958 19.7916C25.5144 20.5186 25.5313 21.2458 25.5313 21.9726C25.5313 23.2169 25.4817 24.4602 25.3053 25.6998C24.8623 28.8059 22.4593 30.0641 20.3371 30.1066C18.9661 30.134 17.5939 30.1296 16.2222 30.1252C15.6625 30.1234 15.1028 30.1216 14.5435 30.122C14.4816 30.122 14.4198 30.0963 14.3116 30.0731L14.3116 13.0527ZM33.9503 13.126L38.2527 13.126C36.7963 18.7973 35.3514 24.4274 33.8962 30.0922L29.7921 30.0922C28.355 24.466 26.9166 18.832 25.464 13.144L29.7664 13.144C30.436 16.9584 31.1044 20.7637 31.7727 24.569C31.8204 24.5716 31.8667 24.5742 31.9144 24.5767C32.5892 20.7804 33.2639 16.9841 33.9503 13.126ZM8.66254 27.4949L4.18756 27.4949C3.9725 28.3602 3.75876 29.223 3.53983 30.1026L-0.499878 30.1026C1.16907 24.421 2.82382 18.7883 4.48505 13.1337L8.36508 13.1337C10.0186 18.76 11.6759 24.4004 13.3487 30.0923L9.31287 30.0923C9.10037 29.2462 8.88531 28.3847 8.66254 27.4949ZM55.416 30.102L51.5784 30.102L51.5784 16.3049L45.6444 16.3049C46.9991 20.9151 48.3397 25.4789 49.6957 30.0968L45.6393 30.0968C45.4332 29.2534 45.2259 28.4073 45.0083 27.5213L40.514 27.5213C40.3105 28.3532 40.1032 29.198 39.8868 30.084L35.8175 30.084C37.4813 24.423 39.1374 18.7916 40.7999 13.1357L69.0353 13.1357L69.0353 16.2779L63.9821 16.2779L63.9821 20.0639L68.3257 20.0639L68.3257 23.1301L63.9911 23.1301L63.9911 27.0526L69.0508 27.0526L69.0508 30.0827L59.9952 30.0827L59.9952 16.3281L55.4146 16.3281C55.416 20.9048 55.416 25.466 55.416 30.102ZM18.4789 16.7203L18.4789 26.363C18.6898 26.363 18.8979 26.3677 19.1039 26.3724C19.5717 26.3829 20.028 26.3932 20.4787 26.3476C21.0247 26.2922 21.4227 25.9406 21.5643 25.3869C21.6699 24.9748 21.7781 24.5512 21.7935 24.1301C21.8303 23.0964 21.8557 22.0611 21.8557 21.0262C21.8557 20.755 21.8539 20.4838 21.8502 20.2127C21.8412 19.489 21.7729 18.7575 21.6467 18.0441C21.4999 17.2122 20.9706 16.7769 20.1362 16.7267C19.7726 16.7047 19.4071 16.7098 19.0224 16.7152C18.8458 16.7177 18.6652 16.7203 18.4789 16.7203ZM6.49268 19.3935C6.45404 19.3974 6.41669 19.4013 6.37805 19.4051C5.91833 21.0625 5.45859 22.7198 4.98856 24.4158L7.89117 24.4158C7.41599 22.7108 6.95367 21.0522 6.49268 19.3935ZM42.9774 19.496C42.9298 19.5024 42.8809 19.5089 42.8332 19.514C42.4469 21.134 42.0606 22.7527 41.6627 24.4165L44.1442 24.4165C43.7475 22.7476 43.3625 21.1211 42.9774 19.496ZM68.1077 32.2442C67.5527 32.6202 66.7607 32.6202 66.1941 32.2442C66.1539 31.9994 66.1144 31.7486 66.1144 31.4965C66.1144 31.2394 66.1555 30.9809 66.2791 30.7259C66.8946 30.4864 67.4664 30.4426 68.109 30.8006C68.1077 31.2732 68.1077 31.7716 68.1077 32.2442ZM37.983 40.8578L35.9174 40.8578C35.6405 40.1019 35.3637 39.3459 35.0868 38.5913L31.2171 38.5913C30.9415 39.3421 30.6711 40.0813 30.3904 40.8475L28.3634 40.8475C29.5262 37.7298 30.6724 34.6585 31.8198 31.582L34.5472 31.582C35.6805 34.6418 36.8163 37.7053 37.983 40.8578ZM64.2794 39.3784C64.7263 39.4582 65.0971 39.5252 65.5118 39.5999L65.5118 40.8709C64.7533 40.9572 63.9768 41.0113 63.217 40.737C62.7856 40.5811 62.519 40.236 62.416 39.7982C62.3388 39.4672 62.2898 39.1234 62.2847 38.7847C62.2773 38.3493 62.2754 37.9139 62.2754 37.4785C62.2754 37.2571 62.2759 37.0357 62.2764 36.8144C62.2769 36.593 62.2773 36.3716 62.2773 36.1502C62.2773 36.0433 62.2772 35.9363 62.2769 35.8293C62.2757 35.6194 62.2589 35.4095 62.2473 35.1519C61.9679 35.1172 61.7206 35.0863 61.4026 35.0463L61.4026 33.671C61.6678 33.6427 61.9177 33.6144 62.2409 33.5796C62.2641 33.058 62.2859 32.5352 62.3117 31.9686L64.1326 31.9686L64.1326 33.5873C64.6799 33.6118 65.1409 33.6337 65.638 33.6569L65.638 35.0811L64.1416 35.0811C64.1472 35.2667 64.1494 35.451 64.1494 35.6343C64.1494 35.9254 64.144 36.2142 64.1386 36.5021C64.1333 36.7883 64.128 37.0737 64.128 37.3597C64.128 38.0231 64.1565 38.6899 64.2794 39.3784ZM33.2865 33.2986C33.2079 33.3038 33.1294 33.3076 33.0521 33.3128C32.6426 34.4808 32.2344 35.6488 31.7979 36.8953L34.5189 36.8953C34.0875 35.6411 33.687 34.4705 33.2865 33.2986ZM75.2921 39.2771C75.7647 39.3466 76.1794 39.4316 76.5992 39.4625C77.0447 39.496 77.4967 39.5115 77.9397 39.4728C78.3003 39.4406 78.5823 39.2449 78.6287 38.8302C78.6335 38.7863 78.636 38.7439 78.636 38.7028C78.636 38.3732 78.4772 38.1345 78.1187 37.9558C77.9861 37.8902 77.8393 37.8503 77.6951 37.809C77.3873 37.7215 77.0795 37.6275 76.7666 37.5605C75.625 37.321 75.2657 36.5697 75.2657 35.7789C75.2657 35.4556 75.3258 35.1257 75.417 34.8214C75.5458 34.3939 75.8304 34.0681 76.2399 33.8814C77.4916 33.3109 78.7665 33.4448 80.0439 33.7268L80.0439 35.0957C79.5378 35.0301 79.1 34.9502 78.6596 34.9245C78.3003 34.9039 77.9359 34.9348 77.5753 34.9657C77.2508 34.994 77.0872 35.2155 77.0409 35.5168C77.0349 35.556 77.0319 35.5938 77.0319 35.6302C77.0319 35.8896 77.1813 36.0787 77.4298 36.1826C77.6848 36.2895 77.9565 36.3552 78.2217 36.4389C78.5888 36.5535 78.9609 36.6501 79.3202 36.784C80.0195 37.0428 80.3388 37.5579 80.3891 38.3048C80.3968 38.423 80.4008 38.5374 80.4008 38.6482C80.4008 40.0448 79.7647 40.8456 78.0131 40.9113C77.1169 40.9447 76.2193 40.9679 75.2921 40.722L75.2921 39.2771ZM58.7257 36.5389C58.7428 36.4104 58.7514 36.291 58.7514 36.1805C58.7514 35.4755 58.4011 35.131 57.6697 35.0953C57.2306 35.074 56.7909 35.079 56.3403 35.0842C56.1382 35.0865 55.9339 35.0889 55.7265 35.0889L55.7265 33.6865C56.9795 33.4032 58.2042 33.4084 59.4044 33.8114C60.1693 34.069 60.62 34.6626 60.6393 35.452C60.6579 36.2062 60.6633 36.9609 60.6633 37.7194C60.6633 38.2297 60.6609 38.7418 60.6584 39.2566C60.656 39.7769 60.6535 40.3001 60.6535 40.8271L59.0232 40.8271C58.9446 40.6275 58.8622 40.4151 58.7489 40.1253C57.9827 40.88 57.0658 41.0692 56.0845 40.9958C55.4123 40.9456 54.7298 40.8156 54.3434 40.1936C54.0714 39.7563 53.9415 39.2913 53.9415 38.8252C53.9415 38.4155 54.0418 38.005 54.234 37.6116C54.6203 36.8196 55.4458 36.6394 56.2571 36.5853C56.67 36.5578 57.0847 36.5624 57.4992 36.567L57.4993 36.567C57.7065 36.5692 57.9136 36.5715 58.1205 36.5698C58.2515 36.5707 58.382 36.5617 58.5255 36.5518C58.5893 36.5474 58.6556 36.5429 58.7257 36.5389ZM43.1422 34.3423C43.1872 34.0886 43.222 33.8903 43.2632 33.6624L45.0326 33.6624L45.0326 43.5395L43.2272 43.5395L43.2272 40.1514C42.685 40.5146 42.2588 40.879 41.6535 40.9588C40.9839 41.0477 40.3323 41.0284 39.6871 40.8249C39.0239 40.6163 38.5642 40.1694 38.3658 39.5243C38.1385 38.7877 38.0237 38.0441 38.0237 37.3C38.0237 36.6066 38.1234 35.9126 38.3246 35.2232C38.738 33.8092 40.0219 33.3611 41.4642 33.5285C41.7784 33.5645 42.0991 33.656 42.3837 33.7912C42.6425 33.9135 42.8576 34.1299 43.1422 34.3423ZM74.4366 33.7185L74.4366 35.211C74.0516 35.1505 73.718 35.0667 73.3832 35.0552C72.9802 35.041 72.5681 35.0449 72.174 35.1183C71.7079 35.2058 71.3692 35.5033 71.2043 35.9669C71.0556 36.3881 70.9849 36.8102 70.9849 37.2317C70.9849 37.6711 71.0617 38.1099 71.2069 38.5463C71.3782 39.0614 71.771 39.373 72.3054 39.4026C72.8042 39.4305 73.3055 39.4245 73.8255 39.4184C74.0519 39.4157 74.2817 39.4129 74.5165 39.4129L74.5165 40.7355C73.6434 41.0394 72.7278 41.0948 71.816 40.9647C70.0891 40.7187 69.2882 39.8997 69.1362 38.1381C69.1167 37.9138 69.1076 37.6871 69.1076 37.4596C69.1076 36.8759 69.1673 36.2862 69.2637 35.7145C69.4659 34.5169 70.272 33.8318 71.4735 33.6077C72.4586 33.4261 73.4232 33.4712 74.4366 33.7185ZM66.2804 33.6602L67.9249 33.6602C68.0084 33.9381 68.0549 35.9122 68.0549 37.7307C68.0549 39.1648 68.0259 40.5021 67.9635 40.8343L66.2804 40.8343L66.2804 33.6602ZM51.1939 33.6644L53.0315 33.6644L53.0315 40.8449L51.3935 40.8449C51.3227 40.635 51.2505 40.4174 51.1462 40.1045C50.6814 40.5565 50.2036 40.9261 49.5906 40.9389L49.5209 40.9404C48.9297 40.9531 48.3217 40.9661 47.7543 40.8372C47.0795 40.684 46.6816 40.1586 46.576 39.4593C46.5348 39.185 46.5258 38.9043 46.5245 38.6261C46.5214 37.7823 46.5197 36.9386 46.5197 36.0951C46.5197 35.5457 46.5204 34.9964 46.5219 34.4473C46.5232 34.1975 46.5515 33.9477 46.5708 33.6631L48.2836 33.6631C48.3067 33.891 48.3466 34.1151 48.3479 34.3392C48.3506 34.8004 48.3513 35.2616 48.3513 35.7228C48.3513 35.9917 48.351 36.2606 48.3508 36.5295C48.3506 36.7984 48.3503 37.0674 48.3503 37.3363C48.3503 37.473 48.3504 37.6098 48.3505 37.7466C48.3505 37.7751 48.3504 37.8037 48.3503 37.8323C48.3502 37.8609 48.3501 37.8895 48.3501 37.9182C48.3501 38.0326 48.3518 38.1471 48.3621 38.2604C48.4484 39.1824 48.8115 39.5391 49.6357 39.5211C50.5487 39.5005 51.1682 38.9764 51.1862 38.1484C51.1972 37.6175 51.2001 37.0865 51.2001 36.5554C51.2001 36.2558 51.1992 35.9561 51.1982 35.6565C51.1973 35.357 51.1964 35.0576 51.1964 34.7581C51.1964 34.7095 51.1964 34.6608 51.1965 34.6122C51.1939 34.3147 51.1939 34.0185 51.1939 33.6644ZM39.9215 37.2282C39.9717 37.6351 39.9936 38.0653 40.0837 38.4812C40.2408 39.2165 40.6967 39.5758 41.441 39.6119C42.2729 39.6531 42.8807 39.3466 43.0778 38.6589C43.2272 38.1335 43.28 37.5656 43.28 37.0157C43.28 36.5985 43.1847 36.1594 43.0301 35.7705C42.7661 35.1034 42.2047 34.8317 41.4101 34.8819C40.6671 34.9296 40.2254 35.3481 40.0786 36.0615C40.0013 36.4362 39.9743 36.8226 39.9215 37.2282ZM58.6871 37.7971C58.5737 37.7971 58.4617 37.7967 58.3506 37.7963C58.0942 37.7955 57.8427 37.7947 57.5912 37.7983C57.5071 37.7996 57.4227 37.7995 57.3383 37.7995C57.08 37.7993 56.821 37.7991 56.5687 37.837C56.0856 37.9102 55.7947 38.2706 55.7947 38.7136L55.7948 38.7165C55.7961 39.193 56.0459 39.5175 56.5803 39.5458C57.0362 39.5703 57.5242 39.5317 57.953 39.3861C58.4444 39.2181 58.7947 38.9286 58.7947 38.3832C58.7947 38.2139 58.7609 38.0198 58.6871 37.7971Z" clip-rule="evenodd" fill="#72707E" fill-opacity="1.000000" fill-rule="evenodd"/>
			<path id="Union" d="M85.961 26.0836C86.4723 27.1394 87.211 27.9945 88.3557 28.41C88.3623 28.4184 88.3689 28.4267 88.3755 28.435L88.3897 28.4221C88.3784 28.4181 88.367 28.4141 88.3557 28.41C88.2331 28.2541 88.1174 28.0923 87.9854 27.9444C86.8869 26.7056 86.2842 25.3058 86.4555 23.6072C86.5907 22.2782 87.1457 21.1334 87.9454 20.1148C90.1668 17.2856 92.9793 15.2535 96.3725 14.0379C98.4252 13.3026 100.556 12.9858 102.726 12.893C102.968 12.8824 103.211 12.9022 103.452 12.9219C103.562 12.9309 103.672 12.9398 103.781 12.9458C103.781 13.1462 103.774 13.3382 103.767 13.5237C103.752 13.9105 103.739 14.2692 103.794 14.6174C103.986 15.842 104.666 16.8349 105.462 17.7492C105.659 17.9767 105.914 18.1527 106.145 18.3514C106.146 18.3611 106.148 18.3707 106.149 18.3802L106.162 18.366C106.156 18.3611 106.151 18.3563 106.145 18.3514C106.139 18.2977 106.137 18.2414 106.117 18.1935C105.308 16.2065 105.071 14.1847 105.756 12.1255C105.696 12.0534 105.661 11.9968 105.614 11.9568C102.021 8.93189 97.905 7.57459 93.215 8.11674C92.3946 8.21203 91.5782 8.41421 90.8365 8.84304C90.8365 8.90298 90.836 8.96001 90.8356 9.01508C90.8347 9.11974 90.8339 9.21732 90.8365 9.31435C90.8725 10.7991 90.794 12.2762 90.4437 13.7236C90.1282 15.0256 89.6646 16.2193 88.6048 17.1723C87.3505 18.3004 86.431 19.7117 85.8773 21.3253C85.3313 22.917 85.2051 24.5215 85.961 26.0836ZM91.1213 15.0268C91.1553 15.0138 91.19 15.0027 91.2202 14.9844C94.2992 13.0411 97.6783 12.0766 101.297 11.9156C101.981 11.8848 102.666 11.8931 103.352 11.9015C103.668 11.9053 103.985 11.9092 104.301 11.9092C103.683 11.4997 103.048 11.1494 102.386 10.8661C101.288 10.3948 100.196 9.88097 99.0549 9.53843C97.3479 9.02569 95.5719 9.0959 93.8112 9.1655C93.7721 9.16705 93.733 9.16859 93.694 9.17013C93.2626 9.18687 92.8389 9.36458 92.3946 9.47275C92.414 9.69167 92.4101 9.81916 92.4384 9.93892C92.772 11.3915 92.535 12.7398 91.7211 13.9915C91.5034 14.3251 91.3196 14.6814 91.1213 15.0268ZM92.679 29.9836C92.7729 29.9912 92.8717 29.9874 92.95 30.0255C94.2146 30.6526 95.5127 31.2231 96.727 31.9378C97.9221 32.6409 98.7243 33.7368 99.2201 35.04C99.2639 35.1572 99.2897 35.2809 99.3412 35.465C97.2254 35.7651 95.192 36.2016 93.3454 37.2885C91.549 38.347 89.9277 39.6283 88.372 41.0088C88.3244 40.9947 88.2767 40.9805 88.2278 40.9663C88.2167 40.489 88.2008 40.0116 88.1848 39.5341C88.1488 38.4593 88.1129 37.3842 88.1325 36.3098C88.1763 33.9673 88.5188 31.6597 89.0571 29.3765C89.3791 28.0114 89.8478 26.716 90.5046 25.4784C91.5 23.6034 93.017 22.3685 95.0053 21.6744C96.4965 21.1541 98.0393 20.93 99.6052 20.8219C100.888 20.733 102.187 20.7562 103.449 20.5476C106.961 19.9655 110.211 18.6855 113.133 16.6212C113.504 16.3585 113.867 16.0894 113.942 15.4751C113.72 15.2806 113.471 15.0257 113.185 14.817C111.965 13.9246 110.609 13.2885 109.204 12.7515C109.07 12.7 108.94 12.6369 108.823 12.5467C111.03 12.8622 113.03 13.649 114.707 15.1609C115.173 15.5807 115.222 15.8962 114.78 16.3649C114.313 16.8607 113.795 17.323 113.245 17.7261C110.783 19.5341 108.061 20.8116 105.104 21.5791C104.764 21.6679 104.54 21.8302 104.335 22.0968C103.668 22.9621 103.033 23.8623 102.291 24.6607C100.704 26.3683 98.7038 27.1615 96.324 27.1435C96.0754 25.5995 95.1302 24.5718 93.8425 23.6756C93.487 24.0336 93.1136 24.3503 92.8109 24.7238C91.7176 26.0747 90.963 27.6109 90.5316 29.2889C90.1917 30.6127 89.871 31.9481 89.6508 33.2964C89.3765 34.9692 89.3134 36.6613 89.6431 38.4526C92.122 36.5751 94.8379 35.3414 97.9285 34.8224C97.3992 33.9583 96.7631 33.2694 96.0896 32.6178C95.1624 31.7202 94.1464 30.9334 93.0286 30.2805C92.899 30.2049 92.7929 30.0868 92.679 29.9836ZM92.679 29.9836C92.6649 29.9824 92.6509 29.981 92.6371 29.9791L92.6538 29.9611C92.6623 29.9685 92.6707 29.976 92.679 29.9836ZM109.99 14.4386C109.979 13.8875 109.569 13.4818 109.01 13.4728C108.425 13.4638 107.99 13.89 107.996 14.4669C108.003 15.0039 108.433 15.4315 108.975 15.4418C109.536 15.4521 109.999 14.9949 109.99 14.4386ZM94.5001 19.4375C94.5903 19.2856 94.6688 19.1233 94.7731 18.9816C95.6591 17.7686 96.8864 16.9727 98.2037 16.3392C99.3563 15.7854 100.571 15.3592 101.912 14.8145C101.529 16.2065 101.467 17.466 101.732 18.773C101.202 18.3197 101.123 18.0635 100.889 16.1009C99.2842 16.5001 97.8599 17.238 96.4511 18.3648C97.923 18.0467 99.2172 18.1369 100.468 18.7215C98.4239 18.4163 96.4923 18.9134 94.58 19.5599C94.5542 19.5199 94.5272 19.4787 94.5001 19.4375ZM97.0168 26.3039C97.5909 26.5546 98.0832 26.3612 98.5603 26.1737C98.5733 26.1686 98.5864 26.1635 98.5994 26.1584C100.664 25.3522 101.986 23.6871 103.466 21.9796C102.941 22.0038 102.418 22.0184 101.898 22.0329C99.2683 22.1062 96.7151 22.1775 94.2893 23.485C95.5307 24.1726 96.5983 24.9492 97.0168 26.3039Z" clip-rule="evenodd" fill="#72707E" fill-opacity="1.000000" fill-rule="evenodd"/>
			<path id="Vector" d="M92.74 30.09C92.81 30.14 92.89 30.2 92.97 30.26L92.98 30.24C92.9 30.19 92.83 30.15 92.75 30.1L92.74 30.09Z" fill="#72707E" fill-opacity="1.000000" fill-rule="nonzero"/>
			<path id="Vector" d="M92.75 30.1C92.74 30.09 92.72 30.09 92.71 30.08C92.72 30.08 92.73 30.08 92.73 30.09L92.75 30.1Z" fill="#72707E" fill-opacity="1.000000" fill-rule="nonzero"/>
			<path id="Vector" d="M88.69 28.7C88.71 28.71 88.74 28.73 88.74 28.72C88.74 28.73 88.72 28.7 88.7 28.68L88.69 28.7Z" fill="#72707E" fill-opacity="1.000000" fill-rule="nonzero"/>
			<path id="Vector" d="" fill="#72707E" fill-opacity="1.000000" fill-rule="nonzero"/>
			<path id="Vector" d="M91.43 15.12L91.4 15.14L91.44 15.12L91.43 15.12Z" fill="#72707E" fill-opacity="1.000000" fill-rule="nonzero"/>
		</g>
	</g>
</svg>
