<svg width="52.000000" height="52.000000" viewBox="0 0 52 52" fill="none" xmlns="http://www.w3.org/2000/svg" xmlns:xlink="http://www.w3.org/1999/xlink">
	<desc>
			Created with Pixso.
	</desc>
	<defs>
		<clipPath id="clip2_44931">
			<rect id="logo" width="52.000000" height="52.000000" transform="translate(-0.499878 0.000000)" fill="white" fill-opacity="0"/>
		</clipPath>
		<clipPath id="clip2_44930">
			<rect id="Dis" width="52.000000" height="52.000000" transform="translate(-0.499878 0.000000)" fill="white" fill-opacity="0"/>
		</clipPath>
	</defs>
	<g clip-path="url(#clip2_44930)">
		<g clip-path="url(#clip2_44931)">
			<path id="Vector" d="M23.61 0.1C13.18 0.87 4.19 7.92 0.89 17.9C-2.16 27.18 0.28 37.45 7.2 44.38C17.3 54.5 33.76 54.5 43.86 44.38C53.99 34.23 53.99 17.8 43.86 7.65C38.52 2.31 31.13 -0.45 23.61 0.1ZM27.96 0.97C36.43 1.82 43.99 6.96 47.82 14.48C49.1 16.96 49.98 19.65 50.42 22.38C50.65 23.85 50.65 28.18 50.42 29.64C49.97 32.43 49.12 35.04 47.74 37.72C46.61 39.94 45.45 41.5 43.36 43.61C41.36 45.65 40.12 46.61 38.03 47.81C30.6 52.08 21.89 52.31 14.24 48.45C11.76 47.2 10.16 46.04 8.07 44.02C5.87 41.87 4.46 39.96 3.15 37.33C1.96 34.93 1.39 33.32 0.85 30.73C0.51 29.12 0.47 28.62 0.47 26.01C0.47 23.41 0.51 22.91 0.85 21.31C1.05 20.33 1.42 18.92 1.66 18.18C2.34 16.06 4.03 12.79 5.33 11.06C6.61 9.37 9.04 6.94 10.61 5.77C15.59 2.09 21.91 0.34 27.96 0.97Z" fill="#72707E" fill-opacity="1.000000" fill-rule="nonzero"/>
			<path id="Vector" d="M23.97 6.01L23.97 8.36L24.37 8.36L24.76 8.36L24.74 6.79C24.72 5.92 24.76 5.2 24.82 5.16C24.95 5.07 25.36 5.75 26.17 7.32C26.65 8.3 26.71 8.36 27.18 8.36L27.66 8.36L27.66 6.54C27.66 5.54 27.7 4.49 27.75 4.19C27.83 3.68 27.83 3.66 27.39 3.66L26.95 3.66L26.95 5.4L26.95 7.12L26.38 6.24C26.07 5.75 25.62 4.97 25.39 4.5C24.99 3.72 24.92 3.66 24.47 3.66L23.97 3.66L23.97 6.01Z" fill="#72707E" fill-opacity="1.000000" fill-rule="nonzero"/>
			<path id="Vector" d="M28.86 5.97C28.6 7.09 28.36 8.1 28.32 8.23C28.23 8.42 28.39 8.5 29.05 8.7C30.09 8.99 31.06 9 31.47 8.7C32.45 8.02 32.75 5.44 31.91 4.77C31.61 4.52 30.62 4.17 29.75 4.02L29.3 3.93L28.86 5.97ZM30.69 5.1C31.41 5.3 31.7 5.77 31.58 6.58C31.47 7.45 31.14 8.05 30.73 8.16C30.4 8.23 29.22 7.99 29.22 7.85C29.22 7.75 29.79 5.37 29.86 5.11C29.94 4.9 30.01 4.9 30.69 5.1Z" fill="#72707E" fill-opacity="1.000000" fill-rule="nonzero"/>
			<path id="Vector" d="M20.22 6.54C20.08 7.82 19.92 8.93 19.89 9.03C19.85 9.14 19.49 9.07 18.74 8.83C18.14 8.63 17.62 8.43 17.57 8.4C17.55 8.37 17.69 8.2 17.89 8.03C18.38 7.6 18.48 7.21 18.21 6.57C17.93 5.9 17.63 5.67 16.99 5.65C16.49 5.65 14.73 6.44 14.73 6.66C14.73 6.72 15.05 7.41 15.41 8.17C15.78 8.94 16.21 9.84 16.34 10.18C16.57 10.75 16.61 10.78 16.91 10.62C17.08 10.54 17.23 10.44 17.26 10.42C17.29 10.4 17.15 10.05 16.95 9.65C16.75 9.26 16.58 8.9 16.58 8.87C16.58 8.77 17.52 9.11 18.24 9.46L18.81 9.74L19.56 9.4C19.98 9.21 20.43 9.07 20.57 9.07C20.8 9.07 20.84 8.96 20.84 8.44C20.84 7.72 20.87 7.69 21.64 7.56C22.18 7.48 22.22 7.5 22.48 7.99C22.75 8.5 23.12 8.63 23.51 8.39C23.64 8.3 23.54 8.05 23.13 7.41C22.82 6.92 22.26 6.01 21.91 5.38C21.34 4.39 21.18 4.23 20.86 4.23L20.47 4.23L20.22 6.54ZM21.64 6.41C21.74 6.71 21.72 6.72 21.31 6.85C21 6.95 20.98 6.92 20.98 6.2L20.98 5.44L21.27 5.8C21.42 6 21.58 6.27 21.64 6.41ZM17.46 6.86C17.57 7.13 17.57 7.26 17.42 7.45C17.23 7.68 16.31 8.15 16.22 8.05C16.15 7.96 15.73 7.09 15.73 7.02C15.73 6.86 16.52 6.52 16.91 6.51C17.19 6.51 17.35 6.61 17.46 6.86Z" fill="#72707E" fill-opacity="1.000000" fill-rule="nonzero"/>
			<path id="Vector" d="M33.83 6.2C33.63 6.64 33.19 7.58 32.83 8.27C32.49 8.97 32.22 9.56 32.25 9.58C32.27 9.6 32.82 9.87 33.46 10.2C34.4 10.67 34.69 10.77 34.85 10.62C35.15 10.38 35.09 9.95 34.74 9.84C34.55 9.78 34.14 9.63 33.81 9.48C33.23 9.24 33.22 9.21 33.36 8.79C33.44 8.56 33.59 8.32 33.66 8.27C33.74 8.22 34.18 8.36 34.65 8.59C35.36 8.93 35.52 8.96 35.62 8.79C35.89 8.36 35.73 8.15 34.89 7.76L34.04 7.38L34.27 6.94C34.38 6.71 34.57 6.51 34.65 6.51C34.74 6.51 35.16 6.71 35.59 6.95C36.02 7.19 36.37 7.36 36.4 7.33C36.51 7.19 36.77 6.62 36.73 6.58C36.7 6.55 36.12 6.28 35.43 5.95L34.18 5.38L33.83 6.2Z" fill="#72707E" fill-opacity="1.000000" fill-rule="nonzero"/>
			<path id="Vector" d="M12.96 7.65C12.7 7.93 12.7 7.95 13.13 8.4C13.99 9.33 14.73 10.38 14.73 10.71C14.73 11.02 14.02 11.78 13.74 11.78C13.38 11.78 12.39 10.59 11.54 9.14C11.41 8.93 11.32 8.91 11.07 9.06C10.9 9.14 10.75 9.33 10.77 9.47C10.78 9.85 12.63 12.1 13.18 12.4C13.84 12.76 14.34 12.63 15.05 11.93C15.61 11.35 15.7 10.98 15.43 10.25C15.27 9.83 13.47 7.36 13.31 7.36C13.26 7.36 13.1 7.49 12.96 7.65Z" fill="#72707E" fill-opacity="1.000000" fill-rule="nonzero"/>
			<path id="Vector" d="M37.49 8.02C37.31 8.29 36.71 9.1 36.16 9.8C35.21 11.01 35.16 11.08 35.42 11.28C35.8 11.58 35.85 11.56 36.34 10.84C36.88 10.04 37.04 10.17 37.04 11.46C37.04 12.27 37.08 12.42 37.47 12.8C37.71 13.04 37.95 13.2 37.99 13.14C38.03 13.1 37.99 12.57 37.91 11.98C37.81 11.39 37.76 10.86 37.79 10.82C37.83 10.79 37.99 10.82 38.15 10.91C38.84 11.28 39.62 10.88 40.02 9.93C40.16 9.57 40.15 9.44 39.92 9.04C39.65 8.59 38.27 7.5 37.98 7.5C37.89 7.5 37.68 7.73 37.49 8.02ZM38.7 8.87C39.18 9.24 39.31 9.73 39 10.04C38.73 10.31 38.32 10.24 37.79 9.84L37.32 9.48L37.71 8.99C37.93 8.73 38.13 8.5 38.16 8.5C38.19 8.5 38.43 8.66 38.7 8.87Z" fill="#72707E" fill-opacity="1.000000" fill-rule="nonzero"/>
			<path id="Vector" d="M39.88 11.92L38.25 13.57L38.57 13.88L38.9 14.2L39.34 13.66C39.58 13.37 40.32 12.6 40.96 11.98L42.14 10.81L41.83 10.55L41.51 10.28L39.88 11.92Z" fill="#72707E" fill-opacity="1.000000" fill-rule="nonzero"/>
			<path id="Vector" d="M8.79 11.28C8.2 11.78 7.86 12.67 8.06 13.26C8.2 13.71 9.09 14.67 9.77 15.08C10.71 15.66 11.74 15.41 12.32 14.45C12.62 13.97 12.69 13.27 12.47 12.93C12.27 12.63 11.75 12.99 11.75 13.43C11.75 14.3 11.07 14.77 10.29 14.42C9.52 14.1 8.91 13.41 8.91 12.87C8.91 12.3 9.35 11.78 9.83 11.78C10.17 11.78 10.43 11.35 10.26 11.06C10.09 10.79 9.22 10.91 8.79 11.28Z" fill="#72707E" fill-opacity="1.000000" fill-rule="nonzero"/>
			<path id="Vector" d="M42.52 11.85C42.28 12.03 42.28 12.06 42.65 12.56C42.86 12.83 43.02 13.09 42.99 13.1C42.96 13.11 42.58 13.43 42.15 13.78C41.73 14.14 41.07 14.64 40.7 14.89C40.32 15.14 40.02 15.41 40.02 15.46C40.02 15.52 40.15 15.69 40.29 15.82C40.56 16.06 40.59 16.06 40.97 15.69C41.86 14.85 43.43 13.74 43.65 13.83C43.76 13.87 43.93 14.07 44.03 14.27C44.21 14.67 44.38 14.71 44.75 14.42C45 14.24 44.95 14.14 44 12.93C43.43 12.22 42.94 11.63 42.88 11.63C42.84 11.63 42.68 11.73 42.52 11.85Z" fill="#72707E" fill-opacity="1.000000" fill-rule="nonzero"/>
			<path id="Vector" d="M23.84 12.93C23 13.19 21.38 14.32 20.33 15.41C18.81 16.97 17.72 19.32 17.72 21.02C17.72 21.34 17.66 21.6 17.6 21.6C17.53 21.6 17.3 21.41 17.08 21.17C15.47 19.49 12.62 20 11.64 22.14C11.35 22.78 11.29 23.07 11.37 23.72C11.39 24.18 11.56 24.79 11.71 25.1C11.86 25.41 12.06 26.27 12.16 27.07C12.45 29.54 13.43 31.95 14.89 33.79C15.78 34.91 17.39 36.42 18.19 36.89C18.78 37.25 18.81 37.29 19 38.3C19.11 38.87 19.44 39.81 19.75 40.43C20.23 41.4 20.33 41.52 20.52 41.36C20.83 41.1 21.51 39.62 21.62 38.95C21.71 38.43 21.74 38.41 22.16 38.51C22.42 38.57 23.51 38.61 24.61 38.61C27.62 38.61 29.25 38.06 31.82 36.16C32.52 35.65 33.1 35.27 33.12 35.3C33.15 35.31 33.23 36.12 33.32 37.07C33.43 38.29 33.6 39.11 33.86 39.78C34.06 40.31 34.23 40.86 34.21 40.99C34.21 41.13 34.31 41.25 34.42 41.25C34.54 41.25 34.62 41.3 34.62 41.37C34.62 41.6 35.31 41.19 35.32 40.96C35.32 40.85 35.55 40.09 35.83 39.31C36.19 38.26 36.36 37.5 36.43 36.56C36.47 35.84 36.56 35.22 36.61 35.2C36.67 35.15 36.83 35.25 36.97 35.41C37.56 36.08 37.61 35.88 37.61 32.49C37.61 30.73 37.55 29.29 37.48 29.29C37.42 29.29 37.2 29.42 36.98 29.59C36.64 29.86 36.54 29.84 36.61 29.5C36.63 29.42 36.7 28.75 36.77 28.01C36.84 27.27 37.04 25.87 37.2 24.92C37.39 23.65 37.47 22.6 37.45 20.93C37.42 18.61 37.32 18.11 36.87 17.95C36.73 17.91 36.5 17.67 36.37 17.43C35.45 15.63 32.82 13.34 31.14 12.9C30.35 12.69 29.18 12.83 28.32 13.26L27.59 13.61L26.85 13.24C26 12.83 24.62 12.69 23.84 12.93ZM26.37 13.91C27.09 14.25 27.36 14.55 27.38 15.05C27.38 15.38 27.31 15.42 26.44 15.59C25.22 15.82 24.24 16.33 23.29 17.23C21.75 18.7 21.38 19.75 21.4 22.6C21.41 24.89 21.23 25.88 20.64 26.64C20.27 27.12 19.42 27.64 19.27 27.47C19.11 27.29 18.43 22.7 18.43 21.87C18.44 19.29 19.68 16.83 21.88 15.05C23.63 13.63 24.98 13.29 26.37 13.91ZM31.23 13.8C32.05 14.07 33.16 14.87 34.23 15.93L35.26 16.96L34.67 17.04C34.34 17.1 33.94 17.24 33.79 17.39C33.63 17.53 33.29 17.7 33.03 17.74C32.61 17.84 32.49 17.78 31.78 17.14C30.87 16.32 29.86 15.81 28.66 15.59C27.87 15.43 27.8 15.39 27.8 15.05C27.8 14.61 28.37 14.03 29.01 13.8C29.59 13.6 30.65 13.6 31.23 13.8ZM29.55 16.19C30.36 16.49 31.68 17.4 32.02 17.88C32.17 18.1 32.18 18.25 32.07 18.45C31.87 18.84 31.88 19.65 32.11 19.95C32.25 20.15 32.27 20.35 32.17 20.73C31.98 21.41 32.32 22.23 32.92 22.57C33.29 22.78 33.33 22.87 33.26 23.24C33 24.45 31.75 26.1 30.57 26.8C29.13 27.64 27.04 27.79 25.37 27.17C24.29 26.75 22.87 25.46 22.36 24.4C20.76 21.12 22.29 17.36 25.73 16.16C26.75 15.81 28.57 15.82 29.55 16.19ZM35.5 17.71C35.65 17.84 35.76 18.03 35.76 18.14C35.76 18.37 35.93 18.38 36.14 18.17C36.37 17.94 36.88 18.25 37.05 18.72C37.21 19.15 37.11 19.81 36.9 19.68C36.67 19.54 36.74 20.18 36.97 20.4C37.08 20.53 37.18 20.76 37.18 20.92C37.18 21.27 36.31 22.17 35.96 22.17C35.83 22.17 35.76 22.21 35.8 22.27C35.96 22.43 35.6 22.74 35.26 22.74C35.01 22.74 34.96 22.68 35.02 22.38C35.11 21.94 34.84 21.6 34.4 21.6C34.06 21.6 33.69 22.07 33.84 22.31C34.04 22.64 33.22 22.43 32.88 22.06C32.41 21.57 32.36 20.87 32.78 20.2L33.07 19.72L32.78 19.82C32.34 19.96 32.11 19.26 32.41 18.65C32.65 18.14 33.06 17.97 33.84 18.07C34.21 18.11 34.3 18.08 34.18 17.94C34.1 17.84 34.07 17.7 34.13 17.61C34.27 17.39 35.21 17.44 35.5 17.71ZM15.9 21.26C16.65 21.64 16.58 21.78 15.54 21.96C15.24 22 14.8 22.23 14.56 22.44C14.15 22.81 14.14 22.85 14.29 23.35C14.49 23.92 15.05 24.45 15.46 24.45C15.81 24.45 15.8 24.63 15.39 25.1L15.06 25.5L14.36 25.1C13.98 24.87 13.55 24.56 13.43 24.39C13.3 24.23 13.16 24.13 13.1 24.18C12.97 24.32 13.72 25.14 14.21 25.4C14.58 25.59 14.6 25.64 14.41 25.76C14.09 25.93 13.14 25.67 12.86 25.34C12.35 24.76 12.15 24.13 12.2 23.29C12.35 21.41 14.19 20.39 15.9 21.26ZM34.69 22.18C34.69 22.28 34.58 22.4 34.45 22.43C34.2 22.47 34.1 22.17 34.3 21.97C34.44 21.83 34.69 21.96 34.69 22.18ZM17.12 22.81C17.55 24.11 16.69 25.64 15.37 25.96L14.95 26.06L15.37 25.7C15.61 25.5 15.94 25.07 16.11 24.77L16.44 24.2L15.83 24.12C15.19 24.03 14.59 23.51 14.59 23.02C14.59 22.6 15.6 22.17 16.51 22.21C16.88 22.24 16.96 22.33 17.12 22.81ZM36.7 22.77C36.66 23.02 36.48 24.13 36.33 25.23C35.94 27.75 36 27.61 35.52 27.42C34.45 27.02 33.91 25.97 33.8 24.12L33.73 22.84L34.14 22.94C35.32 23.24 35.59 23.21 36 22.77C36.56 22.18 36.81 22.18 36.7 22.77ZM33.22 25.19C33.13 25.6 33.09 26.88 33.1 28.03C33.13 29.93 33.12 30.1 32.9 29.91C32.79 29.8 32.63 29.71 32.59 29.71C32.54 29.71 32.49 30.8 32.49 32.13L32.49 34.55L31.54 35.34C30.35 36.32 28.68 37.19 27.28 37.56C25.94 37.91 23.75 37.97 22.36 37.7L21.41 37.52L21.5 36.14C21.55 35.38 21.61 34.74 21.64 34.71C21.67 34.68 21.87 34.81 22.08 34.98L22.48 35.3L22.52 33.46L22.56 31.64L23.77 31.39C25.77 31.01 27.36 30.04 28.37 28.59C28.71 28.11 29.03 27.82 29.37 27.71C30.89 27.19 32.62 25.81 33.05 24.75C33.32 24.11 33.4 24.29 33.22 25.19ZM17.94 25.12C17.8 25.26 17.67 25.04 17.8 24.86C17.89 24.7 17.92 24.7 17.97 24.86C18 24.96 17.99 25.07 17.94 25.12ZM17.8 26.04C18.26 26.28 18.65 26.5 18.68 26.51C18.7 26.53 18.78 27.15 18.85 27.88C18.92 28.62 19.01 29.34 19.05 29.5C19.18 29.91 18.95 30.18 18.57 30.07C18.04 29.9 16.52 28.26 16.04 27.32C15.59 26.47 15.56 26.16 15.91 26.16C16.01 26.16 16.24 26.03 16.44 25.87C16.64 25.71 16.84 25.59 16.88 25.59C16.92 25.59 17.33 25.79 17.8 26.04ZM21.38 27.85C21.13 28.33 20.83 28.63 20.27 28.97C19.41 29.49 19.29 29.43 19.24 28.49C19.21 28.01 19.25 27.95 19.68 27.84C20.29 27.68 21.18 26.77 21.42 26.07L21.62 25.51L21.67 26.35C21.69 27.02 21.64 27.34 21.38 27.85ZM34.62 27.34C34.88 27.56 35.28 27.78 35.5 27.82C35.73 27.86 35.96 27.98 35.99 28.08C36.1 28.38 35.83 29.22 35.6 29.26C35.49 29.27 35.09 29.09 34.72 28.85C33.83 28.25 33.49 27.58 33.5 26.41L33.5 25.51L33.83 26.23C34.01 26.63 34.37 27.12 34.62 27.34ZM14.66 26.44C15.22 26.44 15.24 26.47 15.57 27.25C15.8 27.76 16.27 28.42 16.89 29.06L17.86 30.07L17.86 32.66C17.86 34.1 17.9 35.27 17.94 35.27C17.99 35.27 18.23 35.11 18.5 34.9C18.75 34.7 19 34.6 19.04 34.65C19.17 34.9 19.15 36.41 19.01 36.41C18.8 36.41 17.59 35.47 16.68 34.57C14.58 32.55 13.2 29.69 12.93 26.77L12.84 25.87L13.47 26.16C13.81 26.31 14.35 26.44 14.66 26.44ZM24.18 26.94C25.3 27.61 26.2 27.88 27.38 27.91C27.92 27.92 28.37 27.98 28.37 28.05C28.37 28.29 26.54 29.96 25.87 30.31C25.06 30.75 23.71 31.14 23.02 31.14L22.55 31.14L22.55 30.4C22.55 29.83 22.5 29.7 22.38 29.83C22.28 29.93 22.18 30 22.14 30C22.06 30 22.04 27.66 22.09 26.98C22.12 26.77 22.67 26.5 23.2 26.45C23.29 26.44 23.73 26.67 24.18 26.94ZM21.48 30.07C21.23 30.78 20.36 31.48 20 31.28C19.07 30.78 19.08 29.93 20.05 29.53C20.37 29.39 20.87 29.05 21.14 28.77L21.62 28.28L21.67 28.87C21.69 29.22 21.61 29.74 21.48 30.07ZM35.14 29.53C35.69 29.76 35.89 30.03 35.9 30.51C35.9 30.61 35.67 30.85 35.4 31.05L34.91 31.44L34.42 31.07C33.79 30.58 33.49 29.91 33.49 28.99L33.49 28.25L34 28.76C34.28 29.05 34.79 29.39 35.14 29.53ZM19.14 31.14L19.78 31.71L19.28 32.13C18.85 32.5 18.81 32.59 19.01 32.7C19.14 32.78 19.38 32.95 19.55 33.09L19.86 33.34L19.17 33.89C18.78 34.17 18.4 34.41 18.3 34.41C18.19 34.41 18.14 33.83 18.14 32.49C18.14 31.05 18.19 30.57 18.33 30.57C18.41 30.57 18.78 30.82 19.14 31.14ZM22.26 32.49C22.26 33.7 22.21 34.41 22.12 34.41C22.04 34.41 21.41 33.99 20.71 33.46L19.44 32.5L20.73 31.54C21.44 31.01 22.08 30.57 22.15 30.57C22.21 30.57 22.26 31.44 22.26 32.49ZM33.79 31.08C34.17 31.37 34.48 31.64 34.48 31.68C34.48 31.74 34.25 31.94 33.97 32.12L33.46 32.48L34 32.92L34.52 33.36L33.9 33.84C33.56 34.1 33.19 34.38 33.1 34.46C32.96 34.55 32.92 34.17 32.92 32.58C32.92 31.48 32.96 30.57 33 30.57C33.06 30.57 33.4 30.8 33.79 31.08ZM36.9 32.58C36.9 34.17 36.85 34.55 36.73 34.46C36.63 34.37 36.02 33.91 35.36 33.42C34.71 32.93 34.21 32.5 34.25 32.46C34.48 32.23 36.7 30.57 36.8 30.57C36.85 30.57 36.9 31.48 36.9 32.58ZM20.76 34C21.11 34.27 21.13 34.36 21.13 35.59C21.13 37.53 20.73 39.96 20.42 39.96C20.1 39.96 19.42 36.58 19.42 34.97C19.42 34.3 19.48 34.13 19.75 33.94C20.17 33.64 20.32 33.64 20.76 34ZM35.4 33.93C35.72 34.13 35.76 34.27 35.76 34.97C35.76 36.52 35.12 39.82 34.78 40.04C34.57 40.16 34.18 38.23 34.08 36.53C33.96 34.44 33.98 34.24 34.45 33.94C34.94 33.64 34.98 33.64 35.4 33.93Z" fill="#72707E" fill-opacity="1.000000" fill-rule="nonzero"/>
			<path id="Vector" d="M29.55 17.04C29.47 17.29 29.28 17.47 29.15 17.47C28.77 17.47 28.13 17.91 27.96 18.28C27.68 18.91 27.8 18.97 28.24 18.42C28.84 17.7 29.47 17.68 30.16 18.38C30.62 18.84 30.82 18.81 30.52 18.34C30.42 18.2 30.47 18.01 30.66 17.78C30.8 17.58 30.93 17.36 30.93 17.27C30.93 17.19 30.83 17.27 30.7 17.44C30.59 17.61 30.4 17.76 30.29 17.76C30.13 17.76 30.13 17.67 30.32 17.31C30.43 17.09 30.49 16.84 30.45 16.8C30.4 16.76 30.3 16.87 30.23 17.07C30.16 17.27 29.99 17.47 29.86 17.51C29.68 17.6 29.65 17.53 29.74 17.11C29.85 16.5 29.76 16.47 29.55 17.04Z" fill="#72707E" fill-opacity="1.000000" fill-rule="nonzero"/>
			<path id="Vector" d="M26.68 16.92C26.67 17.16 26.11 17.74 26.08 17.53C26.07 17.46 26.08 17.27 26.1 17.11C26.11 16.84 26.11 16.84 25.9 17.14C25.77 17.31 25.49 17.48 25.26 17.54C24.83 17.63 24.37 18.07 24.21 18.5C24.08 18.88 24.29 18.81 24.75 18.32C25.32 17.73 25.91 17.74 26.53 18.35L26.98 18.82L26.88 18.35C26.82 18.1 26.84 17.9 26.92 17.9C26.99 17.9 27.12 17.73 27.22 17.5L27.41 17.11L27.09 17.43C26.62 17.94 26.38 17.86 26.68 17.31C26.77 17.16 26.8 16.96 26.75 16.86C26.72 16.76 26.68 16.77 26.68 16.92Z" fill="#72707E" fill-opacity="1.000000" fill-rule="nonzero"/>
			<path id="Vector" d="M23.58 19.85C23.66 20.86 24.14 21.46 25.35 22.05C26.21 22.48 26.4 22.52 27.58 22.51C28.47 22.51 29.04 22.43 29.44 22.25C30.89 21.64 31.64 20.73 31.64 19.65L31.63 19.11L31.37 19.86C31.06 20.77 30.72 21.14 29.75 21.68C29.08 22.05 28.88 22.1 27.66 22.1C26.54 22.1 26.18 22.04 25.56 21.76C24.75 21.39 23.83 20.45 23.81 19.98C23.81 19.81 23.74 19.55 23.67 19.39C23.57 19.18 23.56 19.31 23.58 19.85Z" fill="#72707E" fill-opacity="1.000000" fill-rule="nonzero"/>
			<path id="Vector" d="M34.21 19.44C33.86 19.71 33.77 20.47 34.04 20.8C34.3 21.1 34.84 21.16 35.33 20.92C35.67 20.75 35.76 20.62 35.76 20.25C35.76 19.73 35.28 19.18 34.81 19.18C34.65 19.18 34.37 19.29 34.21 19.44ZM35.36 19.98C35.52 20.29 35.5 20.37 35.26 20.55C34.78 20.9 34.2 20.7 34.2 20.18C34.2 19.54 35.09 19.39 35.36 19.98Z" fill="#72707E" fill-opacity="1.000000" fill-rule="nonzero"/>
			<path id="Vector" d="M6.15 16.23C5.71 16.7 5.36 17.56 5.36 18.15C5.36 18.31 5.19 18.58 4.99 18.74C4.62 19.04 4.65 19.41 5.03 19.26C5.17 19.21 5.27 19.28 5.31 19.48C5.38 19.75 5.47 19.78 6.05 19.68C6.41 19.63 6.93 19.56 7.2 19.55C7.47 19.52 7.81 19.46 7.96 19.39C8.1 19.34 8.2 19.35 8.2 19.45C8.2 19.69 8.55 19.63 8.81 19.35C9.09 19.04 9.15 18.6 8.88 18.87C8.52 19.22 8.37 19.05 8.44 18.41C8.51 17.8 8.5 17.77 8.13 17.67C7.8 17.58 7.67 17.64 7.46 17.9C7.3 18.08 7.15 18.41 7.1 18.62C7.05 18.91 6.9 19.04 6.49 19.16C5.8 19.38 5.78 19.36 5.78 19.02C5.78 18.85 5.94 18.6 6.14 18.44C6.73 17.97 7.23 16.99 7.17 16.37C7.12 15.65 6.76 15.59 6.15 16.23ZM6.72 16.7C6.61 17.16 6.07 18.04 5.91 18.04C5.74 18.04 5.9 17.4 6.24 16.72C6.52 16.15 6.86 16.13 6.72 16.7ZM7.98 18.5C7.86 19.07 7.8 19.18 7.61 19.18C7.44 19.18 7.44 18.87 7.63 18.41C7.83 17.87 8.1 17.94 7.98 18.5Z" fill="#72707E" fill-opacity="1.000000" fill-rule="nonzero"/>
			<path id="Vector" d="M44.85 15.89C44.65 15.95 43.73 16.12 42.79 16.26C41.86 16.4 41.07 16.53 41.05 16.55C41.03 16.57 41.09 16.74 41.17 16.96C41.36 17.37 41.41 17.37 42.17 17.2C42.68 17.09 42.71 17.1 43.01 17.64L43.32 18.21L42.86 18.68C42.41 19.15 42.41 19.15 42.65 19.62L42.89 20.08L43.4 19.45C43.69 19.11 44.31 18.41 44.78 17.9C46.17 16.39 46.17 16.39 45.99 16.06C45.83 15.75 45.49 15.71 44.85 15.89ZM44.57 17.04C44.14 17.66 43.99 17.7 43.69 17.33C43.38 16.94 43.4 16.9 44.03 16.76C44.85 16.56 44.9 16.59 44.57 17.04Z" fill="#72707E" fill-opacity="1.000000" fill-rule="nonzero"/>
			<path id="Vector" d="M45.17 31.28C44.91 31.69 44.95 32.19 45.28 32.6C45.52 32.9 45.54 33.03 45.41 33.32C45.27 33.63 45.18 33.67 44.77 33.6C44.36 33.53 44.28 33.56 44.28 33.81C44.28 34.13 44.63 34.55 44.88 34.55C45.04 34.55 45.41 34.97 45.42 35.15C45.42 35.21 45.09 35.14 44.71 34.98C43.82 34.63 43.72 34.63 43.72 34.97C43.72 35.22 44.55 35.68 45.45 35.91C46.03 36.05 46.23 35.58 45.86 34.87C45.68 34.51 45.63 34.26 45.72 34.11C45.79 34 45.85 33.77 45.85 33.59C45.85 33.33 45.93 33.27 46.32 33.27C46.96 33.27 47.18 33.09 47.1 32.66C47.06 32.42 47.1 32.26 47.23 32.22C47.64 32.05 47.31 31.66 46.5 31.34C45.48 30.92 45.39 30.92 45.17 31.28ZM46.25 31.99C46.49 32.15 46.7 32.33 46.7 32.41C46.7 32.88 45.83 32.59 45.58 32.05C45.38 31.62 45.59 31.59 46.25 31.99Z" fill="#72707E" fill-opacity="1.000000" fill-rule="nonzero"/>
			<path id="Vector" d="M6.59 31.22C6.41 31.41 6.49 31.51 6.99 31.69C7.8 31.98 7.6 32.22 6.25 32.63C4.16 33.26 4.08 33.29 4.08 33.47C4.08 33.89 4.38 33.93 5.33 33.69C7.05 33.23 8.54 33.4 8.3 34.03C8.25 34.16 7.86 34.36 7.42 34.48C6.99 34.6 6.28 34.8 5.85 34.91C5.06 35.14 4.76 35.44 5.04 35.72C5.14 35.82 5.43 35.79 5.97 35.64C7.69 35.14 9.28 35.22 9.16 35.81C9.14 35.98 8.79 36.14 7.91 36.35C6.35 36.75 6.21 36.8 6.05 37.2C5.81 37.84 6.25 38.47 7.03 38.63C7.39 38.7 7.49 38.67 7.49 38.5C7.49 38.38 7.33 38.24 7.15 38.2C6.73 38.1 6.55 37.7 6.8 37.46C6.9 37.36 7.56 37.15 8.25 36.99C9.5 36.69 9.89 36.45 9.9 35.96C9.9 35.59 9.35 34.98 8.99 34.98C8.52 34.98 8.44 34.83 8.77 34.6C9.39 34.16 8.88 33.23 7.93 33.05L7.44 32.95L7.83 32.75C8.54 32.38 8.07 31.45 7.06 31.21C6.86 31.17 6.65 31.17 6.59 31.22Z" fill="#72707E" fill-opacity="1.000000" fill-rule="nonzero"/>
			<path id="Vector" d="M42.22 35.37C41.97 35.62 42 35.82 42.34 36.04C42.52 36.15 42.62 36.14 42.72 35.98C43.06 35.44 42.65 34.93 42.22 35.37Z" fill="#72707E" fill-opacity="1.000000" fill-rule="nonzero"/>
			<path id="Vector" d="M44.74 36.32C44.77 36.63 44.71 36.9 44.63 36.93C44.55 36.96 44.21 36.75 43.89 36.46C43.03 35.74 42.61 36.11 43.4 36.88C43.72 37.19 43.82 37.42 43.83 37.9C43.87 38.74 43.57 38.93 42.84 38.51L42.32 38.21L42.59 37.77C42.74 37.53 42.86 37.25 42.86 37.15C42.86 36.89 42.48 36.95 42.37 37.22C42.3 37.43 42.24 37.37 42.07 36.98C41.95 36.7 41.76 36.38 41.63 36.23C41.36 35.92 40.65 35.89 40.55 36.18C40.42 36.52 40.69 37.27 41.14 37.84C41.46 38.23 41.53 38.4 41.4 38.53C41.16 38.77 41.5 39.07 41.77 38.85C41.93 38.71 42.05 38.74 42.34 38.98C43.33 39.77 44.28 39.37 44.28 38.17C44.28 37.62 44.33 37.53 44.51 37.6C44.85 37.73 45.28 37.29 45.28 36.83C45.28 36.62 45.15 36.29 45 36.11L44.7 35.77L44.74 36.32ZM41.67 37.16C41.97 37.73 41.83 37.79 41.39 37.26C40.96 36.75 40.86 36.23 41.24 36.56C41.36 36.66 41.56 36.93 41.67 37.16Z" fill="#72707E" fill-opacity="1.000000" fill-rule="nonzero"/>
			<path id="Vector" d="M7.84 38.61C7.43 39.01 7.39 39.62 7.74 40.05C8.03 40.42 8.51 40.68 8.88 40.68C9.09 40.68 9.14 40.76 9.08 41.1C9.01 41.62 9.25 41.96 9.7 41.96C9.96 41.96 10.04 42.03 10.04 42.29C10.04 42.77 10.31 42.95 10.98 42.95C11.54 42.95 11.56 42.98 11.49 43.31C11.41 43.81 11.69 44.09 12.32 44.09C12.8 44.09 12.86 44.14 12.93 44.52C13.04 45.08 13.61 45.42 14.39 45.4C14.93 45.4 15.02 45.43 14.95 45.65C14.82 46.06 15.34 46.41 15.9 46.3C16.15 46.24 16.44 46.13 16.54 46.06C16.67 45.96 16.69 46.04 16.62 46.43C16.51 47.14 16.84 47.11 17.56 46.34C18.21 45.65 18.43 45.67 18 46.41C17.76 46.83 17.73 46.98 17.86 47.23C18 47.48 18.13 47.52 18.54 47.48C18.84 47.44 19.18 47.37 19.32 47.31C19.51 47.23 19.56 47.27 19.56 47.48C19.56 47.85 19.9 48.12 20.26 48.01C20.4 47.97 20.57 47.99 20.63 48.08C20.67 48.15 20.83 48.22 20.97 48.22C21.14 48.22 21.3 47.97 21.52 47.27C21.82 46.33 21.82 46.31 21.55 46.06C21.41 45.92 21.14 45.8 20.97 45.8C20.59 45.8 19.86 46.23 19.78 46.51C19.71 46.71 18.58 47.14 18.44 47.01C18.41 46.98 18.55 46.66 18.77 46.29C18.97 45.93 19.14 45.53 19.14 45.43C19.14 45.16 18.23 45.18 18 45.45C17.7 45.8 17.55 45.69 17.8 45.29C18.01 44.98 18.01 44.91 17.84 44.81C17.63 44.66 17.06 45.1 16.94 45.5C16.89 45.66 16.67 45.75 16.22 45.77C15.46 45.82 15.41 45.66 16.01 44.95C16.25 44.68 16.44 44.38 16.44 44.28C16.44 43.95 15.9 44.08 15.56 44.49C15.3 44.79 15.09 44.89 14.6 44.92C13.61 44.99 13.28 44.45 13.94 43.82C14.32 43.47 14.73 43.54 14.43 43.89C14.12 44.26 14.52 44.45 14.86 44.11C15.22 43.75 15.23 43.61 14.93 43.32C14.63 43.03 13.85 43.04 13.44 43.35C13.07 43.64 12.25 43.77 12.12 43.55C12.08 43.48 12.3 43.18 12.6 42.88C12.91 42.57 13.17 42.24 13.17 42.14C13.17 41.86 12.72 41.93 12.26 42.3C11.93 42.57 11.74 42.63 11.34 42.57C10.33 42.41 10.41 41.97 11.51 41.63C13.2 41.09 14.32 40.14 13.88 39.61C13.6 39.27 13.16 39.35 12.25 39.89C11.49 40.35 11.38 40.38 10.94 40.24C10.6 40.12 10.34 40.12 10.02 40.24C9.5 40.42 8.62 40.24 8.27 39.88C7.97 39.58 8 39.34 8.31 39.47C8.44 39.54 8.75 39.61 8.99 39.64C9.79 39.75 10.1 38.83 9.42 38.37C9.06 38.13 8.18 38.26 7.84 38.61ZM9.18 38.87C9.36 39.1 9.25 39.25 8.89 39.25C8.55 39.25 8.4 38.97 8.64 38.81C8.91 38.64 8.99 38.66 9.18 38.87ZM13.43 39.99C13.35 40.19 12.08 41.1 11.86 41.1C11.64 41.1 11.89 40.82 12.57 40.32C13.28 39.79 13.51 39.71 13.43 39.99ZM10.81 40.79C10.94 41 10.12 41.69 9.86 41.59C9.46 41.45 9.63 41.06 10.19 40.83C10.64 40.65 10.73 40.65 10.81 40.79ZM20.9 46.97C20.64 47.48 20.43 47.68 20.25 47.57C20.02 47.43 20.15 47.05 20.59 46.61C21.1 46.09 21.25 46.27 20.9 46.97Z" fill="#72707E" fill-opacity="1.000000" fill-rule="nonzero"/>
			<path id="Vector" d="M40.52 39.75C40.12 40.14 40.07 40.69 40.36 41.27C40.48 41.5 40.52 41.67 40.45 41.67C40.38 41.67 40.31 41.87 40.28 42.13C40.22 42.74 39.95 42.78 39.65 42.21C39.53 41.96 39.33 41.63 39.2 41.49C39 41.26 38.97 41.26 38.72 41.47C38.56 41.62 38.46 41.93 38.45 42.23C38.45 42.7 38.43 42.71 38.29 42.41C37.99 41.8 37.54 42.13 37.76 42.78C37.89 43.14 37.71 43.67 37.45 43.67C37.38 43.67 37.25 43.51 37.18 43.31C37.11 43.11 36.95 42.95 36.84 42.95C36.54 42.95 36.19 43.51 36.17 44.02L36.16 44.45L36.02 43.98C35.85 43.47 35.7 43.41 35.5 43.77C35.4 43.92 35.43 44.19 35.56 44.55C35.66 44.85 35.7 45.09 35.63 45.09C35.58 45.09 35.42 45.32 35.29 45.59C35.06 46.06 34.55 46.41 34.3 46.27C34.24 46.24 34.35 46.02 34.55 45.77C34.98 45.28 34.99 45.09 34.65 44.66C34.08 43.97 33.05 44.91 33.29 45.87C33.34 46.09 33.32 46.23 33.23 46.23C33.15 46.23 33.03 46.36 32.99 46.51C32.95 46.67 32.76 46.87 32.61 46.96C32.25 47.14 31.85 46.81 31.71 46.21C31.63 45.87 31.67 45.82 32.12 45.66C32.66 45.49 32.83 45.09 32.36 45.09C32.14 45.09 32.12 45 32.18 44.41C32.22 43.89 32.18 43.65 31.97 43.41C31.46 42.76 30.93 43.42 30.93 44.72C30.93 45.28 30.87 45.5 30.72 45.57C30.4 45.69 30.46 46.09 30.77 46.09C30.96 46.09 31.07 46.21 31.14 46.5C31.27 47.08 31.84 47.65 32.28 47.65C32.65 47.65 33.36 47.08 33.52 46.66C33.57 46.49 33.63 46.47 33.79 46.61C34.37 47.17 35.73 46.4 35.76 45.52L35.77 45.16L36 45.47C36.12 45.66 36.34 45.8 36.48 45.8C36.74 45.8 36.75 45.73 36.67 44.88C36.61 44.28 36.63 43.95 36.73 43.95C36.8 43.95 36.9 44.05 36.95 44.16C37.08 44.52 37.74 44.42 37.92 44.02C38.12 43.6 38.2 43.58 38.53 43.95C39.1 44.58 39.43 44.21 39.1 43.32C38.74 42.4 38.87 42.07 39.31 42.76C39.57 43.15 39.77 43.31 40.02 43.31C40.43 43.31 40.76 42.78 40.69 42.2C40.63 41.76 40.65 41.76 41.03 41.97C41.4 42.16 42.01 41.8 42.01 41.39C42.01 41.2 42.11 41.1 42.3 41.1C42.65 41.1 42.91 40.51 42.79 39.94C42.67 39.35 42.3 39.42 42.3 40.04C42.3 40.68 42.14 40.66 41.66 39.96C41.2 39.31 40.99 39.27 40.52 39.75ZM41.59 41.16C41.59 41.49 41.2 41.43 40.96 41.08C40.73 40.75 40.66 40.22 40.83 40.06C40.95 39.94 41.59 40.88 41.59 41.16ZM31.77 44.28C31.77 44.53 31.71 44.86 31.65 45.02C31.55 45.25 31.53 45.2 31.44 44.76C31.33 44.16 31.44 43.61 31.65 43.74C31.73 43.79 31.78 44.04 31.77 44.28ZM34.34 45.22C34.34 45.56 33.97 45.9 33.88 45.63C33.79 45.33 33.93 44.95 34.14 44.95C34.25 44.95 34.34 45.06 34.34 45.22Z" fill="#72707E" fill-opacity="1.000000" fill-rule="nonzero"/>
			<path id="Vector" d="M13.27 41.39C13.17 41.8 13.68 42.07 13.99 41.76C14.18 41.59 14.18 41.5 14.02 41.33C13.77 41.02 13.35 41.05 13.27 41.39Z" fill="#72707E" fill-opacity="1.000000" fill-rule="nonzero"/>
			<path id="Vector" d="M16.35 43.31C16.22 43.62 16.48 43.84 16.88 43.78C17.11 43.75 17.22 43.64 17.22 43.45C17.22 43.08 16.48 42.95 16.35 43.31Z" fill="#72707E" fill-opacity="1.000000" fill-rule="nonzero"/>
			<path id="Vector" d="M29.13 43.84C28.74 44.55 28.76 46.97 29.15 47.65C29.55 48.32 30.15 48.39 30.69 47.85C31.06 47.48 31.21 46.94 30.93 46.94C30.86 46.94 30.69 47.1 30.56 47.3C30.32 47.67 29.86 47.78 29.76 47.5C29.74 47.41 29.85 46.91 30.03 46.39C30.57 44.82 30.42 43.38 29.71 43.38C29.48 43.38 29.3 43.52 29.13 43.84ZM29.85 44.18C29.98 44.51 29.95 44.99 29.76 45.79C29.57 46.64 29.37 46.5 29.37 45.5C29.37 44.29 29.62 43.58 29.85 44.18Z" fill="#72707E" fill-opacity="1.000000" fill-rule="nonzero"/>
			<path id="Vector" d="M26.17 44.45C25.45 44.73 24.99 45.16 24.66 45.87C24.14 47.01 24.42 48.34 25.25 48.62C25.73 48.79 26.03 48.73 26.47 48.34C26.75 48.08 26.77 48.08 27.02 48.36C27.16 48.52 27.45 48.65 27.66 48.65C28.14 48.65 28.8 48.15 28.8 47.78C28.8 47.44 28.68 47.44 28.29 47.81C27.59 48.46 27.36 47.85 27.68 46.17C27.83 45.3 27.73 45.02 27.35 45.16C27.21 45.22 27.07 45.59 26.95 46.13C26.71 47.41 26.33 48.08 25.86 48.08C25.1 48.08 24.89 47.18 25.39 46.02C25.74 45.18 26.6 44.73 27.59 44.89C28.1 44.96 28.24 44.93 28.32 44.75C28.37 44.62 28.37 44.46 28.32 44.42C28.13 44.22 26.71 44.25 26.17 44.45Z" fill="#72707E" fill-opacity="1.000000" fill-rule="nonzero"/>
		</g>
	</g>
</svg>
