<svg width="149.000000" height="52.000000" viewBox="0 0 149 52" fill="none" xmlns="http://www.w3.org/2000/svg" xmlns:xlink="http://www.w3.org/1999/xlink">
	<desc>
			Created with Pixso.
	</desc>
	<defs>
		<clipPath id="clip2_44857">
			<rect id="Dis" width="149.000000" height="52.000000" transform="translate(-0.499878 0.000000)" fill="white" fill-opacity="0"/>
		</clipPath>
	</defs>
	<g clip-path="url(#clip2_44857)">
		<path id="Dis" d="M38.1433 29.1391L40.5092 23.6187C39.1947 23.2243 36.1201 22.5506 34.5944 22.0413C33.4115 21.6465 33.4115 19.2811 36.1716 19.2811C38.3799 19.2811 38.9319 20.5955 38.9319 21.2527L41.6921 21.2527L43.6637 16.5209C42.875 15.7323 41.9595 15.3661 40.9034 14.9436C38.9319 14.155 37.3546 13.7601 33.8058 14.1548C30.6918 14.5012 28.0651 16.518 27.1017 18.7116L27.1017 14.5488L20.0039 14.5488L20.0039 23.2186C19.7388 20.4566 17.6329 14.9434 8.96362 14.9434L-0.5 14.9434L-0.5 36.6308L9.35791 36.6308C15.2368 36.6308 19.9471 32.7352 20.0039 28.816L20.0039 36.6306L27.1017 36.6306L27.1017 33.0296C28.6151 36.1922 32.8568 37.0245 34.988 37.0245L36.9597 31.8984L35.7766 31.8984C34.5148 31.8984 33.4109 30.584 33.4109 29.9268L27.1018 29.9268L27.1017 29.9266L27.1017 23.0922C27.6022 24.6487 28.5603 25.858 29.8625 26.3789C31.4398 27.0098 36.0403 28.4819 38.1433 29.1391ZM41.8467 26.7431L47.5111 26.7431Q48.2671 26.7431 48.9625 26.8338C49.4463 26.8943 49.8796 27.0152 50.2627 27.1967Q50.4244 27.2733 50.5719 27.3716L50.5721 27.3717L50.5721 27.3717L50.5723 27.3718Q50.948 27.6223 51.2302 28.013C51.5125 28.3557 51.714 28.8193 51.835 29.4039C51.9155 29.8272 51.9659 30.3715 51.9861 31.0367C52.0264 31.7019 52.0668 32.3872 52.1071 33.0927C52.1675 33.7982 52.238 34.4735 52.3187 35.1185C52.4194 35.7636 52.5807 36.2675 52.8025 36.6303L55.0702 36.6303L55.0702 36.4187C54.9291 36.3179 54.8081 36.1768 54.7074 35.9954C54.6066 35.7938 54.5159 35.5217 54.4352 35.179C54.3748 34.8363 54.3143 34.3929 54.2538 33.8486C54.2135 33.3044 54.1832 32.619 54.1631 31.7926C54.1429 31.2281 54.1027 30.6436 54.0421 30.0389C54.0018 29.4341 53.891 28.8596 53.7096 28.3154C53.5282 27.7711 53.256 27.2874 52.8932 26.8641C52.5304 26.4408 52.0264 26.1182 51.3813 25.8965Q53.256 25.0499 54.0724 23.8404C54.6368 23.0341 54.9189 21.9456 54.9189 20.5749Q54.9189 18.1918 53.7356 16.8605Q53.4176 16.5027 53.0142 16.2209Q51.1093 14.8603 47.5111 14.8603L46.9115 14.8603L46.1641 16.614L47.5717 16.614Q48.5996 16.614 49.537 16.7954C50.182 16.9164 50.7465 17.128 51.2302 17.4304Q51.5729 17.636 51.8473 17.91L51.8486 17.9114L51.8488 17.9115Q52.1786 18.2413 52.4094 18.67Q52.8629 19.4562 52.8629 20.6656Q52.8629 21.8146 52.4397 22.631Q52.1989 23.0954 51.8601 23.4718L51.86 23.472Q51.6034 23.7571 51.2906 23.9916Q50.5649 24.5056 49.5671 24.7475C48.9221 24.9088 48.2167 24.9894 47.4507 24.9894L42.5942 24.9894L41.8467 26.7431ZM57.7004 14.8603L59.7566 14.8603L59.7566 27.8316Q59.7566 31.8833 61.2683 33.6672Q61.358 33.773 61.4541 33.8725L61.4546 33.8729L61.4553 33.8737L61.4559 33.8743Q62.9811 35.4511 66.1364 35.4511Q67.8901 35.4511 69.0996 34.9976C69.926 34.6751 70.5912 34.2014 71.0951 33.5765C71.5991 32.9314 71.9619 32.1352 72.1836 31.1878C72.4054 30.2404 72.5162 29.1217 72.5162 27.8316L72.5162 14.8603L74.5723 14.8603L74.5723 28.4363Q74.5723 32.6996 72.4558 34.9674Q72.3417 35.0898 72.2211 35.2055L72.2203 35.2061Q70.1372 37.2048 66.1364 37.2048Q62.1874 37.2048 60.1062 35.2332L60.106 35.233L60.1055 35.2325Q59.9402 35.0759 59.7867 34.9069Q59.7749 34.8938 59.7631 34.8807Q57.7004 32.5852 57.7004 28.4363L57.7004 14.8603ZM77.8885 36.6303L77.8885 14.8603L85.8407 14.8603C87.2517 14.8603 88.4108 15.0215 89.3179 15.3441C90.2451 15.6666 90.9708 16.11 91.4949 16.6745C92.0391 17.2389 92.412 17.894 92.6136 18.6398C92.8353 19.3655 92.9462 20.1315 92.9462 20.9378Q92.9462 22.7519 92.1903 23.9311C91.7065 24.7173 91.0715 25.3422 90.2854 25.8058C89.4993 26.2493 88.6023 26.5617 87.5944 26.7431C86.6067 26.9245 85.6089 27.0152 84.6011 27.0152L79.9447 27.0152L79.9447 36.6303L77.8885 36.6303ZM92.9863 14.8603L108.83 14.8603L108.83 16.614L101.936 16.614L101.936 36.6303L99.8802 36.6303L99.8802 16.614L92.9863 16.614L92.9863 14.8603ZM110.967 36.6303L110.967 14.8603L113.023 14.8603L113.023 36.6303L110.967 36.6303ZM115.24 14.8603L117.386 14.8603L123.948 34.2114L130.479 14.8603L132.625 14.8603L125.067 36.6303L122.799 36.6303L115.24 14.8603ZM134.117 36.6303L134.117 14.8603L148.6 14.8603L148.6 16.614L136.173 16.614L136.173 24.4754L147.391 24.4754L147.391 26.2291L136.173 26.2291L136.173 34.8766L148.903 34.8766L148.903 36.6303L134.117 36.6303ZM84.6615 25.2615C85.629 25.2615 86.4958 25.2011 87.2618 25.0801C88.0278 24.9592 88.6729 24.7374 89.1969 24.4149C89.7412 24.0722 90.1544 23.6187 90.4366 23.0543Q90.8901 22.1774 90.8901 20.7866C90.8901 19.4159 90.4366 18.3778 89.5295 17.6722Q88.1991 16.614 85.2662 16.614L79.9447 16.614L79.9447 25.2615L84.6615 25.2615ZM6.59766 31.1112L6.59766 20.0703L9.50952 20.0703C12.1787 20.0703 12.8258 22.8807 12.9067 24.2859L12.9067 27.0136C12.9067 29.021 11.4508 31.1112 9.63086 31.1112L6.59766 31.1112ZM38.9845 33.4582L38.9845 36.6303L41.0406 36.6303L41.0406 28.6344L38.9845 33.4582Z" clip-rule="evenodd" fill="#72707E" fill-opacity="1.000000" fill-rule="evenodd"/>
	</g>
</svg>
