<svg width="57.000000" height="52.000000" viewBox="0 0 57 52" fill="none" xmlns="http://www.w3.org/2000/svg" xmlns:xlink="http://www.w3.org/1999/xlink">
	<desc>
			Created with Pixso.
	</desc>
	<defs>
		<clipPath id="clip2_45019">
			<rect id="El Duende" width="57.000000" height="52.000000" transform="translate(-0.499878 0.000000)" fill="white" fill-opacity="0"/>
		</clipPath>
	</defs>
	<g clip-path="url(#clip2_45019)">
		<path id="Vector" d="M36.14 29.74C36.29 30.02 36.44 30.26 36.56 30.51C36.78 30.97 36.69 31.42 36.33 31.78C35.73 32.35 35.01 32.53 34.06 32.39C33.36 32.59 32.82 32.86 32.29 32.86C31.52 32.86 30.84 33.15 30.11 33.32C29.01 33.57 28.12 34.26 27.15 34.78C26.42 35.18 25.69 35.48 24.84 35.47C24.06 35.46 23.34 35.26 22.68 34.83C19.51 32.76 16.34 30.7 13.17 28.62C11.92 27.8 11.09 26.23 11.51 24.08C12.39 19.69 13.2 15.29 14.02 10.89C14.28 9.5 14.99 8.47 16.22 7.78C20.5 5.4 24.77 2.99 29.05 0.59C30.55 -0.25 32.03 -0.2 33.47 0.75C36.5 2.73 39.53 4.72 42.57 6.69C43.77 7.47 44.53 8.53 44.58 9.99C44.6 10.7 44.45 11.42 44.32 12.12C43.52 16.37 42.71 20.61 41.9 24.86C41.66 26.08 40.99 26.99 39.92 27.6C38.84 28.22 37.74 28.82 36.66 29.43C36.49 29.53 36.33 29.62 36.14 29.74ZM28.94 31.01C28.74 31.15 28.55 31.29 28.35 31.43C28.68 31.49 29.05 31.56 29.48 31.64C29.37 31.77 29.31 31.85 29.24 31.93C30.54 32.43 32.09 31.55 32.16 30.92C32.1 30.87 32.02 30.8 31.95 30.73C31.76 30.91 31.61 31.07 31.44 31.2C30.85 31.7 30.41 31.66 29.95 31.09C29.61 31.13 29.25 31.43 28.94 31.02C28.9 30.74 28.87 30.47 28.83 30.15C28.45 29.93 28.22 29.89 28.48 29C28.07 28.53 27.66 28.02 27.22 27.54C27.06 27.37 26.83 27.24 26.61 27.16C26.06 26.96 25.69 27.32 25.8 28C26.01 28.05 26.25 28.12 26.5 28.15C26.74 28.18 26.98 28.16 27.22 28.16C27.23 28.21 27.24 28.26 27.25 28.31C27 28.4 26.76 28.48 26.47 28.59C26.8 28.64 27.08 28.68 27.36 28.73C27.36 28.76 27.37 28.8 27.38 28.83C27.14 28.92 26.91 29.01 26.56 29.14C27.01 29.2 27.35 29.24 27.68 29.29C27.69 29.33 27.7 29.38 27.71 29.42C27.47 29.51 27.23 29.59 26.97 29.69C27.31 29.74 27.63 29.78 27.96 29.83C27.96 29.87 27.97 29.92 27.97 29.96C27.75 30.04 27.52 30.11 27.3 30.19C27.3 30.21 27.31 30.23 27.31 30.25C27.69 30.29 28.08 30.33 28.51 30.38C28.36 30.81 27.92 30.6 27.69 30.84C28.12 30.9 28.53 30.95 28.94 31.01ZM35.56 16.17C37.47 17.23 39.13 18.54 40.29 20.48C39.87 20.8 39.42 20.81 38.99 20.89C37.75 21.09 36.51 21.28 35.28 21.51C34.78 21.6 34.32 22.24 34.27 22.76C34.25 23.07 34.33 23.31 34.57 23.51C34.7 23.61 34.82 23.73 34.92 23.86C35.32 24.36 35.29 24.81 34.78 25.19C34.49 25.41 34.15 25.57 33.81 25.7C33.46 25.84 33.11 25.95 33.01 26.5C32.72 26.24 32.49 26.05 32.26 25.86C31.58 26.22 30.89 26.59 30.2 26.96C30.26 26.98 30.31 27 30.36 27C30.42 27.02 30.48 27.02 30.55 27.03C31.3 27.04 31.75 27.47 32.05 28.13C32.08 28.21 32.12 28.29 32.18 28.35C32.32 28.48 32.46 28.6 32.63 28.74C32.76 28.34 32.88 27.98 33.31 27.94C33.71 27.91 33.8 28.22 33.85 28.44C34.38 28.59 34.84 28.73 35.41 28.89C36.65 28.19 38.01 27.43 39.36 26.67C40.2 26.19 40.69 25.47 40.88 24.51C41.71 20.12 42.51 15.72 43.39 11.33C43.8 9.3 42.99 8.23 41.76 7.45C38.76 5.54 35.79 3.57 32.81 1.62C31.77 0.94 30.69 0.91 29.61 1.52C28.35 2.23 27.1 2.94 25.84 3.64C22.79 5.35 19.73 7.07 16.67 8.78C15.82 9.26 15.3 9.98 15.11 10.95C14.26 15.47 13.4 19.99 12.54 24.51C12.29 25.84 12.66 26.96 13.78 27.7C16.94 29.8 20.11 31.87 23.3 33.91C23.73 34.19 24.29 34.29 24.8 34.38C25.07 34.42 25.49 34.34 25.64 34.16C26.29 33.32 26.65 32.34 26.79 31.31C26.58 30.92 26.36 30.58 26.2 30.22C25.92 29.58 25.6 28.94 25.42 28.27C25.19 27.38 25.59 26.85 26.48 26.69C26.59 26.67 26.7 26.63 26.81 26.6C26.79 26.49 26.77 26.4 26.77 26.35C26.92 26.17 27.04 26.03 27.21 25.83C26.99 25.73 26.85 25.67 26.7 25.6C26.59 25.9 26.75 26.29 26.31 26.4C26.2 26.13 26.13 25.85 25.99 25.62C25.84 25.37 25.62 25.17 25.42 24.93C24.6 25.4 23.88 25.27 23.2 24.7C22.58 24.18 22.19 23.52 21.92 22.71C22.12 22.71 22.27 22.71 22.41 22.71C22.38 22.51 22.34 22.32 22.29 22.08C22.6 22.17 22.81 22.23 23.1 22.31C22.8 21.88 22.57 21.56 22.28 21.15C21.16 20.64 19.93 20.08 18.64 19.48C18.89 18.89 19.05 18.36 19.33 17.9C19.55 17.52 19.55 17.22 19.39 16.82C19.09 16.06 18.85 15.28 18.62 14.49C18.54 14.2 18.47 13.86 18.72 13.66C19.52 14.44 20.3 15.19 21.01 15.88C21.97 15.49 22.87 15.12 23.77 14.73C23.9 14.68 24.05 14.52 24.09 14.38C24.25 13.8 24.49 13.2 24.5 12.6C24.51 11.94 24.51 11.21 23.91 10.69C23.79 10.59 23.79 10.32 23.79 10.12C23.79 9.99 23.88 9.86 23.91 9.8C23.77 9.5 23.6 9.27 23.55 9.02C23.45 8.47 23.42 7.91 23.34 7.36C23.24 6.71 23.3 6.11 23.84 5.68C24.26 5.34 24.69 5.01 25.15 4.76C26.77 3.9 28.51 3.68 30.32 3.68C32.81 3.69 34.97 4.54 36.8 6.24C37.32 6.73 37.76 7.32 38.23 7.86C37.35 9.15 36.76 10.46 36.31 11.85C35.86 13.23 35.6 14.65 35.56 16.17ZM35.28 5.61C33 3.99 30.45 3.96 27.82 4.28C28.18 4.4 28.59 4.16 28.92 4.48C28.65 4.58 28.38 4.61 28.12 4.67C27.86 4.72 27.6 4.78 27.35 4.87C27.1 4.95 26.86 5.07 26.62 5.17C27.51 5.04 28.61 5.13 28.83 5.44C28.23 5.55 27.63 5.67 27.03 5.78C27.04 5.79 27.04 5.81 27.05 5.82C27.6 5.87 28.16 5.91 28.71 5.96C28.72 6.01 28.72 6.05 28.73 6.1C28.05 6.3 27.38 6.5 26.7 6.7C27.39 6.62 28.53 6.82 28.67 7.09C28.06 7.23 27.44 7.36 26.83 7.49C26.84 7.52 26.84 7.54 26.84 7.56C27.41 7.65 27.99 7.73 28.56 7.81C28.56 7.87 28.56 7.92 28.57 7.98C28.21 8.07 27.86 8.15 27.48 8.24C27.84 8.52 28.34 8.22 28.69 8.64C28.28 8.71 27.93 8.77 27.6 8.82C27.9 8.86 28.19 8.91 28.49 8.95C28.49 9 28.49 9.05 28.5 9.11C28.19 9.19 27.88 9.27 27.57 9.35C27.57 9.37 27.57 9.39 27.57 9.42C27.85 9.47 28.12 9.53 28.39 9.59C28.38 9.64 28.38 9.69 28.38 9.73C28.17 9.81 27.96 9.88 27.64 9.99C27.95 10.09 28.13 10.15 28.32 10.21C28.32 10.26 28.33 10.31 28.33 10.35C27.98 10.44 27.63 10.54 27.19 10.65C27.63 10.77 27.97 10.86 28.31 10.95C28.3 11 28.3 11.05 28.29 11.11C28 11.18 27.71 11.24 27.4 11.32C27.68 11.38 27.94 11.44 28.24 11.51C28.16 11.62 28.12 11.67 28.11 11.68C28.63 11.68 29.18 11.68 29.72 11.68C29.98 11.15 30.16 11.05 30.73 11.08C31.49 11.12 32.14 11.47 32.81 11.77C33.27 11.98 33.74 12.14 34.2 12.33C34.21 12.3 34.22 12.27 34.23 12.24C34.02 12.11 33.81 11.97 33.6 11.84C33.62 11.8 33.64 11.75 33.66 11.71C34.01 11.73 34.37 11.76 34.72 11.78C34.73 11.76 34.74 11.73 34.74 11.71C34.37 11.49 34.01 11.27 33.64 11.05C33.66 11.03 33.67 11 33.69 10.97C33.99 10.97 34.3 10.97 34.73 10.97C34.3 10.75 33.98 10.57 33.66 10.4C33.67 10.35 33.69 10.29 33.71 10.24C34.12 10.26 34.54 10.29 34.96 10.31C34.96 10.28 34.97 10.25 34.98 10.21C34.5 9.97 34.03 9.72 33.55 9.47C33.57 9.42 33.59 9.37 33.61 9.32C34.09 9.39 34.56 9.46 35.11 9.54C34.56 9.22 34.05 8.92 33.55 8.62C33.57 8.58 33.59 8.53 33.6 8.49C34.16 8.57 34.71 8.65 35.26 8.73C35.27 8.71 35.28 8.7 35.3 8.68C34.72 8.35 34.14 8.03 33.56 7.71C33.57 7.67 33.58 7.63 33.59 7.6C34.22 7.59 34.82 7.78 35.42 7.97C35.43 7.94 35.44 7.91 35.45 7.88C34.82 7.51 34.19 7.14 33.56 6.77C33.58 6.72 33.59 6.68 33.61 6.64C34.08 6.72 34.56 6.79 35.09 6.88C34.56 6.6 34.07 6.35 33.58 6.1C33.6 6.04 33.63 5.98 33.65 5.92C34.32 6.07 34.99 6.21 35.77 6.38C34.92 5.96 34.17 5.58 33.41 5.2C33.43 5.17 33.44 5.13 33.46 5.1C34.11 5.1 34.7 5.32 35.28 5.61ZM26.73 21.02C26.64 21.42 26.63 21.76 26.49 22.04C26.33 22.33 26.05 22.55 25.79 22.85C25.96 23.05 26.08 23.24 26.25 23.39C26.66 23.77 27.08 24.14 26.59 24.76C27.5 25.5 28.41 26.15 29.43 26.61C29.56 26.67 29.75 26.68 29.88 26.63C31.1 26.15 32.28 25.59 33.22 24.61C33.47 24.35 33.56 24.04 33.59 23.67C33.63 23.29 33.72 22.88 33.89 22.54C34.15 22.03 34.51 21.57 34.8 21.08C35.08 20.61 35.33 20.12 35.59 19.64C35.36 19.37 35.17 19.14 35.04 18.99C34.41 19.22 33.84 19.42 33.27 19.62C33.27 19.67 33.26 19.73 33.25 19.78C33.39 19.84 33.52 19.89 33.65 19.94C33.66 19.94 33.68 19.9 33.69 19.88C33.61 19.86 33.53 19.83 33.45 19.8C33.71 19.44 34.03 19.45 34.35 19.82C34.05 20.45 33.05 20.6 32.62 20.08C32.28 19.67 32.35 19.14 32.79 18.84C32.86 18.79 32.95 18.76 33.02 18.71C33.52 18.37 33.5 17.7 32.96 17.44C31.43 16.72 29.83 16.39 28.14 16.63C27.31 16.75 26.69 17.37 26.55 18.18C26.42 19 26.6 19.32 27.44 19.75C27.56 20.37 27.35 20.72 26.73 21.02ZM18.92 14.25C18.92 14.31 18.91 14.37 18.92 14.42C19.38 16.07 19.91 17.69 20.95 19.07C21.84 20.25 22.9 21.19 24.41 21.55C24.73 21 24.72 20.4 24.72 19.8C24.72 19.26 24.48 18.89 24.01 18.62C22.66 17.85 21.47 16.89 20.43 15.72C19.96 15.2 19.43 14.75 18.92 14.25ZM32.35 29.39C33.16 29.55 33.63 29.98 33.92 30.65C34.07 30.99 34.38 31.07 34.76 30.89C35.19 30.7 35.6 30.49 36.08 30.25C35.92 29.54 35.27 29.83 34.77 29.81C34.77 29.76 34.77 29.71 34.77 29.67C35.05 29.62 35.32 29.57 35.59 29.53C35.59 29.48 35.59 29.44 35.6 29.39C35.12 29.35 34.64 29.3 34.16 29.25C34.15 29.22 34.15 29.19 34.15 29.16C34.34 29.11 34.53 29.06 34.73 29.01C34.5 28.92 34.25 28.86 34.02 28.88C33.76 28.89 33.51 28.96 33.23 29.02C33.34 28.77 33.43 28.56 33.53 28.34C33.15 28.17 33.06 28.4 33.03 28.64C33 28.93 32.87 29.11 32.6 29.2C32.54 29.23 32.49 29.29 32.35 29.39ZM32.37 32.59C33.59 32.45 33.88 32.14 33.8 31.13C33.74 30.41 33.23 29.86 32.49 29.75C32.35 29.93 32.21 30.13 32.04 30.35C32.75 31 33.07 31.7 32.37 32.59ZM30.11 28.95C29.7 28.19 27.83 26.97 27.22 27.02C27.72 27.6 28.25 28.19 28.78 28.79C29.39 28.63 29.39 28.63 30.11 28.95ZM31.53 29.44C31.05 29.67 30.35 30.73 30.39 31.17C30.87 31.33 31.48 30.98 31.77 30.38C31.98 29.94 31.91 29.69 31.53 29.44ZM29.18 30.86C29.24 30.87 29.3 30.89 29.36 30.89C29.94 30.9 30.82 30.05 30.81 29.47C30.81 29.35 30.71 29.22 30.65 29.1C29.69 29.59 29.07 30.34 29.18 30.86ZM26.35 33.98C26.9 33.67 27.45 33.36 28.02 33.04C27.71 32.62 27.43 32.24 27.18 31.89C26.9 32.59 26.63 33.27 26.35 33.98ZM30.42 28.66C30.72 28.87 30.95 29.03 31.22 29.21C31.3 29.18 31.42 29.12 31.62 29.03C31.36 28.83 31.16 28.67 30.95 28.51C30.94 28.46 30.92 28.4 30.91 28.34C31.09 28.25 31.28 28.17 31.46 28.08C31.44 28.03 31.41 27.98 31.39 27.93C31.04 27.78 30.7 27.62 30.33 27.45C30.37 27.91 30.4 28.31 30.42 28.66ZM25.9 9.05C26.32 8.95 26.66 8.88 27.01 8.8C27.01 8.62 27.01 8.5 27.01 8.33C26.81 8.3 26.62 8.28 26.43 8.25C26.35 8.09 26.28 7.94 26.21 7.79C25.92 7.73 25.74 7.82 25.75 8.08C25.76 8.38 25.84 8.67 25.9 9.05ZM26.59 10.94C26.67 10.72 26.74 10.5 26.83 10.25C26.95 10.19 27.1 10.1 27.24 10.03C27.32 9.72 27.2 9.55 26.94 9.56C26.64 9.58 26.35 9.67 26.08 9.73C26.05 10.44 26.16 10.74 26.59 10.94ZM25.19 9.07C25.14 8.81 25.12 8.55 25.05 8.29C25.01 8.17 24.9 8.03 24.79 8C24.7 7.97 24.56 8.07 24.46 8.11C24.46 8.32 24.46 8.45 24.46 8.55C24.24 8.71 24.06 8.84 23.86 8.98C24.19 9.38 24.5 9.38 25.19 9.07ZM25.33 9.9C24.52 9.91 24.12 10.07 24.16 10.4C24.22 10.46 24.3 10.53 24.37 10.6C24.51 10.59 24.62 10.58 24.76 10.57C24.81 10.68 24.84 10.82 24.92 10.9C25.01 10.99 25.16 11.1 25.25 11.08C25.35 11.06 25.48 10.88 25.47 10.78C25.45 10.48 25.38 10.19 25.33 9.9ZM29.87 29.26C29.67 29.01 29.44 28.85 29.12 29.01C28.84 29.15 28.6 29.34 28.71 29.72C29.19 29.98 29.38 29.9 29.87 29.26Z" fill="#72707E" fill-opacity="1.000000" fill-rule="nonzero"/>
		<path id="Vector" d="M21.87 40.41C21.96 40.04 22.03 39.75 22.1 39.45C22.2 39.03 22.44 38.75 22.84 38.65C23.56 38.47 24.28 38.31 25 38.17C25.21 38.13 25.45 38.21 25.69 38.23C26.43 37.48 28.85 37.06 29.56 37.57C30.87 36.97 32.27 36.7 33.65 36.38C33.99 36.31 34.33 36.26 34.66 36.18C35.11 36.08 35.52 36.08 35.89 36.39C36.96 36.14 38 35.68 39.14 35.8C39.92 35.19 40.91 35.09 41.86 34.9C42.3 34.81 42.69 34.88 43.01 35.22C43.46 35.01 43.88 34.75 44.34 34.63C45.15 34.42 45.97 34.22 46.8 34.16C47.86 34.09 48.74 34.56 49.4 35.54C49.48 35.22 49.55 34.98 49.61 34.72C49.7 34.27 49.95 33.95 50.4 33.83C52.03 33.42 53.65 33 55.29 32.63C56.04 32.46 56.65 33.14 56.46 33.91C56.25 34.71 55.99 35.51 55.72 36.3C55.65 36.5 55.46 36.66 55.4 36.85C55.23 37.64 55.06 38.42 54.89 39.21C54.91 39.21 54.93 39.21 54.95 39.21C54.9 39.55 54.89 39.89 54.8 40.21C54.62 40.8 54.39 41.37 54.19 41.95C54.03 42.39 53.73 42.64 53.28 42.74C51.96 43.02 50.65 43.33 49.33 43.6C48.59 43.76 48.09 43.28 48.06 42.38C47.97 42.45 47.9 42.51 47.83 42.57C46.21 44.08 44.29 44.73 42.1 44.65C41.95 44.64 41.8 44.62 41.66 44.58C41.52 44.54 41.41 44.46 41.29 44.41C40.72 44.89 38.21 45.52 37.69 45.37C37.28 45.51 36.96 45.63 36.64 45.71C36.24 45.82 35.84 45.89 35.45 45.99C34.65 46.19 34.38 46.1 33.89 45.42C33.73 45.96 33.32 46.18 32.82 46.28C31.58 46.54 30.34 46.84 29.1 47.09C28.41 47.23 28.11 47.03 27.73 46.27C26.64 47.59 25.13 47.93 23.57 48.07C22.57 48.16 21.49 47.88 21.01 46.43C20.96 46.48 20.91 46.51 20.88 46.56C19.21 48.69 16.98 49.5 14.36 49.41C13.67 49.38 13.24 48.82 13.38 48.14C13.91 45.65 14.45 43.17 15.02 40.69C15.09 40.41 15.32 40.1 15.56 39.95C16.68 39.27 17.9 38.9 19.22 38.91C20.28 38.92 21.14 39.33 21.74 40.24C21.76 40.28 21.8 40.32 21.87 40.41ZM36.7 44.58C36.96 43.34 37.2 42.16 37.45 40.97C37.5 40.98 37.55 40.98 37.6 40.98C37.78 42.08 37.96 43.17 38.15 44.3C38.79 44.14 39.37 43.97 39.97 43.85C40.25 43.79 40.36 43.67 40.42 43.38C40.96 41.02 41.51 38.66 42.06 36.3C42.09 36.19 42.09 36.09 42.12 35.92C41.4 36.1 40.76 36.26 40.07 36.43C39.77 37.84 39.48 39.22 39.19 40.6C39.15 40.6 39.12 40.6 39.08 40.6C38.91 39.36 38.74 38.12 38.56 36.83C37.79 37.03 37.09 37.21 36.33 37.4C35.86 39.93 35.4 42.41 34.92 44.98C35.59 44.83 36.14 44.7 36.7 44.58ZM42.04 43.64C42.7 43.57 43.25 43.54 43.79 43.44C46.82 42.89 48.86 40.44 48.8 37.43C48.77 36.22 48.16 35.16 46.62 35.24C45.7 35.29 44.85 35.54 44.03 35.94C43.78 36.06 43.64 36.23 43.58 36.51C43.14 38.56 42.68 40.62 42.23 42.67C42.17 42.94 42.12 43.21 42.04 43.64ZM14.4 48.39C15.17 48.3 15.83 48.28 16.46 48.14C19.75 47.39 21.35 44.61 21.17 41.97C21.1 40.95 20.46 40.12 19.62 40.04C18.35 39.92 17.18 40.25 16.01 40.95C15.49 43.34 14.96 45.79 14.4 48.39ZM23.21 39.65C23.16 39.77 23.14 39.8 23.13 39.84C22.75 41.7 22.33 43.55 22.02 45.42C21.89 46.22 22.22 46.83 22.91 46.92C23.31 46.97 23.72 46.96 24.12 46.91C25.93 46.66 27.23 45.81 27.62 43.86C27.97 42.14 28.35 40.43 28.7 38.71C28.72 38.63 28.69 38.54 28.67 38.36C27.98 38.51 27.32 38.65 26.68 38.79C26.63 39.02 26.6 39.17 26.57 39.32C26.25 40.92 25.92 42.53 25.6 44.14C25.49 44.68 25.14 44.97 24.62 45.09C24.08 45.22 23.83 45 23.94 44.45C24.29 42.84 24.65 41.24 25.01 39.64C25.03 39.54 25.04 39.43 25.06 39.23C24.39 39.39 23.79 39.52 23.21 39.65ZM30.31 38.42C29.82 40.93 29.33 43.43 28.84 45.93C28.97 45.96 29.02 45.99 29.06 45.98C30.25 45.73 31.44 45.47 32.63 45.2C32.73 45.18 32.85 45.09 32.89 44.99C33.11 44.44 33.3 43.87 33.53 43.26C32.65 43.48 31.83 43.68 30.92 43.9C31.04 43.42 31.12 43.07 31.22 42.66C32 42.49 32.78 42.31 33.6 42.13C33.7 41.69 33.8 41.24 33.93 40.71C33.1 40.9 32.36 41.07 31.55 41.25C31.67 40.77 31.76 40.37 31.86 39.95C32.75 39.73 33.59 39.52 34.45 39.31C34.65 38.63 34.85 37.98 35.07 37.23C33.43 37.52 31.89 37.87 30.31 38.42ZM50.63 34.83C50.12 37.44 49.63 39.94 49.12 42.55C50.55 42.24 51.85 41.95 53.15 41.67C53.38 41.03 53.59 40.43 53.83 39.77C52.92 39.99 52.12 40.18 51.23 40.4C51.35 39.9 51.44 39.53 51.54 39.16C52.34 38.98 53.1 38.81 53.91 38.63C54.01 38.18 54.1 37.74 54.22 37.21C53.38 37.4 52.65 37.57 51.85 37.75C51.97 37.26 52.07 36.86 52.18 36.44C53.06 36.23 53.89 36.03 54.75 35.82C54.96 35.14 55.16 34.46 55.4 33.66C53.76 34.06 52.22 34.44 50.63 34.83Z" fill="#72707E" fill-opacity="1.000000" fill-rule="nonzero"/>
		<path id="Vector" d="M7.57 41.13C8.45 40.9 9.34 40.64 10.24 40.43C11.22 40.21 11.82 40.92 11.52 41.89C11.1 43.27 10.68 44.66 10.23 46.13C10.53 46.04 10.76 45.98 10.98 45.92C11.38 45.79 11.76 45.82 12.08 46.13C12.4 46.45 12.49 46.83 12.34 47.26C12.1 47.94 11.86 48.62 11.61 49.29C11.48 49.67 11.21 49.9 10.82 49.99C9.45 50.31 8.09 50.63 6.73 50.93C6.25 51.04 5.9 50.8 5.59 50.41C5.38 50.9 4.99 51.07 4.54 51.17C3.31 51.43 2.08 51.72 0.85 51.96C-0.07 52.14 -0.65 51.58 -0.47 50.67C0.01 48.15 0.53 45.63 1.03 43.11C1.12 42.66 1.37 42.34 1.82 42.22C3.43 41.81 5.04 41.4 6.67 41.03C6.95 40.96 7.28 41.09 7.57 41.13ZM5.26 48.14C4.34 48.37 3.55 48.56 2.65 48.78C2.77 48.29 2.86 47.94 2.96 47.54C3.74 47.36 4.52 47.19 5.33 47.01C5.43 46.56 5.54 46.12 5.66 45.59C4.84 45.77 4.1 45.94 3.28 46.13C3.39 45.66 3.48 45.26 3.59 44.83C4.46 44.62 5.32 44.4 6.18 44.19C6.39 43.5 6.58 42.83 6.8 42.1C5.15 42.42 3.6 42.73 2.04 43.31C1.55 45.8 1.06 48.29 0.57 50.79C0.61 50.82 0.65 50.86 0.69 50.89C1.97 50.61 3.25 50.34 4.57 50.05C4.79 49.43 5.01 48.84 5.26 48.14ZM8.28 42.08C7.92 42.89 6.61 49.37 6.7 49.85C8 49.55 9.31 49.24 10.62 48.93C10.85 48.27 11.07 47.66 11.3 46.99C10.43 47.23 9.65 47.44 8.86 47.66C8.82 47.62 8.78 47.58 8.75 47.55C9.31 45.55 9.88 43.55 10.48 41.45C9.67 41.68 8.94 41.89 8.28 42.08Z" fill="#72707E" fill-opacity="1.000000" fill-rule="nonzero"/>
		<path id="Vector" d="M27.84 19.93C27.76 19.87 27.63 19.83 27.61 19.76C27.43 19.19 27.37 18.6 27.55 18.02C27.8 17.23 28.47 16.93 29.41 17.17C29.9 17.3 30.27 17.6 30.58 17.99C30.76 18.23 30.95 18.47 31.16 18.74C31.42 18.66 31.66 18.59 31.89 18.52C32 19.1 31.45 19.62 30.88 19.44C30.67 19.38 30.46 19.26 30.28 19.12C29.29 18.31 28.58 18.45 28 19.6C27.98 19.64 27.95 19.69 27.93 19.73C27.9 19.8 27.87 19.86 27.84 19.93Z" fill="#72707E" fill-opacity="1.000000" fill-rule="nonzero"/>
		<path id="Vector" d="M32.47 21.77C33.16 21.82 33.25 22.04 32.89 22.87C32.96 22.85 33.03 22.84 33.09 22.82C33.06 23.17 32.87 23.34 32.25 23.56C32.42 24.48 31.54 24.89 30.7 24.51C30.27 24.33 29.91 24.01 29.53 23.76C29.48 23.29 29.71 23.01 30.02 22.79C30.14 22.71 30.3 22.69 30.45 22.69C29.89 23.2 29.89 23.2 29.84 23.57C30.84 24.43 31.43 24.55 31.96 23.96C31.99 23.31 31.33 23.18 30.97 22.75C31.13 22.75 31.22 22.75 31.31 22.75C31.27 22.69 31.24 22.64 31.22 22.6C31.85 21.99 32.31 21.29 32.54 20.44C32.58 20.45 32.62 20.46 32.67 20.47C32.68 20.61 32.69 20.75 32.7 20.89C33.33 20.7 33.98 20.51 34.62 20.32C34.79 21.04 34.16 22.06 33.53 22.15C33.6 21.9 33.67 21.66 33.73 21.44C33.39 21.22 32.91 21.36 32.47 21.77Z" fill="#72707E" fill-opacity="1.000000" fill-rule="nonzero"/>
		<path id="Vector" d="M29.53 20.95C29.53 21.36 29.32 21.74 28.92 22C28.63 22.18 28.34 22.1 28.17 21.8C27.9 21.31 28.21 20.4 28.73 20.18C29.13 20.02 29.52 20.36 29.53 20.95Z" fill="#72707E" fill-opacity="1.000000" fill-rule="nonzero"/>
		<path id="Vector" d="M27.92 22.59C27.9 22.81 27.88 23.02 27.86 23.23C27.82 23.26 27.78 23.28 27.74 23.31C28.3 23.8 28.84 24.32 29.43 24.77C30.02 25.23 30.76 25.3 31.51 25.29C31.5 25.34 31.5 25.39 31.49 25.45C31.38 25.47 31.27 25.51 31.16 25.51C30.25 25.55 29.47 25.2 28.78 24.63C28.5 24.39 28.24 24.13 27.97 23.87C27.74 23.65 27.55 23.38 27.16 23.37C27.01 23.37 26.87 23.15 26.75 23C27.46 23.11 27.46 23.11 27.92 22.59Z" fill="#72707E" fill-opacity="1.000000" fill-rule="nonzero"/>
		<path id="Vector" d="M27.84 19.93C27.87 19.86 27.9 19.8 27.93 19.73C28.07 19.61 28.21 19.48 28.35 19.36C29.13 18.71 29.92 18.9 30.31 19.83C30.41 20.06 30.44 20.32 30.51 20.57C30.46 20.59 30.42 20.61 30.38 20.62C30.33 20.52 30.27 20.43 30.22 20.32C30.14 20.14 30.08 19.94 29.97 19.77C29.68 19.3 29.23 19.16 28.77 19.46C28.49 19.64 28.27 19.92 28.02 20.16C27.93 20.25 27.84 20.33 27.75 20.42C27.73 20.4 27.7 20.38 27.67 20.36C27.73 20.22 27.78 20.07 27.84 19.93Z" fill="#72707E" fill-opacity="1.000000" fill-rule="nonzero"/>
		<path id="Vector" d="M27.86 21.92C28.58 22.7 29.29 22.87 30 21.91C30.07 22.23 29.67 22.66 29.25 22.78C28.7 22.93 28.01 22.54 27.86 21.92Z" fill="#72707E" fill-opacity="1.000000" fill-rule="nonzero"/>
		<path id="Vector" d="M20.76 18.05C21.31 18.74 21.81 19.37 22.31 20C22.45 19.52 22.21 19.22 21.98 18.92C21.3 18.07 20.64 17.21 19.98 16.35C19.9 16.26 19.86 16.14 19.78 15.99C19.87 16.01 19.92 16.01 19.93 16.03C20.76 17.06 21.82 17.82 22.91 18.53C23.53 18.94 23.91 19.5 24.1 20.21C24.19 20.57 24.29 20.92 24.39 21.28C23.39 21.57 20.93 19.41 20.76 18.05Z" fill="#72707E" fill-opacity="1.000000" fill-rule="nonzero"/>
		<path id="Vector" d="M33.31 31.38C33.59 31.55 33.63 31.76 33.51 32.01C33.42 32.21 33.29 32.36 33.05 32.26C32.83 31.82 32.89 31.61 33.31 31.38Z" fill="#72707E" fill-opacity="1.000000" fill-rule="nonzero"/>
		<path id="Vector" d="M44.26 41.58C44.39 41.01 44.5 40.55 44.6 40.09C44.78 39.32 44.95 38.54 45.13 37.77C45.23 37.35 45.45 37.19 45.93 37.19C46.33 37.19 46.56 37.37 46.66 37.78C46.83 38.48 46.64 39.13 46.36 39.76C46.05 40.47 45.57 41.04 44.87 41.39C44.71 41.46 44.54 41.49 44.26 41.58Z" fill="#72707E" fill-opacity="1.000000" fill-rule="nonzero"/>
		<path id="Vector" d="M16.68 46.2C16.98 44.86 17.29 43.51 17.58 42.2C17.98 41.97 18.34 41.83 18.71 42.05C19.06 42.25 19.11 42.62 19.09 42.99C19.05 44.28 18.54 45.32 17.46 46.04C17.25 46.18 16.99 46.23 16.76 46.33C16.73 46.29 16.7 46.25 16.68 46.2Z" fill="#72707E" fill-opacity="1.000000" fill-rule="nonzero"/>
	</g>
</svg>
