<svg width="69.000000" height="52.000000" viewBox="0 0 69 52" fill="none" xmlns="http://www.w3.org/2000/svg" xmlns:xlink="http://www.w3.org/1999/xlink">
	<desc>
			Created with Pixso.
	</desc>
	<defs>
		<clipPath id="clip2_44959">
			<rect id="Eva" width="69.000000" height="52.000000" transform="translate(-0.499878 0.000000)" fill="white" fill-opacity="0"/>
		</clipPath>
	</defs>
	<g clip-path="url(#clip2_44959)">
		<path id="Eva" d="M26.3605 22.3411L34.0155 34.8644L47.8614 12.2445C49.1498 10.1396 51.8482 9.39189 54.0363 10.5334L52.4452 13.1096C53.3715 12.9086 54.3327 12.8027 55.3185 12.8027C62.8278 12.8027 68.9152 18.9436 68.9152 26.5187C68.9152 26.6385 68.9137 26.758 68.9106 26.8771L68.915 26.8771L68.915 35.4645C68.915 37.9676 66.8859 39.9967 64.3828 39.9967L64.3828 36.7423C61.9773 38.9141 58.8008 40.2347 55.3185 40.2347C48.9401 40.2347 43.5875 35.8041 42.1201 29.8274L35.4568 40.6161C35.1465 41.1184 34.5983 41.4242 34.0079 41.4242C33.4258 41.4242 32.8841 41.1269 32.5714 40.6359L25.0585 28.8384C23.6801 26.6739 24.2545 23.8074 26.3605 22.3411ZM-0.499878 26.5187C-0.499878 18.9436 5.58759 12.8027 13.0968 12.8027C18.7446 12.8027 23.5881 16.2764 25.6424 21.2214L25.7583 21.395L15.5665 28.2012C13.4849 29.5913 10.6705 29.0308 9.2804 26.9492L19.3605 20.2176C17.7615 18.5851 15.5455 17.5742 13.0966 17.5742C8.22214 17.5742 4.27063 21.5791 4.27063 26.5194C4.27063 31.4597 8.22214 35.4646 13.0966 35.4646C17.5578 35.4646 21.246 32.1098 21.8392 27.7536C22.713 28.1768 24.0157 29.6514 24.2823 30.7016C24.5333 31.6901 24.7278 33.1793 23.7979 34.9812C21.3087 38.1798 17.4406 40.2347 13.0968 40.2347C5.58759 40.2347 -0.499878 34.0938 -0.499878 26.5187ZM46.4933 26.5194C46.4933 21.5791 50.4448 17.5742 55.3192 17.5742C60.1936 17.5742 64.1451 21.5791 64.1451 26.5194C64.1451 31.4597 60.1936 35.4646 55.3192 35.4646C50.4448 35.4646 46.4933 31.4597 46.4933 26.5194Z" clip-rule="evenodd" fill="#72707E" fill-opacity="1.000000" fill-rule="evenodd"/>
	</g>
</svg>
