<svg width="135.000000" height="52.000000" viewBox="0 0 135 52" fill="none" xmlns="http://www.w3.org/2000/svg" xmlns:xlink="http://www.w3.org/1999/xlink">
	<desc>
			Created with Pixso.
	</desc>
	<defs>
		<clipPath id="clip2_44902">
			<rect id="Dis" width="135.000000" height="52.000000" transform="translate(-0.499878 0.000000)" fill="white" fill-opacity="0"/>
		</clipPath>
	</defs>
	<g clip-path="url(#clip2_44902)">
		<path id="Union" d="M22.0867 14.9349C22.0867 8.34342 27.3913 3 33.9349 3C40.4785 3 45.783 8.34342 45.783 14.9349C45.783 21.5263 40.4785 26.8697 33.9349 26.8697C27.3913 26.8697 22.0867 21.5263 22.0867 14.9349ZM58.7656 3C52.222 3 46.9174 8.34342 46.9174 14.9349C46.9174 21.5263 52.222 26.8697 58.7656 26.8697C65.3091 26.8697 70.6138 21.5263 70.6138 14.9349C70.6138 8.34342 65.3091 3 58.7656 3ZM97.1041 3.30895C94.4362 3.82527 92.5665 5.37427 91.7094 7.65967C91.222 8.99706 91.2892 11.2824 91.8943 12.5013C92.6674 14.1096 94.8185 15.7686 98.1293 17.2922C98.9023 17.6646 99.8267 18.2233 100.18 18.5449C100.701 19.0359 100.801 19.256 100.801 19.8146C100.801 20.5933 100.364 21.2536 99.625 21.6429C99.0872 21.9307 97.7763 22.1607 96.7175 21.7445C95.867 21.4101 95.1473 20.4532 94.6882 19.7596C94.4362 19.3787 94.3101 19.019 94.2807 19.019C94.2135 19.019 93.4236 19.8654 92.5161 20.8811C91.2052 22.3709 90.8439 22.9972 90.8439 22.9972C91.222 23.6321 92.9362 25.3342 94.058 25.854C96.831 27.1389 102.179 26.857 104.465 24.5716C104.868 24.1823 105.457 23.302 105.776 22.6248C106.314 21.5075 106.364 21.2705 106.364 19.8315C106.381 17.8678 105.978 16.6997 104.885 15.4639C103.877 14.3297 102.902 13.7033 99.9275 12.2643C97.9612 11.2994 97.3898 10.9608 97.1881 10.5545C96.6671 9.53877 97.0369 8.5569 98.1124 8.11675C99.5577 7.54117 100.902 7.96439 101.81 9.30177L102.348 10.0636L103.541 8.91241C104.213 8.26911 105.036 7.47345 105.389 7.1518L106.045 6.55929L105.171 5.59435C103.642 3.91839 101.642 3.08887 99.1208 3.12273C98.3309 3.12273 97.557 3.2213 97.1041 3.30895ZM1.81458 11.9258C2.92377 7.54118 5.83118 4.64634 10.3016 3.49517C11.6124 3.17352 12.1334 3.12273 14.1669 3.17352C16.6038 3.24124 18.1835 3.59675 20.0826 4.49398L20.7885 4.83255L20.6876 7.89668C20.6372 9.58957 20.57 11.0116 20.5364 11.0455C20.5027 11.0793 20.049 10.7069 19.5112 10.2329C17.6962 8.6077 15.7467 7.91361 13.4106 8.04904C10.5873 8.23526 8.35211 9.99586 7.61261 12.6537C7.17566 14.1942 7.31012 16.7505 7.93195 18.1048C8.80585 20.0347 10.4192 21.2366 12.5872 21.5414C15.1249 21.8969 17.797 20.9827 19.7801 19.0867C20.1162 18.782 20.4355 18.5111 20.5196 18.5111C20.5868 18.5111 20.6372 19.9162 20.6372 21.626L20.6372 24.7409L20.0994 25.0795C18.5364 26.0275 15.5786 26.8062 13.5787 26.8062C12.6544 26.8062 10.4024 26.4507 9.4613 26.1629C6.67151 25.2657 4.01617 23.0988 2.82294 20.7118C1.91541 18.9005 1.61292 17.6646 1.52887 15.4639C1.46167 13.6694 1.4953 13.1277 1.81458 11.9258ZM72.5339 26.163C72.4498 26.1291 72.3994 21.0504 72.3994 14.8545L72.3994 3.61369L78.1135 3.61369L78.1135 7.59198C78.1135 10.0297 78.1386 11.6337 78.2394 11.6337C78.3655 11.6337 78.9537 10.9947 80.7184 8.50614C80.9032 8.2522 81.7772 7.05025 82.6511 5.83138L84.2476 3.61369L91.159 3.61369C91.159 3.61369 89.8776 5.22194 88.9532 6.40696C87.2391 8.59078 85.8778 10.3514 84.0964 12.6706C83.2224 13.8049 83.1384 13.9911 83.2897 14.3297C83.4913 14.7021 86.3987 19.0698 86.9869 19.8654C87.1718 20.1024 88.1802 21.5922 89.2557 23.2004L91.222 26.1122C91.222 26.1122 90.0709 26.1545 88.0626 26.163C86.0542 26.1714 84.5501 26.2222 84.5501 26.2222C84.5501 26.2222 83.8611 25.5366 78.8529 17.6139C78.6176 17.2753 78.3235 16.9028 78.2394 16.9028C78.2394 16.9028 78.1135 18.6635 78.1135 21.5583L78.1135 26.1122L75.3909 26.163C73.8784 26.1968 72.6011 26.1968 72.5339 26.163ZM33.9349 8.45956C30.3846 8.45956 27.5066 11.3587 27.5066 14.9349C27.5066 18.5111 30.3846 21.4102 33.9349 21.4102C37.4851 21.4102 40.3632 18.5111 40.3632 14.9349C40.3632 11.3587 37.4851 8.45956 33.9349 8.45956ZM52.3373 14.9349C52.3373 11.3587 55.2154 8.45956 58.7656 8.45956C62.3159 8.45956 65.1938 11.3587 65.1938 14.9349C65.1938 18.5111 62.3159 21.4102 58.7656 21.4102C55.2154 21.4102 52.3373 18.5111 52.3373 14.9349Z" clip-rule="evenodd" fill="#72707E" fill-opacity="1.000000" fill-rule="evenodd"/>
		<path id="professional" d="M67.87 36.81L65.82 36.81L65.82 44.32L65.01 44.32L65.01 36.81L64.08 36.81L64.08 36.03L65.01 36.03L65.01 32.09C65.01 31.04 65.22 30.31 65.63 29.9C66.05 29.48 66.56 29.27 67.17 29.27C67.35 29.27 67.59 29.31 67.87 29.39L67.87 30.14C67.71 30.08 67.5 30.04 67.25 30.04C66.82 30.04 66.47 30.2 66.2 30.51Q65.82 30.96 65.82 32.26L65.82 36.03L67.87 36.03L67.87 36.81ZM131.69 29.51L132.5 29.51L132.5 44.32L131.69 44.32L131.69 29.51ZM96.27 33.82C96.14 33.96 95.97 34.02 95.77 34.02C95.57 34.02 95.39 33.96 95.24 33.82C95.11 33.67 95.04 33.49 95.04 33.27C95.04 33.05 95.11 32.88 95.24 32.74Q95.37 32.62 95.52 32.56Q95.64 32.52 95.77 32.52C95.97 32.52 96.14 32.59 96.27 32.74C96.42 32.88 96.49 33.05 96.49 33.27C96.49 33.49 96.42 33.67 96.27 33.82ZM38.02 42.84L38.02 49L37.21 49L37.21 36.03L38.02 36.03L38.02 37.48Q38.59 36.69 39.37 36.28Q40.2 35.85 41.24 35.85Q42.43 35.85 43.31 36.37L43.31 36.37Q43.77 36.65 44.15 37.07Q44.42 37.37 44.63 37.72Q45.24 38.74 45.24 40.12Q45.24 41.48 44.66 42.52Q44.44 42.93 44.13 43.29C43.4 44.13 42.43 44.55 41.2 44.55C40.58 44.55 40.03 44.42 39.53 44.18C39.03 43.92 38.69 43.69 38.5 43.49C38.31 43.27 38.15 43.06 38.02 42.84ZM48.31 44.32L48.31 36.03L49.12 36.03L49.12 37.11Q49.43 36.4 49.97 36.09Q50.38 35.85 50.94 35.85C51.26 35.85 51.55 35.92 51.8 36.05L51.4 36.79C51.25 36.68 51.05 36.62 50.79 36.62C50.4 36.62 50.08 36.74 49.83 36.97C49.58 37.19 49.42 37.5 49.32 37.9C49.24 38.3 49.19 38.63 49.16 38.9Q49.12 39.3 49.12 39.87L49.12 44.32L48.31 44.32ZM54.53 37.11C55.36 36.27 56.39 35.85 57.62 35.85Q58.66 35.85 59.51 36.26Q60.15 36.57 60.68 37.11C61.52 37.94 61.93 38.97 61.93 40.2C61.93 41.43 61.52 42.47 60.68 43.31Q60.17 43.82 59.55 44.12Q58.69 44.55 57.62 44.55C56.39 44.55 55.36 44.13 54.53 43.31C53.71 42.47 53.3 41.43 53.3 40.2C53.3 38.97 53.71 37.94 54.53 37.11ZM77.39 40.28L70.35 40.28C70.35 41.31 70.67 42.15 71.3 42.8C71.94 43.45 72.72 43.77 73.62 43.77C74.26 43.77 74.83 43.6 75.33 43.27C75.83 42.91 76.21 42.45 76.48 41.88L77.17 42.29C76.86 42.89 76.41 43.42 75.82 43.88C75.22 44.32 74.47 44.55 73.56 44.55C72.31 44.55 71.32 44.14 70.59 43.33C69.87 42.5 69.5 41.47 69.5 40.22C69.5 38.85 69.89 37.78 70.67 37.01C71.47 36.24 72.41 35.85 73.5 35.85C74.61 35.85 75.54 36.26 76.28 37.09C77.02 37.92 77.39 38.98 77.39 40.28ZM84.68 37.19L83.99 37.56C83.72 36.93 83.25 36.62 82.56 36.62C82.13 36.62 81.79 36.76 81.53 37.03C81.29 37.3 81.17 37.61 81.17 37.94C81.17 38.2 81.24 38.42 81.39 38.61C81.54 38.79 81.69 38.93 81.85 39.02C82.01 39.1 82.27 39.21 82.62 39.35C82.67 39.36 82.8 39.41 83 39.51C83.22 39.59 83.36 39.64 83.43 39.67C83.49 39.7 83.61 39.75 83.77 39.83C83.94 39.9 84.07 39.97 84.15 40.04C84.23 40.09 84.33 40.16 84.43 40.26C84.56 40.35 84.66 40.46 84.74 40.56C85.02 40.92 85.16 41.36 85.16 41.91C85.16 42.79 84.89 43.45 84.35 43.9C83.83 44.33 83.2 44.55 82.48 44.55C81.78 44.55 81.17 44.35 80.66 43.96C80.15 43.56 79.81 43.03 79.64 42.35L80.42 42.11C80.56 42.64 80.81 43.05 81.19 43.35C81.58 43.63 82.01 43.77 82.48 43.77C83 43.77 83.44 43.6 83.79 43.27Q84 43.06 84.12 42.81Q84.31 42.43 84.31 41.95C84.31 41.51 84.18 41.18 83.91 40.95C83.64 40.71 83.16 40.44 82.48 40.16Q81.07 39.57 80.68 39.06C80.44 38.74 80.32 38.38 80.32 37.98C80.32 37.36 80.53 36.85 80.95 36.46C81.36 36.05 81.89 35.85 82.52 35.85C83.58 35.85 84.3 36.3 84.68 37.19ZM92.12 37.19L91.43 37.56C91.16 36.93 90.69 36.62 90 36.62C89.57 36.62 89.23 36.76 88.97 37.03C88.73 37.3 88.61 37.61 88.61 37.94C88.61 38.2 88.68 38.42 88.83 38.61C88.98 38.79 89.13 38.93 89.29 39.02C89.46 39.1 89.71 39.21 90.06 39.35C90.12 39.36 90.24 39.41 90.44 39.51C90.66 39.59 90.8 39.64 90.87 39.67C90.94 39.7 91.05 39.75 91.21 39.83C91.39 39.9 91.51 39.97 91.59 40.04C91.67 40.09 91.77 40.16 91.88 40.26C92 40.35 92.1 40.46 92.18 40.56C92.46 40.92 92.6 41.36 92.6 41.91C92.6 42.79 92.33 43.45 91.8 43.9C91.27 44.33 90.65 44.55 89.92 44.55C89.22 44.55 88.62 44.35 88.11 43.96C87.59 43.56 87.25 43.03 87.08 42.35L87.86 42.11C88 42.64 88.25 43.05 88.63 43.35C89.02 43.63 89.45 43.77 89.92 43.77C90.44 43.77 90.88 43.6 91.23 43.27Q91.44 43.06 91.56 42.81Q91.76 42.43 91.76 41.95C91.76 41.51 91.62 41.18 91.35 40.95C91.08 40.71 90.61 40.44 89.92 40.16C88.98 39.77 88.38 39.4 88.13 39.06C87.88 38.74 87.76 38.38 87.76 37.98C87.76 37.36 87.97 36.85 88.39 36.46C88.8 36.05 89.33 35.85 89.96 35.85C91.02 35.85 91.74 36.3 92.12 37.19ZM100.48 37.11C101.31 36.27 102.34 35.85 103.57 35.85C104.79 35.85 105.81 36.27 106.63 37.11C107.46 37.94 107.88 38.97 107.88 40.2C107.88 41.43 107.46 42.47 106.63 43.31C105.81 44.13 104.79 44.55 103.57 44.55C102.34 44.55 101.31 44.13 100.48 43.31C99.66 42.47 99.25 41.43 99.25 40.2C99.25 38.97 99.66 37.94 100.48 37.11ZM110.96 44.32L110.96 36.03L111.76 36.03L111.76 37.33C112.31 36.35 113.16 35.85 114.28 35.85Q115.23 35.85 115.87 36.29Q116.28 36.56 116.56 37.01C116.83 37.44 116.97 38.14 116.97 39.1L116.97 44.32L116.16 44.32L116.16 39.1C116.16 38.33 116.05 37.77 115.84 37.44Q115.68 37.17 115.46 37Q114.99 36.62 114.22 36.62C113.31 36.62 112.64 37.01 112.21 37.78C111.91 38.31 111.76 39.05 111.76 40.02L111.76 44.32L110.96 44.32ZM127.28 37.48L127.28 36.03L128.09 36.03L128.09 44.32L127.28 44.32L127.28 42.84C126.54 43.98 125.47 44.55 124.07 44.55C122.96 44.55 122.01 44.15 121.23 43.35C120.45 42.55 120.06 41.49 120.06 40.18C120.06 38.89 120.43 37.85 121.17 37.05C121.91 36.25 122.88 35.85 124.07 35.85Q125.18 35.85 126.03 36.32Q126.75 36.73 127.28 37.48ZM95.36 36.03L96.17 36.03L96.17 44.32L95.36 44.32L95.36 36.03ZM38.82 42.74Q39.11 43.09 39.47 43.32Q40.18 43.77 41.18 43.77Q42.19 43.77 42.9 43.32Q43.26 43.09 43.54 42.74C44.11 42.05 44.39 41.17 44.39 40.12Q44.39 38.7 43.7 37.82L43.7 37.82Q43.59 37.68 43.46 37.56C42.84 36.93 42.09 36.62 41.2 36.62Q40.58 36.62 40.04 36.83Q39.44 37.05 38.92 37.54Q38.76 37.7 38.62 37.88Q37.98 38.74 37.98 40.08Q37.98 41.46 38.61 42.44L38.61 42.44Q38.71 42.59 38.82 42.74ZM55.14 42.74C55.81 43.43 56.64 43.77 57.62 43.77C58.6 43.77 59.42 43.43 60.08 42.74C60.75 42.05 61.09 41.2 61.09 40.2Q61.09 39.34 60.76 38.64Q60.51 38.11 60.08 37.66C59.42 36.97 58.6 36.62 57.62 36.62C56.64 36.62 55.81 36.97 55.14 37.66C54.48 38.35 54.15 39.2 54.15 40.2C54.15 41.2 54.48 42.05 55.14 42.74ZM70.41 39.51L76.54 39.51C76.43 38.67 76.1 37.98 75.53 37.44C74.98 36.89 74.3 36.62 73.5 36.62C72.68 36.62 71.98 36.9 71.42 37.46C70.85 38 70.52 38.68 70.41 39.51ZM101.08 42.74C101.76 43.43 102.58 43.77 103.57 43.77Q104.37 43.77 105.03 43.47Q105.58 43.21 106.03 42.74C106.7 42.05 107.03 41.2 107.03 40.2C107.03 39.2 106.7 38.35 106.03 37.66C105.37 36.97 104.55 36.62 103.57 36.62C102.58 36.62 101.76 36.97 101.08 37.66Q100.68 38.09 100.44 38.59Q100.1 39.32 100.1 40.2C100.1 41.2 100.43 42.05 101.08 42.74ZM124.11 36.62C123.24 36.62 122.49 36.94 121.85 37.58Q121.66 37.77 121.51 37.98Q120.91 38.84 120.91 40.12Q120.91 41.06 121.26 41.85Q121.46 42.3 121.77 42.7C122.35 43.42 123.14 43.77 124.13 43.77C125.12 43.77 125.89 43.42 126.45 42.72Q126.7 42.41 126.88 42.07Q127.32 41.21 127.32 40.12C127.32 38.99 126.99 38.13 126.33 37.54Q125.67 36.93 124.91 36.72Q124.52 36.62 124.11 36.62Z" fill="#72707E" fill-opacity="1.000000" fill-rule="evenodd"/>
	</g>
</svg>
