<svg width="135.000000" height="52.000000" viewBox="0 0 135 52" fill="none" xmlns="http://www.w3.org/2000/svg" xmlns:xlink="http://www.w3.org/1999/xlink">
	<desc>
			Created with Pixso.
	</desc>
	<defs>
		<clipPath id="clip2_44912">
			<rect id="GT_Logo_Export 1" width="135.000000" height="41.000000" transform="translate(-0.499878 6.000000)" fill="white" fill-opacity="0"/>
		</clipPath>
		<clipPath id="clip2_44911">
			<rect id="Dis" width="135.000000" height="52.000000" transform="translate(-0.499878 0.000000)" fill="white" fill-opacity="0"/>
		</clipPath>
	</defs>
	<g clip-path="url(#clip2_44911)">
		<rect id="GT_Logo_Export 1" width="135.000000" height="41.000000" transform="translate(-0.499878 6.000000)" fill="#FFFFFF" fill-opacity="0"/>
		<g clip-path="url(#clip2_44912)">
			<path id="Vector" d="M-0.37 26.4L-0.34 46.83L3.94 46.83L8.21 46.83L8.25 43.93L8.27 41.03L7.37 41.03L6.47 41.03L6.47 23.51L6.47 6L3.04 6L-0.39 6L-0.37 26.4Z" fill="#72707E" fill-opacity="1.000000" fill-rule="nonzero"/>
			<path id="Vector" d="M9.51 26.44L9.51 46.88L13.84 46.88L18.17 46.88L18.17 43.95L18.17 41.03L17.33 41.03L16.48 41.03L16.48 35.17L16.48 29.31L17.33 29.31L18.17 29.31L18.17 26.44L18.17 23.57L17.33 23.57L16.48 23.57L16.48 17.71L16.48 11.85L17.33 11.85L18.17 11.85L18.17 8.92L18.17 5.99L13.84 5.99L9.51 5.99L9.51 26.44Z" fill="#72707E" fill-opacity="1.000000" fill-rule="nonzero"/>
			<path id="Vector" d="M25.6 6.06C22.28 6.47 20.41 7.91 19.66 10.64C19.48 11.29 19.46 12.44 19.46 26.33C19.46 42.77 19.42 41.81 20.16 43.38C20.86 44.85 22.06 45.79 23.96 46.34C24.77 46.58 25.1 46.6 27.17 46.6C29.24 46.6 29.57 46.58 30.37 46.34C32.08 45.85 33.18 45.1 33.9 43.99C34.4 43.2 34.82 41.82 34.89 40.77C34.92 40.26 34.96 36.18 34.97 31.7L34.99 23.57L31.09 23.57L27.17 23.57L27.17 26.38L27.17 29.2L27.62 29.2L28.07 29.2L28.07 35.01L28.07 40.82L27.74 41.15C27.33 41.57 27.01 41.57 26.6 41.15L26.27 40.82L26.27 26.44C26.27 14.05 26.29 12.02 26.44 11.75C26.71 11.21 27.35 11.12 27.79 11.57L28.07 11.84L28.07 17.09L28.07 22.33L31.54 22.33L34.99 22.33L34.93 16.73C34.87 10.56 34.85 10.5 34.12 9.13C33.39 7.75 32.03 6.78 30.2 6.33C29.27 6.11 26.55 5.95 25.6 6.06Z" fill="#72707E" fill-opacity="1.000000" fill-rule="nonzero"/>
			<path id="Vector" d="M36.17 26.44L36.17 46.88L40.54 46.86L44.89 46.83L44.92 43.93L44.95 41.03L44.05 41.03L43.15 41.03L43.15 35.17L43.15 29.31L44.05 29.31L44.95 29.31L44.95 26.44L44.95 23.58L44.08 23.54L43.2 23.51L43.17 17.69L43.15 11.86L44.01 11.83L44.89 11.8L44.92 8.89L44.95 5.99L40.56 5.99L36.17 5.99L36.17 26.44Z" fill="#72707E" fill-opacity="1.000000" fill-rule="nonzero"/>
			<path id="Vector" d="M46.09 26.4L46.13 46.83L49.59 46.86L53.05 46.88L53.05 29.09L53.05 11.29L53.44 11.29C53.69 11.29 53.92 11.38 54.06 11.51C54.28 11.74 54.28 11.89 54.28 29.31L54.28 46.88L57.77 46.88L61.26 46.88L61.26 29.72C61.26 18.1 61.22 12.26 61.13 11.67C60.91 10 60.17 8.46 59.19 7.62C58.94 7.39 58.37 7.03 57.94 6.83C56.48 6.12 56.09 6.07 50.82 6.03L46.07 5.97L46.09 26.4Z" fill="#72707E" fill-opacity="1.000000" fill-rule="nonzero"/>
			<path id="Vector" d="M62.5 26.43L62.5 46.88L66.47 46.88C70.48 46.88 72.05 46.79 73.22 46.49C75.42 45.92 76.76 44.51 77.31 42.19C77.5 41.36 77.51 40.42 77.51 26.33C77.51 12.02 77.5 11.31 77.3 10.56C76.97 9.33 76.49 8.44 75.77 7.75C75.01 7.02 74.27 6.64 73.05 6.31C72.18 6.09 71.77 6.07 67.31 6.03L62.5 5.97L62.5 26.43ZM70.48 11.5C70.56 11.65 70.6 16.53 70.6 26.48L70.6 41.24L70.35 41.41C70.21 41.51 69.95 41.59 69.79 41.59L69.47 41.59L69.47 26.44L69.47 11.29L69.92 11.29C70.25 11.29 70.39 11.35 70.48 11.5Z" fill="#72707E" fill-opacity="1.000000" fill-rule="nonzero"/>
			<path id="Vector" d="M79.93 6.29C79.93 6.88 78.59 44.49 78.53 45.68L78.47 46.88L81.85 46.88L85.22 46.88L85.22 46.4C85.22 46.14 85.25 45.5 85.28 44.97C85.31 44.44 85.38 41.9 85.45 39.34C85.51 36.77 85.58 34.03 85.61 33.25C85.64 32.48 85.69 30.67 85.74 29.25C85.77 27.82 85.83 26.64 85.86 26.61C85.97 26.5 86.36 27.16 86.58 27.85C86.9 28.87 87.11 30.53 87.19 32.63C87.34 36.79 87.36 37.75 87.43 40.91C87.47 42.74 87.52 44.31 87.54 44.4C87.55 44.49 87.57 45.09 87.57 45.72L87.58 46.88L90.97 46.88L94.36 46.88L94.29 45.33C94.24 44.48 93.94 35.96 93.6 26.38C93.26 16.81 92.96 8.3 92.92 7.48L92.85 5.99L86.39 5.99L79.93 5.99L79.93 6.29ZM86.62 12.21C86.65 12.73 86.71 14.39 86.74 15.91C86.77 17.43 86.83 19.46 86.86 20.41C86.96 23.04 86.66 25.33 86.12 26.04C86.01 26.2 85.88 26.29 85.85 26.27C85.83 26.24 85.84 24.72 85.9 22.89C85.95 21.07 86.02 18.45 86.06 17.09C86.18 12.4 86.24 11.29 86.4 11.29C86.5 11.29 86.57 11.56 86.62 12.21Z" fill="#72707E" fill-opacity="1.000000" fill-rule="nonzero"/>
			<path id="Vector" d="M95.35 26.44L95.35 46.88L98.83 46.88L102.32 46.88L102.32 36.75C102.32 30.72 102.37 26.61 102.42 26.61C102.6 26.61 103 27.55 103.16 28.38C103.48 29.86 103.56 32.22 103.56 39.54L103.56 46.88L107.02 46.86L110.48 46.83L110.48 39.34C110.48 32.46 110.45 31.77 110.27 30.94C109.73 28.62 108.47 27.15 106.61 26.66C105.93 26.5 105.91 26.31 106.53 26.22C107.3 26.1 108.33 25.54 108.89 24.91C109.51 24.22 109.89 23.47 110.22 22.27C110.45 21.4 110.47 21.18 110.48 16.41C110.48 12.07 110.45 11.37 110.29 10.69C109.61 8.08 107.82 6.51 105.05 6.11C104.64 6.05 102.28 5.99 99.82 5.99L95.35 5.99L95.35 26.44ZM103.4 11.57C103.57 11.83 103.58 12.38 103.52 17.35C103.48 21.63 103.43 23.08 103.29 23.95C103.11 25.06 102.67 26.27 102.44 26.27C102.35 26.27 102.32 23.96 102.32 18.78L102.32 11.29L102.77 11.29C103.12 11.29 103.25 11.35 103.4 11.57Z" fill="#72707E" fill-opacity="1.000000" fill-rule="nonzero"/>
			<path id="Vector" d="M110.76 6.14C110.76 6.23 111.75 13.24 112.95 21.73L115.15 37.17L115.15 41.97L115.15 46.77L118.63 46.77L122.12 46.77L122.12 41.96L122.12 37.15L124.31 21.7C125.52 13.2 126.51 6.19 126.51 6.12C126.51 6.03 125.54 5.99 123.16 5.99L119.8 5.99L119.32 16.15C119.05 21.75 118.79 26.37 118.73 26.43C118.67 26.5 118.6 26.5 118.53 26.43C118.48 26.37 118.21 21.76 117.95 16.19L117.45 6.05L114.11 6.02C111.37 5.99 110.76 6.02 110.76 6.14Z" fill="#72707E" fill-opacity="1.000000" fill-rule="nonzero"/>
			<path id="Vector" d="M127.21 9.82L127.24 13.65L128.23 13.65L129.21 13.65L129.21 12.13L129.21 10.61L130.39 10.61L131.57 10.61L131.57 9.82L131.57 9.04L130.39 9.04L129.21 9.04L129.21 8.36L129.21 7.7L130.37 7.66L131.51 7.63L131.55 6.81L131.58 5.99L129.38 5.99L127.18 5.99L127.21 9.82Z" fill="#72707E" fill-opacity="1.000000" fill-rule="nonzero"/>
			<path id="Vector" d="M132.13 6.11C132.13 6.16 132.21 6.22 132.3 6.22C132.42 6.22 132.47 6.34 132.47 6.67C132.47 6.92 132.53 7.12 132.58 7.12C132.65 7.12 132.7 6.92 132.7 6.67C132.7 6.36 132.74 6.22 132.85 6.22C132.94 6.22 133.06 6.16 133.09 6.11C133.13 6.04 132.95 5.99 132.65 5.99C132.37 5.99 132.13 6.04 132.13 6.11Z" fill="#72707E" fill-opacity="1.000000" fill-rule="nonzero"/>
			<path id="Vector" d="M133.26 6.56C133.26 7.17 133.47 7.36 133.49 6.75L133.5 6.39L133.62 6.75C133.69 6.95 133.8 7.12 133.88 7.12C133.96 7.12 134.06 6.95 134.11 6.75L134.2 6.39L134.24 6.75C134.3 7.34 134.5 7.18 134.5 6.55C134.5 6.07 134.46 5.98 134.3 6.02C134.2 6.04 134.06 6.23 133.99 6.45L133.85 6.84L133.72 6.41C133.5 5.79 133.26 5.86 133.26 6.56Z" fill="#72707E" fill-opacity="1.000000" fill-rule="nonzero"/>
			<path id="Vector" d="M128.39 14.38C127.85 14.58 127.7 14.7 127.45 15.21C127.27 15.57 127.25 15.94 127.26 18.08C127.28 20.94 127.34 21.19 128.2 21.63C128.62 21.85 128.84 21.89 129.57 21.85C130.53 21.82 130.89 21.63 131.29 20.96C131.49 20.62 131.51 20.38 131.51 18.05C131.51 15.7 131.49 15.48 131.29 15.12C130.83 14.33 129.49 13.99 128.39 14.38ZM129.52 18.08C129.48 20.91 129.28 20.96 129.23 18.16C129.2 16.04 129.24 15.67 129.44 15.87C129.51 15.94 129.53 16.81 129.52 18.08Z" fill="#72707E" fill-opacity="1.000000" fill-rule="nonzero"/>
			<path id="Vector" d="M128.7 22.63C128.12 22.79 127.72 23.06 127.52 23.47C127.32 23.84 127.3 24.15 127.3 26.38C127.28 28.57 127.31 28.92 127.49 29.28C127.85 30 128.17 30.16 129.38 30.16C130.56 30.16 130.86 30.02 131.29 29.3C131.49 28.95 131.51 28.71 131.51 26.44C131.51 24.19 131.49 23.92 131.29 23.51C131.17 23.26 130.89 22.97 130.69 22.86C130.32 22.64 129.15 22.51 128.7 22.63ZM129.55 26.45C129.55 28.16 129.51 28.65 129.41 28.61C129.3 28.57 129.25 28 129.23 26.4C129.21 24.54 129.23 24.24 129.38 24.24C129.52 24.24 129.55 24.55 129.55 26.45Z" fill="#72707E" fill-opacity="1.000000" fill-rule="nonzero"/>
			<path id="Vector" d="M127.24 34.77L127.24 38.43L128.69 38.43C129.93 38.43 130.22 38.4 130.63 38.21C131.45 37.8 131.51 37.53 131.51 34.77C131.51 32.67 131.49 32.36 131.3 31.97C130.95 31.28 130.47 31.11 128.7 31.11L127.24 31.11L127.24 34.77ZM129.55 34.77C129.55 36.65 129.52 36.97 129.38 36.97C129.23 36.97 129.21 36.65 129.21 34.77C129.21 32.89 129.23 32.58 129.38 32.58C129.52 32.58 129.55 32.89 129.55 34.77Z" fill="#72707E" fill-opacity="1.000000" fill-rule="nonzero"/>
			<path id="Vector" d="M128.21 39.53C127.99 39.64 127.72 39.87 127.61 40.02C127.16 40.63 127.17 42.19 127.62 42.82C127.76 43 128.12 43.31 128.44 43.51C129.42 44.12 129.55 44.27 129.55 44.82C129.55 45.18 129.5 45.31 129.38 45.31C129.25 45.31 129.21 45.18 129.21 44.85L129.21 44.4L128.22 44.4L127.24 44.4L127.27 44.93C127.32 45.77 127.39 45.95 127.75 46.36C128.16 46.84 128.95 47.06 129.8 46.95C130.94 46.79 131.42 46.24 131.53 44.95C131.59 43.93 131.32 43.22 130.69 42.77C129.23 41.73 129.26 41.77 129.26 41.36C129.26 41.16 129.33 40.97 129.41 40.94C129.5 40.91 129.55 41.03 129.55 41.31L129.55 41.71L130.53 41.68L131.51 41.64L131.48 41.09C131.45 40.46 131.21 39.98 130.75 39.63C130.3 39.29 128.76 39.23 128.21 39.53Z" fill="#72707E" fill-opacity="1.000000" fill-rule="nonzero"/>
		</g>
	</g>
</svg>
