<svg width="70.000000" height="52.000000" viewBox="0 0 70 52" fill="none" xmlns="http://www.w3.org/2000/svg" xmlns:xlink="http://www.w3.org/1999/xlink">
	<desc>
			Created with Pixso.
	</desc>
	<defs>
		<clipPath id="clip2_45014">
			<rect id="ph2" width="70.000000" height="52.000000" transform="translate(-0.499878 0.000000)" fill="white" fill-opacity="0"/>
		</clipPath>
	</defs>
	<g clip-path="url(#clip2_45014)">
		<path id="ph2" d="M46.605 36.6378L46.605 36.6367L69.6925 36.6367L69.6925 29.3176L58.0818 29.3176L63 25.678C64.6731 24.4515 65.9362 23.3449 66.7891 22.3584C67.6421 21.3451 68.1998 20.3853 68.4622 19.4787Q68.9051 18.1188 68.9051 16.759C68.9051 14.9725 68.3146 13.426 67.1336 12.1195Q65.362 10.1598 62.2126 9.07988C60.113 8.35996 57.7017 8 54.9788 8Q49.4181 8 45.6782 9.7998C43.1849 10.9997 41.3149 12.5595 40.0683 14.4793L48.8276 18.0388C49.3525 17.1856 50.0742 16.5457 50.9928 16.1191C51.9114 15.6658 52.8792 15.4391 53.8962 15.4391Q55.5693 15.4391 56.4059 16.0391C56.9636 16.4124 57.2424 16.9456 57.2424 17.6389C57.2424 17.9589 57.1768 18.3055 57.0456 18.6788C56.9144 19.0254 56.6519 19.4254 56.2583 19.8786C55.8974 20.3319 55.3233 20.8652 54.5359 21.4785L46.605 27.4403L46.605 24.8256Q46.605 21.5696 45.4692 19.5252C44.7373 18.1623 43.7277 17.1653 42.4405 16.5343C41.1532 15.8781 39.7146 15.5499 38.1245 15.5499C36.4334 15.5499 34.8937 15.9412 33.5056 16.7236C33.0739 16.9714 32.67 17.2585 32.2941 17.5848L32.2941 8.5459L23.7377 8.5459L23.7377 36.6378L32.2941 36.6378L32.2941 26.9079C32.2941 25.873 32.4329 25.0527 32.7105 24.447C33.0134 23.8412 33.4046 23.4122 33.8842 23.1598C34.3889 22.8821 34.9316 22.7433 35.5121 22.7433Q36.2365 22.7433 36.7733 23.0605Q37.1064 23.2573 37.3672 23.5762C37.8216 24.1062 38.0487 25.0149 38.0487 26.3021L38.0487 36.6378L46.605 36.6378ZM13.3189 37.0164Q10.6309 37.0164 8.85148 35.8806Q8.68944 35.7714 8.53527 35.6521L8.53522 35.652Q8.2855 35.4587 8.05642 35.2387L8.05642 43.9826L-0.499878 43.9826L-0.499878 15.9285L7.63997 15.9285L7.63997 17.628Q7.99975 17.2278 8.42098 16.9087L8.421 16.9087Q8.57533 16.7918 8.7379 16.6857Q10.4794 15.5499 13.3189 15.5499Q15.0393 15.5499 16.5787 16.0777Q17.4785 16.3862 18.3164 16.875Q18.9628 17.2413 19.5356 17.6996L19.5357 17.6997Q20.9759 18.8518 21.9509 20.5853C22.8596 22.1754 23.3139 24.081 23.3139 26.3021C23.3139 28.5232 22.8596 30.4414 21.9509 32.0568Q21.0247 33.6778 19.6788 34.7916Q19.0442 35.3168 18.3164 35.7292Q17.5546 36.1609 16.7418 36.4478L16.7417 36.4478L16.7416 36.4478Q15.1306 37.0164 13.3189 37.0164ZM11.2745 30.3531C11.9055 30.3531 12.4734 30.2017 12.9782 29.8988C13.483 29.5959 13.8868 29.1416 14.1897 28.5358Q14.644 27.6272 14.644 26.3021Q14.644 24.9392 14.1897 24.0305C13.8868 23.4248 13.483 22.9705 12.9782 22.6676Q12.7811 22.5493 12.5711 22.4618L12.5711 22.4618Q11.9746 22.2133 11.2745 22.2133Q10.5745 22.2133 9.97796 22.4618L9.97792 22.4618Q9.76795 22.5493 9.57081 22.6676C9.06602 22.9705 8.66218 23.4248 8.3593 24.0305Q7.90498 24.9392 7.90498 26.3021Q7.90498 27.6272 8.3593 28.5358C8.66218 29.1416 9.06602 29.5959 9.57081 29.8988C10.0756 30.2017 10.6435 30.3531 11.2745 30.3531ZM61.6952 39.2608C61.7828 39.3353 61.8933 39.3725 62.0266 39.3725Q62.206 39.3725 62.3246 39.2875Q62.3419 39.2751 62.358 39.2608C62.4418 39.183 62.4837 39.0883 62.4837 38.9767C62.4837 38.8718 62.4399 38.7856 62.3523 38.7179Q62.3372 38.7052 62.3212 38.6939L62.3211 38.6939Q62.2026 38.6113 62.0266 38.6113C61.8933 38.6113 61.7828 38.6485 61.6952 38.723Q61.6297 38.7785 61.5983 38.8491Q61.5695 38.9141 61.5695 38.9919Q61.5695 39.0551 61.5898 39.1109L61.5898 39.111Q61.62 39.1941 61.6952 39.2608ZM53.0434 38.7636L53.0434 42.5287L53.7576 42.5287L53.7576 41.8145L54.2888 41.3683L55.3461 42.5287L56.2146 42.5287L54.8214 40.9545L56.0946 39.819L55.2375 39.819L53.7576 41.0344L53.7576 38.7636L53.0434 38.7636ZM59.902 42.3359C60.0849 42.4882 60.3439 42.5643 60.6791 42.5643C60.8086 42.5643 60.9343 42.549 61.0562 42.5186C61.1781 42.4882 61.281 42.4425 61.3648 42.3816L61.1648 41.93C61.0581 42.0044 60.9248 42.0416 60.7648 42.0416C60.6315 42.0416 60.5267 42.0061 60.4505 41.935C60.3782 41.864 60.342 41.7642 60.342 41.6357L60.342 40.3468L61.1591 40.3468L61.1591 39.8393L60.342 39.8393L60.342 39.2203L59.6277 39.2203L59.6277 39.8393L59.1249 39.8393L59.1249 40.3468L59.6277 40.3468L59.6277 41.6509C59.6277 41.952 59.7192 42.1803 59.902 42.3359ZM46.5399 39.9154Q46.2599 39.7886 45.8942 39.7886C45.5933 39.7886 45.3286 39.8495 45.1 39.9713Q44.8895 40.0834 44.7523 40.2415Q44.721 40.1957 44.6845 40.1545Q44.592 40.0504 44.4658 39.9763Q44.1515 39.7886 43.723 39.7886Q43.3459 39.7886 43.0487 39.9256C42.9201 39.9861 42.8116 40.065 42.723 40.1626L42.723 39.819L42.0431 39.819L42.0431 42.5287L42.7573 42.5287L42.7573 41.1536C42.7573 40.9709 42.7897 40.8204 42.8545 40.702C42.923 40.5836 43.0164 40.4939 43.1344 40.433C43.2563 40.3721 43.3954 40.3417 43.5515 40.3417Q43.8577 40.3417 44.0322 40.4933L44.0334 40.4944Q44.0472 40.5064 44.0601 40.5193Q44.2372 40.6969 44.2372 41.0572L44.2372 42.5287L44.9514 42.5287L44.9514 41.1536C44.9514 40.9709 44.9838 40.8204 45.0486 40.702C45.1171 40.5836 45.2105 40.4939 45.3286 40.433C45.4505 40.3721 45.5895 40.3417 45.7457 40.3417Q46.0518 40.3417 46.2263 40.4933Q46.2407 40.5058 46.2542 40.5193C46.3723 40.6377 46.4313 40.817 46.4313 41.0572L46.4313 42.5287L47.1456 42.5287L47.1456 40.976Q47.1456 40.565 46.9856 40.3062C46.8789 40.1303 46.7304 40 46.5399 39.9154ZM49.6524 42.1999L49.6524 42.5287L50.3267 42.5287L50.3267 40.9405Q50.3267 40.4732 50.0963 40.201Q50.0364 40.1303 49.961 40.0727Q49.601 39.7886 48.9382 39.7886Q48.5725 39.7886 48.2297 39.8748Q47.8926 39.956 47.6469 40.1235L47.9268 40.5853C48.0411 40.5007 48.1802 40.4347 48.344 40.3874Q48.5225 40.3369 48.704 40.3223L48.7042 40.3223L48.7045 40.3222Q48.7783 40.3163 48.8525 40.3163C49.1077 40.3163 49.2982 40.3688 49.4239 40.4736Q49.4832 40.5215 49.5238 40.5819Q49.6124 40.7136 49.6124 40.9049L49.6124 40.9455L48.8239 40.9455C48.5154 40.9455 48.2678 40.9811 48.0811 41.0521C47.8945 41.1231 47.7592 41.2196 47.6754 41.3413C47.5954 41.4631 47.5555 41.6001 47.5555 41.7524C47.5555 41.908 47.6012 42.0484 47.6926 42.1735C47.7878 42.2953 47.9211 42.3917 48.0925 42.4628Q48.3497 42.5643 48.6925 42.5643C48.963 42.5643 49.1858 42.5203 49.361 42.4323C49.4844 42.3717 49.5815 42.2943 49.6524 42.1999ZM50.9576 39.819L50.9576 42.5287L51.6718 42.5287L51.6718 41.2145Q51.6718 40.8574 51.8486 40.6535Q51.8503 40.6516 51.8519 40.6497Q51.8797 40.6181 51.9118 40.5903C52.0718 40.4483 52.287 40.3772 52.5575 40.3772C52.5841 40.3772 52.6108 40.3789 52.6375 40.3823Q52.6775 40.3823 52.7232 40.3924L52.7232 39.7886C52.4299 39.7886 52.1842 39.8359 51.9861 39.9307C51.8414 40.0012 51.7252 40.0962 51.6375 40.2156L51.6375 39.819L50.9576 39.819ZM56.8047 42.3867C57.0599 42.5051 57.357 42.5643 57.6961 42.5643C57.9627 42.5643 58.1989 42.5271 58.4046 42.4526C58.6141 42.3748 58.7874 42.2649 58.9245 42.1228L58.5417 41.7321C58.4351 41.8336 58.3132 41.908 58.176 41.9553C58.0389 42.0027 57.8846 42.0264 57.7132 42.0264C57.5151 42.0264 57.3399 41.9926 57.1875 41.9249C57.0352 41.8572 56.9171 41.7608 56.8333 41.6357C56.7805 41.5568 56.7443 41.4705 56.7248 41.3769L59.1188 41.3769C59.1226 41.3464 59.1245 41.3143 59.1245 41.2804C59.1283 41.2466 59.1302 41.2162 59.1302 41.1891C59.1302 40.9049 59.0636 40.658 58.9303 40.4483C58.7969 40.2385 58.6141 40.0761 58.3817 39.9611C58.1494 39.8461 57.8846 39.7886 57.5875 39.7886C57.2828 39.7886 57.0104 39.8478 56.7704 39.9662C56.5342 40.0846 56.3476 40.2487 56.2105 40.4584C56.0771 40.6648 56.0105 40.9033 56.0105 41.1739Q56.0105 41.4525 56.1098 41.6895L56.1099 41.6896Q56.1535 41.7935 56.2162 41.8894C56.3571 42.0991 56.5533 42.2649 56.8047 42.3867ZM65.4153 39.9154C65.2248 39.8309 65.0077 39.7886 64.7639 39.7886C64.4972 39.7886 64.2611 39.8359 64.0554 39.9307C63.9195 39.9921 63.8053 40.0719 63.7125 40.1702L63.7125 39.819L63.0326 39.819L63.0326 42.5287L63.7468 42.5287L63.7468 41.1587Q63.7468 40.8846 63.8497 40.707C63.922 40.5853 64.023 40.4939 64.1525 40.433C64.282 40.3721 64.4306 40.3417 64.5982 40.3417C64.8267 40.3417 65.0039 40.4009 65.1296 40.5193C65.2591 40.6377 65.3238 40.817 65.3238 41.0572L65.3238 42.5287L66.0381 42.5287L66.0381 40.976Q66.0381 40.565 65.8724 40.3062C65.7619 40.1303 65.6095 40 65.4153 39.9154ZM67.1668 42.2446C67.403 42.3528 67.6658 42.407 67.9553 42.407C68.2144 42.407 68.4467 42.3613 68.6524 42.27C68.7762 42.213 68.8847 42.1383 68.9781 42.0458L68.9781 42.1888Q68.9781 42.5468 68.8004 42.747Q68.7987 42.7488 68.797 42.7507Q68.7721 42.7783 68.7439 42.8028C68.5877 42.9415 68.342 43.0108 68.0068 43.0108C67.7973 43.0108 67.5896 42.9804 67.3839 42.9195C67.1821 42.862 67.0145 42.7842 66.8811 42.6861L66.5612 43.163C66.7326 43.2882 66.9516 43.3829 67.2182 43.4472C67.4887 43.5149 67.7649 43.5487 68.0468 43.5487C68.58 43.5487 68.9876 43.432 69.2695 43.1986C69.5514 42.9685 69.6924 42.6082 69.6924 42.1177L69.6924 39.819L69.0124 39.819L69.0124 40.1807C68.9116 40.0724 68.7916 39.9874 68.6524 39.9256C68.4467 39.8343 68.2144 39.7886 67.9553 39.7886C67.6658 39.7886 67.403 39.8427 67.1668 39.951C66.9345 40.0592 66.7497 40.2114 66.6126 40.4077Q66.5656 40.4768 66.5297 40.5512L66.5294 40.5518Q66.4126 40.7941 66.4126 41.0927C66.4126 41.3566 66.4792 41.5866 66.6126 41.7828C66.7497 41.979 66.9345 42.1329 67.1668 42.2446ZM61.6666 39.819L61.6666 42.5287L62.3808 42.5287L62.3808 39.819L61.6666 39.819ZM58.4548 40.9557L56.7184 40.9557C56.734 40.854 56.7666 40.7627 56.8161 40.6817C56.8923 40.5599 56.9952 40.4652 57.1247 40.3975Q57.3247 40.296 57.5875 40.296C57.7589 40.296 57.9094 40.3298 58.0389 40.3975C58.1722 40.4652 58.277 40.5582 58.3531 40.6766Q58.3779 40.7151 58.3971 40.7563Q58.4404 40.8493 58.4548 40.9557ZM68.5439 41.7727C68.4029 41.8369 68.2429 41.8691 68.0639 41.8691C67.8849 41.8691 67.723 41.8369 67.5782 41.7727C67.4373 41.705 67.3268 41.6137 67.2468 41.4986C67.1706 41.3802 67.1325 41.2449 67.1325 41.0927Q67.1325 40.9128 67.2035 40.7675L67.2036 40.7673Q67.2227 40.7283 67.2468 40.6918C67.3268 40.5734 67.4373 40.4838 67.5782 40.4229C67.723 40.3586 67.8849 40.3265 68.0639 40.3265Q68.3325 40.3265 68.5439 40.4229C68.6848 40.4838 68.7934 40.5734 68.8696 40.6918C68.9496 40.8068 68.9895 40.9405 68.9895 41.0927C68.9895 41.2449 68.9496 41.3802 68.8696 41.4986C68.7934 41.6137 68.6848 41.705 68.5439 41.7727ZM49.6124 41.3667L49.6124 41.6813C49.5515 41.82 49.4505 41.9249 49.3096 41.9959C49.1725 42.067 49.0163 42.1025 48.8411 42.1025C48.6582 42.1025 48.5154 42.0687 48.4125 42.001C48.3097 41.9333 48.2582 41.842 48.2582 41.727C48.2582 41.6255 48.3001 41.5409 48.384 41.4733C48.4678 41.4022 48.6316 41.3667 48.8753 41.3667L49.6124 41.3667Z" clip-rule="evenodd" fill="#72707E" fill-opacity="1.000000" fill-rule="evenodd"/>
	</g>
</svg>
