<svg width="149.000000" height="52.000000" viewBox="0 0 149 52" fill="none" xmlns="http://www.w3.org/2000/svg" xmlns:xlink="http://www.w3.org/1999/xlink">
	<desc>
			Created with Pixso.
	</desc>
	<defs>
		<clipPath id="clip2_44870">
			<rect id="1032-PM-Final_logos_Phoenix_Medical-orange_flame-Chinese-thicker-text_1 (1) 1" width="147.000000" height="52.000000" transform="translate(0.000122 0.000000)" fill="white" fill-opacity="0"/>
		</clipPath>
		<clipPath id="clip2_44869">
			<rect id="Dis" width="149.000000" height="52.000000" transform="translate(-0.499878 0.000000)" fill="white" fill-opacity="0"/>
		</clipPath>
	</defs>
	<g clip-path="url(#clip2_44869)">
		<rect id="1032-PM-Final_logos_Phoenix_Medical-orange_flame-Chinese-thicker-text_1 (1) 1" width="147.000000" height="52.000000" transform="translate(0.000122 0.000000)" fill="#FFFFFF" fill-opacity="0"/>
		<g clip-path="url(#clip2_44870)">
			<path id="Vector" d="M46.09 8.12C46.08 8.35 45.88 8.71 45.61 8.95C45.2 9.33 44.83 9.44 43.73 9.5C43.12 9.53 42.71 9.58 42.57 9.64C42.46 9.69 42.21 9.73 42.01 9.73C41.82 9.73 41.54 9.77 41.39 9.82C41.25 9.86 41.06 9.92 40.96 9.93C40.69 9.99 40.19 10.52 40.3 10.64C40.31 10.65 40.47 10.61 40.65 10.54C41.09 10.39 41.69 10.34 42.11 10.43C42.94 10.59 43.79 11.17 44.09 11.77C44.49 12.55 44.34 13.76 43.8 14.17C43.7 14.25 43.5 14.34 43.35 14.38C43.08 14.46 43.08 14.46 43.18 14.57C43.31 14.72 43.7 14.9 43.91 14.9C44.17 14.9 44.66 14.65 44.81 14.44C45.07 14.08 45.17 13.74 45.18 13.26C45.18 13.01 45.21 12.81 45.23 12.81C45.29 12.81 45.46 13.22 45.49 13.45C45.52 13.59 45.48 13.75 45.4 13.93L45.28 14.2L45.44 14.2C45.63 14.2 45.94 14.02 46.06 13.83C46.11 13.75 46.17 13.58 46.19 13.45L46.24 13.2L46.74 13.73C48.29 15.36 49.06 17.44 48.82 19.34C48.37 22.94 45.21 25.42 41.48 25.11C39.34 24.94 37.58 24.19 36.26 22.88C35.18 21.81 34.46 20.37 34.21 18.77C34.07 17.92 34.13 16.64 34.33 15.83C34.61 14.72 35.09 13.68 35.73 12.77L36.06 12.31L35.7 12.66C34.57 13.75 33.68 15.27 33.35 16.66C32.49 20.21 34.03 23.97 37.17 26.01C39.51 27.53 42.5 27.9 45.19 27C46.51 26.55 47.62 25.86 48.67 24.79C50.06 23.41 50.84 21.93 51.15 20.09C51.25 19.51 51.26 19.23 51.24 18.38C51.22 17.76 51.17 17.2 51.11 16.93C50.44 13.86 48.29 11.38 45.45 10.38C44.91 10.19 43.89 9.96 43.59 9.96C43.45 9.96 43.41 9.94 43.46 9.9C43.54 9.82 44.45 9.82 45.07 9.9C45.36 9.94 45.7 9.96 45.81 9.94C46.26 9.86 46.61 9.38 46.61 8.86C46.61 8.53 46.55 8.39 46.33 8.14C46.15 7.95 46.09 7.95 46.09 8.12Z" fill="#72707E" fill-opacity="1.000000" fill-rule="nonzero"/>
			<path id="Vector" d="M0 18.67L0 27.32L1.45 27.32L2.9 27.32L2.9 24.71L2.9 22.1L5.3 22.1C7.93 22.1 8.62 22.04 9.54 21.78C11.58 21.18 12.85 20.01 13.46 18.14C13.89 16.84 13.85 14.72 13.36 13.5C12.63 11.63 10.93 10.44 8.53 10.11C8 10.04 7.18 10.02 3.94 10.02L0 10.02L0 18.67ZM7.44 12.64C8.66 12.74 9.53 13.07 10.11 13.65C10.71 14.25 10.98 14.98 10.98 16C10.98 17.76 10.15 18.85 8.44 19.32C8 19.44 7.84 19.45 5.44 19.47L2.9 19.49L2.9 16.07C2.9 14.19 2.92 12.63 2.94 12.62C3 12.55 6.69 12.57 7.44 12.64Z" fill="#72707E" fill-opacity="1.000000" fill-rule="nonzero"/>
			<path id="Vector" d="M15.73 18.67L15.73 27.32L17.18 27.32L18.63 27.32L18.63 23.72L18.63 20.12L23.23 20.13L27.83 20.15L27.85 23.73L27.86 27.32L29.31 27.32L30.76 27.32L30.76 18.67L30.76 10.02L29.31 10.02L27.86 10.02L27.85 13.78L27.83 17.54L23.23 17.56L18.63 17.57L18.63 13.79L18.63 10.02L17.18 10.02L15.73 10.02L15.73 18.67Z" fill="#72707E" fill-opacity="1.000000" fill-rule="nonzero"/>
			<path id="Vector" d="M53.46 18.67L53.46 27.32L59.79 27.32L66.12 27.32L66.12 26.04L66.12 24.77L61.26 24.75L56.39 24.74L56.38 22.34L56.37 19.95L60.6 19.95L64.84 19.95L64.84 18.64L64.84 17.33L60.62 17.32L56.39 17.31L56.39 14.95L56.39 12.6L61.11 12.59L65.83 12.57L65.83 11.3L65.83 10.02L59.65 10.02L53.46 10.02L53.46 18.67Z" fill="#72707E" fill-opacity="1.000000" fill-rule="nonzero"/>
			<path id="Vector" d="M68.73 18.67L68.73 27.32L70.18 27.32L71.63 27.32L71.63 21.13C71.63 17.31 71.66 14.96 71.69 14.98C71.72 15 73.8 17.78 76.31 21.17L80.89 27.32L82.33 27.32L83.77 27.32L83.77 18.67L83.77 10.02L82.34 10.02L80.92 10.02L80.92 16.2C80.92 19.6 80.9 22.39 80.88 22.39C80.85 22.39 78.76 19.6 76.23 16.2L71.62 10.02L70.18 10.02L68.73 10.02L68.73 18.67Z" fill="#72707E" fill-opacity="1.000000" fill-rule="nonzero"/>
			<path id="Vector" d="M87.42 18.67L87.42 27.32L88.85 27.32L90.27 27.32L90.27 18.67L90.27 10.02L88.85 10.02L87.42 10.02L87.42 18.67Z" fill="#72707E" fill-opacity="1.000000" fill-rule="nonzero"/>
			<path id="Vector" d="M92.57 10.18C92.62 10.27 93.93 12.14 95.46 14.35C96.99 16.55 98.25 18.39 98.25 18.44C98.25 18.5 92.51 26.66 92.05 27.24C92.01 27.3 92.35 27.32 93.71 27.32L95.42 27.32L97.73 24.07C99.54 21.53 100.06 20.84 100.12 20.89C100.16 20.93 101.21 22.39 102.46 24.14L104.73 27.32L106.47 27.32L108.21 27.32L108.03 27.05C107.92 26.9 106.52 24.89 104.9 22.59C103.3 20.29 101.97 18.37 101.97 18.32C101.97 18.28 103.26 16.4 104.83 14.15C106.4 11.91 107.69 10.07 107.69 10.05C107.69 10.03 106.92 10.02 105.99 10.03L104.29 10.03L102.2 12.99C101.05 14.62 100.1 15.96 100.07 15.97C100.06 15.98 99.1 14.66 97.95 13.02L95.86 10.05L94.16 10.03L92.46 10.02L92.57 10.18Z" fill="#72707E" fill-opacity="1.000000" fill-rule="nonzero"/>
			<path id="Vector" d="M0.05 41.49L0.05 50.77L0.43 50.77L0.81 50.77L0.81 42.02L0.81 33.27L4.75 40.99C7.64 46.65 8.72 48.72 8.8 48.73C8.89 48.74 9.63 47.32 12.83 41.04L16.74 33.33L16.78 35.85C16.8 37.24 16.82 41.17 16.82 44.57L16.83 50.77L17.18 50.77L17.53 50.77L17.53 41.49L17.53 32.2L16.99 32.2L16.45 32.2L12.65 39.71C10.56 43.84 8.83 47.21 8.81 47.19C8.79 47.16 7.06 43.79 4.97 39.69L1.17 32.23L0.61 32.21L0.05 32.19L0.05 41.49Z" fill="#72707E" fill-opacity="1.000000" fill-rule="nonzero"/>
			<path id="Vector" d="M23.04 41.49L23.04 50.77L29.05 50.77L35.06 50.77L35.06 50.4L35.06 50.02L29.4 50.02L23.74 50.02L23.75 45.79L23.77 41.57L28.63 41.55L33.49 41.54L33.49 41.19L33.49 40.85L28.62 40.85L23.74 40.85L23.75 36.88L23.77 32.92L29.24 32.9L34.71 32.89L34.71 32.54L34.71 32.2L28.88 32.2L23.04 32.2L23.04 41.49Z" fill="#72707E" fill-opacity="1.000000" fill-rule="nonzero"/>
			<path id="Vector" d="M38.89 41.49L38.89 50.77L42.68 50.77C44.85 50.77 46.74 50.75 47.1 50.72C51.33 50.31 54.68 47.35 55.56 43.23C55.73 42.41 55.75 40.7 55.59 39.86C54.86 36.06 51.97 33.18 48.08 32.36C47.47 32.23 47.36 32.23 43.18 32.21L38.89 32.19L38.89 41.49ZM46.89 32.95C49.03 33.14 50.83 33.95 52.32 35.39C53.11 36.14 53.59 36.78 54.03 37.65C54.68 38.91 54.91 39.79 54.95 41.21C55 42.37 54.9 43.03 54.57 44.05C54.12 45.39 53.5 46.39 52.48 47.41C51.2 48.68 49.79 49.44 47.98 49.85C47.41 49.98 47.29 49.98 43.52 50L39.65 50.02L39.65 41.46L39.65 32.89L42.94 32.89C44.75 32.89 46.53 32.92 46.89 32.95Z" fill="#72707E" fill-opacity="1.000000" fill-rule="nonzero"/>
			<path id="Vector" d="M59.15 41.49L59.15 50.77L59.5 50.77L59.85 50.77L59.85 41.49L59.85 32.2L59.5 32.2L59.15 32.2L59.15 41.49Z" fill="#72707E" fill-opacity="1.000000" fill-rule="nonzero"/>
			<path id="Vector" d="M71.46 32.28C70.82 32.37 70.12 32.54 69.53 32.75C68.82 33.01 67.68 33.63 67.04 34.11C63.47 36.79 62.3 41.46 64.21 45.41C65.46 48 67.91 49.91 70.77 50.54C73.11 51.04 75.54 50.66 77.67 49.47C78.16 49.19 79.3 48.36 79.3 48.28C79.3 48.23 78.87 47.81 78.81 47.81C78.79 47.81 78.6 47.94 78.4 48.09C77.82 48.56 77.34 48.86 76.72 49.15C74.58 50.17 72.32 50.32 70.07 49.6C66.99 48.61 64.64 45.94 64.12 42.83C64 42.12 64 40.79 64.12 40.12C64.81 36.12 68.27 33.11 72.42 32.91C74.62 32.81 76.86 33.54 78.48 34.88L78.8 35.15L79.05 34.91L79.3 34.66L79.05 34.44C78.66 34.09 77.65 33.44 77.06 33.15C76.39 32.84 75.51 32.53 74.74 32.37C73.98 32.21 72.27 32.16 71.46 32.28Z" fill="#72707E" fill-opacity="1.000000" fill-rule="nonzero"/>
			<path id="Vector" d="M83.97 41.32C81.67 46.34 79.76 50.52 79.72 50.61L79.65 50.78L80.09 50.76L80.53 50.74L81.46 48.71C81.96 47.59 82.54 46.33 82.73 45.91L83.09 45.14L88.58 45.15L94.07 45.17L95.35 47.96L96.63 50.74L97.05 50.76C97.28 50.77 97.47 50.76 97.46 50.73C97.46 50.71 95.53 46.54 93.18 41.46L88.9 32.23L88.52 32.21L88.15 32.19L83.97 41.32ZM91.11 38.76C92.51 41.78 93.66 44.29 93.68 44.34C93.71 44.44 93.43 44.45 88.56 44.45C85.23 44.45 83.42 44.43 83.43 44.39C83.55 44.05 88.51 33.2 88.53 33.23C88.56 33.25 89.72 35.74 91.11 38.76Z" fill="#72707E" fill-opacity="1.000000" fill-rule="nonzero"/>
			<path id="Vector" d="M99.79 41.49L99.79 50.77L104.26 50.77L108.73 50.77L108.73 50.4L108.73 50.02L104.64 50.02L100.54 50.02L100.54 41.11L100.54 32.2L100.17 32.2L99.79 32.2L99.79 41.49Z" fill="#72707E" fill-opacity="1.000000" fill-rule="nonzero"/>
			<path id="Vector" d="M143.64 40.99C143.67 41.26 143.66 41.33 143.56 41.43C143.46 41.53 143.39 41.55 143.23 41.51C142.69 41.42 142.47 41.21 142.59 40.91C142.65 40.73 142.61 40.7 142.41 40.77C142.28 40.81 142.26 40.86 142.24 41.07C142.22 41.26 142.25 41.34 142.36 41.45C142.51 41.6 142.95 41.72 143.36 41.72L143.62 41.72L143.62 41.97C143.62 42.23 143.7 42.36 143.86 42.36C143.93 42.36 143.96 42.28 143.99 42.05C144.03 41.71 144.13 41.6 144.4 41.6C144.64 41.6 145.04 41.41 145.15 41.25C145.21 41.17 145.25 41.02 145.25 40.89C145.25 40.68 145.24 40.67 145.05 40.67C144.86 40.67 144.85 40.68 144.82 40.95C144.76 41.37 144.53 41.58 144.2 41.51C143.92 41.45 143.84 41.31 143.88 40.97C143.92 40.67 143.92 40.67 143.77 40.67C143.6 40.67 143.6 40.67 143.64 40.99Z" fill="#72707E" fill-opacity="1.000000" fill-rule="nonzero"/>
			<path id="Vector" d="M116.48 40.81C115.77 40.96 115.24 41.19 114.94 41.53L114.78 41.69L114.75 43.14C114.71 45.03 114.51 46.41 114.13 47.57C113.87 48.34 113.7 48.51 113.17 48.51C112.9 48.51 112.86 48.53 112.83 48.65C112.81 48.72 112.82 48.87 112.86 48.97C112.91 49.13 112.95 49.15 113.12 49.15C113.57 49.15 114.01 48.77 114.3 48.16C114.71 47.28 114.9 46.12 115.03 43.67C115.12 41.9 115.15 41.78 115.5 41.51C116 41.13 116.75 40.99 118.18 41.04C119.39 41.07 119.71 41.15 119.99 41.46C120.21 41.72 120.27 41.99 120.14 42.26C119.96 42.63 119.9 42.65 118.12 42.64C116.18 42.64 115.78 42.68 115.67 42.84C115.55 43 115.56 43.34 115.67 43.51C115.8 43.68 115.97 43.77 116.28 43.81C116.52 43.84 116.54 43.85 116.56 44.03C116.59 44.32 116.8 44.39 117.78 44.39C118.52 44.39 118.6 44.4 118.78 44.52C119.14 44.77 119.13 45.18 118.76 45.46C118.61 45.57 118.49 45.58 117.65 45.61C116.56 45.64 116.47 45.67 116.54 46.01C116.56 46.12 116.62 46.24 116.67 46.28C116.72 46.32 117.03 46.38 117.35 46.42C118.06 46.51 118.67 46.69 119.01 46.92C119.36 47.16 119.49 47.2 119.61 47.09C119.75 46.94 119.72 46.78 119.52 46.68C119.22 46.52 118.54 46.37 117.93 46.34C117.02 46.28 116.86 46.25 116.8 46.13C116.76 46.05 116.77 46 116.83 45.93C116.92 45.85 117.07 45.84 117.86 45.85C118.96 45.87 119.19 45.81 119.34 45.44C119.44 45.19 119.41 44.75 119.26 44.51C119.09 44.22 118.95 44.18 117.95 44.18C117 44.18 116.89 44.16 116.93 43.95C116.95 43.85 117.03 43.83 117.7 43.78C118.91 43.7 119.79 43.87 119.97 44.23C120.03 44.34 120.08 44.7 120.12 45.19C120.21 46.51 120.33 47.37 120.49 47.88C120.69 48.5 121.07 49.26 121.18 49.26C121.31 49.26 121.29 49.13 121.09 48.68C120.79 47.98 120.59 46.84 120.45 44.94C120.38 44 120.37 43.95 120.23 43.8C119.92 43.5 119.6 43.45 117.84 43.41C116.97 43.4 116.2 43.37 116.15 43.34C116.02 43.27 116.02 43.09 116.13 42.97C116.21 42.89 116.43 42.88 117.87 42.92C119.66 42.96 119.92 42.93 120.27 42.66C120.69 42.34 120.81 41.86 120.57 41.43C120.41 41.14 120.2 41.03 119.57 40.89C118.86 40.74 117.07 40.7 116.48 40.81Z" fill="#72707E" fill-opacity="1.000000" fill-rule="nonzero"/>
			<path id="Vector" d="M134.23 40.78C134.17 40.82 134.17 40.88 134.25 41.04C134.44 41.51 134.3 42.05 133.88 42.43C133.6 42.68 133.56 42.69 133.37 42.54C133.29 42.48 133.11 42.41 132.96 42.39C132.8 42.37 132.59 42.32 132.49 42.29C132.31 42.23 132.3 42.22 132.3 41.9L132.3 41.56L132.82 41.53C133.33 41.5 133.46 41.47 133.39 41.39C133.3 41.31 132.42 41.24 131.65 41.27C130.61 41.31 130.43 41.37 130.21 41.8C130.07 42.08 130.07 42.13 130.07 43.14C130.07 44.25 130.12 44.54 130.39 44.93C130.7 45.4 131.19 45.55 132.38 45.55C133.22 45.55 133.58 45.47 133.58 45.29C133.58 45.22 133.51 45.2 133.23 45.2C133.04 45.2 132.88 45.18 132.88 45.16C132.88 45.14 132.94 45.05 133.03 44.97L133.17 44.82L133.04 44.74C132.77 44.6 132.62 44.16 132.68 43.74L132.72 43.52L133.12 43.52C133.43 43.52 133.52 43.5 133.52 43.44C133.52 43.26 133.28 43.17 132.78 43.17L132.3 43.17L132.3 42.76C132.3 42.54 132.32 42.36 132.35 42.36C132.37 42.36 132.56 42.45 132.76 42.56C132.97 42.67 133.22 42.76 133.33 42.76C133.46 42.76 133.54 42.8 133.58 42.88C133.64 42.99 133.65 42.99 133.82 42.91C134.27 42.67 134.63 42.12 134.71 41.55L134.75 41.25L134.99 41.25C135.82 41.22 136.22 41.32 136.29 41.59C136.36 41.87 136.28 41.91 135.46 42.04C135.18 42.08 134.8 42.39 134.8 42.56C134.8 42.76 135.01 42.86 135.62 42.94C136.33 43.03 136.7 43.15 136.9 43.35C137.07 43.52 137.08 43.52 137.16 43.42C137.2 43.37 137.23 43.25 137.23 43.17C137.23 42.92 137.02 42.86 136.17 42.84C135.44 42.83 135.26 42.79 135.26 42.62C135.26 42.58 135.31 42.5 135.38 42.44C135.48 42.35 135.63 42.32 136.02 42.3C136.31 42.28 136.57 42.23 136.6 42.2C136.72 42.08 136.77 41.71 136.69 41.51C136.56 41.21 136.24 41.11 135.39 41.1C134.73 41.1 134.67 41.09 134.59 40.97C134.48 40.81 134.31 40.72 134.23 40.78ZM131.78 41.86C131.78 42.12 131.75 42.24 131.71 42.24C131.64 42.25 130.88 42.53 130.55 42.67C130.48 42.7 130.45 42.66 130.42 42.47C130.37 42.13 130.47 41.85 130.69 41.73C130.97 41.59 131.31 41.49 131.56 41.49L131.78 41.49L131.78 41.86ZM131.75 43.08C131.74 43.12 131.58 43.17 131.4 43.2C130.95 43.25 130.49 43.4 130.53 43.46C130.55 43.49 130.8 43.52 131.09 43.52L131.6 43.52L131.6 43.67C131.6 43.76 131.49 44.04 131.34 44.31C131.14 44.67 131.08 44.84 131.08 45.05C131.08 45.19 131.06 45.32 131.03 45.32C130.97 45.32 130.59 44.49 130.51 44.18C130.47 44.06 130.44 43.71 130.44 43.42C130.44 42.86 130.47 42.81 130.74 42.86C130.84 42.88 131 42.81 131.32 42.59L131.75 42.3L131.77 42.66C131.78 42.85 131.77 43.04 131.75 43.08ZM132.38 44.07L132.34 44.62L132.56 44.82C132.9 45.15 132.83 45.2 132.01 45.2C131.63 45.2 131.31 45.18 131.31 45.15C131.31 45.13 131.38 45.04 131.46 44.96C131.74 44.7 131.79 44.54 131.75 44L131.71 43.52L132.06 43.52L132.42 43.52L132.38 44.07Z" fill="#72707E" fill-opacity="1.000000" fill-rule="nonzero"/>
			<path id="Vector" d="M141.31 40.8C141.28 40.84 141.23 41 141.21 41.15C141.17 41.43 141.03 41.61 140.8 41.68C140.59 41.75 140.49 41.58 140.49 41.19C140.49 40.83 140.4 40.73 140.2 40.86C140.12 40.91 140.1 40.99 140.1 41.22C140.1 41.4 140.07 41.57 140.03 41.62C139.92 41.76 139.61 41.74 139.38 41.58C139.17 41.44 139.12 41.36 139.06 41.12C139.05 41.03 138.99 40.95 138.94 40.92C138.8 40.87 138.57 41.13 138.57 41.33C138.57 41.7 138.77 41.8 139.53 41.8L140.11 41.81L140.15 42.05C140.2 42.32 140.29 42.53 140.37 42.53C140.43 42.53 140.53 42.21 140.56 41.95C140.57 41.82 140.61 41.8 140.86 41.77C141.22 41.72 141.54 41.6 141.7 41.43C141.84 41.29 141.86 40.95 141.73 40.82C141.62 40.71 141.39 40.7 141.31 40.8Z" fill="#72707E" fill-opacity="1.000000" fill-rule="nonzero"/>
			<path id="Vector" d="M123.85 40.85C123.17 40.89 122.79 41.03 122.68 41.24C122.64 41.3 122.65 41.66 122.68 42.12C122.74 43.04 122.69 46.75 122.61 47.81C122.54 48.63 122.4 49.63 122.29 50.19C122.21 50.54 122.22 50.58 122.3 50.64C122.48 50.78 122.6 50.73 122.66 50.5C122.76 50.14 122.94 48.95 123.02 48.25C123.05 47.89 123.09 46.28 123.11 44.66L123.14 41.71L123.28 41.55C123.36 41.45 123.52 41.36 123.66 41.32C124.08 41.22 126.11 41.13 126.67 41.19C127.76 41.32 128.07 41.37 128.18 41.43C128.46 41.58 128.46 41.55 128.49 44.88C128.5 46.61 128.54 48.32 128.58 48.68C128.65 49.49 128.79 50.41 128.9 50.8C128.96 51.06 128.99 51.09 129.11 51.08C129.42 51.04 129.43 50.95 129.26 50.23C128.94 48.86 128.93 48.63 128.9 44.88C128.88 42.97 128.86 41.34 128.85 41.28C128.81 41.07 128.31 40.9 127.63 40.84C126.93 40.78 124.75 40.79 123.85 40.85Z" fill="#72707E" fill-opacity="1.000000" fill-rule="nonzero"/>
			<path id="Vector" d="M117.5 41.69C116.73 41.79 116.02 41.93 115.88 42C115.79 42.05 115.79 42.06 115.88 42.09C115.93 42.12 116.75 42.11 117.71 42.08C119.27 42.04 119.44 42.03 119.46 41.94C119.51 41.66 118.62 41.55 117.5 41.69Z" fill="#72707E" fill-opacity="1.000000" fill-rule="nonzero"/>
			<path id="Vector" d="M125.65 41.91C125.64 42.09 125.56 42.32 125.49 42.42C125.34 42.64 124.95 42.86 124.6 42.91C124.17 42.97 124.13 42.94 124.08 42.41C124.06 42.16 124.02 41.95 123.99 41.95C123.97 41.95 123.91 42 123.85 42.05C123.76 42.14 123.76 42.26 123.79 43.4C123.81 44.09 123.85 44.75 123.88 44.86C123.96 45.14 124.37 45.5 124.81 45.68C125.08 45.79 125.24 45.81 125.8 45.81C126.4 45.81 126.5 45.79 126.8 45.65C127.28 45.43 127.47 45.28 127.59 45.03C127.75 44.73 127.84 43.82 127.82 42.82L127.8 41.98L127.64 41.96L127.48 41.94L127.48 42.4C127.48 42.91 127.46 42.94 127.1 42.94C126.51 42.94 125.97 42.41 125.97 41.83C125.97 41.63 125.96 41.6 125.83 41.6C125.71 41.6 125.69 41.64 125.65 41.91ZM125.94 42.71C126.08 42.98 126.56 43.18 127.08 43.19L127.48 43.19L127.48 43.41L127.48 43.62L126.72 43.66C126.29 43.67 125.54 43.7 125.04 43.7L124.14 43.71L124.14 43.48L124.14 43.26L124.59 43.22C125.1 43.18 125.57 42.96 125.73 42.69C125.78 42.61 125.83 42.53 125.84 42.53C125.84 42.53 125.9 42.61 125.94 42.71ZM127.41 44.23L127.39 44.53L125.83 44.55C124.97 44.56 124.25 44.54 124.23 44.52C124.2 44.49 124.17 44.35 124.14 44.2L124.1 43.92L125.76 43.92L127.43 43.92L127.41 44.23ZM127.18 44.92C127.1 45.03 126.88 45.19 126.69 45.29C126.39 45.44 126.29 45.46 125.83 45.46C125.17 45.46 124.79 45.34 124.42 45L124.14 44.74L125.73 44.74L127.33 44.74L127.18 44.92Z" fill="#72707E" fill-opacity="1.000000" fill-rule="nonzero"/>
			<path id="Vector" d="M141.76 41.98C141.7 42.05 141.7 42.11 141.78 42.27L141.87 42.47L141.44 42.57C141.09 42.64 140.96 42.7 140.81 42.85C140.58 43.07 140.54 43.24 140.54 43.91C140.54 44.79 140.77 45.19 141.37 45.36C141.78 45.47 141.82 45.54 141.82 46.14L141.82 46.54L141.64 46.54C141.36 46.54 140.48 46.37 140.19 46.27C139.77 46.12 139.76 46.09 140.02 45.8C140.27 45.54 140.33 45.37 140.3 45.11C140.28 44.9 139.99 44.69 139.66 44.64C139.46 44.61 139.44 44.59 139.44 44.44C139.44 44.3 139.48 44.26 139.76 44.13C140.12 43.97 140.29 43.71 140.22 43.41C140.15 43.13 140 43.03 139.49 42.91C139.34 42.88 139.33 42.86 139.34 42.57C139.35 42.27 139.35 42.27 139.16 42.25C139.01 42.23 138.96 42.26 138.92 42.37C138.89 42.45 138.9 42.55 138.94 42.63C139.02 42.81 138.95 42.94 138.76 42.94C138.53 42.94 138.14 43.13 138.02 43.29C137.9 43.47 137.91 43.76 138.03 43.92C138.09 43.99 138.28 44.1 138.45 44.16C138.75 44.25 138.77 44.28 138.79 44.46C138.81 44.66 138.8 44.67 138.53 44.73C138.2 44.82 137.93 45.07 137.93 45.3C137.93 45.49 138.11 45.8 138.27 45.89C138.34 45.93 138.55 45.99 138.74 46.04C138.94 46.08 139.14 46.16 139.2 46.21C139.52 46.49 140.39 46.74 141.28 46.8L141.83 46.84L141.81 47.05C141.79 47.3 141.67 47.37 141.17 47.46C140.76 47.54 140.3 47.77 140.02 48.04C139.77 48.28 139.49 48.82 139.35 49.35C139.25 49.75 139.24 50.44 139.32 50.61C139.4 50.74 139.68 50.76 139.79 50.63C139.82 50.58 139.89 50.26 139.94 49.92C140.12 48.56 140.51 47.89 141.32 47.59C141.87 47.38 141.84 47.35 141.79 48.2C141.76 48.61 141.73 49.3 141.73 49.73C141.73 50.41 141.75 50.55 141.87 50.79C141.94 50.95 142.02 51.06 142.06 51.05C142.2 51.01 142.24 50.55 142.21 49.01L142.19 47.45L142.48 47.49C143.09 47.56 143.58 47.92 143.88 48.5C144.07 48.89 144.14 49.15 144.2 49.85C144.27 50.54 144.33 50.72 144.53 50.72C144.8 50.72 144.86 50.57 144.82 49.97C144.78 49.19 144.63 48.77 144.19 48.18C143.76 47.6 143.56 47.49 142.74 47.35L142.17 47.26L142.17 47.05L142.17 46.84L142.7 46.77C143.63 46.64 144.15 46.44 144.6 46.02C144.76 45.87 144.93 45.77 145.07 45.75C145.69 45.65 145.9 45.47 145.98 44.97C146.01 44.77 146 44.72 145.84 44.56C145.7 44.43 145.61 44.39 145.46 44.39C145.3 44.39 145.22 44.35 145.15 44.24C145.04 44.06 145.08 44 145.34 43.95C145.75 43.88 146.12 43.53 146.12 43.23C146.12 42.91 145.88 42.75 145.32 42.68L145.02 42.63L145 42.34C144.98 42.06 144.97 42.04 144.84 42.04C144.71 42.04 144.69 42.06 144.68 42.34C144.67 42.53 144.63 42.65 144.59 42.65C144.4 42.65 144.07 42.79 143.92 42.93C143.77 43.07 143.74 43.14 143.74 43.37C143.74 43.75 143.92 43.92 144.32 43.92C144.6 43.92 144.61 43.93 144.61 44.09C144.61 44.28 144.43 44.45 144.25 44.45C143.93 44.45 143.66 44.79 143.69 45.16C143.71 45.32 143.75 45.36 144.05 45.51L144.39 45.68L144.23 45.84C143.88 46.2 143.02 46.54 142.44 46.54L142.15 46.54L142.19 46.21C142.27 45.5 142.32 45.42 142.66 45.26C143.31 44.99 143.43 44.71 143.34 43.75C143.31 43.4 143.25 43.05 143.2 42.95C143.11 42.76 142.64 42.49 142.3 42.44C142.06 42.4 142 42.34 142.11 42.27C142.23 42.2 142.17 42.01 142.02 41.95C141.83 41.88 141.85 41.87 141.76 41.98ZM145.33 42.79C145.72 42.95 145.72 43.42 145.33 43.67C144.87 43.96 144.12 43.6 144.24 43.15C144.32 42.78 144.89 42.6 145.33 42.79ZM142.42 42.9C142.56 42.99 142.66 43.24 142.7 43.6C142.73 43.82 142.63 43.85 141.8 43.86L141.16 43.87L141.2 43.58C141.25 43.17 141.35 42.98 141.59 42.86C141.83 42.74 142.21 42.76 142.42 42.9ZM139.59 43.08C139.74 43.15 139.79 43.2 139.82 43.38C139.9 43.78 139.56 44.1 139.05 44.1C138.84 44.1 138.76 44.06 138.62 43.93C138.36 43.66 138.4 43.17 138.7 43.05C138.9 42.97 139.37 42.99 139.59 43.08ZM142.77 44.46C142.77 44.83 142.75 44.88 142.58 45.04C142.41 45.21 142.37 45.23 142.02 45.23C141.68 45.23 141.64 45.21 141.47 45.06C141.35 44.93 141.28 44.78 141.23 44.56C141.12 44.03 141.12 44.03 142.01 44.05L142.78 44.07L142.77 44.46ZM145.35 44.7C145.52 44.85 145.51 45.09 145.33 45.31C145.15 45.52 144.86 45.59 144.55 45.5C144.24 45.4 144.07 45.19 144.15 44.97C144.22 44.77 144.31 44.69 144.59 44.59C144.86 44.49 145.18 44.53 145.35 44.7ZM139.53 44.91C139.7 44.98 139.79 45.11 139.8 45.31C139.81 45.54 139.71 45.65 139.43 45.73C138.96 45.85 138.45 45.64 138.45 45.32C138.45 44.91 138.99 44.71 139.53 44.91Z" fill="#72707E" fill-opacity="1.000000" fill-rule="nonzero"/>
			<path id="Vector" d="M134.1 43.46C134.1 43.53 134.34 43.56 135.03 43.6C135.34 43.61 135.7 43.66 135.84 43.7C136.16 43.79 136.39 44.06 136.34 44.27C136.31 44.35 136.29 44.42 136.28 44.43C136.27 44.45 136.06 44.41 135.81 44.36C135.55 44.3 135.04 44.24 134.67 44.23C134.07 44.2 133.98 44.21 133.98 44.29C133.98 44.38 134.1 44.41 135.05 44.48C135.77 44.53 136.14 44.73 136.04 45.02C135.98 45.23 135.71 45.28 134.79 45.24C134.08 45.21 133.92 45.22 133.92 45.29C133.92 45.42 134.09 45.47 134.58 45.51C135.17 45.56 135.8 45.47 136.12 45.29C136.27 45.21 136.38 45.14 136.39 45.14C136.4 45.14 136.44 46.23 136.48 47.56C136.55 49.73 136.55 50.01 136.47 50.23L136.38 50.48L136.54 50.48C136.76 50.48 136.9 50.27 136.9 49.94C136.91 49.81 136.88 48.59 136.84 47.24C136.8 45.89 136.78 44.64 136.8 44.48C136.83 44.2 136.83 44.17 136.63 43.94C136.51 43.8 136.34 43.65 136.25 43.6C135.96 43.45 134.1 43.33 134.1 43.46Z" fill="#72707E" fill-opacity="1.000000" fill-rule="nonzero"/>
			<path id="Vector" d="M115.64 44.09C115.64 44.12 115.67 44.17 115.72 44.21C115.77 44.25 115.83 44.41 115.87 44.57C115.93 44.89 115.91 45.17 115.67 46.45C115.49 47.42 115.48 47.85 115.64 48.16C115.79 48.46 115.79 48.49 115.58 48.53C115.47 48.55 115.28 48.68 115.15 48.82C114.61 49.36 114.8 50 115.64 50.43C115.99 50.61 116.67 50.62 116.99 50.45L117.2 50.34L116.7 50.34C115.67 50.33 115.1 49.84 115.45 49.26C115.56 49.06 115.64 49.04 115.64 49.21C115.64 49.57 117.54 49.91 117.65 49.57C117.67 49.53 117.5 49.5 117.19 49.47C116.49 49.42 116.06 49.32 115.9 49.19C115.63 48.98 115.74 48.84 116.25 48.77C116.7 48.71 117.76 48.98 118.09 49.22C118.43 49.49 118.62 49.86 118.58 50.2C118.55 50.56 118.43 50.74 118.01 51.01C117.48 51.34 117.32 51.64 117.55 51.88C117.93 52.25 118.53 51.71 118.8 50.75C118.93 50.32 118.9 49.62 118.74 49.3C118.54 48.88 118 48.63 116.97 48.48C116.22 48.38 116.11 48.32 116.1 48.09C116.1 47.96 116.39 47.87 116.8 47.87C117.56 47.87 118.45 48.31 119.21 49.07C119.6 49.45 119.67 49.5 119.84 49.49C119.98 49.47 120.03 49.44 120.04 49.33C120.07 49.13 119.41 48.53 118.84 48.23C118.3 47.95 117.69 47.79 116.77 47.69C116.16 47.63 116.09 47.6 116 47.48C115.92 47.35 115.92 47.33 116 47.25C116.23 47.02 117.26 47.1 118.2 47.41C118.88 47.63 119.26 47.83 119.6 48.15C119.83 48.36 119.91 48.41 119.98 48.35C120.03 48.32 120.08 48.23 120.08 48.16C120.08 48.05 119.99 47.96 119.69 47.78C118.99 47.35 117.89 47.07 116.49 46.97L115.99 46.93L116.02 46.66C116.09 46.07 116.16 45.34 116.16 45.24C116.16 45.13 116.2 45.13 117.09 45.17L118.02 45.21L118.02 45.07C118.02 44.94 118.02 44.94 117.23 44.96C116.17 44.99 116.18 44.99 116.15 44.58C116.13 44.33 116.09 44.23 115.99 44.14C115.85 44.03 115.64 44 115.64 44.09Z" fill="#72707E" fill-opacity="1.000000" fill-rule="nonzero"/>
			<path id="Vector" d="M132.79 46.19C131.15 46.24 130.85 46.26 130.67 46.34L130.47 46.45L131.31 46.48L132.14 46.51L132.25 46.82C132.31 46.99 132.35 47.15 132.34 47.16C132.32 47.17 132.14 47.22 131.94 47.26C131.73 47.3 131.45 47.4 131.3 47.46C131.07 47.57 131.03 47.62 130.97 47.84C130.9 48.13 130.89 49.25 130.96 49.72C131.01 50.08 131.21 50.32 131.6 50.5C131.83 50.6 131.98 50.61 133.21 50.61C135.12 50.61 135.34 50.55 135.5 49.94C135.68 49.28 135.66 48.09 135.46 47.67C135.35 47.43 135.27 47.39 134.38 47.2C134.22 47.17 134.22 47.16 134.22 46.8L134.22 46.43L134.98 46.44C135.77 46.45 135.95 46.4 135.63 46.25C135.39 46.15 134.92 46.14 132.79 46.19ZM133.84 46.78C133.82 46.98 133.79 47.16 133.77 47.19C133.76 47.21 133.5 47.23 133.2 47.23C132.59 47.23 132.63 47.26 132.56 46.72L132.52 46.42L133.2 46.42L133.89 46.42L133.84 46.78ZM132.35 47.71C132.41 47.85 132.4 47.91 132.31 48.11C132.2 48.39 131.81 48.77 131.56 48.86C131.33 48.95 131.22 48.77 131.25 48.34C131.28 48.01 131.56 47.69 131.89 47.59C132.18 47.51 132.26 47.53 132.35 47.71ZM133.82 47.9C133.83 48.09 133.89 48.33 133.94 48.43C134.05 48.63 134.44 49.01 134.79 49.24C134.99 49.37 135.03 49.43 135.03 49.6C135.03 49.75 134.98 49.84 134.83 50C134.72 50.11 134.59 50.19 134.55 50.19C134.49 50.19 134.37 50.02 134.25 49.76C133.98 49.21 133.59 48.8 133.33 48.8C133.23 48.8 133.06 48.85 132.96 48.92C132.77 49.03 132.35 49.56 132.1 49.97C131.96 50.22 131.95 50.23 131.73 50.11C131.39 49.94 131.35 49.46 131.65 49.3C131.97 49.13 132.41 48.74 132.56 48.49C132.64 48.35 132.72 48.11 132.74 47.95C132.79 47.5 132.77 47.52 133.3 47.53L133.78 47.55L133.82 47.9ZM134.79 47.66C135.01 47.76 135.14 47.99 135.18 48.35C135.23 48.81 135.2 48.86 134.95 48.79C134.67 48.7 134.34 48.42 134.24 48.18C134.16 47.99 134.13 47.63 134.19 47.56C134.24 47.52 134.62 47.58 134.79 47.66ZM133.6 49.15C133.76 49.28 134.36 50.13 134.31 50.17C134.3 50.18 134.01 50.22 133.66 50.26C133 50.33 132.36 50.26 132.36 50.12C132.36 50.01 132.71 49.48 132.93 49.25C133.17 49 133.37 48.97 133.6 49.15Z" fill="#72707E" fill-opacity="1.000000" fill-rule="nonzero"/>
			<path id="Vector" d="M123.84 46.46C123.8 46.47 123.77 46.55 123.77 46.63L123.77 46.77L124.61 46.77L125.45 46.77L125.45 47.14L125.45 47.51L125 47.55C124.76 47.56 124.36 47.58 124.11 47.58C123.77 47.58 123.66 47.6 123.63 47.67C123.57 47.82 123.8 47.87 124.63 47.87L125.45 47.87L125.45 48.59L125.45 49.31L124.47 49.35C123.53 49.39 123.49 49.4 123.45 49.51C123.44 49.58 123.42 49.66 123.42 49.68C123.42 49.71 124.47 49.73 125.76 49.73C128.25 49.73 128.22 49.73 128.12 49.46C128.06 49.32 127.7 49.26 126.79 49.26C126.02 49.26 126.02 49.27 125.98 48.46L125.95 47.81L126.97 47.82L127.98 47.84L127.98 47.7C127.98 47.56 127.96 47.55 127.48 47.51C127.21 47.49 126.76 47.48 126.48 47.47L125.97 47.46L125.97 47.12C125.97 46.72 125.98 46.71 126.76 46.71C127.45 46.71 127.89 46.65 127.89 46.56C127.89 46.52 127.75 46.48 127.53 46.45C127.12 46.41 123.95 46.41 123.84 46.46Z" fill="#72707E" fill-opacity="1.000000" fill-rule="nonzero"/>
			<path id="Union" d="M121 24.5C115.5 22 114.667 17.1667 114.5 15C114.5 15 112.5 16.5 112.5 22C112.5 27.5 115.781 30.0856 119 32.5C122.219 34.9144 126.21 34.9352 128.5 37.5C128.5 36.2768 125.126 34.134 122.565 32.5078C121.985 32.1399 121.448 31.7984 121 31.5C118 29.5 117.5 24 118 25.5C118.5 27 120 29 125.5 31C129.541 32.4694 130.073 35.558 130.27 36.6969C130.34 37.1083 130.367 37.2653 130.5 37C130.9 36.2 130.667 34.6667 130.5 34C130.01 32.0399 127 29.5 126.5 26C126.102 23.2139 126.655 21.3782 127.149 19.7365C127.275 19.3158 127.398 18.9079 127.5 18.5C128.5 14 124.783 10.1599 125 10.5C125.218 10.8401 125.914 12.3431 125.5 14C125.434 14.2642 125.333 14.5981 125.215 14.9903C124.436 17.5676 122.896 22.6604 125.5 27C122.5 24.5 121.5 14.5 121 9.5C120.6 5.5 117.833 1.5 116.5 0C118.532 4.51568 118.117 8.72549 117.742 12.5374C117.285 17.1669 116.887 21.2094 121 24.5ZM131.757 17.5C131.757 17.1667 131.86 15.9 132.271 15.5C133.12 14.6747 133.3 14 133.3 13.5C133.3 13.1 132.957 12 132.786 11.5C132.786 12.1667 132.786 12.5001 131.757 14C130.986 15.125 131.371 16.25 131.612 16.9531C131.693 17.1875 131.757 17.375 131.757 17.5ZM140.5 21C141.7 16.2 138.667 15.3334 137 15.5C133.5 15.5 131.5 18.5 130 20C130.833 18.8333 133.2 15.7 136 14.5C139.5 13 143 14.5 144.5 16C146 17.5 147 21.5 145.5 24.5C144.3 26.9 140 30.8333 138 32.5L131.5 37.5C134 30.5 131.5 28.5 129.5 27C134 28 139 27 140.5 21Z" clip-rule="evenodd" fill="#72707E" fill-opacity="1.000000" fill-rule="evenodd"/>
		</g>
	</g>
</svg>
