<svg width="20.000000" height="20.000000" viewBox="0 0 20 20" fill="none" xmlns="http://www.w3.org/2000/svg" xmlns:xlink="http://www.w3.org/1999/xlink">
	<desc>
			Created with Pixso.
	</desc>
	<defs/>
	<path id="Vector" d="M16.69 16.14C8.59 20 3.57 16.77 0.35 14.81C0.15 14.69 -0.18 14.84 0.11 15.18C1.18 16.48 4.69 19.61 9.28 19.61C13.86 19.61 16.59 17.11 16.93 16.67C17.27 16.24 17.03 16 16.69 16.14L16.69 16.14ZM18.96 14.89C18.75 14.6 17.64 14.55 16.95 14.64C16.25 14.72 15.21 15.14 15.3 15.4C15.34 15.5 15.44 15.45 15.92 15.41C16.4 15.36 17.74 15.19 18.02 15.56C18.3 15.93 17.59 17.68 17.46 17.97C17.34 18.25 17.51 18.32 17.74 18.13C17.98 17.94 18.4 17.46 18.68 16.77C18.96 16.07 19.13 15.1 18.96 14.89Z" fill="#FF9900" fill-opacity="1.000000" fill-rule="nonzero"/>
	<path id="Vector" d="M11.25 8.28C11.25 9.29 11.27 10.13 10.76 11.03C10.35 11.76 9.7 12.21 8.97 12.21C7.97 12.21 7.39 11.45 7.39 10.33C7.39 8.12 9.37 7.72 11.25 7.72L11.25 8.28ZM13.86 14.61C13.69 14.76 13.44 14.77 13.25 14.67C12.39 13.95 12.24 13.62 11.76 12.94C10.34 14.39 9.33 14.82 7.48 14.82C5.3 14.82 3.6 13.48 3.6 10.78C3.6 8.67 4.74 7.24 6.37 6.54C7.78 5.92 9.74 5.81 11.25 5.64L11.25 5.3C11.25 4.68 11.29 3.96 10.93 3.42C10.62 2.94 10.01 2.75 9.48 2.75C8.49 2.75 7.6 3.25 7.39 4.31C7.34 4.54 7.17 4.77 6.94 4.78L4.42 4.51C4.21 4.46 3.98 4.29 4.03 3.97C4.61 0.91 7.37 0 9.84 0C11.1 0 12.75 0.33 13.75 1.29C15.01 2.47 14.89 4.04 14.89 5.75L14.89 9.79C14.89 11.01 15.39 11.54 15.87 12.2C16.03 12.43 16.07 12.71 15.86 12.89C15.33 13.33 14.39 14.15 13.87 14.61L13.86 14.61Z" fill="#000000" fill-opacity="1.000000" fill-rule="evenodd"/>
	<path id="Vector" d="M16.69 16.14C8.59 20 3.57 16.77 0.35 14.81C0.15 14.69 -0.18 14.84 0.11 15.18C1.18 16.48 4.69 19.61 9.28 19.61C13.86 19.61 16.59 17.11 16.93 16.67C17.27 16.24 17.03 16 16.69 16.14L16.69 16.14ZM18.96 14.89C18.75 14.6 17.64 14.55 16.95 14.64C16.25 14.72 15.21 15.14 15.3 15.4C15.34 15.5 15.44 15.45 15.92 15.41C16.4 15.36 17.74 15.19 18.02 15.56C18.3 15.93 17.59 17.68 17.46 17.97C17.34 18.25 17.51 18.32 17.74 18.13C17.98 17.94 18.4 17.46 18.68 16.77C18.96 16.07 19.13 15.1 18.96 14.89Z" fill="#FFCB76" fill-opacity="1.000000" fill-rule="nonzero"/>
	<path id="Vector" d="M11.25 8.28C11.25 9.29 11.27 10.13 10.76 11.03C10.35 11.76 9.7 12.21 8.97 12.21C7.97 12.21 7.39 11.45 7.39 10.33C7.39 8.12 9.37 7.72 11.25 7.72L11.25 8.28ZM13.86 14.61C13.69 14.76 13.44 14.77 13.25 14.67C12.39 13.95 12.24 13.62 11.76 12.94C10.34 14.39 9.33 14.82 7.48 14.82C5.3 14.82 3.6 13.48 3.6 10.78C3.6 8.67 4.74 7.24 6.37 6.54C7.78 5.92 9.74 5.81 11.25 5.64L11.25 5.3C11.25 4.68 11.29 3.96 10.93 3.42C10.62 2.94 10.01 2.75 9.48 2.75C8.49 2.75 7.6 3.25 7.39 4.31C7.34 4.54 7.17 4.77 6.94 4.78L4.42 4.51C4.21 4.46 3.98 4.29 4.03 3.97C4.61 0.91 7.37 0 9.84 0C11.1 0 12.75 0.33 13.75 1.29C15.01 2.47 14.89 4.04 14.89 5.75L14.89 9.79C14.89 11.01 15.39 11.54 15.87 12.2C16.03 12.43 16.07 12.71 15.86 12.89C15.33 13.33 14.39 14.15 13.87 14.61L13.86 14.61Z" fill="#646464" fill-opacity="1.000000" fill-rule="evenodd"/>
</svg>
