<svg width="28.000000" height="20.000000" viewBox="0 0 28 20" fill="none" xmlns="http://www.w3.org/2000/svg" xmlns:xlink="http://www.w3.org/1999/xlink">
	<desc>
			Created with Pixso.
	</desc>
	<defs/>
	<path id="Vector" d="M28 9.45C28 4.25 21.73 0 14 0C6.26 0 0 4.25 0 9.45L0 10C0 15.53 5.47 20 14 20C22.55 20 28 15.53 28 10L28 9.45Z" fill="#646464" fill-opacity="1.000000" fill-rule="nonzero"/>
	<path id="Vector" d="M27.5 9.45C27.5 14.34 21.47 18.32 14.05 18.32C6.64 18.32 0.61 14.34 0.61 9.45C0.61 4.55 6.64 0.57 14.05 0.57C21.47 0.57 27.5 4.55 27.5 9.45Z" fill="#F2E150" fill-opacity="1.000000" fill-rule="nonzero"/>
	<path id="Vector" d="M9.58 6.65C9.58 6.65 9.44 6.8 9.52 6.92C9.73 7.2 10.38 7.35 11.05 7.2C11.44 7.11 11.97 6.68 12.44 6.29C12.97 5.86 13.5 5.4 14.02 5.25C14.58 5.07 14.94 5.16 15.17 5.22C15.44 5.31 15.73 5.5 16.23 5.86C17.14 6.56 20.85 9.9 21.5 10.48C22 10.24 24.29 9.23 27.41 8.51C27.14 6.8 26.14 5.22 24.61 3.95C22.5 4.86 19.88 5.34 17.32 4.07C17.32 4.07 15.94 3.4 14.55 3.43C12.52 3.49 11.67 4.37 10.73 5.34L9.58 6.65Z" fill="#FFFFFF" fill-opacity="1.000000" fill-rule="nonzero"/>
	<path id="Vector" d="M21.35 10.85C21.32 10.82 17 6.92 16.02 6.16C15.47 5.74 15.14 5.62 14.82 5.56C14.64 5.53 14.41 5.56 14.23 5.62C13.79 5.74 13.17 6.16 12.64 6.59C12.08 7.05 11.58 7.47 11.11 7.56C10.5 7.72 9.76 7.53 9.44 7.29C9.29 7.2 9.2 7.08 9.14 6.96C9.02 6.65 9.26 6.41 9.29 6.38L10.47 5.04L10.88 4.61C10.5 4.68 10.14 4.77 9.79 4.86C9.35 4.98 8.94 5.1 8.52 5.1C8.35 5.1 7.41 4.95 7.23 4.89C6.14 4.58 5.2 4.28 3.79 3.61C2.11 4.92 0.97 6.53 0.64 8.32C0.88 8.38 1.29 8.51 1.44 8.54C5.26 9.42 6.44 10.33 6.67 10.51C6.91 10.24 7.23 10.09 7.61 10.09C8.02 10.09 8.41 10.3 8.64 10.63C8.85 10.45 9.17 10.3 9.55 10.3C9.73 10.3 9.91 10.33 10.11 10.39C10.55 10.54 10.76 10.85 10.88 11.12C11.02 11.06 11.2 11 11.41 11C11.61 11 11.82 11.06 12.05 11.15C12.76 11.45 12.88 12.18 12.82 12.73L12.97 12.73C13.82 12.73 14.5 13.43 14.5 14.31C14.5 14.58 14.44 14.83 14.32 15.04C14.55 15.16 15.11 15.47 15.64 15.41C16.05 15.34 16.2 15.22 16.26 15.13C16.29 15.07 16.35 15.01 16.29 14.95L15.2 13.7C15.2 13.7 15.02 13.52 15.08 13.46C15.14 13.4 15.26 13.49 15.35 13.55C15.91 14.04 16.55 14.74 16.55 14.74C16.55 14.74 16.61 14.83 16.85 14.89C17.05 14.92 17.44 14.89 17.7 14.68C17.76 14.61 17.85 14.55 17.88 14.49C18.14 14.13 17.85 13.76 17.85 13.76L16.58 12.3C16.58 12.3 16.41 12.12 16.47 12.06C16.52 12 16.64 12.09 16.73 12.15C17.14 12.49 17.7 13.1 18.23 13.64C18.35 13.73 18.82 14.04 19.44 13.61C19.82 13.34 19.91 13.03 19.88 12.79C19.85 12.49 19.61 12.24 19.61 12.24L17.91 10.45C17.91 10.45 17.73 10.3 17.79 10.21C17.85 10.15 17.97 10.24 18.05 10.3C18.61 10.79 20.08 12.18 20.08 12.18C20.11 12.18 20.61 12.58 21.26 12.15C21.5 12 21.64 11.79 21.64 11.51C21.67 11.12 21.35 10.85 21.35 10.85Z" fill="#FFFFFF" fill-opacity="1.000000" fill-rule="nonzero"/>
	<path id="Vector" d="M13.02 13.12C12.76 13.12 12.47 13.28 12.44 13.28C12.41 13.28 12.44 13.16 12.47 13.09C12.5 13.03 12.85 11.94 12 11.54C11.35 11.24 10.94 11.57 10.82 11.73C10.79 11.76 10.76 11.76 10.76 11.73C10.76 11.54 10.67 11 10.08 10.81C9.26 10.54 8.76 11.15 8.61 11.36C8.55 10.88 8.17 10.51 7.67 10.51C7.14 10.51 6.73 10.94 6.73 11.48C6.73 12.03 7.14 12.46 7.67 12.46C7.94 12.46 8.14 12.36 8.32 12.18L8.32 12.21C8.29 12.46 8.2 13.34 9.08 13.67C9.44 13.82 9.73 13.7 10 13.52C10.08 13.46 10.08 13.49 10.08 13.55C10.05 13.76 10.08 14.25 10.76 14.52C11.26 14.74 11.55 14.52 11.73 14.34C11.82 14.25 11.85 14.28 11.85 14.4C11.88 15.04 12.41 15.56 13.02 15.56C13.67 15.56 14.2 15.01 14.2 14.34C14.2 13.67 13.67 13.12 13.02 13.12Z" fill="#FFFFFF" fill-opacity="1.000000" fill-rule="nonzero"/>
	<path id="Vector" d="M21.52 10.39C20.2 9.21 17.14 6.44 16.29 5.8C15.82 5.44 15.5 5.22 15.2 5.16C15.08 5.13 14.91 5.07 14.67 5.07C14.47 5.07 14.23 5.1 14 5.19C13.47 5.38 12.94 5.8 12.41 6.23L12.38 6.26C11.91 6.65 11.41 7.05 11.02 7.14C10.85 7.17 10.7 7.2 10.52 7.2C10.11 7.2 9.73 7.08 9.58 6.9C9.55 6.86 9.58 6.8 9.64 6.74L10.82 5.44C11.73 4.49 12.58 3.61 14.58 3.55L14.67 3.55C15.91 3.55 17.14 4.13 17.29 4.19C18.47 4.77 19.64 5.07 20.85 5.07C22.11 5.07 23.41 4.74 24.76 4.1C24.61 3.98 24.44 3.83 24.29 3.7C23.08 4.25 21.97 4.49 20.85 4.49C19.73 4.49 18.61 4.22 17.52 3.67C17.47 3.64 16.11 2.97 14.67 2.97L14.55 2.97C12.88 3 11.94 3.61 11.32 4.16C10.7 4.16 10.17 4.34 9.7 4.46C9.29 4.59 8.91 4.68 8.55 4.68L8.11 4.68C7.7 4.68 5.64 4.16 4.02 3.49C3.85 3.61 3.7 3.73 3.52 3.86C5.23 4.59 7.32 5.13 7.97 5.19C8.14 5.19 8.35 5.22 8.55 5.22C9 5.22 9.41 5.1 9.85 4.98C10.11 4.92 10.38 4.83 10.64 4.77L10.41 5.01L9.23 6.35C9.14 6.44 8.94 6.71 9.05 7.02C9.11 7.14 9.23 7.26 9.38 7.38C9.67 7.56 10.17 7.72 10.64 7.72C10.82 7.72 11 7.69 11.14 7.66C11.64 7.53 12.17 7.11 12.7 6.65C13.14 6.29 13.76 5.83 14.23 5.68C14.38 5.65 14.52 5.62 14.67 5.62L14.79 5.62C15.11 5.65 15.41 5.77 15.97 6.2C16.94 6.96 21.26 10.85 21.29 10.88C21.29 10.88 21.55 11.12 21.55 11.55C21.55 11.76 21.41 11.97 21.2 12.12C21.02 12.24 20.82 12.31 20.64 12.31C20.35 12.31 20.14 12.15 20.14 12.15C20.14 12.15 18.64 10.76 18.11 10.27C18.02 10.18 17.94 10.12 17.85 10.12C17.79 10.12 17.76 10.15 17.73 10.18C17.64 10.3 17.73 10.45 17.85 10.54L19.58 12.34C19.58 12.34 19.79 12.55 19.82 12.82C19.82 13.13 19.7 13.37 19.41 13.55C19.2 13.7 19 13.76 18.79 13.76C18.52 13.76 18.35 13.64 18.29 13.61L18.02 13.37C17.58 12.91 17.11 12.43 16.76 12.15C16.67 12.09 16.58 12 16.5 12C16.47 12 16.41 12 16.38 12.06C16.35 12.09 16.32 12.18 16.41 12.34C16.44 12.4 16.5 12.43 16.5 12.43L17.76 13.89C17.76 13.89 18.02 14.22 17.79 14.49L17.73 14.55L17.61 14.68C17.41 14.86 17.11 14.89 17 14.89L16.82 14.89C16.7 14.86 16.61 14.83 16.55 14.77C16.5 14.68 15.85 14.04 15.32 13.58C15.26 13.52 15.17 13.46 15.08 13.46C15.05 13.46 15 13.49 14.97 13.52C14.88 13.64 15.02 13.83 15.08 13.89L16.17 15.1C16.17 15.1 16.17 15.13 16.14 15.19C16.11 15.25 15.97 15.38 15.58 15.44L15.44 15.44C15.02 15.44 14.61 15.22 14.38 15.1C14.47 14.89 14.52 14.65 14.52 14.4C14.52 13.49 13.82 12.76 12.94 12.76L12.88 12.76C12.91 12.34 12.85 11.55 12.05 11.21C11.82 11.12 11.61 11.06 11.38 11.06C11.2 11.06 11.05 11.09 10.88 11.15C10.7 10.82 10.44 10.57 10.08 10.45C9.88 10.39 9.7 10.36 9.5 10.36C9.17 10.36 8.88 10.45 8.61 10.66C8.48 10.5 8.32 10.37 8.14 10.28C7.96 10.19 7.76 10.15 7.55 10.15C7.2 10.15 6.85 10.3 6.61 10.54C6.29 10.27 4.97 9.42 1.41 8.57C1.23 8.54 0.85 8.41 0.61 8.32C0.58 8.51 0.55 8.72 0.52 8.93C0.52 8.93 1.17 9.08 1.32 9.11C4.94 9.93 6.14 10.82 6.35 10.97C6.29 11.15 6.26 11.33 6.26 11.52C6.26 12.31 6.88 12.91 7.61 12.91C7.7 12.91 7.79 12.91 7.88 12.88C8 13.46 8.35 13.89 8.91 14.1C9.08 14.16 9.23 14.19 9.38 14.19C9.47 14.19 9.58 14.19 9.7 14.16C9.79 14.43 10.02 14.77 10.55 14.98C10.73 15.07 10.91 15.1 11.08 15.1C11.23 15.1 11.38 15.07 11.5 15.01C11.73 15.62 12.32 16.04 12.97 16.04C13.41 16.04 13.82 15.86 14.11 15.53C14.38 15.68 14.91 15.95 15.47 15.95L15.67 15.95C16.23 15.89 16.47 15.65 16.58 15.5C16.61 15.47 16.61 15.44 16.64 15.41C16.76 15.44 16.91 15.47 17.08 15.47C17.38 15.47 17.67 15.38 17.97 15.13C18.26 14.92 18.47 14.62 18.47 14.34C18.55 14.37 18.67 14.37 18.76 14.37C19.05 14.37 19.38 14.28 19.67 14.07C20.23 13.7 20.32 13.19 20.32 12.88C20.41 12.91 20.52 12.91 20.61 12.91C20.91 12.91 21.2 12.82 21.47 12.64C21.82 12.4 22.02 12.06 22.05 11.67C22.08 11.39 22 11.12 21.88 10.88C22.82 10.45 24.94 9.66 27.47 9.05C27.47 8.84 27.44 8.66 27.38 8.45C24.35 9.11 22.08 10.12 21.52 10.39ZM13.02 15.47C12.44 15.47 11.97 14.98 11.94 14.37C11.94 14.31 11.94 14.19 11.82 14.19C11.76 14.19 11.73 14.22 11.67 14.25C11.55 14.37 11.38 14.49 11.14 14.49C11.02 14.49 10.91 14.46 10.79 14.4C10.17 14.13 10.14 13.7 10.17 13.52C10.17 13.46 10.17 13.43 10.14 13.4L10.11 13.37L10.08 13.37C10.05 13.37 10.02 13.37 9.97 13.43C9.79 13.55 9.61 13.61 9.44 13.61C9.35 13.61 9.23 13.58 9.14 13.55C8.32 13.22 8.38 12.43 8.44 12.18C8.44 12.12 8.44 12.09 8.41 12.06L8.35 12L8.29 12.06C8.11 12.21 7.91 12.31 7.7 12.31C7.23 12.31 6.85 11.91 6.85 11.42C6.85 10.94 7.23 10.54 7.7 10.54C8.11 10.54 8.5 10.88 8.55 11.3L8.58 11.55L8.7 11.33C8.7 11.3 9.05 10.76 9.7 10.79C9.82 10.79 9.94 10.82 10.08 10.85C10.58 11 10.67 11.48 10.67 11.67C10.67 11.79 10.76 11.79 10.76 11.79C10.79 11.79 10.85 11.76 10.85 11.73C10.94 11.64 11.14 11.45 11.47 11.45C11.61 11.45 11.76 11.48 11.94 11.58C12.73 11.94 12.38 12.97 12.38 13C12.32 13.19 12.29 13.25 12.38 13.31L12.44 13.31C12.47 13.31 12.52 13.31 12.58 13.28C12.7 13.25 12.85 13.19 13 13.19C13.58 13.19 14.08 13.7 14.08 14.31C14.11 14.98 13.61 15.47 13.02 15.47Z" fill="#6941C6" fill-opacity="1.000000" fill-rule="nonzero"/>
</svg>
